<?xml version="1.0" standalone="no"?>
<!DOCTYPE svg PUBLIC "-//W3C//DTD SVG 20010904//EN"
 "http://www.w3.org/TR/2001/REC-SVG-20010904/DTD/svg10.dtd">
<svg version="1.0" xmlns="http://www.w3.org/2000/svg"
 width="1275.000000pt" height="1651.000000pt" viewBox="0 0 1275.000000 1651.000000"
 preserveAspectRatio="xMidYMid meet">
<metadata>
Created by potrace 1.15, written by Peter Selinger 2001-2017
</metadata>
<g transform="translate(0.000000,1651.000000) scale(0.100000,-0.100000)"
fill="#000000" stroke="none">
<path d="M2070 14215 c0 -89 17 -119 22 -39 2 32 9 51 21 58 24 15 37 -6 37
-61 0 -24 5 -43 10 -43 13 0 13 86 0 111 -12 21 -40 25 -58 7 -9 -9 -12 -5
-12 20 0 18 -4 32 -10 32 -6 0 -10 -35 -10 -85z"/>
<path d="M1960 14275 c0 -8 -7 -15 -15 -15 -8 0 -15 -4 -15 -10 0 -5 7 -10 15
-10 11 0 15 -11 15 -43 0 -24 5 -48 12 -55 15 -15 58 -16 58 -2 0 6 -11 10
-25 10 -23 0 -25 4 -25 45 0 42 2 45 26 45 14 0 23 4 19 10 -3 6 -15 10 -26
10 -10 0 -19 7 -19 15 0 8 -4 15 -10 15 -5 0 -10 -7 -10 -15z"/>
<path d="M1571 14236 c-30 -12 -56 -26 -58 -32 -2 -6 20 -21 48 -33 58 -24 69
-25 69 -11 0 6 -4 10 -9 10 -5 0 -26 7 -47 16 l-39 16 45 18 c24 9 46 22 48
29 2 6 2 11 0 10 -1 0 -27 -11 -57 -23z"/>
<path d="M1660 14168 c0 -52 4 -88 10 -88 6 0 10 13 10 29 0 25 3 28 27 23 32
-6 53 18 53 63 0 40 -25 62 -67 62 l-33 0 0 -89z m74 56 c18 -48 -9 -99 -39
-74 -27 23 -16 90 15 90 10 0 21 -7 24 -16z"/>
<path d="M1813 14253 c-23 -9 -14 -18 19 -18 17 0 33 -6 35 -12 3 -8 -4 -13
-19 -13 -39 0 -62 -23 -54 -54 6 -24 10 -26 51 -24 l45 1 0 53 c0 42 -4 55
-19 64 -21 11 -38 12 -58 3z m57 -78 c0 -19 -32 -36 -49 -25 -8 4 -11 15 -8
24 8 20 57 22 57 1z"/>
<path d="M3450 14040 c0 -5 7 -10 15 -10 12 0 15 -13 15 -61 0 -33 5 -69 10
-80 11 -20 60 -27 60 -9 0 6 -9 10 -19 10 -25 0 -31 19 -31 96 0 62 -1 64 -25
64 -14 0 -25 -4 -25 -10z"/>
<path d="M3590 14040 c0 -5 7 -10 15 -10 12 0 15 -14 15 -69 0 -75 12 -95 52
-89 23 4 22 5 -4 16 -27 11 -28 14 -28 87 0 73 -1 75 -25 75 -14 0 -25 -4 -25
-10z"/>
<path d="M4000 14040 c0 -5 7 -10 15 -10 12 0 15 -13 15 -61 0 -33 5 -69 10
-80 11 -20 60 -27 60 -9 0 6 -9 10 -19 10 -25 0 -31 19 -31 96 0 62 -1 64 -25
64 -14 0 -25 -4 -25 -10z"/>
<path d="M5110 14041 c0 -6 7 -11 15 -11 12 0 15 -14 15 -68 0 -40 5 -73 12
-80 15 -15 48 -16 48 -2 0 6 -9 10 -20 10 -17 0 -19 8 -22 78 -3 71 -5 77 -25
80 -13 2 -23 -1 -23 -7z"/>
<path d="M5930 14040 c0 -5 7 -10 15 -10 12 0 15 -13 15 -61 0 -33 5 -69 10
-80 11 -20 60 -27 60 -9 0 6 -9 10 -19 10 -25 0 -31 19 -31 96 0 62 -1 64 -25
64 -14 0 -25 -4 -25 -10z"/>
<path d="M2420 14016 c0 -19 -4 -22 -24 -19 -42 8 -71 -60 -46 -108 8 -14 20
-18 50 -17 l40 1 0 84 c0 49 -4 83 -10 83 -5 0 -10 -11 -10 -24z m-2 -77 c4
-45 -18 -68 -42 -44 -19 19 -20 38 -5 66 17 32 44 19 47 -22z"/>
<path d="M2800 14030 c0 -5 5 -10 10 -10 6 0 10 5 10 10 0 6 -4 10 -10 10 -5
0 -10 -4 -10 -10z"/>
<path d="M2980 14014 c0 -21 -4 -24 -20 -19 -47 15 -82 -42 -58 -93 11 -23 20
-27 56 -28 l42 -2 0 84 c0 49 -4 84 -10 84 -5 0 -10 -12 -10 -26z m-10 -54
c19 -35 -6 -85 -37 -73 -13 5 -19 74 -6 86 12 13 32 7 43 -13z"/>
<path d="M3213 14020 c-3 -11 -12 -20 -19 -20 -8 0 -14 -4 -14 -10 0 -5 7 -10
15 -10 12 0 15 -13 15 -55 0 -30 5 -55 10 -55 6 0 10 25 10 55 0 48 2 55 20
55 11 0 20 5 20 10 0 6 -9 10 -20 10 -27 0 -25 18 3 30 21 8 21 9 -6 9 -21 1
-30 -5 -34 -19z"/>
<path d="M3350 14030 c0 -5 5 -10 10 -10 6 0 10 5 10 10 0 6 -4 10 -10 10 -5
0 -10 -4 -10 -10z"/>
<path d="M3744 14019 c-26 -28 -26 -99 0 -128 20 -22 70 -29 81 -11 4 6 -8 10
-28 10 -39 0 -47 12 -47 70 0 44 19 64 55 57 16 -3 24 0 22 7 -7 21 -62 18
-83 -5z"/>
<path d="M4570 14011 c0 -17 5 -33 10 -36 6 -4 10 8 10 29 0 20 -4 36 -10 36
-5 0 -10 -13 -10 -29z"/>
<path d="M4620 14005 c0 -22 4 -34 10 -30 6 3 10 17 10 30 0 13 -4 27 -10 30
-6 4 -10 -8 -10 -30z"/>
<path d="M5583 14003 c-8 -21 -28 -64 -44 -95 -19 -38 -25 -58 -17 -58 7 0 31
39 53 87 51 110 49 103 35 103 -6 0 -18 -17 -27 -37z"/>
<path d="M6350 13955 l0 -85 38 0 c21 0 43 5 50 12 15 15 15 51 0 66 -8 8 -8
15 1 26 27 33 -6 65 -66 66 -22 0 -23 -3 -23 -85z m67 54 c17 -17 4 -39 -23
-39 -19 0 -24 5 -24 25 0 27 26 35 47 14z m8 -89 c0 -20 -6 -26 -27 -28 -25
-3 -28 0 -28 28 0 28 3 31 28 28 21 -2 27 -8 27 -28z"/>
<path d="M6910 13955 c0 -50 4 -85 10 -85 6 0 10 14 10 30 0 38 7 38 41 -2 36
-44 45 -32 12 15 l-26 36 24 20 c13 11 21 23 16 27 -4 4 -21 -5 -37 -21 l-30
-29 0 47 c0 26 -4 47 -10 47 -6 0 -10 -35 -10 -85z"/>
<path d="M7063 14005 c0 -22 2 -30 4 -17 2 12 2 30 0 40 -3 9 -5 -1 -4 -23z"/>
<path d="M7100 14004 c0 -21 4 -33 10 -29 6 3 10 19 10 36 0 16 -4 29 -10 29
-5 0 -10 -16 -10 -36z"/>
<path d="M4723 14020 c-12 -5 -26 -18 -32 -29 -15 -27 -13 -102 3 -123 19 -25
64 -40 84 -28 14 7 11 9 -14 10 -54 0 -87 63 -64 120 14 34 52 49 75 30 21
-18 19 -29 -5 -23 -28 7 -50 -14 -50 -48 0 -32 25 -51 58 -42 19 5 22 12 22
57 0 28 -4 56 -8 62 -11 17 -44 24 -69 14z m62 -90 c0 -38 -39 -35 -43 3 -3
25 0 28 20 25 17 -2 23 -9 23 -28z"/>
<path d="M2087 13993 c-14 -13 -6 -18 25 -18 17 0 33 -6 35 -12 3 -8 -4 -13
-19 -13 -36 0 -60 -22 -56 -51 3 -21 8 -24 51 -25 l47 -2 0 54 c0 42 -4 55
-19 64 -22 11 -54 13 -64 3z m63 -78 c0 -19 -32 -36 -49 -25 -8 4 -11 15 -8
24 8 20 57 22 57 1z"/>
<path d="M2217 13993 c-11 -10 -8 -123 2 -123 6 0 11 21 13 46 2 32 9 51 21
58 24 15 37 -6 37 -61 0 -24 5 -43 10 -43 13 0 13 86 0 111 -12 21 -45 26 -56
8 -5 -8 -8 -8 -13 0 -4 6 -10 8 -14 4z"/>
<path d="M2510 13937 c0 -38 4 -67 10 -67 6 0 10 20 10 44 0 46 19 72 45 62 8
-3 15 -1 15 5 0 15 -29 22 -43 10 -10 -8 -17 -7 -25 1 -9 9 -12 -4 -12 -55z"/>
<path d="M2637 13982 c-20 -22 -22 -83 -5 -100 7 -7 24 -12 38 -12 37 0 50 18
50 67 0 32 -5 45 -19 53 -28 15 -46 12 -64 -8z m61 -40 c4 -43 -13 -65 -39
-51 -34 18 -21 92 15 87 16 -2 22 -11 24 -36z"/>
<path d="M2770 13990 c0 -5 7 -10 15 -10 11 0 15 -12 15 -45 0 -38 -3 -45 -20
-45 -11 0 -20 -4 -20 -10 0 -5 23 -10 50 -10 28 0 50 5 50 10 0 6 -9 10 -20
10 -18 0 -20 7 -20 55 0 52 -1 55 -25 55 -14 0 -25 -4 -25 -10z"/>
<path d="M3325 13990 c-3 -5 1 -10 9 -10 12 0 16 -11 16 -45 0 -33 -4 -45 -14
-45 -8 0 -18 -4 -21 -10 -4 -6 13 -10 44 -10 28 0 51 5 51 10 0 6 -9 10 -20
10 -18 0 -20 7 -20 55 0 48 -3 55 -19 55 -11 0 -23 -4 -26 -10z"/>
<path d="M3876 13978 c-33 -46 -13 -108 34 -108 54 0 79 71 40 110 -26 26 -55
25 -74 -2z m64 -18 c13 -24 4 -66 -16 -74 -32 -12 -59 55 -32 82 18 18 36 15
48 -8z"/>
<path d="M4158 13989 c-13 -7 -18 -23 -18 -52 0 -49 13 -67 50 -67 36 0 50 17
50 60 0 56 -40 84 -82 59z m56 -25 c18 -48 -9 -99 -39 -74 -15 12 -21 71 -8
83 12 13 41 7 47 -9z"/>
<path d="M4300 13937 c0 -38 4 -67 10 -67 6 0 10 20 10 44 0 48 18 71 50 63
11 -3 20 -1 20 4 0 16 -32 23 -50 11 -13 -8 -21 -7 -29 1 -8 8 -11 -6 -11 -56z"/>
<path d="M4850 13980 c-39 -39 -14 -110 40 -110 16 0 32 5 36 12 5 8 0 9 -15
5 -24 -6 -61 22 -61 46 0 28 26 50 53 45 29 -6 37 6 11 16 -27 10 -43 7 -64
-14z"/>
<path d="M4988 13990 c-25 -15 -33 -66 -14 -95 21 -31 70 -34 86 -6 34 64 -16
133 -72 101z m50 -22 c27 -27 0 -94 -32 -82 -18 7 -25 44 -15 72 9 24 29 28
47 10z"/>
<path d="M5256 13978 c-33 -46 -13 -108 34 -108 54 0 79 71 40 110 -26 26 -55
25 -74 -2z m64 -18 c13 -24 4 -66 -16 -74 -32 -12 -59 55 -32 82 18 18 36 15
48 -8z"/>
<path d="M5407 13994 c-11 -11 -8 -124 3 -124 6 0 10 17 10 38 0 49 20 77 49
69 11 -3 21 -1 21 4 0 16 -27 21 -48 10 -14 -8 -21 -8 -24 0 -2 6 -7 7 -11 3z"/>
<path d="M5680 13980 c-25 -25 -26 -72 -2 -93 21 -19 67 -22 78 -6 5 8 -1 10
-19 5 -31 -7 -57 15 -57 48 0 32 24 50 55 42 27 -7 35 8 9 18 -27 10 -43 7
-64 -14z"/>
<path d="M5806 13978 c-33 -46 -13 -108 34 -108 54 0 79 71 40 110 -26 26 -55
25 -74 -2z m64 -18 c13 -24 4 -66 -16 -74 -32 -12 -59 55 -32 82 18 18 36 15
48 -8z"/>
<path d="M6088 13989 c-13 -7 -18 -23 -18 -52 0 -49 13 -67 50 -67 36 0 50 17
50 60 0 56 -40 84 -82 59z m56 -25 c18 -48 -9 -99 -39 -74 -15 12 -21 71 -8
83 12 13 41 7 47 -9z"/>
<path d="M6230 13935 c0 -37 4 -65 10 -65 6 0 10 20 10 44 0 48 18 71 50 63
11 -3 20 -1 20 4 0 16 -27 21 -49 9 -14 -7 -21 -7 -21 0 0 5 -4 10 -10 10 -6
0 -10 -28 -10 -65z"/>
<path d="M6510 13937 c0 -38 4 -67 10 -67 6 0 10 20 10 44 0 46 19 72 45 62 8
-3 15 -1 15 5 0 15 -29 22 -43 10 -10 -8 -17 -7 -25 1 -9 9 -12 -4 -12 -55z"/>
<path d="M6642 13984 c-24 -17 -30 -61 -12 -95 8 -14 21 -19 50 -19 23 0 40 5
40 11 0 7 -9 9 -22 6 -26 -7 -58 8 -58 28 0 11 12 15 45 15 51 0 59 16 25 50
-24 24 -38 25 -68 4z m56 -27 c3 -13 -3 -17 -27 -17 -33 0 -39 8 -19 28 17 17
42 11 46 -11z"/>
<path d="M6777 13993 c-14 -13 -6 -18 25 -18 17 0 33 -6 35 -12 3 -8 -4 -13
-19 -13 -36 0 -60 -22 -56 -51 3 -21 8 -24 51 -25 l47 -2 0 54 c0 42 -4 55
-19 64 -22 11 -54 13 -64 3z m63 -78 c0 -19 -32 -36 -49 -25 -8 4 -11 15 -8
24 8 20 57 22 57 1z"/>
<path d="M3072 13973 c5 -25 28 -28 28 -4 0 12 -6 21 -16 21 -9 0 -14 -7 -12
-17z"/>
<path d="M4405 13960 c3 -5 31 -10 61 -10 30 0 54 5 54 10 0 6 -27 10 -61 10
-37 0 -58 -4 -54 -10z"/>
<path d="M4405 13920 c-4 -6 17 -10 54 -10 34 0 61 4 61 10 0 6 -24 10 -54 10
-30 0 -58 -4 -61 -10z"/>
<path d="M3070 13885 c0 -8 7 -15 15 -15 8 0 15 7 15 15 0 8 -7 15 -15 15 -8
0 -15 -7 -15 -15z"/>
<path d="M2420 13746 c0 -19 -4 -22 -24 -19 -42 8 -71 -60 -46 -108 8 -14 20
-18 50 -17 l40 1 0 84 c0 49 -4 83 -10 83 -5 0 -10 -11 -10 -24z m-2 -77 c4
-45 -18 -68 -42 -44 -19 19 -20 38 -5 66 17 32 44 19 47 -22z"/>
<path d="M2800 13760 c0 -5 5 -10 10 -10 6 0 10 5 10 10 0 6 -4 10 -10 10 -5
0 -10 -4 -10 -10z"/>
<path d="M2980 13744 c0 -21 -4 -24 -20 -19 -47 15 -82 -42 -58 -93 11 -23 20
-27 56 -28 l42 -2 0 84 c0 49 -4 84 -10 84 -5 0 -10 -12 -10 -26z m-10 -54
c19 -35 -6 -85 -37 -73 -13 5 -19 74 -6 86 12 13 32 7 43 -13z"/>
<path d="M3590 13685 c0 -89 17 -119 22 -39 2 32 9 51 21 58 24 15 37 -6 37
-61 0 -24 5 -43 10 -43 13 0 13 86 0 111 -12 21 -40 25 -58 7 -9 -9 -12 -5
-12 20 0 18 -4 32 -10 32 -6 0 -10 -35 -10 -85z"/>
<path d="M3720 13685 l0 -85 35 0 c48 0 75 29 75 80 0 51 -34 90 -80 90 l-30
0 0 -85z m76 39 c24 -35 9 -98 -23 -102 -22 -3 -23 0 -23 62 0 74 16 87 46 40z"/>
<path d="M4430 13741 c0 -17 5 -33 10 -36 6 -4 10 8 10 29 0 20 -4 36 -10 36
-5 0 -10 -13 -10 -29z"/>
<path d="M4480 13735 c0 -22 4 -34 10 -30 6 3 10 17 10 30 0 13 -4 27 -10 30
-6 4 -10 -8 -10 -30z"/>
<path d="M4547 13763 c-4 -3 -7 -42 -7 -85 0 -63 3 -78 15 -78 12 0 15 14 16
63 1 58 2 60 12 29 12 -40 27 -37 43 9 12 33 12 32 13 -33 1 -38 5 -68 11 -68
6 0 10 35 10 85 0 97 -17 115 -40 44 l-14 -42 -18 42 c-17 40 -27 48 -41 34z"/>
<path d="M4716 13711 c-20 -32 -36 -61 -36 -65 0 -3 16 -6 35 -6 28 0 35 -4
35 -20 0 -11 7 -20 15 -20 8 0 15 9 15 19 0 11 6 22 13 25 10 5 10 7 0 12 -8
3 -13 26 -13 60 0 72 -18 71 -64 -5z m34 -16 c0 -28 -4 -35 -20 -35 -11 0 -20
3 -20 6 0 7 33 64 37 64 2 0 3 -16 3 -35z"/>
<path d="M4840 13754 c-18 -20 -17 -73 1 -85 8 -5 26 -8 42 -6 15 2 27 -1 27
-8 0 -18 -22 -35 -47 -35 -13 0 -23 -4 -23 -10 0 -20 59 -10 74 12 23 32 21
110 -2 131 -23 21 -56 22 -72 1z m64 -20 c9 -23 8 -31 -9 -48 -9 -8 -22 -13
-30 -10 -15 6 -21 55 -8 67 12 13 41 7 47 -9z"/>
<path d="M4984 13749 c-23 -25 -26 -107 -5 -132 16 -20 62 -22 79 -5 17 17 15
64 -5 83 -11 11 -26 15 -44 11 -24 -4 -27 -2 -22 12 9 23 23 32 51 32 13 0 20
4 17 10 -11 17 -51 11 -71 -11z m62 -86 c8 -32 -20 -60 -43 -42 -14 12 -18 51
-6 62 16 17 43 6 49 -20z"/>
<path d="M5268 13763 c-10 -2 -18 -9 -18 -15 0 -6 9 -8 20 -5 18 5 20 0 20
-59 0 -50 -3 -64 -15 -64 -8 0 -15 -4 -15 -10 0 -5 20 -10 45 -10 25 0 45 5
45 10 0 6 -9 10 -20 10 -18 0 -20 7 -20 75 0 77 -1 79 -42 68z"/>
<path d="M5390 13731 c0 -35 3 -40 26 -43 59 -7 58 -68 -1 -68 -19 0 -35 -4
-35 -10 0 -14 74 -12 88 2 30 30 3 98 -39 98 -12 0 -19 7 -19 20 0 16 7 20 30
20 17 0 30 5 30 10 0 6 -18 10 -40 10 -40 0 -40 0 -40 -39z"/>
<path d="M5532 13758 c-15 -15 -15 -41 -1 -55 8 -8 7 -17 -4 -33 -25 -36 -4
-70 44 -70 30 0 49 17 49 45 0 12 -5 26 -12 33 -9 9 -9 15 0 24 7 7 12 20 12
30 0 32 -63 51 -88 26z m63 -33 c0 -22 -31 -33 -47 -17 -17 17 -1 44 24 40 15
-2 23 -10 23 -23z m0 -75 c0 -20 -6 -26 -27 -28 -24 -3 -28 0 -28 21 0 30 9
39 35 35 14 -2 20 -10 20 -28z"/>
<path d="M5803 13763 c-25 -10 -12 -20 24 -19 53 1 55 -24 4 -84 -23 -27 -41
-51 -41 -54 0 -3 23 -6 50 -6 28 0 50 5 50 10 0 6 -16 10 -36 10 l-36 0 36 40
c21 23 36 50 36 65 0 35 -46 55 -87 38z"/>
<path d="M5956 13711 c-20 -32 -36 -61 -36 -65 0 -3 16 -6 35 -6 28 0 35 -4
35 -20 0 -11 7 -20 15 -20 8 0 15 9 15 19 0 11 6 22 13 25 10 5 10 7 0 12 -8
3 -13 26 -13 60 0 72 -18 71 -64 -5z m34 -16 c0 -28 -4 -35 -20 -35 -11 0 -20
3 -20 6 0 7 33 64 37 64 2 0 3 -16 3 -35z"/>
<path d="M6082 13758 c-15 -15 -15 -41 -1 -55 8 -8 7 -17 -4 -33 -25 -36 -4
-70 44 -70 30 0 49 17 49 45 0 12 -5 26 -12 33 -9 9 -9 15 0 24 7 7 12 20 12
30 0 32 -63 51 -88 26z m63 -33 c0 -22 -31 -33 -47 -17 -17 17 -1 44 24 40 15
-2 23 -10 23 -23z m0 -75 c0 -20 -6 -26 -27 -28 -24 -3 -28 0 -28 21 0 30 9
39 35 35 14 -2 20 -10 20 -28z"/>
<path d="M6360 13755 c-18 -22 -23 -96 -8 -125 18 -34 61 -39 82 -8 20 29 21
97 0 126 -17 25 -56 29 -74 7z m64 -36 c5 -14 6 -43 2 -63 -6 -31 -11 -37 -29
-34 -19 3 -22 10 -25 52 -2 27 -1 55 2 63 9 22 39 11 50 -18z"/>
<path d="M6387 13694 c-8 -8 1 -24 14 -24 5 0 9 7 9 15 0 15 -12 20 -23 9z"/>
<path d="M6496 13754 c-19 -18 -19 -20 -5 -46 8 -14 8 -23 0 -31 -15 -15 -14
-50 1 -65 20 -20 76 -15 88 8 12 23 5 60 -13 60 -8 0 -8 3 1 12 7 7 12 21 12
33 0 43 -53 61 -84 29z m59 -29 c0 -13 -8 -21 -22 -23 -19 -3 -23 1 -23 23 0
22 4 26 23 23 14 -2 22 -10 22 -23z m5 -64 c14 -28 -13 -55 -41 -41 -22 12
-25 30 -7 48 18 18 36 15 48 -7z"/>
<path d="M6630 13731 c0 -35 3 -40 26 -43 59 -7 58 -68 -1 -68 -19 0 -35 -4
-35 -10 0 -14 74 -12 88 2 30 30 3 98 -39 98 -12 0 -19 7 -19 20 0 16 7 20 30
20 17 0 30 5 30 10 0 6 -18 10 -40 10 -40 0 -40 0 -40 -39z"/>
<path d="M6916 13754 c-18 -18 -22 -104 -6 -135 7 -12 21 -19 40 -19 37 0 50
23 50 88 0 70 -45 106 -84 66z m58 -20 c9 -23 7 -87 -3 -102 -5 -8 -17 -12
-27 -10 -21 3 -31 59 -20 105 7 26 41 32 50 7z"/>
<path d="M6937 13694 c-8 -8 1 -24 14 -24 5 0 9 7 9 15 0 15 -12 20 -23 9z"/>
<path d="M7195 13756 c-20 -15 -20 -15 3 -16 20 0 22 -5 22 -60 0 -47 -3 -60
-15 -60 -8 0 -15 -4 -15 -10 0 -5 20 -10 45 -10 25 0 45 5 45 10 0 6 -7 10
-15 10 -11 0 -15 17 -17 72 -3 79 -15 93 -53 64z"/>
<path d="M7320 13757 c0 -7 13 -12 33 -12 25 0 32 -4 32 -20 0 -13 -8 -21 -22
-23 -13 -2 -23 -7 -23 -12 0 -5 10 -10 23 -12 16 -2 22 -10 22 -28 0 -22 -4
-25 -38 -25 -23 0 -37 -5 -37 -12 0 -8 15 -13 39 -13 59 0 87 52 47 83 -8 6
-7 10 2 14 15 6 16 45 0 61 -16 16 -78 16 -78 -1z"/>
<path d="M7450 13760 c0 -5 18 -10 40 -10 44 0 44 11 1 -97 -15 -38 -17 -53
-8 -53 10 0 67 138 67 163 0 4 -22 7 -50 7 -27 0 -50 -4 -50 -10z"/>
<path d="M7740 13755 c-18 -22 -23 -96 -8 -125 18 -34 61 -39 82 -8 20 29 21
97 0 126 -17 25 -56 29 -74 7z m64 -36 c5 -14 6 -43 2 -63 -6 -31 -11 -37 -29
-34 -19 3 -22 10 -25 52 -2 27 -1 55 2 63 9 22 39 11 50 -18z"/>
<path d="M7767 13694 c-8 -8 1 -24 14 -24 5 0 9 7 9 15 0 15 -12 20 -23 9z"/>
<path d="M7873 13763 c-25 -10 -12 -20 24 -19 53 1 55 -24 4 -84 -23 -27 -41
-51 -41 -54 0 -3 23 -6 50 -6 28 0 50 5 50 10 0 6 -16 10 -36 10 l-36 0 36 40
c21 23 36 50 36 65 0 35 -46 55 -87 38z"/>
<path d="M8013 13763 c-24 -9 -13 -23 12 -17 24 6 55 -9 55 -27 0 -4 -18 -29
-40 -54 -22 -25 -40 -50 -40 -56 0 -5 23 -9 50 -9 28 0 50 5 50 10 0 6 -16 10
-36 10 l-36 0 36 42 c20 23 36 49 36 59 0 37 -46 59 -87 42z"/>
<path d="M8308 13763 c-24 -6 -23 -23 2 -23 18 0 20 -7 20 -60 0 -53 -2 -60
-20 -60 -11 0 -20 -4 -20 -10 0 -5 20 -10 45 -10 25 0 45 5 45 10 0 6 -7 10
-15 10 -12 0 -15 15 -15 75 0 77 -1 79 -42 68z"/>
<path d="M8448 13763 c-24 -6 -23 -23 2 -23 18 0 20 -7 20 -60 0 -53 -2 -60
-20 -60 -11 0 -20 -4 -20 -10 0 -5 20 -10 45 -10 25 0 45 5 45 10 0 6 -7 10
-15 10 -12 0 -15 15 -15 75 0 77 -1 79 -42 68z"/>
<path d="M8575 13756 c-20 -15 -20 -15 3 -16 20 0 22 -5 22 -60 0 -47 -3 -60
-15 -60 -8 0 -15 -4 -15 -10 0 -5 20 -10 45 -10 25 0 45 5 45 10 0 6 -7 10
-15 10 -11 0 -15 17 -17 72 -3 79 -15 93 -53 64z"/>
<path d="M8846 13748 c-19 -27 -21 -107 -3 -132 9 -12 23 -17 42 -14 25 2 32
10 43 42 28 87 -37 169 -82 104z m60 -21 c11 -46 1 -102 -20 -105 -10 -2 -22
2 -27 10 -10 15 -12 79 -3 102 9 25 43 19 50 -7z"/>
<path d="M8870 13685 c0 -9 5 -15 11 -13 6 2 11 8 11 13 0 5 -5 11 -11 13 -6
2 -11 -4 -11 -13z"/>
<path d="M8987 13752 c-20 -22 -23 -122 -5 -140 15 -15 61 -15 76 0 17 17 15
73 -3 88 -8 7 -26 10 -40 8 -15 -3 -25 -1 -25 6 0 19 22 36 47 36 13 0 23 5
23 10 0 17 -56 11 -73 -8z m58 -97 c0 -25 -4 -30 -25 -30 -16 0 -26 6 -28 18
-6 30 6 49 30 45 18 -2 23 -9 23 -33z"/>
<path d="M9117 13752 c-37 -41 -10 -98 41 -90 36 5 36 5 22 -23 -7 -12 -21
-19 -41 -19 -18 0 -28 -4 -24 -10 3 -5 19 -10 35 -10 37 0 60 32 60 85 0 73
-53 111 -93 67z m61 -38 c2 -21 -2 -33 -12 -37 -20 -8 -49 21 -42 40 3 8 6 19
6 25 0 5 10 8 23 6 17 -2 23 -11 25 -34z"/>
<path d="M9397 13763 c-14 -13 -6 -18 26 -18 49 0 48 -33 -2 -88 -23 -24 -41
-47 -41 -51 0 -3 25 -6 55 -6 30 0 55 5 55 10 0 6 -19 10 -42 10 l-42 0 37 38
c38 39 48 77 25 100 -13 13 -60 16 -71 5z"/>
<path d="M9552 13717 c-41 -67 -40 -77 3 -77 28 0 35 -4 35 -20 0 -11 5 -20
10 -20 6 0 10 9 10 19 0 11 6 22 13 25 10 5 10 7 0 12 -8 3 -13 26 -13 60 0
70 -16 70 -58 1z m38 -17 c0 -36 -2 -40 -25 -40 -14 0 -25 2 -25 4 0 8 42 76
46 76 2 0 4 -18 4 -40z"/>
<path d="M9678 13759 c-21 -12 -23 -40 -6 -57 9 -9 9 -15 0 -24 -7 -7 -12 -21
-12 -33 0 -12 5 -26 12 -33 14 -14 57 -16 77 -3 17 11 18 61 1 71 -9 6 -9 12
2 29 25 41 -29 78 -74 50z m57 -34 c0 -23 -34 -33 -45 -14 -13 20 1 40 24 37
13 -2 21 -10 21 -23z m3 -77 c3 -24 0 -28 -23 -28 -27 0 -41 20 -31 46 10 27
51 13 54 -18z"/>
<path d="M9950 13755 c-18 -22 -23 -96 -8 -125 18 -34 61 -39 82 -8 20 29 21
97 0 126 -17 25 -56 29 -74 7z m64 -36 c5 -14 6 -43 2 -63 -6 -31 -11 -37 -29
-34 -19 3 -22 10 -25 52 -2 27 -1 55 2 63 9 22 39 11 50 -18z"/>
<path d="M9977 13694 c-8 -8 1 -24 14 -24 5 0 9 7 9 15 0 15 -12 20 -23 9z"/>
<path d="M10086 13754 c-19 -18 -19 -20 -5 -46 8 -14 8 -23 0 -31 -15 -15 -14
-50 1 -65 20 -20 76 -15 88 8 12 23 5 60 -13 60 -8 0 -8 3 1 12 7 7 12 21 12
33 0 43 -53 61 -84 29z m59 -29 c0 -13 -8 -21 -22 -23 -19 -3 -23 1 -23 23 0
22 4 26 23 23 14 -2 22 -10 22 -23z m5 -64 c14 -28 -13 -55 -41 -41 -22 12
-25 30 -7 48 18 18 36 15 48 -7z"/>
<path d="M10223 13763 c-24 -9 -13 -23 12 -17 24 6 55 -9 55 -27 0 -4 -18 -29
-40 -54 -22 -25 -40 -50 -40 -56 0 -5 23 -9 50 -9 28 0 50 5 50 10 0 6 -16 10
-36 10 l-36 0 36 42 c20 23 36 49 36 59 0 37 -46 59 -87 42z"/>
<path d="M3480 13745 c0 -8 -7 -15 -15 -15 -8 0 -15 -4 -15 -10 0 -5 7 -10 15
-10 11 0 15 -11 15 -43 0 -24 5 -48 12 -55 15 -15 58 -16 58 -2 0 6 -11 10
-25 10 -23 0 -25 4 -25 45 0 42 2 45 26 45 14 0 23 4 19 10 -3 6 -15 10 -26
10 -10 0 -19 7 -19 15 0 8 -4 15 -10 15 -5 0 -10 -7 -10 -15z"/>
<path d="M4030 13745 c0 -8 -7 -15 -15 -15 -8 0 -15 -4 -15 -10 0 -5 7 -10 15
-10 11 0 15 -11 15 -43 0 -24 5 -48 12 -55 15 -15 58 -16 58 -2 0 6 -11 10
-25 10 -23 0 -25 4 -25 45 0 42 2 45 26 45 14 0 23 4 19 10 -3 6 -15 10 -26
10 -10 0 -19 7 -19 15 0 8 -4 15 -10 15 -5 0 -10 -7 -10 -15z"/>
<path d="M2087 13723 c-14 -13 -6 -18 25 -18 17 0 33 -6 35 -12 3 -8 -4 -13
-19 -13 -36 0 -60 -22 -56 -51 3 -21 8 -24 51 -25 l47 -2 0 54 c0 42 -4 55
-19 64 -22 11 -54 13 -64 3z m63 -78 c0 -19 -32 -36 -49 -25 -8 4 -11 15 -8
24 8 20 57 22 57 1z"/>
<path d="M2217 13723 c-11 -10 -8 -123 2 -123 6 0 11 21 13 46 2 32 9 51 21
58 24 15 37 -6 37 -61 0 -24 5 -43 10 -43 13 0 13 86 0 111 -12 21 -45 26 -56
8 -5 -8 -8 -8 -13 0 -4 6 -10 8 -14 4z"/>
<path d="M2510 13667 c0 -38 4 -67 10 -67 6 0 10 20 10 44 0 46 19 72 45 62 8
-3 15 -1 15 5 0 15 -29 22 -43 10 -10 -8 -17 -7 -25 1 -9 9 -12 -4 -12 -55z"/>
<path d="M2637 13712 c-20 -22 -22 -83 -5 -100 7 -7 24 -12 38 -12 37 0 50 18
50 67 0 32 -5 45 -19 53 -28 15 -46 12 -64 -8z m61 -40 c4 -43 -13 -65 -39
-51 -34 18 -21 92 15 87 16 -2 22 -11 24 -36z"/>
<path d="M2770 13720 c0 -5 7 -10 15 -10 11 0 15 -12 15 -45 0 -38 -3 -45 -20
-45 -11 0 -20 -4 -20 -10 0 -5 23 -10 50 -10 28 0 50 5 50 10 0 6 -9 10 -20
10 -18 0 -20 7 -20 55 0 52 -1 55 -25 55 -14 0 -25 -4 -25 -10z"/>
<path d="M3180 13638 c0 -52 4 -88 10 -88 6 0 10 13 10 29 0 25 3 28 27 23 47
-9 71 58 37 106 -11 16 -24 21 -50 19 l-34 -2 0 -87z m68 60 c29 -29 -3 -103
-34 -77 -14 12 -19 70 -7 82 10 11 28 8 41 -5z"/>
<path d="M3327 13723 c-14 -13 -6 -18 25 -18 17 0 33 -6 35 -12 3 -8 -4 -13
-19 -13 -36 0 -60 -22 -56 -51 3 -21 8 -24 51 -25 l47 -2 0 54 c0 42 -4 55
-19 64 -22 11 -54 13 -64 3z m63 -78 c0 -19 -32 -36 -49 -25 -8 4 -11 15 -8
24 8 20 57 22 57 1z"/>
<path d="M3883 13723 c-23 -9 -14 -18 19 -18 17 0 33 -6 35 -12 3 -8 -4 -13
-19 -13 -39 0 -62 -23 -54 -54 6 -24 10 -26 51 -24 l45 1 0 53 c0 42 -4 55
-19 64 -21 11 -38 12 -58 3z m57 -78 c0 -19 -32 -36 -49 -25 -8 4 -11 15 -8
24 8 20 57 22 57 1z"/>
<path d="M4153 13723 c-25 -10 -12 -20 23 -19 22 1 39 -4 41 -11 3 -9 -6 -13
-25 -13 -35 0 -55 -20 -50 -52 3 -20 9 -23 51 -24 l47 -2 0 48 c0 67 -34 95
-87 73z m67 -72 c0 -15 -31 -42 -44 -38 -6 2 -12 13 -14 25 -3 19 1 22 27 22
17 0 31 -4 31 -9z"/>
<path d="M6785 13710 c-21 -23 -24 -72 -5 -94 14 -18 80 -22 80 -5 0 6 -9 9
-20 6 -31 -8 -52 14 -48 53 3 32 6 35 36 35 37 0 38 19 1 23 -15 2 -32 -5 -44
-18z"/>
<path d="M3072 13703 c5 -25 28 -28 28 -4 0 12 -6 21 -16 21 -9 0 -14 -7 -12
-17z"/>
<path d="M4270 13690 c0 -5 24 -10 54 -10 30 0 58 5 61 10 4 6 -17 10 -54 10
-34 0 -61 -4 -61 -10z"/>
<path d="M7060 13660 c0 -5 11 -10 24 -10 14 0 28 5 31 10 4 6 -7 10 -24 10
-17 0 -31 -4 -31 -10z"/>
<path d="M8160 13660 c0 -5 14 -10 30 -10 17 0 30 5 30 10 0 6 -13 10 -30 10
-16 0 -30 -4 -30 -10z"/>
<path d="M9265 13660 c3 -5 17 -10 31 -10 13 0 24 5 24 10 0 6 -14 10 -31 10
-17 0 -28 -4 -24 -10z"/>
<path d="M10370 13660 c0 -5 14 -10 30 -10 17 0 30 5 30 10 0 6 -13 10 -30 10
-16 0 -30 -4 -30 -10z"/>
<path d="M4270 13650 c0 -6 27 -10 61 -10 37 0 58 4 54 10 -3 6 -31 10 -61 10
-30 0 -54 -4 -54 -10z"/>
<path d="M3070 13615 c0 -8 7 -15 15 -15 8 0 15 7 15 15 0 8 -7 15 -15 15 -8
0 -15 -7 -15 -15z"/>
<path d="M5140 13615 c0 -8 7 -15 15 -15 8 0 15 7 15 15 0 8 -7 15 -15 15 -8
0 -15 -7 -15 -15z"/>
<path d="M5688 13600 c-5 -34 6 -40 22 -11 14 27 13 41 -4 41 -8 0 -16 -13
-18 -30z"/>
<path d="M6240 13615 c0 -8 7 -15 15 -15 8 0 15 7 15 15 0 8 -7 15 -15 15 -8
0 -15 -7 -15 -15z"/>
<path d="M7620 13615 c0 -8 7 -15 15 -15 8 0 15 7 15 15 0 8 -7 15 -15 15 -8
0 -15 -7 -15 -15z"/>
<path d="M8730 13615 c0 -8 7 -15 15 -15 8 0 15 7 15 15 0 8 -7 15 -15 15 -8
0 -15 -7 -15 -15z"/>
<path d="M9830 13615 c0 -8 7 -15 15 -15 8 0 15 7 15 15 0 8 -7 15 -15 15 -8
0 -15 -7 -15 -15z"/>
<path d="M1527 13493 c-15 -14 -6 -21 26 -19 47 2 48 -31 3 -82 -20 -22 -36
-45 -36 -51 0 -7 20 -11 50 -11 28 0 50 5 50 10 0 6 -16 10 -35 10 l-36 0 36
46 c19 26 35 52 35 59 0 31 -72 60 -93 38z"/>
<path d="M1685 13448 c-44 -67 -44 -78 0 -78 28 0 35 -4 35 -20 0 -11 5 -20
10 -20 6 0 10 9 10 19 0 11 6 22 13 25 10 5 10 7 0 12 -8 3 -13 26 -13 60 0
30 -4 54 -10 54 -5 0 -25 -24 -45 -52z m35 -18 c0 -36 -2 -40 -26 -40 l-25 0
22 40 c13 22 24 40 26 40 2 0 3 -18 3 -40z"/>
<path d="M1806 13484 c-19 -18 -19 -20 -5 -46 8 -14 8 -23 0 -31 -15 -15 -14
-50 1 -65 20 -20 76 -15 88 8 12 23 5 60 -13 60 -8 0 -8 3 1 12 7 7 12 21 12
33 0 43 -53 61 -84 29z m59 -29 c0 -13 -8 -21 -22 -23 -19 -3 -23 1 -23 23 0
22 4 26 23 23 14 -2 22 -10 22 -23z m5 -64 c14 -28 -13 -55 -41 -41 -22 12
-25 30 -7 48 18 18 36 15 48 -7z"/>
<path d="M2086 13484 c-18 -18 -22 -104 -6 -135 7 -12 21 -19 40 -19 37 0 50
23 50 88 0 70 -45 106 -84 66z m58 -20 c9 -23 7 -87 -3 -102 -5 -8 -17 -12
-27 -10 -21 3 -31 59 -20 105 7 26 41 32 50 7z"/>
<path d="M2107 13424 c-8 -8 1 -24 14 -24 5 0 9 7 9 15 0 15 -12 20 -23 9z"/>
<path d="M2205 13490 c-4 -6 10 -10 34 -10 23 0 41 -2 41 -5 0 -3 -11 -33 -25
-67 -27 -67 -30 -78 -16 -78 7 0 71 149 71 166 0 9 -99 3 -105 -6z"/>
<path d="M2350 13461 c0 -37 2 -40 33 -43 28 -3 32 -6 32 -33 0 -27 -3 -30
-38 -33 -46 -4 -39 -22 8 -22 26 0 39 6 52 26 15 24 15 29 2 53 -9 16 -25 27
-42 29 -19 2 -27 9 -27 23 0 15 7 19 36 19 21 0 33 4 29 10 -3 6 -24 10 -46
10 -39 0 -39 0 -39 -39z"/>
<path d="M2633 13493 c-25 -10 -12 -20 24 -19 53 1 55 -24 4 -84 -23 -27 -41
-51 -41 -54 0 -3 23 -6 50 -6 28 0 50 5 50 10 0 6 -16 10 -36 10 l-36 0 36 40
c21 23 36 50 36 65 0 35 -46 55 -87 38z"/>
<path d="M2786 13441 c-20 -32 -36 -61 -36 -65 0 -3 16 -6 35 -6 28 0 35 -4
35 -20 0 -11 7 -20 15 -20 8 0 15 9 15 19 0 11 6 22 13 25 10 5 10 7 0 12 -8
3 -13 26 -13 60 0 72 -18 71 -64 -5z m34 -16 c0 -28 -4 -35 -20 -35 -11 0 -20
3 -20 6 0 7 33 64 37 64 2 0 3 -16 3 -35z"/>
<path d="M2912 13488 c-15 -15 -15 -41 -1 -55 8 -8 7 -17 -4 -33 -16 -22 -13
-49 7 -62 17 -12 61 -9 74 4 15 15 15 51 0 66 -9 9 -9 15 0 24 7 7 12 20 12
30 0 32 -63 51 -88 26z m63 -33 c0 -22 -31 -33 -47 -17 -17 17 -1 44 24 40 15
-2 23 -10 23 -23z m0 -75 c0 -20 -6 -26 -27 -28 -24 -3 -28 0 -28 21 0 30 9
39 35 35 14 -2 20 -10 20 -28z"/>
<path d="M3186 13478 c-20 -29 -21 -97 0 -126 17 -25 56 -29 74 -7 18 22 23
96 8 125 -18 34 -61 39 -82 8z m66 -33 c11 -43 -4 -89 -29 -93 -21 -3 -33 19
-33 66 0 62 47 82 62 27z"/>
<path d="M3210 13416 c0 -9 7 -16 16 -16 17 0 14 22 -4 28 -7 2 -12 -3 -12
-12z"/>
<path d="M3328 13489 c-21 -12 -23 -40 -6 -57 9 -9 9 -15 0 -24 -15 -15 -15
-51 0 -66 14 -14 57 -16 77 -3 17 11 18 61 1 71 -9 6 -9 12 2 29 25 41 -29 78
-74 50z m57 -34 c0 -23 -34 -33 -45 -14 -13 20 1 40 24 37 13 -2 21 -10 21
-23z m3 -77 c3 -24 0 -28 -23 -28 -27 0 -41 20 -31 46 10 27 51 13 54 -18z"/>
<path d="M3463 13493 c-24 -9 -13 -23 12 -17 24 6 55 -9 55 -27 0 -4 -18 -29
-40 -54 -22 -25 -40 -50 -40 -56 0 -5 23 -9 50 -9 28 0 50 5 50 10 0 6 -16 10
-36 10 l-36 0 36 42 c20 23 36 49 36 59 0 37 -46 59 -87 42z"/>
<path d="M3611 13481 c-28 -28 -29 -110 -3 -134 23 -21 82 -23 82 -3 0 9 -8
12 -25 8 -35 -6 -55 14 -55 57 0 51 20 75 54 69 17 -4 25 -1 23 6 -7 20 -55
18 -76 -3z"/>
<path d="M3745 13486 c-20 -15 -20 -15 3 -16 20 0 22 -5 22 -60 0 -47 -3 -60
-15 -60 -8 0 -15 -4 -15 -10 0 -5 20 -10 45 -10 25 0 45 5 45 10 0 6 -7 10
-15 10 -11 0 -15 17 -17 72 -3 79 -15 93 -53 64z"/>
<path d="M3888 13493 c-10 -2 -18 -9 -18 -15 0 -6 9 -8 20 -5 18 5 20 0 20
-59 0 -50 -3 -64 -15 -64 -8 0 -15 -4 -15 -10 0 -5 20 -10 45 -10 25 0 45 5
45 10 0 6 -9 10 -20 10 -18 0 -20 7 -20 75 0 77 -1 79 -42 68z"/>
<path d="M4028 13493 c-24 -6 -23 -23 2 -23 18 0 20 -7 20 -60 0 -53 -2 -60
-20 -60 -11 0 -20 -4 -20 -10 0 -5 20 -10 45 -10 25 0 45 5 45 10 0 6 -7 10
-15 10 -12 0 -15 15 -15 75 0 77 -1 79 -42 68z"/>
<path d="M4290 13485 c-18 -22 -23 -96 -8 -125 18 -34 61 -39 82 -8 20 29 21
97 0 126 -17 25 -56 29 -74 7z m64 -36 c5 -14 6 -43 2 -63 -6 -31 -11 -37 -29
-34 -19 3 -22 10 -25 52 -2 27 -1 55 2 63 9 22 39 11 50 -18z"/>
<path d="M4317 13424 c-8 -8 1 -24 14 -24 5 0 9 7 9 15 0 15 -12 20 -23 9z"/>
<path d="M4410 13490 c0 -5 18 -10 40 -10 22 0 40 -2 40 -4 0 -2 -13 -35 -29
-75 -21 -50 -26 -71 -17 -71 12 0 66 129 66 158 0 8 -17 12 -50 12 -27 0 -50
-4 -50 -10z"/>
<path d="M4706 13478 c-19 -27 -21 -107 -3 -132 9 -12 23 -17 42 -14 25 2 32
10 43 42 28 87 -37 169 -82 104z m60 -21 c11 -46 1 -102 -20 -105 -10 -2 -22
2 -27 10 -10 15 -12 79 -3 102 9 25 43 19 50 -7z"/>
<path d="M4730 13415 c0 -9 5 -15 11 -13 6 2 11 8 11 13 0 5 -5 11 -11 13 -6
2 -11 -4 -11 -13z"/>
<path d="M4980 13485 c-18 -22 -23 -96 -8 -125 18 -34 61 -39 82 -8 20 29 21
97 0 126 -17 25 -56 29 -74 7z m64 -36 c5 -14 6 -43 2 -63 -6 -31 -11 -37 -29
-34 -19 3 -22 10 -25 52 -2 27 -1 55 2 63 9 22 39 11 50 -18z"/>
<path d="M5007 13424 c-8 -8 1 -24 14 -24 5 0 9 7 9 15 0 15 -12 20 -23 9z"/>
<path d="M5120 13485 c-18 -22 -23 -96 -8 -125 18 -34 61 -39 82 -8 20 29 21
97 0 126 -17 25 -56 29 -74 7z m64 -36 c5 -14 6 -43 2 -63 -6 -31 -11 -37 -29
-34 -19 3 -22 10 -25 52 -2 27 -1 55 2 63 9 22 39 11 50 -18z"/>
<path d="M5147 13424 c-8 -8 1 -24 14 -24 5 0 9 7 9 15 0 15 -12 20 -23 9z"/>
<path d="M5250 13487 c0 -7 13 -12 33 -12 25 0 32 -4 32 -20 0 -13 -8 -21 -22
-23 -13 -2 -23 -7 -23 -12 0 -5 10 -10 23 -12 16 -2 22 -10 22 -28 0 -22 -4
-25 -38 -25 -23 0 -37 -5 -37 -12 0 -8 15 -13 39 -13 59 0 87 52 47 83 -8 6
-7 10 2 14 15 6 16 45 0 61 -16 16 -78 16 -78 -1z"/>
<path d="M5536 13484 c-18 -18 -22 -104 -6 -135 7 -12 21 -19 40 -19 37 0 50
23 50 88 0 70 -45 106 -84 66z m58 -20 c9 -23 7 -87 -3 -102 -5 -8 -17 -12
-27 -10 -21 3 -31 59 -20 105 7 26 41 32 50 7z"/>
<path d="M5557 13424 c-8 -8 1 -24 14 -24 5 0 9 7 9 15 0 15 -12 20 -23 9z"/>
<path d="M5818 13493 c-10 -2 -18 -9 -18 -15 0 -6 9 -8 20 -5 18 5 20 0 20
-59 0 -50 -3 -64 -15 -64 -8 0 -15 -4 -15 -10 0 -5 20 -10 45 -10 25 0 45 5
45 10 0 6 -9 10 -20 10 -18 0 -20 7 -20 75 0 77 -1 79 -42 68z"/>
<path d="M5958 13493 c-24 -6 -23 -23 2 -23 18 0 20 -7 20 -60 0 -53 -2 -60
-20 -60 -11 0 -20 -4 -20 -10 0 -5 20 -10 45 -10 25 0 45 5 45 10 0 6 -7 10
-15 10 -12 0 -15 15 -15 75 0 77 -1 79 -42 68z"/>
<path d="M6098 13493 c-24 -6 -23 -23 2 -23 18 0 20 -7 20 -60 0 -53 -2 -60
-20 -60 -11 0 -20 -4 -20 -10 0 -5 20 -10 45 -10 25 0 45 5 45 10 0 6 -7 10
-15 10 -12 0 -15 15 -15 75 0 77 -1 79 -42 68z"/>
<path d="M6360 13485 c-18 -22 -23 -96 -8 -125 18 -34 61 -39 82 -8 20 29 21
97 0 126 -17 25 -56 29 -74 7z m64 -36 c5 -14 6 -43 2 -63 -6 -31 -11 -37 -29
-34 -19 3 -22 10 -25 52 -2 27 -1 55 2 63 9 22 39 11 50 -18z"/>
<path d="M6387 13424 c-8 -8 1 -24 14 -24 5 0 9 7 9 15 0 15 -12 20 -23 9z"/>
<path d="M6506 13487 c-26 -19 -33 -99 -12 -132 32 -48 96 -26 96 33 0 30 -35
55 -65 48 -28 -7 -30 -4 -15 25 7 12 21 19 41 19 18 0 28 4 24 10 -9 14 -48
12 -69 -3z m55 -84 c2 -30 -2 -48 -14 -55 -27 -16 -53 24 -35 56 12 22 48 21
49 -1z"/>
<path d="M6625 13490 c-4 -6 8 -10 28 -10 34 0 48 -13 40 -37 -3 -7 -13 -13
-24 -13 -28 0 -23 -17 7 -24 19 -5 25 -12 22 -29 -2 -18 -11 -23 -40 -25 -50
-4 -49 -22 0 -22 43 0 62 14 62 45 0 12 -5 26 -12 33 -9 9 -9 15 0 24 16 16
15 33 -4 52 -17 18 -69 22 -79 6z"/>
<path d="M6916 13484 c-18 -18 -22 -104 -6 -135 7 -12 21 -19 40 -19 37 0 50
23 50 88 0 70 -45 106 -84 66z m58 -20 c9 -23 7 -87 -3 -102 -5 -8 -17 -12
-27 -10 -21 3 -31 59 -20 105 7 26 41 32 50 7z"/>
<path d="M6937 13424 c-8 -8 1 -24 14 -24 5 0 9 7 9 15 0 15 -12 20 -23 9z"/>
<path d="M7183 13493 c-25 -10 -12 -20 24 -19 53 1 55 -24 4 -84 -23 -27 -41
-51 -41 -54 0 -3 23 -6 50 -6 28 0 50 5 50 10 0 6 -16 10 -36 10 l-36 0 36 40
c21 23 36 50 36 65 0 35 -46 55 -87 38z"/>
<path d="M7342 13447 c-41 -67 -40 -77 3 -77 28 0 35 -4 35 -20 0 -11 5 -20
10 -20 6 0 10 9 10 19 0 11 6 22 13 25 10 5 10 7 0 12 -8 3 -13 26 -13 60 0
70 -16 70 -58 1z m38 -17 c0 -36 -2 -40 -25 -40 -14 0 -25 2 -25 4 0 8 42 76
46 76 2 0 4 -18 4 -40z"/>
<path d="M7468 13489 c-21 -12 -23 -40 -6 -57 9 -9 9 -15 0 -24 -7 -7 -12 -21
-12 -33 0 -12 5 -26 12 -33 14 -14 57 -16 77 -3 17 11 18 61 1 71 -9 6 -9 12
2 29 25 41 -29 78 -74 50z m57 -34 c0 -23 -34 -33 -45 -14 -13 20 1 40 24 37
13 -2 21 -10 21 -23z m3 -77 c3 -24 0 -28 -23 -28 -27 0 -41 20 -31 46 10 27
51 13 54 -18z"/>
<path d="M7740 13485 c-18 -22 -23 -96 -8 -125 18 -34 61 -39 82 -8 20 29 21
97 0 126 -17 25 -56 29 -74 7z m64 -36 c5 -14 6 -43 2 -63 -6 -31 -11 -37 -29
-34 -19 3 -22 10 -25 52 -2 27 -1 55 2 63 9 22 39 11 50 -18z"/>
<path d="M7767 13424 c-8 -8 1 -24 14 -24 5 0 9 7 9 15 0 15 -12 20 -23 9z"/>
<path d="M7876 13484 c-19 -18 -19 -20 -5 -46 8 -14 8 -23 0 -31 -15 -15 -14
-50 1 -65 20 -20 76 -15 88 8 12 23 5 60 -13 60 -8 0 -8 3 1 12 7 7 12 21 12
33 0 43 -53 61 -84 29z m59 -29 c0 -13 -8 -21 -22 -23 -19 -3 -23 1 -23 23 0
22 4 26 23 23 14 -2 22 -10 22 -23z m5 -64 c14 -28 -13 -55 -41 -41 -22 12
-25 30 -7 48 18 18 36 15 48 -7z"/>
<path d="M8010 13461 c0 -35 3 -40 26 -43 59 -7 58 -68 -1 -68 -19 0 -35 -4
-35 -10 0 -14 74 -12 88 2 30 30 3 98 -39 98 -12 0 -19 7 -19 20 0 16 7 20 30
20 17 0 30 5 30 10 0 6 -18 10 -40 10 -40 0 -40 0 -40 -39z"/>
<path d="M2505 13390 c3 -5 17 -10 31 -10 13 0 24 5 24 10 0 6 -14 10 -31 10
-17 0 -28 -4 -24 -10z"/>
<path d="M1970 13345 c0 -8 7 -15 15 -15 8 0 15 7 15 15 0 8 -7 15 -15 15 -8
0 -15 -7 -15 -15z"/>
<path d="M3070 13345 c0 -8 7 -15 15 -15 8 0 15 7 15 15 0 8 -7 15 -15 15 -8
0 -15 -7 -15 -15z"/>
<path d="M4170 13345 c0 -8 7 -15 15 -15 8 0 15 7 15 15 0 8 -7 15 -15 15 -8
0 -15 -7 -15 -15z"/>
<path d="M4587 13333 c-3 -16 -3 -30 0 -33 6 -7 33 31 33 47 0 25 -28 13 -33
-14z"/>
<path d="M4860 13345 c0 -8 7 -15 15 -15 8 0 15 7 15 15 0 8 -7 15 -15 15 -8
0 -15 -7 -15 -15z"/>
<path d="M5416 13338 c-12 -46 3 -54 22 -13 15 33 15 35 -2 35 -7 0 -16 -10
-20 -22z"/>
<path d="M5688 13330 c-5 -34 6 -40 22 -11 14 27 13 41 -4 41 -8 0 -16 -13
-18 -30z"/>
<path d="M6240 13345 c0 -8 7 -15 15 -15 8 0 15 7 15 15 0 8 -7 15 -15 15 -8
0 -15 -7 -15 -15z"/>
<path d="M6796 13338 c-12 -46 3 -54 22 -13 15 33 15 35 -2 35 -7 0 -16 -10
-20 -22z"/>
<path d="M7068 13330 c-5 -34 6 -40 22 -11 14 27 13 41 -4 41 -8 0 -16 -13
-18 -30z"/>
<path d="M7620 13345 c0 -8 7 -15 15 -15 8 0 15 7 15 15 0 8 -7 15 -15 15 -8
0 -15 -7 -15 -15z"/>
<path d="M1644 12979 c-23 -25 -26 -107 -5 -132 17 -21 64 -22 81 -2 7 8 15
34 17 58 4 33 0 48 -17 70 -26 32 -50 34 -76 6z m67 -33 c5 -16 5 -45 1 -65
-7 -30 -12 -36 -32 -36 -23 0 -25 4 -28 54 -4 67 2 83 30 79 14 -2 24 -13 29
-32z"/>
<path d="M1858 12993 c-22 -5 -24 -23 -3 -23 12 0 15 -13 15 -60 0 -54 -3 -62
-22 -70 -18 -7 -12 -9 27 -8 28 0 42 2 33 5 -15 4 -18 17 -18 84 0 43 -3 78
-7 78 -5 -1 -16 -3 -25 -6z"/>
<path d="M1975 12987 c-11 -9 -15 -19 -10 -27 6 -10 10 -9 17 4 5 9 18 16 28
16 28 0 26 -36 -2 -51 l-22 -12 23 -8 c17 -7 22 -15 19 -36 -4 -35 -37 -45
-45 -14 -7 28 -25 27 -21 -1 4 -34 60 -38 82 -7 14 20 14 26 1 45 -9 14 -11
25 -5 29 14 9 13 48 -2 63 -16 16 -40 15 -63 -1z"/>
<path d="M2097 12993 c-3 -5 -1 -17 4 -28 6 -17 8 -17 8 -2 1 13 10 17 36 17
19 0 35 -2 35 -5 0 -3 -14 -33 -31 -66 -16 -33 -28 -66 -26 -72 5 -12 77 132
77 152 0 12 -96 15 -103 4z"/>
<path d="M2300 12980 c-27 -27 -28 -110 -2 -133 45 -41 92 -7 92 66 0 49 -24
87 -55 87 -8 0 -24 -9 -35 -20z m66 -25 c18 -70 -20 -144 -52 -101 -19 26 -18
100 1 120 20 19 43 10 51 -19z"/>
<path d="M2440 12980 c-27 -27 -28 -110 -2 -133 45 -41 92 -7 92 66 0 49 -24
87 -55 87 -8 0 -24 -9 -35 -20z m66 -25 c18 -70 -20 -144 -52 -101 -19 26 -18
100 1 120 20 19 43 10 51 -19z"/>
<path d="M2603 12992 c-25 -4 -32 -22 -8 -22 12 0 15 -14 15 -64 0 -53 -3 -65
-17 -69 -10 -3 2 -5 26 -6 38 -1 42 1 28 12 -12 9 -17 31 -19 82 -3 66 -4 70
-25 67z"/>
<path d="M2788 12993 c-22 -5 -24 -23 -3 -23 12 0 15 -13 15 -60 0 -54 -3 -62
-22 -70 -18 -7 -12 -9 27 -8 28 0 42 2 33 5 -15 4 -18 17 -18 84 0 43 -3 78
-7 78 -5 -1 -16 -3 -25 -6z"/>
<path d="M2928 12993 c-22 -5 -24 -23 -3 -23 12 0 15 -13 15 -60 0 -54 -3 -62
-22 -70 -18 -7 -12 -9 27 -8 28 0 42 2 33 5 -15 4 -18 17 -18 84 0 43 -3 78
-7 78 -5 -1 -16 -3 -25 -6z"/>
<path d="M3060 12987 c-20 -8 -22 -11 -7 -14 14 -4 17 -16 17 -68 0 -52 -3
-64 -17 -68 -10 -3 5 -5 32 -5 28 0 42 2 33 5 -15 4 -18 16 -18 78 0 41 -3 76
-7 78 -5 3 -19 0 -33 -6z"/>
<path d="M3234 12979 c-23 -25 -26 -107 -5 -132 17 -21 64 -22 81 -2 7 8 15
34 17 58 4 33 0 48 -17 70 -26 32 -50 34 -76 6z m67 -33 c5 -16 5 -45 1 -65
-7 -30 -12 -36 -32 -36 -23 0 -25 4 -28 54 -4 67 2 83 30 79 14 -2 24 -13 29
-32z"/>
<path d="M3360 12973 c1 -24 2 -25 11 -10 9 15 69 26 69 12 0 -3 -14 -35 -30
-72 -17 -36 -28 -68 -25 -71 7 -7 8 -6 43 72 43 92 42 96 -18 96 -48 0 -50 -1
-50 -27z"/>
<path d="M3555 12986 c-11 -8 -16 -19 -12 -30 8 -19 27 -12 27 10 0 18 39 18
46 0 7 -18 -17 -65 -50 -95 -14 -14 -26 -28 -26 -33 0 -4 25 -8 55 -8 30 0 55
5 55 10 0 6 -17 10 -37 10 l-36 0 20 23 c44 48 53 85 27 111 -19 20 -44 20
-69 2z"/>
<path d="M3708 12940 l-37 -60 34 0 c41 0 55 -18 30 -37 -17 -12 -15 -13 21
-12 21 0 33 3 27 6 -7 2 -13 13 -13 23 0 10 6 21 13 23 10 4 10 6 0 6 -9 1
-13 19 -13 56 0 72 -15 71 -62 -5z m42 -10 c0 -36 -2 -40 -25 -40 -14 0 -25 2
-25 4 0 8 42 76 46 76 2 0 4 -18 4 -40z"/>
<path d="M3846 12987 c-28 -20 -17 -59 22 -76 23 -11 32 -21 32 -38 0 -28 -24
-40 -46 -22 -10 8 -13 21 -9 36 3 13 1 23 -5 23 -16 0 -23 -49 -10 -65 16 -20
64 -19 84 1 20 19 20 34 1 61 -10 14 -12 24 -5 28 17 10 11 44 -9 55 -25 13
-33 13 -55 -3z m51 -23 c3 -8 1 -20 -4 -25 -14 -14 -43 0 -43 22 0 24 38 26
47 3z"/>
<path d="M4032 12983 c-20 -17 -27 -49 -24 -100 4 -51 68 -71 96 -31 23 33 21
103 -4 128 -25 25 -42 25 -68 3z m62 -25 c18 -68 -6 -133 -41 -112 -18 11 -31
90 -19 120 9 23 53 17 60 -8z"/>
<path d="M4150 12973 c1 -25 2 -26 14 -10 14 18 66 24 66 7 0 -6 -14 -38 -31
-71 -17 -34 -28 -64 -25 -67 3 -3 8 -3 11 -1 12 13 73 158 68 163 -4 3 -28 6
-55 6 -46 0 -48 -1 -48 -27z"/>
<path d="M4355 12986 c-13 -9 -16 -18 -10 -32 8 -18 9 -17 12 4 6 30 53 32 53
2 0 -27 -22 -70 -49 -94 -32 -29 -26 -36 29 -36 28 0 50 5 50 10 0 6 -16 10
-36 10 l-36 0 31 35 c59 67 23 150 -44 101z"/>
<path d="M4505 12945 c-19 -30 -35 -57 -35 -60 0 -3 16 -5 35 -5 28 0 35 -4
35 -19 0 -11 -6 -22 -12 -24 -7 -3 2 -6 21 -6 30 -1 32 1 20 15 -11 14 -10 18
6 30 17 12 17 14 2 14 -14 0 -17 10 -17 55 0 30 -5 55 -10 55 -6 0 -26 -25
-45 -55z m35 -15 c0 -36 -2 -40 -26 -40 l-25 0 22 40 c13 22 24 40 26 40 2 0
3 -18 3 -40z"/>
<path d="M4636 12984 c-19 -19 -20 -36 -4 -52 9 -9 9 -15 0 -24 -17 -17 -15
-65 4 -72 25 -10 59 -7 72 6 14 14 16 54 2 63 -5 3 -7 19 -3 35 10 52 -36 80
-71 44z m54 -29 c0 -28 -21 -33 -40 -10 -15 18 -5 35 21 35 14 0 19 -7 19 -25z
m-6 -58 c26 -19 17 -52 -14 -52 -25 0 -37 22 -26 51 7 17 17 18 40 1z"/>
<path d="M4820 12980 c-27 -27 -28 -110 -2 -133 45 -41 92 -7 92 66 0 49 -24
87 -55 87 -8 0 -24 -9 -35 -20z m66 -25 c18 -70 -20 -144 -52 -101 -19 26 -18
100 1 120 20 19 43 10 51 -19z"/>
<path d="M4966 12987 c-28 -20 -17 -59 22 -76 23 -11 32 -21 32 -38 0 -28 -24
-40 -46 -22 -10 8 -13 21 -9 36 3 13 1 23 -5 23 -16 0 -23 -49 -10 -65 16 -20
64 -19 84 1 20 19 20 34 1 61 -10 14 -12 24 -5 28 17 10 11 44 -9 55 -25 13
-33 13 -55 -3z m51 -23 c3 -8 1 -20 -4 -25 -14 -14 -43 0 -43 22 0 24 38 26
47 3z"/>
<path d="M5102 12988 c-15 -15 -16 -38 -2 -38 6 0 10 7 10 15 0 20 36 19 44 0
3 -9 -3 -23 -13 -32 -19 -16 -19 -16 1 -33 15 -12 19 -22 14 -38 -9 -28 -43
-29 -51 -1 -5 15 -10 18 -18 10 -15 -15 10 -41 42 -41 15 0 32 5 39 12 17 17
15 55 -4 66 -14 8 -14 10 0 21 20 17 20 35 0 55 -18 19 -45 21 -62 4z"/>
<path d="M5285 12986 c-12 -8 -16 -19 -11 -31 7 -18 21 -13 21 8 0 7 10 13 23
15 37 6 30 -49 -13 -97 -19 -21 -35 -41 -35 -45 0 -3 23 -6 50 -6 28 0 50 5
50 10 0 6 -16 10 -36 10 l-37 0 28 28 c25 25 45 61 45 82 0 15 -31 40 -49 40
-9 0 -26 -6 -36 -14z"/>
<path d="M5435 12943 l-36 -58 36 -3 c26 -2 35 -8 35 -22 0 -10 -6 -21 -12
-23 -7 -3 5 -6 26 -6 37 -1 39 0 20 14 -19 15 -19 15 0 30 17 13 18 15 3 15
-14 0 -17 10 -17 55 0 30 -4 55 -9 55 -5 0 -26 -26 -46 -57z m32 -50 c-3 -2
-15 -3 -26 -1 -20 3 -20 3 2 38 l22 35 3 -33 c2 -19 1 -36 -1 -39z"/>
<path d="M5566 12978 c-11 -16 -12 -26 -5 -41 8 -13 8 -22 0 -30 -15 -15 -14
-50 1 -65 20 -20 65 -14 82 10 14 20 14 24 1 45 -12 17 -13 28 -5 42 13 25 13
27 -6 45 -22 22 -50 20 -68 -6z m58 -7 c10 -16 -6 -42 -23 -39 -9 2 -17 13
-19 26 -3 16 2 22 17 22 11 0 22 -4 25 -9z m-4 -76 c17 -20 8 -50 -14 -50 -23
0 -41 27 -33 49 8 20 31 21 47 1z"/>
<path d="M5756 12987 c-26 -19 -33 -99 -12 -132 29 -44 80 -31 96 24 12 43 2
88 -24 106 -25 18 -37 19 -60 2z m59 -71 c0 -45 -4 -61 -17 -70 -24 -15 -38 2
-45 51 -7 51 11 85 40 81 20 -3 22 -9 22 -62z"/>
<path d="M5880 12973 c1 -24 2 -25 11 -10 9 15 69 26 69 12 0 -3 -14 -35 -30
-72 -17 -36 -28 -68 -25 -71 7 -7 8 -6 43 72 43 92 42 96 -18 96 -48 0 -50 -1
-50 -27z"/>
<path d="M6030 12980 c-14 -14 -20 -33 -20 -63 0 -51 22 -87 55 -87 30 0 55
10 55 21 0 5 -11 3 -25 -3 -21 -10 -29 -9 -43 6 -24 24 -23 103 1 121 22 16
47 9 47 -11 0 -8 5 -14 10 -14 14 0 13 23 -2 38 -18 18 -56 14 -78 -8z"/>
<path d="M6178 12989 c-19 -11 -25 -39 -8 -39 6 0 10 7 10 15 0 20 39 19 47
-1 4 -11 -2 -23 -17 -34 l-23 -18 21 -6 c15 -5 22 -15 22 -32 0 -35 -28 -43
-50 -14 -12 16 -19 19 -24 11 -11 -18 13 -41 43 -41 32 0 51 16 51 45 0 12 -5
26 -12 33 -9 9 -9 15 0 24 18 18 14 46 -7 58 -24 12 -31 12 -53 -1z"/>
<path d="M6316 12987 c-28 -20 -17 -59 22 -76 23 -11 32 -21 32 -38 0 -28 -24
-40 -46 -22 -10 8 -13 21 -9 36 3 13 1 23 -5 23 -16 0 -23 -49 -10 -65 16 -20
64 -19 84 1 20 19 20 34 1 61 -10 14 -12 24 -5 28 17 10 11 44 -9 55 -25 13
-33 13 -55 -3z m51 -23 c3 -8 1 -20 -4 -25 -14 -14 -43 0 -43 22 0 24 38 26
47 3z"/>
<path d="M6440 12954 c0 -41 2 -45 20 -39 27 9 50 -11 50 -42 0 -34 -29 -41
-50 -13 -12 16 -19 19 -24 11 -11 -18 13 -41 43 -41 34 0 51 17 51 50 0 32
-17 50 -47 50 -18 0 -23 6 -23 25 0 21 5 25 30 25 17 0 30 5 30 10 0 6 -18 10
-40 10 l-40 0 0 -46z"/>
<path d="M6642 12983 c-20 -17 -27 -49 -24 -100 4 -51 68 -71 96 -31 23 33 21
103 -4 128 -25 25 -42 25 -68 3z m62 -25 c18 -68 -6 -133 -41 -112 -18 11 -31
90 -19 120 9 23 53 17 60 -8z"/>
<path d="M6776 12978 c-11 -16 -12 -26 -5 -41 8 -13 8 -22 0 -30 -15 -15 -14
-50 1 -65 20 -20 65 -14 82 10 14 20 14 24 1 45 -12 17 -13 28 -5 42 13 25 13
27 -6 45 -22 22 -50 20 -68 -6z m58 -7 c10 -16 -6 -42 -23 -39 -9 2 -17 13
-19 26 -3 16 2 22 17 22 11 0 22 -4 25 -9z m-4 -76 c17 -20 8 -50 -14 -50 -23
0 -41 27 -33 49 8 20 31 21 47 1z"/>
<path d="M6910 12980 c-24 -24 -24 -29 -4 -58 8 -12 26 -22 40 -22 32 0 31
-23 -3 -49 -16 -11 -22 -21 -15 -21 8 0 27 13 43 29 22 23 29 39 29 69 0 64
-49 93 -90 52z m66 -26 c7 -28 -9 -46 -36 -41 -16 2 -25 30 -16 53 9 25 45 17
52 -12z"/>
<path d="M7115 12945 c-19 -30 -35 -57 -35 -60 0 -3 16 -5 35 -5 28 0 35 -4
35 -19 0 -11 -6 -22 -12 -24 -7 -3 2 -6 21 -6 30 -1 32 1 20 15 -11 14 -10 18
6 30 17 12 17 14 2 14 -14 0 -17 10 -17 55 0 30 -5 55 -10 55 -6 0 -26 -25
-45 -55z m35 -15 c0 -36 -2 -40 -26 -40 l-25 0 22 40 c13 22 24 40 26 40 2 0
3 -18 3 -40z"/>
<path d="M7237 12982 c-34 -38 -15 -82 35 -82 15 0 28 -4 28 -8 0 -13 -23 -38
-45 -50 -11 -6 -14 -12 -7 -12 66 -1 108 130 52 160 -27 15 -45 12 -63 -8z
m61 -35 c4 -33 -22 -47 -45 -24 -22 21 -8 59 20 55 16 -2 23 -11 25 -31z"/>
<path d="M7408 12984 c-52 -27 -62 -138 -13 -150 38 -9 59 -1 69 28 12 35 -17
72 -51 65 -31 -6 -30 16 4 42 32 26 27 34 -9 15z m35 -93 c6 -23 -10 -51 -29
-51 -16 0 -38 46 -28 61 10 17 51 10 57 -10z"/>
<path d="M7590 12987 c-20 -8 -22 -11 -7 -14 14 -4 17 -16 17 -68 0 -52 -3
-64 -17 -68 -10 -3 2 -5 26 -6 38 -1 42 1 28 12 -12 9 -17 31 -19 83 l-3 71
-25 -10z"/>
<path d="M7700 12956 c0 -43 1 -44 33 -42 29 1 32 -2 35 -32 4 -42 -23 -55
-48 -22 -12 16 -19 19 -24 11 -12 -18 13 -41 45 -41 19 0 34 8 45 25 15 23 15
27 0 50 -10 16 -26 25 -41 25 -20 0 -25 5 -25 25 0 22 4 25 36 25 21 0 33 4
29 10 -3 6 -24 10 -46 10 l-39 0 0 -44z"/>
<path d="M7840 12956 c0 -43 1 -44 33 -42 29 1 32 -2 35 -32 4 -42 -23 -55
-48 -22 -12 16 -19 19 -24 11 -12 -18 13 -41 45 -41 19 0 34 8 45 25 15 23 15
27 0 50 -10 16 -26 25 -41 25 -20 0 -25 5 -25 25 0 22 4 25 36 25 21 0 33 4
29 10 -3 6 -24 10 -46 10 l-39 0 0 -44z"/>
<path d="M8045 12943 l-36 -58 36 -3 c26 -2 35 -8 35 -22 0 -10 -6 -21 -12
-23 -7 -3 5 -6 26 -6 37 -1 39 0 20 14 -19 15 -19 15 0 30 17 13 18 15 3 15
-14 0 -17 10 -17 55 0 30 -4 55 -9 55 -5 0 -26 -26 -46 -57z m32 -50 c-3 -2
-15 -3 -26 -1 -20 3 -20 3 2 38 l22 35 3 -33 c2 -19 1 -36 -1 -39z"/>
<path d="M8169 12981 c-20 -16 -22 -23 -14 -47 8 -23 17 -30 43 -32 17 -2 32
-7 32 -11 0 -12 -23 -38 -45 -49 -17 -10 -17 -11 -3 -12 58 -1 101 107 59 149
-26 26 -42 26 -72 2z m65 -28 c5 -17 3 -29 -6 -35 -24 -15 -43 -4 -46 30 -3
28 0 32 21 32 19 0 27 -7 31 -27z"/>
<path d="M8355 12991 c-52 -22 -79 -105 -46 -145 16 -19 62 -21 79 -4 32 32
-1 94 -44 84 -33 -9 -30 10 7 45 17 16 30 29 28 28 -2 0 -13 -4 -24 -8z m23
-107 c4 -25 -22 -49 -43 -40 -9 3 -15 18 -15 36 0 28 3 31 28 28 18 -2 28 -9
30 -24z"/>
<path d="M8520 12987 c-20 -8 -22 -11 -7 -14 14 -4 17 -16 17 -68 0 -52 -3
-64 -17 -68 -10 -3 5 -5 32 -5 28 0 42 2 33 5 -15 4 -18 16 -18 78 0 41 -3 76
-7 78 -5 3 -19 0 -33 -6z"/>
<path d="M8634 12986 c-3 -8 -4 -27 -2 -43 3 -24 7 -28 30 -25 34 3 54 -28 38
-58 -14 -27 -39 -25 -49 3 -8 19 -10 20 -16 5 -4 -9 -4 -22 0 -28 10 -15 62
-12 79 6 33 32 8 84 -40 84 -19 0 -24 5 -24 25 0 22 4 25 35 25 19 0 35 5 35
10 0 16 -80 12 -86 -4z"/>
<path d="M8786 12987 c-28 -20 -17 -59 22 -76 23 -11 32 -21 32 -38 0 -28 -24
-40 -46 -22 -10 8 -13 21 -9 36 3 13 1 23 -5 23 -16 0 -23 -49 -10 -65 16 -20
64 -19 84 1 20 19 20 34 1 61 -10 14 -12 24 -5 28 17 10 11 44 -9 55 -25 13
-33 13 -55 -3z m51 -23 c3 -8 1 -20 -4 -25 -14 -14 -43 0 -43 22 0 24 38 26
47 3z"/>
<path d="M8972 12988 c-15 -15 -16 -38 -2 -38 6 0 10 7 10 15 0 20 36 19 44 0
3 -9 -3 -23 -13 -32 -19 -16 -19 -16 1 -33 15 -12 19 -22 14 -38 -9 -28 -43
-29 -51 -1 -5 15 -10 18 -18 10 -15 -15 10 -41 42 -41 15 0 32 5 39 12 17 17
15 55 -4 66 -14 8 -14 10 0 21 20 17 20 35 0 55 -18 19 -45 21 -62 4z"/>
<path d="M9106 12978 c-11 -16 -12 -26 -5 -41 8 -13 8 -22 0 -30 -15 -15 -14
-50 1 -65 20 -20 65 -14 82 10 14 20 14 24 1 45 -12 17 -13 28 -5 42 13 25 13
27 -6 45 -22 22 -50 20 -68 -6z m58 -7 c10 -16 -6 -42 -23 -39 -9 2 -17 13
-19 26 -3 16 2 22 17 22 11 0 22 -4 25 -9z m-4 -76 c17 -20 8 -50 -14 -50 -23
0 -41 27 -33 49 8 20 31 21 47 1z"/>
<path d="M9240 12954 c0 -41 2 -45 20 -39 27 9 50 -11 50 -42 0 -34 -29 -41
-50 -13 -12 16 -19 19 -24 11 -11 -18 13 -41 43 -41 34 0 51 17 51 50 0 32
-17 50 -47 50 -18 0 -23 6 -23 25 0 21 5 25 30 25 17 0 30 5 30 10 0 6 -18 10
-40 10 l-40 0 0 -46z"/>
<path d="M9436 12987 c-26 -19 -33 -99 -12 -132 29 -44 80 -31 96 24 12 43 2
88 -24 106 -25 18 -37 19 -60 2z m59 -71 c0 -45 -4 -61 -17 -70 -24 -15 -38 2
-45 51 -7 51 11 85 40 81 20 -3 22 -9 22 -62z"/>
<path d="M9576 12984 c-19 -19 -20 -36 -4 -52 9 -9 9 -15 0 -24 -17 -17 -15
-65 4 -72 25 -10 59 -7 72 6 14 14 16 54 2 63 -5 3 -7 19 -3 35 10 52 -36 80
-71 44z m54 -29 c0 -28 -21 -33 -40 -10 -15 18 -5 35 21 35 14 0 19 -7 19 -25z
m-6 -58 c26 -19 17 -52 -14 -52 -25 0 -37 22 -26 51 7 17 17 18 40 1z"/>
<path d="M9738 12984 c-52 -27 -62 -138 -13 -150 38 -9 59 -1 69 28 12 35 -17
72 -51 65 -31 -6 -30 16 4 42 32 26 27 34 -9 15z m35 -93 c6 -23 -10 -51 -29
-51 -16 0 -38 46 -28 61 10 17 51 10 57 -10z"/>
<path d="M9908 12940 l-37 -60 34 0 c41 0 55 -18 30 -37 -17 -12 -15 -13 21
-12 21 0 33 3 27 6 -7 2 -13 13 -13 23 0 10 6 21 13 23 10 4 10 6 0 6 -9 1
-13 19 -13 56 0 72 -15 71 -62 -5z m42 -10 c0 -36 -2 -40 -25 -40 -14 0 -25 2
-25 4 0 8 42 76 46 76 2 0 4 -18 4 -40z"/>
<path d="M10037 12982 c-34 -38 -15 -82 35 -82 15 0 28 -4 28 -8 0 -13 -23
-38 -45 -50 -11 -6 -14 -12 -7 -12 66 -1 108 130 52 160 -27 15 -45 12 -63 -8z
m61 -35 c4 -33 -22 -47 -45 -24 -22 21 -8 59 20 55 16 -2 23 -11 25 -31z"/>
<path d="M10203 12980 c-23 -14 -34 -29 -39 -56 -10 -56 5 -88 43 -92 60 -6
81 74 24 93 -10 3 -26 3 -35 -1 -15 -6 -15 -3 -5 20 7 14 20 28 31 31 10 4 18
11 18 16 0 12 0 12 -37 -11z m32 -105 c0 -37 -28 -46 -45 -15 -16 29 -5 52 22
48 18 -2 23 -9 23 -33z"/>
<path d="M10388 12993 c-22 -5 -24 -23 -3 -23 12 0 15 -13 15 -60 0 -54 -3
-62 -22 -70 -18 -7 -12 -9 27 -8 28 0 42 2 33 5 -15 4 -18 17 -18 84 0 43 -3
78 -7 78 -5 -1 -16 -3 -25 -6z"/>
<path d="M10500 12954 c0 -41 2 -45 20 -39 27 9 50 -11 50 -42 0 -34 -29 -41
-50 -13 -12 16 -19 19 -24 11 -11 -18 13 -41 43 -41 34 0 51 17 51 50 0 32
-17 50 -47 50 -18 0 -23 6 -23 25 0 21 5 25 30 25 17 0 30 5 30 10 0 6 -18 10
-40 10 l-40 0 0 -46z"/>
<path d="M10646 12984 c-19 -19 -20 -36 -4 -52 9 -9 9 -15 0 -24 -17 -17 -15
-65 4 -72 25 -10 59 -7 72 6 14 14 16 54 2 63 -5 3 -7 19 -3 35 10 52 -36 80
-71 44z m54 -29 c0 -28 -21 -33 -40 -10 -15 18 -5 35 21 35 14 0 19 -7 19 -25z
m-6 -58 c26 -19 17 -52 -14 -52 -25 0 -37 22 -26 51 7 17 17 18 40 1z"/>
<path d="M10833 12993 c-15 -6 -17 -39 -3 -48 6 -3 10 3 10 15 0 16 5 21 23
18 35 -5 32 -39 -8 -90 -19 -26 -35 -49 -35 -52 0 -3 23 -6 50 -6 28 0 50 5
50 10 0 6 -16 10 -36 10 l-36 0 31 35 c36 42 42 89 12 105 -21 11 -38 12 -58
3z"/>
<path d="M10978 12940 l-37 -60 34 0 c41 0 55 -18 30 -37 -17 -12 -15 -13 21
-12 21 0 33 3 27 6 -7 2 -13 13 -13 23 0 10 6 21 13 23 10 4 10 6 0 6 -9 1
-13 19 -13 56 0 72 -15 71 -62 -5z m42 -10 c0 -36 -2 -40 -25 -40 -14 0 -25 2
-25 4 0 8 42 76 46 76 2 0 4 -18 4 -40z"/>
<path d="M11116 12987 c-28 -20 -17 -59 22 -76 23 -11 32 -21 32 -38 0 -28
-24 -40 -46 -22 -10 8 -13 21 -9 36 3 13 1 23 -5 23 -16 0 -23 -49 -10 -65 16
-20 64 -19 84 1 20 19 20 34 1 61 -10 14 -12 24 -5 28 17 10 11 44 -9 55 -25
13 -33 13 -55 -3z m51 -23 c3 -8 1 -20 -4 -25 -14 -14 -43 0 -43 22 0 24 38
26 47 3z"/>
<path d="M1527 12932 c-19 -21 -22 -54 -7 -83 12 -21 64 -27 75 -9 4 7 -2 9
-19 4 -34 -8 -56 32 -38 71 13 27 42 34 42 10 0 -8 5 -15 10 -15 16 0 11 27
-6 34 -26 10 -40 7 -57 -12z"/>
<path d="M2230 12846 c0 -9 5 -16 10 -16 6 0 10 4 10 9 0 6 -4 13 -10 16 -5 3
-10 -1 -10 -9z"/>
<path d="M3160 12845 c0 -8 5 -15 10 -15 6 0 10 7 10 15 0 8 -4 15 -10 15 -5
0 -10 -7 -10 -15z"/>
<path d="M3956 12853 c-11 -11 -6 -23 9 -23 8 0 15 4 15 9 0 13 -16 22 -24 14z"/>
<path d="M4750 12845 c0 -8 5 -15 10 -15 6 0 10 7 10 15 0 8 -4 15 -10 15 -5
0 -10 -7 -10 -15z"/>
<path d="M5685 12849 c-10 -15 3 -25 16 -12 7 7 7 13 1 17 -6 3 -14 1 -17 -5z"/>
<path d="M6565 12849 c-10 -15 3 -25 16 -12 7 7 7 13 1 17 -6 3 -14 1 -17 -5z"/>
<path d="M7500 12846 c0 -9 5 -16 10 -16 6 0 10 4 10 9 0 6 -4 13 -10 16 -5 3
-10 -1 -10 -9z"/>
<path d="M8430 12845 c0 -8 5 -15 10 -15 6 0 10 7 10 15 0 8 -4 15 -10 15 -5
0 -10 -7 -10 -15z"/>
<path d="M9365 12849 c-10 -15 3 -25 16 -12 7 7 7 13 1 17 -6 3 -14 1 -17 -5z"/>
<path d="M10296 12853 c-11 -11 -6 -23 9 -23 8 0 15 4 15 9 0 13 -16 22 -24
14z"/>
<path d="M1764 12826 c1 -18 4 -22 14 -14 16 14 15 38 -2 38 -8 0 -13 -9 -12
-24z"/>
<path d="M2694 12825 c1 -28 11 -33 20 -9 9 24 7 34 -8 34 -9 0 -13 -10 -12
-25z"/>
<path d="M3493 12823 c0 -25 0 -25 13 -8 13 18 11 35 -5 35 -5 0 -8 -12 -8
-27z"/>
<path d="M4284 12826 c1 -18 4 -22 14 -14 16 14 15 38 -2 38 -8 0 -13 -9 -12
-24z"/>
<path d="M5214 12825 c1 -28 11 -33 20 -9 9 24 7 34 -8 34 -9 0 -13 -10 -12
-25z"/>
<path d="M7034 12826 c1 -18 4 -22 14 -14 16 14 15 38 -2 38 -8 0 -13 -9 -12
-24z"/>
<path d="M7964 12825 c1 -28 11 -33 20 -9 9 24 7 34 -8 34 -9 0 -13 -10 -12
-25z"/>
<path d="M8894 12825 c1 -28 11 -33 20 -9 9 24 7 34 -8 34 -9 0 -13 -10 -12
-25z"/>
<path d="M9825 12825 c0 -30 19 -27 23 3 2 13 -2 22 -10 22 -7 0 -13 -11 -13
-25z"/>
<path d="M10763 12823 c0 -25 0 -25 13 -8 13 18 11 35 -5 35 -5 0 -8 -12 -8
-27z"/>
<path d="M1592 12693 c-20 -17 -27 -49 -24 -100 4 -51 68 -71 96 -31 23 33 21
103 -4 128 -25 25 -42 25 -68 3z m62 -25 c18 -68 -6 -133 -41 -112 -18 11 -31
90 -19 120 9 23 53 17 60 -8z"/>
<path d="M1726 12688 c-11 -16 -12 -26 -5 -41 8 -13 8 -22 0 -30 -15 -15 -14
-50 1 -65 20 -20 65 -14 82 10 14 20 14 24 1 45 -12 17 -13 28 -5 42 13 25 13
27 -6 45 -22 22 -50 20 -68 -6z m58 -7 c10 -16 -6 -42 -23 -39 -9 2 -17 13
-19 26 -3 16 2 22 17 22 11 0 22 -4 25 -9z m-4 -76 c17 -20 8 -50 -14 -50 -23
0 -41 27 -33 49 8 20 31 21 47 1z"/>
<path d="M1860 12666 c0 -42 2 -45 26 -43 33 3 54 -25 38 -50 -17 -27 -43 -28
-53 -1 -8 21 -10 21 -16 4 -9 -22 8 -36 46 -36 32 0 49 17 49 50 0 34 -17 50
-52 50 -23 0 -28 4 -28 25 0 22 4 25 35 25 19 0 35 5 35 10 0 6 -18 10 -40 10
l-40 0 0 -44z"/>
<path d="M2100 12685 c0 -14 5 -25 10 -25 6 0 10 11 10 25 0 14 -4 25 -10 25
-5 0 -10 -11 -10 -25z"/>
<path d="M2140 12685 c0 -14 5 -25 10 -25 6 0 10 11 10 25 0 14 -4 25 -10 25
-5 0 -10 -11 -10 -25z"/>
<path d="M2325 12695 c-5 -11 -21 -53 -37 -94 -16 -40 -27 -78 -25 -84 2 -6
20 31 41 82 20 51 35 98 33 105 -3 6 -8 2 -12 -9z"/>
<path d="M1980 12638 c1 -22 1 -22 15 -5 7 10 21 17 29 15 13 -2 11 -11 -14
-48 -16 -25 -30 -48 -30 -52 0 -15 78 -8 84 7 3 8 1 15 -4 15 -6 0 -10 -4 -10
-10 0 -5 -11 -10 -25 -10 l-26 0 31 44 c16 25 30 49 30 55 0 6 -18 11 -40 11
-35 0 -40 -3 -40 -22z"/>
<path d="M2384 12651 c3 -4 19 -14 36 -21 39 -16 38 -23 -5 -39 -19 -7 -35
-17 -35 -22 0 -5 17 -2 38 7 20 9 43 18 50 21 21 9 13 18 -33 41 -50 24 -59
26 -51 13z"/>
<path d="M1516 12563 c-11 -11 -6 -23 9 -23 8 0 15 4 15 9 0 13 -16 22 -24 14z"/>
</g>
</svg>
