<svg width="262" height="36" viewBox="0 0 262 36" fill="none" xmlns="http://www.w3.org/2000/svg">
<rect width="262" height="36" rx="18" fill="#06192B"/>
<path d="M121.238 19.905L119.918 16.2975C119.853 16.1375 119.785 15.9475 119.715 15.7275C119.645 15.5075 119.575 15.27 119.505 15.015C119.44 15.27 119.373 15.51 119.303 15.735C119.233 15.955 119.165 16.1475 119.1 16.3125L117.788 19.905H121.238ZM124.8 24H123.24C123.065 24 122.923 23.9575 122.813 23.8725C122.703 23.7825 122.62 23.6725 122.565 23.5425L121.755 21.33H117.263L116.453 23.5425C116.413 23.6575 116.335 23.7625 116.22 23.8575C116.105 23.9525 115.963 24 115.793 24H114.218L118.485 13.155H120.54L124.8 24ZM127.348 17.25C127.503 17.095 127.666 16.9525 127.836 16.8225C128.011 16.6875 128.193 16.575 128.383 16.485C128.578 16.39 128.786 16.3175 129.006 16.2675C129.226 16.2125 129.466 16.185 129.726 16.185C130.146 16.185 130.518 16.2575 130.843 16.4025C131.168 16.5425 131.438 16.7425 131.653 17.0025C131.873 17.2575 132.038 17.565 132.148 17.925C132.263 18.28 132.321 18.6725 132.321 19.1025V24H130.468V19.1025C130.468 18.6325 130.361 18.27 130.146 18.015C129.931 17.755 129.603 17.625 129.163 17.625C128.843 17.625 128.543 17.6975 128.263 17.8425C127.983 17.9875 127.718 18.185 127.468 18.435V24H125.616V16.305H126.748C126.988 16.305 127.146 16.4175 127.221 16.6425L127.348 17.25ZM129.808 13.8075C129.958 13.8075 130.076 13.7675 130.161 13.6875C130.246 13.6025 130.288 13.4525 130.288 13.2375H131.413C131.413 13.5175 131.373 13.7725 131.293 14.0025C131.218 14.2275 131.113 14.4225 130.978 14.5875C130.843 14.7475 130.681 14.8725 130.491 14.9625C130.306 15.0475 130.101 15.09 129.876 15.09C129.696 15.09 129.528 15.0575 129.373 14.9925C129.218 14.9275 129.073 14.8575 128.938 14.7825C128.803 14.7075 128.676 14.6375 128.556 14.5725C128.441 14.5075 128.333 14.475 128.233 14.475C128.088 14.475 127.973 14.52 127.888 14.61C127.808 14.695 127.768 14.8425 127.768 15.0525H126.621C126.621 14.7725 126.658 14.52 126.733 14.295C126.813 14.065 126.923 13.87 127.063 13.71C127.203 13.545 127.366 13.4175 127.551 13.3275C127.741 13.2375 127.946 13.1925 128.166 13.1925C128.346 13.1925 128.513 13.225 128.668 13.29C128.828 13.355 128.976 13.425 129.111 13.5C129.246 13.575 129.371 13.645 129.486 13.71C129.601 13.775 129.708 13.8075 129.808 13.8075ZM138.147 20.715C137.612 20.74 137.162 20.7875 136.797 20.8575C136.432 20.9225 136.14 21.0075 135.92 21.1125C135.7 21.2175 135.542 21.34 135.447 21.48C135.352 21.62 135.305 21.7725 135.305 21.9375C135.305 22.2625 135.4 22.495 135.59 22.635C135.785 22.775 136.037 22.845 136.347 22.845C136.727 22.845 137.055 22.7775 137.33 22.6425C137.61 22.5025 137.882 22.2925 138.147 22.0125V20.715ZM133.902 17.3775C134.787 16.5675 135.852 16.1625 137.097 16.1625C137.547 16.1625 137.95 16.2375 138.305 16.3875C138.66 16.5325 138.96 16.7375 139.205 17.0025C139.45 17.2625 139.635 17.575 139.76 17.94C139.89 18.305 139.955 18.705 139.955 19.14V24H139.115C138.94 24 138.805 23.975 138.71 23.925C138.615 23.87 138.54 23.7625 138.485 23.6025L138.32 23.0475C138.125 23.2225 137.935 23.3775 137.75 23.5125C137.565 23.6425 137.372 23.7525 137.172 23.8425C136.972 23.9325 136.757 24 136.527 24.045C136.302 24.095 136.052 24.12 135.777 24.12C135.452 24.12 135.152 24.0775 134.877 23.9925C134.602 23.9025 134.365 23.77 134.165 23.595C133.965 23.42 133.81 23.2025 133.7 22.9425C133.59 22.6825 133.535 22.38 133.535 22.035C133.535 21.84 133.567 21.6475 133.632 21.4575C133.697 21.2625 133.802 21.0775 133.947 20.9025C134.097 20.7275 134.29 20.5625 134.525 20.4075C134.76 20.2525 135.047 20.1175 135.387 20.0025C135.732 19.8875 136.132 19.795 136.587 19.725C137.042 19.65 137.562 19.605 138.147 19.59V19.14C138.147 18.625 138.037 18.245 137.817 18C137.597 17.75 137.28 17.625 136.865 17.625C136.565 17.625 136.315 17.66 136.115 17.73C135.92 17.8 135.747 17.88 135.597 17.97C135.447 18.055 135.31 18.1325 135.185 18.2025C135.065 18.2725 134.93 18.3075 134.78 18.3075C134.65 18.3075 134.54 18.275 134.45 18.21C134.36 18.14 134.287 18.06 134.232 17.97L133.902 17.3775ZM146.53 18.27C146.32 18.015 146.09 17.835 145.84 17.73C145.595 17.625 145.33 17.5725 145.045 17.5725C144.765 17.5725 144.512 17.625 144.287 17.73C144.062 17.835 143.87 17.995 143.71 18.21C143.55 18.42 143.427 18.69 143.342 19.02C143.257 19.345 143.215 19.73 143.215 20.175C143.215 20.625 143.25 21.0075 143.32 21.3225C143.395 21.6325 143.5 21.8875 143.635 22.0875C143.77 22.2825 143.935 22.425 144.13 22.515C144.325 22.6 144.542 22.6425 144.782 22.6425C145.167 22.6425 145.495 22.5625 145.765 22.4025C146.035 22.2425 146.29 22.015 146.53 21.72V18.27ZM148.382 12.855V24H147.25C147.005 24 146.85 23.8875 146.785 23.6625L146.627 22.92C146.317 23.275 145.96 23.5625 145.555 23.7825C145.155 24.0025 144.687 24.1125 144.152 24.1125C143.732 24.1125 143.347 24.025 142.997 23.85C142.647 23.675 142.345 23.4225 142.09 23.0925C141.84 22.7575 141.645 22.345 141.505 21.855C141.37 21.365 141.302 20.805 141.302 20.175C141.302 19.605 141.38 19.075 141.535 18.585C141.69 18.095 141.912 17.67 142.202 17.31C142.492 16.95 142.84 16.67 143.245 16.47C143.65 16.265 144.105 16.1625 144.61 16.1625C145.04 16.1625 145.407 16.23 145.712 16.365C146.017 16.5 146.29 16.6825 146.53 16.9125V12.855H148.382ZM152.13 16.305V24H150.27V16.305H152.13ZM152.385 14.0625C152.385 14.2225 152.353 14.3725 152.288 14.5125C152.223 14.6525 152.135 14.775 152.025 14.88C151.92 14.985 151.795 15.07 151.65 15.135C151.505 15.195 151.35 15.225 151.185 15.225C151.025 15.225 150.873 15.195 150.728 15.135C150.588 15.07 150.465 14.985 150.36 14.88C150.255 14.775 150.17 14.6525 150.105 14.5125C150.045 14.3725 150.015 14.2225 150.015 14.0625C150.015 13.8975 150.045 13.7425 150.105 13.5975C150.17 13.4525 150.255 13.3275 150.36 13.2225C150.465 13.1175 150.588 13.035 150.728 12.975C150.873 12.91 151.025 12.8775 151.185 12.8775C151.35 12.8775 151.505 12.91 151.65 12.975C151.795 13.035 151.92 13.1175 152.025 13.2225C152.135 13.3275 152.223 13.4525 152.288 13.5975C152.353 13.7425 152.385 13.8975 152.385 14.0625ZM155.767 17.64C156.007 17.18 156.292 16.82 156.622 16.56C156.952 16.295 157.342 16.1625 157.792 16.1625C158.147 16.1625 158.432 16.24 158.647 16.395L158.527 17.7825C158.502 17.8725 158.464 17.9375 158.414 17.9775C158.369 18.0125 158.307 18.03 158.227 18.03C158.152 18.03 158.039 18.0175 157.889 17.9925C157.744 17.9675 157.602 17.955 157.462 17.955C157.257 17.955 157.074 17.985 156.914 18.045C156.754 18.105 156.609 18.1925 156.479 18.3075C156.354 18.4175 156.242 18.5525 156.142 18.7125C156.047 18.8725 155.957 19.055 155.872 19.26V24H154.019V16.305H155.107C155.297 16.305 155.429 16.34 155.504 16.41C155.579 16.475 155.629 16.595 155.654 16.77L155.767 17.64Z" fill="white"/>
<!-- <path d="M108 19.3344C107.985 19.3805 107.972 19.4275 107.955 19.473C107.85 19.7507 107.6 19.9113 107.272 19.9119C106.573 19.9128 105.873 19.9128 105.173 19.9119H103.911V20.045C103.911 21.1201 103.911 22.1951 103.911 23.2702C103.911 23.622 103.734 23.8785 103.431 23.9736C103.41 23.9821 103.388 23.9874 103.365 23.9894C103.125 23.9911 102.883 24.0146 102.646 23.9857C102.341 23.9488 102.127 23.6918 102.098 23.3849C102.093 23.3332 102.092 23.2809 102.092 23.2288C102.092 22.1702 102.092 21.1116 102.092 20.0529V19.9124H101.961C100.887 19.9124 99.8131 19.9124 98.7391 19.9124C98.3875 19.9124 98.1305 19.737 98.0351 19.4339C98.0181 19.3847 98.0079 19.3334 98.005 19.2814C98.0014 19.0958 97.9958 18.9098 98.005 18.7246C98.0223 18.3987 98.286 18.1312 98.6116 18.0996C98.6667 18.0947 98.722 18.0926 98.7773 18.0932C99.8348 18.0932 100.892 18.0932 101.95 18.0932H102.092V17.9634C102.092 16.9178 102.099 15.8721 102.088 14.8268C102.084 14.453 102.202 14.1235 102.669 14H103.333C103.801 14.1224 103.918 14.4545 103.915 14.8264C103.904 15.8715 103.911 16.9168 103.911 17.9621V18.0932H104.051C105.112 18.0932 106.172 18.0932 107.233 18.0932C107.285 18.0922 107.337 18.0943 107.388 18.0996C107.673 18.1355 107.864 18.2919 107.963 18.5603C107.977 18.5967 107.988 18.634 108 18.671L108 19.3344Z" fill="white"/> -->
</svg>
