<svg width="81" height="80" viewBox="0 0 81 80" fill="none" xmlns="http://www.w3.org/2000/svg">
<path d="M48.3833 80C47.2351 78.9895 47.3186 78.215 48.6652 77.4112C50.2289 76.4759 51.7968 75.5552 53.348 74.5844C53.4852 74.4886 53.6004 74.3645 53.6858 74.2204C53.7711 74.0764 53.8246 73.9158 53.8428 73.7493C53.8664 60.9877 53.8727 48.2261 53.8615 35.4644C53.8615 35.3642 53.8448 35.2557 53.8219 35.0344C53.0139 35.6336 52.2707 36.1826 51.5254 36.7338C50.0306 37.8466 49.6986 37.7944 48.5671 36.2828C46.0096 32.859 43.4667 29.4267 40.88 26.0279C40.3122 25.2826 39.9572 24.5435 40.0721 23.5999C40.0921 23.2466 40.0921 22.8925 40.0721 22.5393H38.8528C38.667 23.5393 37.9572 23.771 37.0156 23.7439C35.6064 23.7042 34.1972 23.7439 32.788 23.7293C31.7671 23.7293 31.3119 23.2679 31.3057 22.2449C31.3126 20.3242 31.3161 18.4021 31.3161 16.4786C31.3161 15.4598 31.7754 15.0172 32.8026 15.0005C34.2118 15.0005 35.621 15.0318 37.0302 14.988C37.9781 14.9587 38.6754 15.2072 38.88 16.2406C39.5919 16.2406 40.2704 16.2698 40.9447 16.2406C41.2556 16.2151 41.5677 16.2716 41.8498 16.4046C42.1319 16.5376 42.3742 16.7424 42.5523 16.9984C44.4313 19.3388 46.3269 21.6541 48.2184 23.9777C48.3792 24.174 48.5483 24.3619 48.8447 24.7126V20.5142C48.8447 17.6999 50.3061 16.2427 53.1455 16.2406H58.6237C58.6902 16.2289 58.7554 16.21 58.8178 16.1842V15.0172C57.2145 14.8877 55.7677 14.3909 54.5568 13.299C53.3459 12.2071 52.7321 10.9398 52.7509 9.31349C52.7801 6.73514 52.7509 4.15678 52.7509 1.58887C52.7509 0.421827 53.1809 0.0021922 54.3647 0.000104462C57.0787 0.000104462 59.7928 0.000104462 62.5069 0.000104462C64.8597 -0.0145097 66.39 1.50536 66.39 3.86241C66.4026 7.66626 66.39 11.468 66.39 15.2698V16.2406H69.0477C69.7784 16.2406 70.5091 16.2406 71.2399 16.2406C73.5739 16.2698 75.1585 17.8398 75.1585 20.1864C75.1585 28.5206 75.1585 36.8542 75.1585 45.187V46.2455C76.24 46.2455 77.2985 46.2852 78.3528 46.2309C79.121 46.1933 79.7265 46.3896 80.1691 47.0263V57.9661C79.7265 58.5924 79.1252 58.7803 78.3569 58.7615C76.5343 58.7155 74.7118 58.7469 72.8871 58.7469H71.4006V59.7093C71.4006 65.8702 71.3902 72.0269 71.4152 78.192C71.4152 78.954 71.2503 79.5574 70.6177 80H57.1518C56.0495 79.0292 56.0808 78.3423 57.2708 77.453C58.4608 76.5636 59.5924 75.6867 60.7824 74.8433C60.986 74.7145 61.1505 74.5324 61.258 74.3167C61.3654 74.101 61.4118 73.86 61.392 73.6199C61.3753 63.5723 61.3711 53.5254 61.3795 43.4793V42.544H63.9182V46.2038H67.5926V38.8006H56.3689V39.7861C56.3689 51.3688 56.3731 62.9516 56.3814 74.5343C56.3814 75.3569 56.1226 75.9206 55.3835 76.3068C54.7822 76.62 54.2206 77.0104 53.6402 77.3674L53.6987 77.5239H55.1163V80H48.3833ZM59.9556 18.7417C57.584 18.7417 55.2666 18.7417 52.9513 18.7417C51.7843 18.7417 51.3625 19.1739 51.3604 20.3534C51.3604 22.8796 51.3604 25.4057 51.3604 27.9319C51.3604 28.6146 51.2101 29.1845 50.5107 29.4392C49.8113 29.6939 49.3291 29.3182 48.9053 28.7941C47.0889 26.5436 45.2663 24.2985 43.4375 22.0591C43.1995 21.7668 42.9573 21.4808 42.5857 21.034C42.6142 21.5905 42.6108 22.1481 42.5753 22.7042C42.4437 23.7063 42.8216 24.4767 43.4271 25.2575C45.1557 27.4768 46.8134 29.7503 48.5002 32.0009C49.1057 32.8109 49.7132 33.6168 50.3604 34.4769C51.3918 33.7066 52.3939 33.0051 53.3334 32.2264C53.625 31.9687 53.8054 31.608 53.8365 31.2201C53.8782 28.5895 53.8595 25.959 53.8595 23.3284V22.533H56.3856V36.1785H67.6594V22.5455H70.1647V46.2017H72.5927C72.6073 46.0618 72.6303 45.9616 72.6303 45.8635C72.6303 37.2954 72.6303 28.728 72.6303 20.1614C72.6303 19.2031 72.1522 18.748 71.1689 18.7438C68.4298 18.7354 65.6907 18.7354 62.9515 18.7438C62.7751 18.7592 62.6 18.7871 62.4275 18.8273C62.0058 23.7857 61.5883 28.7273 61.1707 33.6899H58.8951C58.6654 28.673 59.6467 23.7857 59.9556 18.7417ZM77.6179 56.2103V48.7967H63.9432V56.2103H77.6179ZM68.8494 77.4801V58.7865H63.8848V59.6634C63.8848 64.6113 63.8722 69.5613 63.8973 74.5093C63.8973 75.288 63.6739 75.8579 63.0142 76.288C62.5152 76.6158 62.0643 77.0125 61.4588 77.4801H68.8494ZM55.2729 6.24869C55.2729 7.29256 55.3084 8.28215 55.2624 9.26129C55.2144 10.3052 55.68 11.0463 56.4837 11.6455C57.4984 12.4138 58.6633 12.5369 59.8888 12.5035C60.9097 12.4764 61.3628 12.9566 61.3774 13.965C61.3878 14.7082 61.3774 15.4514 61.3774 16.1738H63.8827C63.8827 13.9545 63.8973 11.7895 63.8618 9.64126C63.815 9.35045 63.657 9.0892 63.4213 8.91264C62.4004 8.10678 61.3503 7.33849 60.3022 6.56603C60.1372 6.40818 59.9322 6.29845 59.7093 6.24869C58.2479 6.23199 56.799 6.24869 55.2729 6.24869ZM63.8848 6.10882C63.8848 5.21735 63.9036 4.49291 63.8848 3.77055C63.8555 2.88953 63.4505 2.49703 62.5674 2.49077C60.7427 2.49077 58.916 2.49077 57.0913 2.49077H55.3417V3.74341C56.9138 3.74341 58.4253 3.70792 59.9348 3.7622C60.4178 3.79294 60.885 3.94674 61.2918 4.20898C62.1352 4.75179 62.9223 5.39481 63.8848 6.10882ZM33.8548 21.201H36.2807V17.5433H33.8548V21.201ZM40.0491 18.7751H38.88V19.9296H40.0491V18.7751Z" fill="#844F92"/>
<path d="M0 52.4961C0.290195 50.9261 0.436337 49.2977 0.89355 47.7695C3.84769 37.8652 10.3802 31.5937 20.4598 29.3014C33.9278 26.2407 47.6964 35.17 50.7152 48.7173C51.4766 52.1191 51.5373 55.6403 50.8937 59.0664C50.2501 62.4925 48.9156 65.7516 46.9717 68.6452C45.0278 71.5389 42.515 74.0064 39.5866 75.8975C36.6581 77.7886 33.3753 79.0637 29.9381 79.645C29.1448 79.7828 28.3452 79.8809 27.5497 79.9957H23.8002C22.6978 79.8224 21.5788 79.7243 20.4974 79.4634C10.495 77.0583 3.91868 70.9684 0.941568 61.1184C0.465565 59.5443 0.315248 57.8741 0 56.2477V52.4961ZM23.8002 31.3807C11.9502 32.149 2.56791 42.5188 2.5867 53.7571H4.95002V56.2832H2.65351C3.37169 67.7867 13.301 76.8286 23.8169 77.3318V75.0353H26.3222V77.4403C39.4143 77.2316 48.4814 65.9578 48.6359 56.2185H46.4062V53.7132H48.782C48.6839 41.2683 37.811 31.2283 26.2804 31.3348V33.7023H23.8002V31.3807Z" fill="#844F92"/>
<path d="M36.3266 0.00646973H38.8318V1.39064C38.8318 2.79568 38.8485 4.20073 38.8318 5.60786C38.8424 6.38613 38.557 7.13937 38.0334 7.71528C37.5098 8.29119 36.7871 8.64681 36.0113 8.71023C35.3057 8.77913 35.0468 9.0568 35.0718 9.73949C35.1052 10.6184 35.0718 11.5015 35.0718 12.4368H32.6041C32.6041 11.2385 32.5123 10.0422 32.6292 8.86473C32.7092 8.18229 33.0258 7.54944 33.5239 7.07613C34.022 6.60281 34.6701 6.31895 35.3558 6.27385C36.17 6.20913 36.3495 5.8396 36.337 5.12142C36.3057 3.43662 36.3266 1.75182 36.3266 0.00646973Z" fill="#844F92"/>
<path d="M72.6201 50.0369V52.4419H70.1963V50.0369H72.6201Z" fill="#844F92"/>
<path d="M17.675 43.0598L19.8775 41.9491C20.0383 42.2351 20.1844 42.471 20.3076 42.7195C22.0467 46.1851 23.7941 49.6445 25.504 53.1247C25.6329 53.4166 25.8183 53.6801 26.0494 53.9C26.2805 54.12 26.5527 54.2922 26.8506 54.4066C29.3308 55.4213 31.7818 56.4943 34.31 57.5883C33.9781 58.3629 33.6649 59.0915 33.3288 59.8848C31.1179 58.9412 28.9696 58.0247 26.8213 57.104C25.3599 56.4776 25.3599 56.4776 24.2242 57.5925C20.849 60.9649 17.4739 64.3366 14.0987 67.7076C13.9105 67.9231 13.7382 68.1519 13.583 68.3923C12.9275 67.6804 12.3888 67.0979 11.8335 66.4988L23.5561 54.8075C21.5811 50.8595 19.65 47.0035 17.675 43.0598Z" fill="#844F92"/>
</svg>
