<svg xmlns="http://www.w3.org/2000/svg" viewBox="0 0 276.46 82.06"><defs><style>.cls-1{fill:#954392;}</style></defs><g id="Capa_2" data-name="Capa 2"><g id="Capa_1-2" data-name="Capa 1"><polygon points="14.37 58.08 31.51 28.86 42.01 28.86 59.63 58.08 48.72 58.08 36.77 36.56 24.77 58.08 14.37 58.08"/><path d="M64.09,58.08V28.86H98.64c6.44,1.88,9.69,15.89-4.06,19.19l7.41,10H90.51l-12-16.3C97,44,100.36,33,73.32,35.52V58.08Z"/><polygon points="186.88 35.39 186.91 28.86 159.38 28.86 154.03 32.8 154.01 53.56 160.49 58.08 186.88 58.08 186.91 50.53 165.01 50.53 161.51 48.01 161.51 37.39 165.01 35.41 186.88 35.39"/><polygon points="194.15 28.86 194.15 58.08 203.24 58.08 203.24 37.87 223.65 58.08 235.33 58.08 235.33 28.86 225.85 28.86 225.87 47.33 205.75 28.86 194.15 28.86"/><rect x="242.17" y="28.86" width="34.29" height="6.53"/><polygon points="276.46 39.22 276.46 45.49 250.22 45.49 250.22 51.6 276.46 51.45 276.46 58.08 242.17 58.08 242.17 39.22 276.46 39.22"/><polygon points="107.33 58.08 124.47 28.86 134.96 28.86 152.59 58.08 141.67 58.08 129.72 36.56 117.73 58.08 107.33 58.08"/><polygon class="cls-1" points="92.29 82.06 0 82.06 0 0 92.29 0 92.29 20.41 90.29 20.41 90.29 2 2 2 2 80.06 90.29 80.06 90.29 67.81 92.29 67.81 92.29 82.06"/></g></g></svg>