<svg xmlns="http://www.w3.org/2000/svg" viewBox="0 0 150.99 132.06"><defs><style>.cls-1{fill:#fff;}.cls-2{fill:#954392;}</style></defs><g id="Capa_2" data-name="Capa 2"><g id="Capa_1-2" data-name="Capa 1"><polygon class="cls-1" points="21.31 46.65 38.44 17.43 48.94 17.43 66.56 46.65 55.65 46.65 43.7 25.12 31.71 46.65 21.31 46.65"/><path class="cls-1" d="M21.82,80.09V50.87H56.36c6.44,1.87,9.69,15.88-4.06,19.19l7.42,10H48.23l-12-16.31C54.76,66,58.09,55,31.05,57.52V80.09Z"/><polygon class="cls-1" points="54.41 90.83 54.43 84.3 26.91 84.3 21.56 88.25 21.54 109 28.02 113.53 54.41 113.53 54.43 105.97 32.54 105.97 29.03 103.45 29.03 92.83 32.54 90.85 54.41 90.83"/><polygon class="cls-1" points="65.68 84.3 65.68 113.53 74.77 113.53 74.77 93.31 95.17 113.53 106.86 113.53 106.86 84.3 97.38 84.3 97.4 102.77 77.28 84.3 65.68 84.3"/><rect class="cls-1" x="116.69" y="84.3" width="34.29" height="6.53"/><polygon class="cls-1" points="150.99 94.67 150.99 100.93 124.74 100.93 124.74 107.04 150.99 106.89 150.99 113.53 116.69 113.53 116.69 94.67 150.99 94.67"/><polygon class="cls-1" points="66.05 80.09 83.19 50.87 93.69 50.87 111.31 80.09 100.39 80.09 88.44 58.56 76.45 80.09 66.05 80.09"/><polygon class="cls-2" points="92.29 132.06 0 132.06 0 0 92.29 0 92.29 41.41 90.29 41.41 90.29 2 2 2 2 130.06 90.29 130.06 90.29 117.81 92.29 117.81 92.29 132.06"/></g></g></svg>