<svg width="70" height="21" viewBox="0 0 70 21" fill="none" xmlns="http://www.w3.org/2000/svg">
<path d="M6.24234 20C6.03597 19.9315 5.89011 19.7805 5.74524 19.6202C3.91382 17.5907 2.07946 15.563 0.242154 13.5371C0.0524713 13.3278 -0.0597029 13.097 0.032195 12.8097C0.0715208 12.6947 0.13347 12.5897 0.214029 12.5014C2.09646 10.4141 3.98108 8.32924 5.86788 6.24674C6.08961 6.00186 6.36596 5.93851 6.62497 6.06009C6.7449 6.11636 6.84518 6.21024 6.91197 6.32877C6.97875 6.44729 7.00874 6.58461 6.9978 6.72176C6.98537 6.89847 6.90459 7.03992 6.79045 7.16698C5.72758 8.34054 4.66525 9.51478 3.60346 10.6897C2.93325 11.4308 2.26282 12.1717 1.59217 12.9124C1.56862 12.9384 1.54671 12.9662 1.51859 12.9994C1.54835 13.0354 1.57484 13.0699 1.60394 13.1021C3.31239 14.9899 5.01267 16.8872 6.73616 18.7609C7.14104 19.2013 7.05503 19.8322 6.47649 20L6.24234 20Z" fill="#06192B"/>
<path d="M22.6375 7.3875L18.2575 18H17.575L13.195 7.3875H13.8025C13.8725 7.3875 13.93 7.4075 13.975 7.4475C14.02 7.4825 14.055 7.53 14.08 7.59L17.695 16.395C17.735 16.505 17.775 16.6225 17.815 16.7475C17.855 16.8725 17.8925 17 17.9275 17.13C17.9575 17 17.99 16.8725 18.025 16.7475C18.06 16.6225 18.1 16.505 18.145 16.395L21.7525 7.59C21.7725 7.535 21.8075 7.4875 21.8575 7.4475C21.9075 7.4075 21.9675 7.3875 22.0375 7.3875H22.6375ZM25.9741 10.4175C26.5091 10.4175 26.9866 10.51 27.4066 10.695C27.8316 10.875 28.1891 11.1325 28.4791 11.4675C28.7691 11.8025 28.9891 12.2075 29.1391 12.6825C29.2941 13.1525 29.3716 13.68 29.3716 14.265C29.3716 14.85 29.2941 15.3775 29.1391 15.8475C28.9891 16.3175 28.7691 16.72 28.4791 17.055C28.1891 17.39 27.8316 17.6475 27.4066 17.8275C26.9866 18.0075 26.5091 18.0975 25.9741 18.0975C25.4391 18.0975 24.9591 18.0075 24.5341 17.8275C24.1141 17.6475 23.7566 17.39 23.4616 17.055C23.1716 16.72 22.9491 16.3175 22.7941 15.8475C22.6441 15.3775 22.5691 14.85 22.5691 14.265C22.5691 13.68 22.6441 13.1525 22.7941 12.6825C22.9491 12.2075 23.1716 11.8025 23.4616 11.4675C23.7566 11.1325 24.1141 10.875 24.5341 10.695C24.9591 10.51 25.4391 10.4175 25.9741 10.4175ZM25.9741 17.535C26.4191 17.535 26.8066 17.46 27.1366 17.31C27.4716 17.155 27.7491 16.935 27.9691 16.65C28.1941 16.365 28.3616 16.0225 28.4716 15.6225C28.5816 15.2175 28.6366 14.765 28.6366 14.265C28.6366 13.77 28.5816 13.32 28.4716 12.915C28.3616 12.51 28.1941 12.165 27.9691 11.88C27.7491 11.59 27.4716 11.3675 27.1366 11.2125C26.8066 11.0575 26.4191 10.98 25.9741 10.98C25.5291 10.98 25.1391 11.0575 24.8041 11.2125C24.4741 11.3675 24.1966 11.59 23.9716 11.88C23.7516 12.165 23.5841 12.51 23.4691 12.915C23.3591 13.32 23.3041 13.77 23.3041 14.265C23.3041 14.765 23.3591 15.2175 23.4691 15.6225C23.5841 16.0225 23.7516 16.365 23.9716 16.65C24.1966 16.935 24.4741 17.155 24.8041 17.31C25.1391 17.46 25.5291 17.535 25.9741 17.535ZM32.1708 7.0875V18H31.4508V7.0875H32.1708ZM40.6864 10.5375L37.5364 18H36.9064L33.7564 10.5375H34.3189C34.3889 10.5375 34.4464 10.5575 34.4914 10.5975C34.5364 10.6325 34.5664 10.6725 34.5814 10.7175L37.0489 16.605C37.1239 16.825 37.1839 17.0425 37.2289 17.2575C37.2739 17.0425 37.3364 16.825 37.4164 16.605L39.8914 10.7175C39.9164 10.6625 39.9489 10.62 39.9889 10.59C40.0339 10.555 40.0864 10.5375 40.1464 10.5375H40.6864ZM47.2824 13.515C47.2824 13.115 47.2249 12.7575 47.1099 12.4425C46.9999 12.1225 46.8424 11.8525 46.6374 11.6325C46.4324 11.4125 46.1874 11.245 45.9024 11.13C45.6224 11.01 45.3124 10.95 44.9724 10.95C44.5874 10.95 44.2424 11.01 43.9374 11.13C43.6324 11.25 43.3674 11.4225 43.1424 11.6475C42.9224 11.8725 42.7449 12.1425 42.6099 12.4575C42.4749 12.7725 42.3849 13.125 42.3399 13.515H47.2824ZM42.3024 13.9725V14.115C42.3024 14.675 42.3674 15.1675 42.4974 15.5925C42.6274 16.0175 42.8124 16.375 43.0524 16.665C43.2924 16.95 43.5824 17.165 43.9224 17.31C44.2624 17.455 44.6424 17.5275 45.0624 17.5275C45.4374 17.5275 45.7624 17.4875 46.0374 17.4075C46.3124 17.3225 46.5424 17.23 46.7274 17.13C46.9174 17.025 47.0674 16.9325 47.1774 16.8525C47.2874 16.7675 47.3674 16.725 47.4174 16.725C47.4824 16.725 47.5324 16.75 47.5674 16.8L47.7624 17.04C47.6424 17.19 47.4824 17.33 47.2824 17.46C47.0874 17.59 46.8674 17.7025 46.6224 17.7975C46.3824 17.8875 46.1224 17.96 45.8424 18.015C45.5674 18.07 45.2899 18.0975 45.0099 18.0975C44.4999 18.0975 44.0349 18.01 43.6149 17.835C43.1949 17.655 42.8349 17.395 42.5349 17.055C42.2349 16.715 42.0024 16.3 41.8374 15.81C41.6774 15.315 41.5974 14.75 41.5974 14.115C41.5974 13.58 41.6724 13.0875 41.8224 12.6375C41.9774 12.1825 42.1974 11.7925 42.4824 11.4675C42.7724 11.1375 43.1249 10.88 43.5399 10.695C43.9599 10.51 44.4349 10.4175 44.9649 10.4175C45.3849 10.4175 45.7749 10.49 46.1349 10.635C46.4949 10.78 46.8074 10.9925 47.0724 11.2725C47.3374 11.5475 47.5449 11.8875 47.6949 12.2925C47.8499 12.6975 47.9274 13.1625 47.9274 13.6875C47.9274 13.7975 47.9124 13.8725 47.8824 13.9125C47.8524 13.9525 47.8024 13.9725 47.7324 13.9725H42.3024ZM50.5521 12.3375C50.6671 12.0325 50.7971 11.7625 50.9421 11.5275C51.0921 11.2875 51.2621 11.085 51.4521 10.92C51.6471 10.755 51.8621 10.63 52.0971 10.545C52.3371 10.455 52.6021 10.41 52.8921 10.41C53.0471 10.41 53.1996 10.425 53.3496 10.455C53.4996 10.48 53.6321 10.5275 53.7471 10.5975L53.6871 11.0925C53.6621 11.1725 53.6146 11.2125 53.5446 11.2125C53.4846 11.2125 53.3921 11.195 53.2671 11.16C53.1471 11.125 52.9871 11.1075 52.7871 11.1075C52.4971 11.1075 52.2396 11.1525 52.0146 11.2425C51.7946 11.3275 51.5946 11.4575 51.4146 11.6325C51.2396 11.8075 51.0846 12.025 50.9496 12.285C50.8196 12.54 50.6996 12.835 50.5896 13.17V18H49.8696V10.5375H50.2521C50.3371 10.5375 50.3971 10.555 50.4321 10.59C50.4671 10.625 50.4896 10.685 50.4996 10.77L50.5521 12.3375Z" fill="#06192B"/>
</svg>
