<svg width="33" height="31" viewBox="0 0 33 31" fill="none" xmlns="http://www.w3.org/2000/svg">
<path d="M31.4112 10.0477H3.50761C3.3608 10.0582 3.22448 10.0477 3.07768 10.0372C2.74212 9.97428 2.5324 9.76456 2.5324 9.41852C2.5324 9.07247 2.73164 8.86275 3.07768 8.79983C3.22448 8.77886 3.3608 8.77886 3.50761 8.78935H31.3588C31.6838 6.67115 30.3626 4.45858 28.1605 3.94476C27.1958 3.72455 26.1786 3.76649 25.13 3.69309C25.13 4.37469 25.13 4.95142 25.13 5.51768C25.1195 6.68164 24.3226 7.5415 23.232 7.53101C22.1415 7.52053 21.3655 6.68164 21.355 5.53865C21.355 4.96191 21.355 4.39566 21.355 3.76649H13.4904C13.3751 3.76649 13.2597 3.76649 13.1339 3.75601C12.7878 3.74552 12.5152 3.46239 12.5257 3.11635C12.5362 2.77031 12.8193 2.49767 13.1653 2.50816C13.2807 2.49767 13.396 2.50816 13.5219 2.50816H21.376C21.3131 1.69024 21.3969 0.956209 22.0681 0.421416C22.4246 0.127805 22.8755 -0.019001 23.3369 0.0019713C24.4694 0.0439158 25.0147 0.777945 25.1615 2.50816C25.7697 2.50816 26.3779 2.50816 26.9861 2.50816C28.6533 2.51864 30.069 3.13732 31.2015 4.3642C32.1452 5.40233 32.659 6.62921 32.6695 8.03435C32.6905 13.5605 32.6905 19.0762 32.6695 24.6024C32.659 27.6224 30.1424 30.1286 27.1224 30.1391C19.9394 30.1601 12.7564 30.1601 5.57338 30.1391C2.5324 30.1286 0.0262153 27.6119 0.0157292 24.571C-0.00524306 19.0762 -0.00524306 13.5815 0.0157292 8.08678C0.0262153 5.0458 2.5324 2.5501 5.57338 2.50816C6.21303 2.49767 6.85269 2.50816 7.55526 2.50816C7.55526 2.27746 7.55526 2.05725 7.55526 1.83704C7.57623 0.798917 8.44658 -0.019001 9.4847 0.0019713C10.4914 0.0229436 11.2988 0.830375 11.3198 1.83704C11.3407 3.11635 11.3407 4.40615 11.3198 5.68545C11.2883 6.72358 10.4285 7.5415 9.39033 7.51004C8.38366 7.47858 7.57623 6.67115 7.56574 5.66448C7.54477 5.03531 7.56574 4.41663 7.56574 3.75601C6.09768 3.76649 4.6506 3.56726 3.35032 4.42712C2.05004 5.28698 1.29504 6.4824 1.28455 8.03435C1.25309 13.5605 1.25309 19.0762 1.28455 24.6024C1.29504 26.9513 3.22448 28.8493 5.58386 28.8808C7.43991 28.9122 9.29595 28.8913 11.152 28.8913C16.3951 28.8913 21.6486 28.8913 26.8917 28.8913C29.0728 28.8913 30.8135 27.5385 31.2959 25.4728C31.3693 25.1372 31.4112 24.8017 31.4112 24.4661C31.4217 19.7578 31.4217 15.0391 31.4112 10.3308V10.0477ZM10.0614 3.77698C10.0614 3.17927 10.0614 2.57107 10.0614 1.97336C10.0614 1.53295 9.82026 1.26031 9.45325 1.24982C9.08623 1.23933 8.81359 1.52246 8.81359 1.98385C8.81359 3.16878 8.81359 4.3642 8.81359 5.55962C8.81359 6.00004 9.05477 6.27268 9.42179 6.28316C9.7888 6.29365 10.0614 6.01052 10.0614 5.55962C10.0614 4.95142 10.0614 4.3642 10.0614 3.77698ZM23.8822 3.76649C23.8822 3.17927 23.8822 2.59205 23.8822 1.99434C23.8822 1.53295 23.641 1.24982 23.253 1.24982C22.865 1.24982 22.6238 1.53295 22.6238 1.99434C22.6238 3.16878 22.6238 4.35372 22.6238 5.52816C22.6238 5.98955 22.865 6.27268 23.253 6.27268C23.641 6.27268 23.8822 5.98955 23.8822 5.52816C23.8822 4.94094 23.8822 4.35372 23.8822 3.76649Z" fill="white"/>
<path d="M12.5676 14.4519C12.5571 15.144 11.9909 15.6998 11.2988 15.6998C10.6067 15.6998 10.051 15.123 10.051 14.431C10.0615 13.7389 10.6277 13.1831 11.3198 13.1831C11.3303 13.1831 11.3303 13.1831 11.3408 13.1831C12.0328 13.2041 12.5781 13.7703 12.5676 14.4519Z" fill="white"/>
<path d="M16.3426 13.1831C17.0347 13.1831 17.601 13.7389 17.6115 14.431C17.6115 15.123 17.0557 15.6893 16.3636 15.6998C15.6715 15.6998 15.1053 15.144 15.0948 14.4519C15.0948 14.4414 15.0948 14.4414 15.0948 14.431C15.0948 13.7494 15.6506 13.1936 16.3426 13.1831Z" fill="white"/>
<path d="M22.6238 14.4519C22.6133 15.144 22.0471 15.7103 21.355 15.6998C20.6629 15.6893 20.0967 15.1231 20.1071 14.431C20.1176 13.7389 20.6839 13.1726 21.376 13.1831C21.3864 13.1831 21.3864 13.1831 21.3969 13.1831C22.0785 13.2041 22.6238 13.7703 22.6238 14.4519Z" fill="white"/>
<path d="M26.3674 15.6998C25.6753 15.6893 25.1195 15.1231 25.13 14.4205C25.1405 13.7179 25.7068 13.1726 26.4093 13.1831C27.1014 13.1936 27.6572 13.7599 27.6467 14.4624C27.6467 14.4729 27.6467 14.4729 27.6467 14.4834C27.6257 15.1545 27.0595 15.6998 26.3674 15.6998Z" fill="white"/>
<path d="M6.27596 20.7226C5.58388 20.7121 5.02811 20.1459 5.0386 19.4433C5.04908 18.7512 5.61534 18.1955 6.31791 18.206C7.02048 18.2164 7.56576 18.7827 7.55527 19.4853V19.4958C7.52381 20.1878 6.95756 20.7226 6.27596 20.7226Z" fill="white"/>
<path d="M11.2988 20.7226C10.6067 20.7121 10.0509 20.1354 10.0614 19.4433C10.0719 18.7512 10.6486 18.1955 11.3407 18.206C12.0328 18.2164 12.5886 18.7932 12.5781 19.4853V19.4958C12.5466 20.1878 11.9804 20.7226 11.2988 20.7226Z" fill="white"/>
<path d="M17.601 19.4433C17.6115 20.1354 17.0557 20.7121 16.3636 20.7226C15.6715 20.7331 15.0948 20.1773 15.0843 19.4852C15.0738 18.7932 15.6296 18.2164 16.3217 18.2059C16.3322 18.2059 16.3322 18.2059 16.3426 18.2059C17.0242 18.2059 17.58 18.7617 17.601 19.4433Z" fill="white"/>
<path d="M21.355 20.7226C20.6629 20.7226 20.0966 20.1564 20.0966 19.4643C20.0966 18.7722 20.6629 18.2059 21.355 18.2059C22.0471 18.2059 22.6133 18.7722 22.6133 19.4643C22.6133 19.4748 22.6133 19.4748 22.6133 19.4852C22.6028 20.1668 22.0471 20.7121 21.355 20.7226Z" fill="white"/>
<path d="M27.6467 19.4538C27.6572 20.1459 27.1014 20.7226 26.4093 20.7331C25.7173 20.7436 25.1405 20.1878 25.13 19.4958C25.1195 18.8037 25.6753 18.2269 26.3674 18.2165C26.3779 18.2165 26.3779 18.2165 26.3884 18.2165C27.0804 18.206 27.6362 18.7617 27.6467 19.4538Z" fill="white"/>
<path d="M6.29691 23.2393C6.98899 23.2393 7.55525 23.8055 7.55525 24.4976C7.55525 25.1897 6.98899 25.7559 6.29691 25.7559C5.60483 25.7559 5.03857 25.1897 5.03857 24.4976V24.4871C5.04906 23.795 5.60483 23.2393 6.29691 23.2393Z" fill="white"/>
<path d="M11.3198 25.7455C10.6277 25.7559 10.0614 25.1897 10.051 24.4976C10.0405 23.8055 10.6067 23.2393 11.2988 23.2288C11.9909 23.2183 12.5571 23.7845 12.5676 24.4766C12.5676 24.4871 12.5676 24.4871 12.5676 24.4976C12.5676 25.1792 12.0119 25.735 11.3198 25.7455Z" fill="white"/>
<path d="M17.601 24.4766C17.6115 25.1687 17.0557 25.7454 16.3636 25.7559C15.6715 25.7664 15.0948 25.2106 15.0843 24.5186C15.0738 23.8265 15.6296 23.2497 16.3217 23.2393C16.3322 23.2393 16.3322 23.2393 16.3426 23.2393C17.0242 23.2393 17.5905 23.7845 17.601 24.4766Z" fill="white"/>
<path d="M22.6238 24.5081C22.6133 25.2002 22.0471 25.7664 21.355 25.756C20.6629 25.7455 20.0967 25.1792 20.1071 24.4871C20.1176 23.795 20.6839 23.2288 21.376 23.2393C21.3864 23.2393 21.3864 23.2393 21.3969 23.2393C22.0785 23.2498 22.6238 23.816 22.6238 24.5081Z" fill="white"/>
</svg>
