<svg width="48" height="38" viewBox="0 0 48 38" fill="none" xmlns="http://www.w3.org/2000/svg">
<path d="M6.3659 35.52C6.41923 35.52 6.4659 35.5417 6.5059 35.585L6.8909 36C6.59757 36.34 6.2409 36.605 5.8209 36.795C5.40423 36.985 4.89923 37.08 4.3059 37.08C3.79257 37.08 3.3259 36.9917 2.9059 36.815C2.4859 36.635 2.12757 36.385 1.8309 36.065C1.53423 35.7417 1.30423 35.355 1.1409 34.905C0.977565 34.455 0.895898 33.96 0.895898 33.42C0.895898 32.88 0.980898 32.385 1.1509 31.935C1.3209 31.485 1.55923 31.0983 1.8659 30.775C2.1759 30.4517 2.5459 30.2017 2.9759 30.025C3.4059 29.845 3.8809 29.755 4.4009 29.755C4.9109 29.755 5.3609 29.8367 5.7509 30C6.1409 30.1633 6.48423 30.385 6.7809 30.665L6.4609 31.11C6.4409 31.1433 6.41423 31.1717 6.3809 31.195C6.3509 31.215 6.30923 31.225 6.2559 31.225C6.1959 31.225 6.12257 31.1933 6.0359 31.13C5.94923 31.0633 5.8359 30.99 5.6959 30.91C5.5559 30.83 5.3809 30.7583 5.1709 30.695C4.9609 30.6283 4.70257 30.595 4.3959 30.595C4.0259 30.595 3.68757 30.66 3.3809 30.79C3.07423 30.9167 2.80923 31.1017 2.5859 31.345C2.3659 31.5883 2.19423 31.885 2.0709 32.235C1.94757 32.585 1.8859 32.98 1.8859 33.42C1.8859 33.8667 1.94923 34.265 2.0759 34.615C2.2059 34.965 2.3809 35.2617 2.6009 35.505C2.82423 35.745 3.0859 35.9283 3.3859 36.055C3.68923 36.1817 4.0159 36.245 4.3659 36.245C4.57923 36.245 4.7709 36.2333 4.9409 36.21C5.11423 36.1833 5.27257 36.1433 5.4159 36.09C5.56257 36.0367 5.69757 35.97 5.8209 35.89C5.94757 35.8067 6.07257 35.7083 6.1959 35.595C6.25257 35.545 6.30923 35.52 6.3659 35.52ZM10.5506 34.72C10.1406 34.7333 9.79059 34.7667 9.50059 34.82C9.21392 34.87 8.97892 34.9367 8.79559 35.02C8.61559 35.1033 8.48392 35.2017 8.40059 35.315C8.32059 35.4283 8.28059 35.555 8.28059 35.695C8.28059 35.8283 8.30225 35.9433 8.34559 36.04C8.38892 36.1367 8.44725 36.2167 8.52059 36.28C8.59725 36.34 8.68559 36.385 8.78559 36.415C8.88892 36.4417 8.99892 36.455 9.11559 36.455C9.27225 36.455 9.41559 36.44 9.54559 36.41C9.67559 36.3767 9.79725 36.33 9.91059 36.27C10.0273 36.21 10.1373 36.1383 10.2406 36.055C10.3473 35.9717 10.4506 35.8767 10.5506 35.77V34.72ZM7.67559 32.65C7.95559 32.38 8.25725 32.1783 8.58059 32.045C8.90392 31.9117 9.26225 31.845 9.65559 31.845C9.93892 31.845 10.1906 31.8917 10.4106 31.985C10.6306 32.0783 10.8156 32.2083 10.9656 32.375C11.1156 32.5417 11.2289 32.7433 11.3056 32.98C11.3823 33.2167 11.4206 33.4767 11.4206 33.76V37H11.0256C10.9389 37 10.8723 36.9867 10.8256 36.96C10.7789 36.93 10.7423 36.8733 10.7156 36.79L10.6156 36.31C10.4823 36.4333 10.3523 36.5433 10.2256 36.64C10.0989 36.7333 9.96559 36.8133 9.82559 36.88C9.68559 36.9433 9.53559 36.9917 9.37559 37.025C9.21892 37.0617 9.04392 37.08 8.85059 37.08C8.65392 37.08 8.46892 37.0533 8.29559 37C8.12225 36.9433 7.97059 36.86 7.84059 36.75C7.71392 36.64 7.61225 36.5017 7.53559 36.335C7.46225 36.165 7.42559 35.965 7.42559 35.735C7.42559 35.535 7.48059 35.3433 7.59059 35.16C7.70059 34.9733 7.87892 34.8083 8.12559 34.665C8.37225 34.5217 8.69392 34.405 9.09059 34.315C9.48725 34.2217 9.97392 34.1683 10.5506 34.155V33.76C10.5506 33.3667 10.4656 33.07 10.2956 32.87C10.1256 32.6667 9.87725 32.565 9.55059 32.565C9.33059 32.565 9.14559 32.5933 8.99559 32.65C8.84892 32.7033 8.72059 32.765 8.61059 32.835C8.50392 32.9017 8.41059 32.9633 8.33059 33.02C8.25392 33.0733 8.17725 33.1 8.10059 33.1C8.04059 33.1 7.98892 33.085 7.94559 33.055C7.90225 33.0217 7.86559 32.9817 7.83559 32.935L7.67559 32.65ZM13.6963 29.635V37H12.8063V29.635H13.6963ZM18.5296 33.915C18.5296 33.7083 18.4996 33.52 18.4396 33.35C18.3829 33.1767 18.2979 33.0283 18.1846 32.905C18.0746 32.7783 17.9396 32.6817 17.7796 32.615C17.6196 32.545 17.4379 32.51 17.2346 32.51C16.8079 32.51 16.4696 32.635 16.2196 32.885C15.9729 33.1317 15.8196 33.475 15.7596 33.915H18.5296ZM19.2496 36.29C19.1396 36.4233 19.0079 36.54 18.8546 36.64C18.7012 36.7367 18.5362 36.8167 18.3596 36.88C18.1862 36.9433 18.0062 36.99 17.8196 37.02C17.6329 37.0533 17.4479 37.07 17.2646 37.07C16.9146 37.07 16.5912 37.0117 16.2946 36.895C16.0012 36.775 15.7462 36.6017 15.5296 36.375C15.3162 36.145 15.1496 35.8617 15.0296 35.525C14.9096 35.1883 14.8496 34.8017 14.8496 34.365C14.8496 34.0117 14.9029 33.6817 15.0096 33.375C15.1196 33.0683 15.2762 32.8033 15.4796 32.58C15.6829 32.3533 15.9312 32.1767 16.2246 32.05C16.5179 31.92 16.8479 31.855 17.2146 31.855C17.5179 31.855 17.7979 31.9067 18.0546 32.01C18.3146 32.11 18.5379 32.2567 18.7246 32.45C18.9146 32.64 19.0629 32.8767 19.1696 33.16C19.2762 33.44 19.3296 33.76 19.3296 34.12C19.3296 34.26 19.3146 34.3533 19.2846 34.4C19.2546 34.4467 19.1979 34.47 19.1146 34.47H15.7296C15.7396 34.79 15.7829 35.0683 15.8596 35.305C15.9396 35.5417 16.0496 35.74 16.1896 35.9C16.3296 36.0567 16.4962 36.175 16.6896 36.255C16.8829 36.3317 17.0996 36.37 17.3396 36.37C17.5629 36.37 17.7546 36.345 17.9146 36.295C18.0779 36.2417 18.2179 36.185 18.3346 36.125C18.4512 36.065 18.5479 36.01 18.6246 35.96C18.7046 35.9067 18.7729 35.88 18.8296 35.88C18.9029 35.88 18.9596 35.9083 18.9996 35.965L19.2496 36.29ZM21.2628 32.67C21.3728 32.5467 21.4894 32.435 21.6128 32.335C21.7361 32.235 21.8661 32.15 22.0028 32.08C22.1428 32.0067 22.2894 31.9517 22.4428 31.915C22.5994 31.875 22.7678 31.855 22.9478 31.855C23.2244 31.855 23.4678 31.9017 23.6778 31.995C23.8911 32.085 24.0678 32.215 24.2078 32.385C24.3511 32.5517 24.4594 32.7533 24.5328 32.99C24.6061 33.2267 24.6428 33.4883 24.6428 33.775V37H23.7478V33.775C23.7478 33.3917 23.6594 33.095 23.4828 32.885C23.3094 32.6717 23.0444 32.565 22.6878 32.565C22.4244 32.565 22.1778 32.6283 21.9478 32.755C21.7211 32.8817 21.5111 33.0533 21.3178 33.27V37H20.4228V31.935H20.9578C21.0844 31.935 21.1628 31.9967 21.1928 32.12L21.2628 32.67ZM29.2989 33.14C29.1323 32.9167 28.9523 32.7617 28.7589 32.675C28.5656 32.585 28.3489 32.54 28.1089 32.54C27.6389 32.54 27.2773 32.7083 27.0239 33.045C26.7706 33.3817 26.6439 33.8617 26.6439 34.485C26.6439 34.815 26.6723 35.0983 26.7289 35.335C26.7856 35.5683 26.8689 35.7617 26.9789 35.915C27.0889 36.065 27.2239 36.175 27.3839 36.245C27.5439 36.315 27.7256 36.35 27.9289 36.35C28.2223 36.35 28.4773 36.2833 28.6939 36.15C28.9139 36.0167 29.1156 35.8283 29.2989 35.585V33.14ZM30.1889 29.635V37H29.6589C29.5323 37 29.4523 36.9383 29.4189 36.815L29.3389 36.2C29.1223 36.46 28.8756 36.67 28.5989 36.83C28.3223 36.99 28.0023 37.07 27.6389 37.07C27.3489 37.07 27.0856 37.015 26.8489 36.905C26.6123 36.7917 26.4106 36.6267 26.2439 36.41C26.0773 36.1933 25.9489 35.9233 25.8589 35.6C25.7689 35.2767 25.7239 34.905 25.7239 34.485C25.7239 34.1117 25.7739 33.765 25.8739 33.445C25.9739 33.1217 26.1173 32.8417 26.3039 32.605C26.4906 32.3683 26.7189 32.1833 26.9889 32.05C27.2623 31.9133 27.5689 31.845 27.9089 31.845C28.2189 31.845 28.4839 31.8983 28.7039 32.005C28.9273 32.1083 29.1256 32.2533 29.2989 32.44V29.635H30.1889ZM34.3396 34.72C33.9296 34.7333 33.5796 34.7667 33.2896 34.82C33.003 34.87 32.768 34.9367 32.5846 35.02C32.4046 35.1033 32.273 35.2017 32.1896 35.315C32.1096 35.4283 32.0696 35.555 32.0696 35.695C32.0696 35.8283 32.0913 35.9433 32.1346 36.04C32.178 36.1367 32.2363 36.2167 32.3096 36.28C32.3863 36.34 32.4746 36.385 32.5746 36.415C32.678 36.4417 32.788 36.455 32.9046 36.455C33.0613 36.455 33.2046 36.44 33.3346 36.41C33.4646 36.3767 33.5863 36.33 33.6996 36.27C33.8163 36.21 33.9263 36.1383 34.0296 36.055C34.1363 35.9717 34.2396 35.8767 34.3396 35.77V34.72ZM31.4646 32.65C31.7446 32.38 32.0463 32.1783 32.3696 32.045C32.693 31.9117 33.0513 31.845 33.4446 31.845C33.728 31.845 33.9796 31.8917 34.1996 31.985C34.4196 32.0783 34.6046 32.2083 34.7546 32.375C34.9046 32.5417 35.018 32.7433 35.0946 32.98C35.1713 33.2167 35.2096 33.4767 35.2096 33.76V37H34.8146C34.728 37 34.6613 36.9867 34.6146 36.96C34.568 36.93 34.5313 36.8733 34.5046 36.79L34.4046 36.31C34.2713 36.4333 34.1413 36.5433 34.0146 36.64C33.888 36.7333 33.7546 36.8133 33.6146 36.88C33.4746 36.9433 33.3246 36.9917 33.1646 37.025C33.008 37.0617 32.833 37.08 32.6396 37.08C32.443 37.08 32.258 37.0533 32.0846 37C31.9113 36.9433 31.7596 36.86 31.6296 36.75C31.503 36.64 31.4013 36.5017 31.3246 36.335C31.2513 36.165 31.2146 35.965 31.2146 35.735C31.2146 35.535 31.2696 35.3433 31.3796 35.16C31.4896 34.9733 31.668 34.8083 31.9146 34.665C32.1613 34.5217 32.483 34.405 32.8796 34.315C33.2763 34.2217 33.763 34.1683 34.3396 34.155V33.76C34.3396 33.3667 34.2546 33.07 34.0846 32.87C33.9146 32.6667 33.6663 32.565 33.3396 32.565C33.1196 32.565 32.9346 32.5933 32.7846 32.65C32.638 32.7033 32.5096 32.765 32.3996 32.835C32.293 32.9017 32.1996 32.9633 32.1196 33.02C32.043 33.0733 31.9663 33.1 31.8896 33.1C31.8296 33.1 31.778 33.085 31.7346 33.055C31.6913 33.0217 31.6546 32.9817 31.6246 32.935L31.4646 32.65ZM37.4104 32.95C37.5704 32.6033 37.767 32.3333 38.0004 32.14C38.2337 31.9433 38.5187 31.845 38.8554 31.845C38.962 31.845 39.0637 31.8567 39.1604 31.88C39.2604 31.9033 39.3487 31.94 39.4254 31.99L39.3604 32.655C39.3404 32.7383 39.2904 32.78 39.2104 32.78C39.1637 32.78 39.0954 32.77 39.0054 32.75C38.9154 32.73 38.8137 32.72 38.7004 32.72C38.5404 32.72 38.397 32.7433 38.2704 32.79C38.147 32.8367 38.0354 32.9067 37.9354 33C37.8387 33.09 37.7504 33.2033 37.6704 33.34C37.5937 33.4733 37.5237 33.6267 37.4604 33.8V37H36.5654V31.935H37.0754C37.172 31.935 37.2387 31.9533 37.2754 31.99C37.312 32.0267 37.337 32.09 37.3504 32.18L37.4104 32.95ZM41.1479 31.935V37H40.2579V31.935H41.1479ZM41.3379 30.345C41.3379 30.4317 41.3196 30.5133 41.2829 30.59C41.2496 30.6633 41.2029 30.73 41.1429 30.79C41.0863 30.8467 41.0179 30.8917 40.9379 30.925C40.8613 30.9583 40.7796 30.975 40.6929 30.975C40.6063 30.975 40.5246 30.9583 40.4479 30.925C40.3746 30.8917 40.3096 30.8467 40.2529 30.79C40.1963 30.73 40.1513 30.6633 40.1179 30.59C40.0846 30.5133 40.0679 30.4317 40.0679 30.345C40.0679 30.2583 40.0846 30.1767 40.1179 30.1C40.1513 30.02 40.1963 29.9517 40.2529 29.895C40.3096 29.835 40.3746 29.7883 40.4479 29.755C40.5246 29.7217 40.6063 29.705 40.6929 29.705C40.7796 29.705 40.8613 29.7217 40.9379 29.755C41.0179 29.7883 41.0863 29.835 41.1429 29.895C41.2029 29.9517 41.2496 30.02 41.2829 30.1C41.3196 30.1767 41.3379 30.2583 41.3379 30.345ZM44.7453 31.855C45.1153 31.855 45.4486 31.9167 45.7453 32.04C46.0419 32.1633 46.2953 32.3383 46.5053 32.565C46.7153 32.7917 46.8753 33.0667 46.9853 33.39C47.0986 33.71 47.1553 34.0683 47.1553 34.465C47.1553 34.865 47.0986 35.225 46.9853 35.545C46.8753 35.865 46.7153 36.1383 46.5053 36.365C46.2953 36.5917 46.0419 36.7667 45.7453 36.89C45.4486 37.01 45.1153 37.07 44.7453 37.07C44.3719 37.07 44.0353 37.01 43.7353 36.89C43.4386 36.7667 43.1853 36.5917 42.9753 36.365C42.7653 36.1383 42.6036 35.865 42.4903 35.545C42.3803 35.225 42.3253 34.865 42.3253 34.465C42.3253 34.0683 42.3803 33.71 42.4903 33.39C42.6036 33.0667 42.7653 32.7917 42.9753 32.565C43.1853 32.3383 43.4386 32.1633 43.7353 32.04C44.0353 31.9167 44.3719 31.855 44.7453 31.855ZM44.7453 36.375C45.2453 36.375 45.6186 36.2083 45.8653 35.875C46.1119 35.5383 46.2353 35.07 46.2353 34.47C46.2353 33.8667 46.1119 33.3967 45.8653 33.06C45.6186 32.7233 45.2453 32.555 44.7453 32.555C44.4919 32.555 44.2703 32.5983 44.0803 32.685C43.8936 32.7717 43.7369 32.8967 43.6103 33.06C43.4869 33.2233 43.3936 33.425 43.3303 33.665C43.2703 33.9017 43.2403 34.17 43.2403 34.47C43.2403 35.07 43.3636 35.5383 43.6103 35.875C43.8603 36.2083 44.2386 36.375 44.7453 36.375Z" fill="#06192B"/>
<path d="M34.1607 5.20695C34.1566 4.2985 33.821 3.49876 33.2094 2.82881C32.4783 2.03315 31.5624 1.63226 30.4793 1.62547H29.2984C29.2019 0.502304 28.8506 0.0273554 28.1148 0.00153554C27.8156 -0.0135793 27.5215 0.0833188 27.2899 0.273323C26.8584 0.613057 26.8041 1.09616 26.8442 1.62275H21.7577C21.6816 1.62275 21.6048 1.61867 21.5294 1.62615C21.4217 1.62414 21.3176 1.66481 21.2398 1.73928C21.162 1.81376 21.1169 1.91598 21.1142 2.02363C21.1142 2.03519 21.1142 2.04674 21.1142 2.05829H27.6487C27.6487 1.80371 27.6487 1.54937 27.6487 1.29524C27.6487 0.996278 27.8077 0.81486 28.0563 0.81486C28.305 0.81486 28.464 0.997637 28.464 1.2966V2.05829H29.827C30.3167 2.0582 30.8016 2.15457 31.254 2.34189C31.7064 2.52921 32.1175 2.80382 32.4637 3.15003C32.81 3.49623 33.0847 3.90726 33.2721 4.35964C33.4595 4.81201 33.556 5.29688 33.556 5.78653V15.312C33.556 16.301 33.1631 17.2494 32.4638 17.9488C31.7645 18.6481 30.816 19.0409 29.827 19.0409H17.1482C16.1592 19.0409 15.2107 18.6481 14.5114 17.9488C13.8121 17.2494 13.4192 16.301 13.4192 15.312V5.78653C13.4192 5.29688 13.5157 4.81201 13.7031 4.35964C13.8905 3.90726 14.1652 3.49623 14.5114 3.15003C14.8577 2.80382 15.2688 2.52921 15.7212 2.34189C16.1736 2.15457 16.6585 2.0582 17.1482 2.05829H18.6994C18.6994 1.80077 18.6994 1.54325 18.6994 1.28641C18.7035 0.988124 18.8774 0.806027 19.1159 0.810783C19.3544 0.815539 19.512 0.99288 19.512 1.27622V2.05761H20.3355C20.3355 1.76951 20.3355 1.48142 20.3287 1.19332C20.3212 0.875106 20.1895 0.57245 19.9618 0.350046C19.7341 0.127642 19.4284 0.0031341 19.1101 0.0031341C18.7918 0.0031341 18.4861 0.127642 18.2584 0.350046C18.0307 0.57245 17.899 0.875106 17.8915 1.19332V1.62615C17.439 1.62615 17.0238 1.62139 16.6093 1.62615C14.6389 1.65129 13.0143 3.26706 13.0082 5.23752C12.9973 8.79884 12.9973 12.3604 13.0082 15.9222C13.017 17.8926 14.6389 19.5234 16.6093 19.5308C21.2637 19.5431 25.9181 19.5431 30.5724 19.5308C32.5293 19.5254 34.1559 17.9001 34.1641 15.9419C34.1722 12.3633 34.1711 8.78503 34.1607 5.20695Z" fill="#06192B"/>
<path d="M19.5136 2.44765C19.5136 2.82951 19.5136 3.21069 19.5136 3.59595C19.5102 3.89016 19.3342 4.07158 19.0971 4.0675C18.8599 4.06343 18.7016 3.88337 18.7016 3.60139C18.7016 3.08635 18.7016 2.57222 18.7016 2.05899H17.1484C16.6587 2.0589 16.1738 2.15527 15.7214 2.34259C15.269 2.52991 14.8579 2.80452 14.5117 3.15073C14.1654 3.49694 13.8907 3.90797 13.7033 4.36034C13.5159 4.81272 13.4194 5.29758 13.4194 5.78724V15.312C13.4194 16.301 13.8123 17.2495 14.5116 17.9488C15.2109 18.6481 16.1594 19.041 17.1484 19.041H29.83C30.8189 19.041 31.7674 18.6481 32.4667 17.9488C33.166 17.2495 33.5589 16.301 33.5589 15.312V5.78656C33.5589 5.2969 33.4624 4.81204 33.275 4.35966C33.0876 3.90729 32.8129 3.49626 32.4667 3.15005C32.1204 2.80384 31.7093 2.52924 31.2569 2.34191C30.8045 2.15459 30.3196 2.05822 29.83 2.05831H28.4669V2.44153C28.4669 2.82 28.4669 3.20118 28.4669 3.58644C28.4669 3.88405 28.308 4.0675 28.0593 4.06682C27.8106 4.06614 27.6516 3.88337 27.6516 3.5844C27.6516 3.0757 27.6516 2.56701 27.6516 2.05831H21.1158C21.1227 2.15957 21.1671 2.25462 21.2404 2.32486C21.3136 2.3951 21.4104 2.4355 21.5119 2.43814C21.5881 2.44425 21.6645 2.44561 21.7409 2.44221H26.8369V3.58984C26.8403 4.3291 27.3458 4.87675 28.0504 4.88083C28.755 4.8849 29.2735 4.33317 29.2782 3.57625V2.39329C29.9529 2.44425 30.6175 2.413 31.2405 2.55772C32.6674 2.8893 33.5222 4.32026 33.3136 5.69619H15.2656C15.1724 5.69029 15.079 5.69256 14.9863 5.70298C14.7641 5.73967 14.6343 5.87625 14.635 6.10115C14.6357 6.32606 14.7709 6.46195 14.987 6.50136C15.0797 6.51144 15.1731 6.51371 15.2662 6.50815H33.351L33.355 6.69501C33.3578 9.74718 33.3566 12.7998 33.3517 15.8529C33.3514 16.0731 33.3261 16.2927 33.2762 16.5072C32.9616 17.8458 31.8351 18.7196 30.4225 18.7196H20.223C19.0196 18.7196 17.8156 18.7332 16.6116 18.7148C15.0848 18.691 13.8332 17.4592 13.8258 15.9392C13.8058 12.3606 13.8058 8.78211 13.8258 5.20357C13.8312 4.2034 14.3184 3.43084 15.1582 2.87435C15.998 2.31787 16.9384 2.44765 17.8897 2.44153C17.8897 2.86552 17.8795 3.27049 17.8897 3.67477C17.8954 3.99296 18.0254 4.29627 18.2519 4.51983C18.4784 4.74339 18.7834 4.86945 19.1016 4.87104C19.4199 4.87264 19.7261 4.74965 19.9548 4.52838C20.1836 4.3071 20.3166 4.00512 20.3256 3.687C20.3323 3.14342 20.3346 2.59985 20.3323 2.05627H19.5136V2.44765Z" fill="#06192B"/>
<path d="M33.7892 6.75546L33.6825 6.44155L33.6533 5.63366C33.8619 4.25774 32.8753 2.75747 31.4484 2.42589C30.8253 2.28116 29.7952 2.20642 29.1205 2.1541C29.1205 2.59508 29.0757 3.13254 29.0757 3.50013C29.0723 4.25706 28.8827 4.62669 28.1781 4.62261C27.4735 4.61854 27.0814 4.23939 27.078 3.50013C27.078 3.12846 27.146 2.64808 27.146 2.24379L22.9048 2.22137C23.5727 1.83679 22.1954 2.06237 22.1193 2.05694C21.9066 2.05218 21.7734 1.83 21.7605 1.6214H20.142C20.142 2.16497 20.1264 3.09245 20.1196 3.63466C20.1006 4.30734 19.7799 4.61922 19.1065 4.60019C18.4556 4.58184 18.1118 4.26046 18.0995 3.61224C18.0894 3.20796 18.1892 2.24107 18.1892 1.81709C17.238 1.82252 15.7975 1.86669 14.9577 2.42317C14.1179 2.97966 13.327 3.95877 13.3195 4.95895C13.3005 8.53771 13.2984 12.444 13.3195 16.0227C13.327 17.5427 15.0032 19.1177 16.53 19.1415C17.734 19.1598 18.9849 19.1415 20.1882 19.1415H30.5773C31.9899 19.1415 33.0451 18.371 33.3597 17.0351C33.4093 16.8204 33.7858 16.268 33.7864 16.0479C33.7892 12.993 33.7892 9.80764 33.7892 6.75546ZM17.081 11.7964C17.1881 11.798 17.2938 11.8207 17.3921 11.8632C17.4905 11.9056 17.5794 11.967 17.654 12.0439C17.7286 12.1207 17.7873 12.2115 17.8268 12.3111C17.8663 12.4106 17.8858 12.517 17.8842 12.624V12.6335C17.8799 12.7943 17.8281 12.9503 17.7354 13.0817C17.6427 13.2131 17.5132 13.3142 17.3631 13.3722C17.2131 13.4302 17.0493 13.4426 16.8923 13.4077C16.7353 13.3728 16.5921 13.2923 16.4807 13.1762C16.3694 13.0601 16.2948 12.9137 16.2665 12.7554C16.2381 12.5971 16.2573 12.4339 16.3214 12.2864C16.3856 12.1389 16.4919 12.0137 16.6271 11.9265C16.7623 11.8394 16.9202 11.7941 17.081 11.7964ZM17.0742 16.6886C16.858 16.6886 16.6506 16.6027 16.4977 16.4498C16.3448 16.2969 16.2589 16.0895 16.2589 15.8733V15.8631C16.2609 15.7022 16.3104 15.5456 16.4012 15.4129C16.492 15.2801 16.62 15.1772 16.7692 15.1171C16.9184 15.0569 17.082 15.0422 17.2395 15.0748C17.3969 15.1074 17.5413 15.1859 17.6543 15.3003C17.7673 15.4147 17.8439 15.56 17.8746 15.7179C17.9052 15.8758 17.8885 16.0392 17.8265 16.1876C17.7645 16.336 17.66 16.4627 17.5261 16.5519C17.3923 16.641 17.2351 16.6886 17.0742 16.6886ZM20.3357 8.54451H20.3472C20.5668 8.54603 20.7767 8.63451 20.9311 8.79055C21.0856 8.94659 21.1718 9.15747 21.1711 9.37701C21.1703 9.59654 21.0826 9.80681 20.9271 9.96177C20.7716 10.1167 20.561 10.2037 20.3415 10.2037C20.1219 10.2037 19.9113 10.1167 19.7558 9.96177C19.6003 9.80681 19.5126 9.59654 19.5118 9.37701C19.5111 9.15747 19.5973 8.94659 19.7518 8.79055C19.9062 8.63451 20.1162 8.54603 20.3357 8.54451ZM20.3357 16.6832C20.1744 16.6845 20.0164 16.638 19.8816 16.5495C19.7467 16.4611 19.6412 16.3346 19.5782 16.1861C19.5153 16.0377 19.4978 15.8739 19.5279 15.7154C19.5581 15.557 19.6345 15.4111 19.7476 15.2961C19.8607 15.1811 20.0053 15.1023 20.1632 15.0695C20.3211 15.0367 20.4851 15.0515 20.6346 15.112C20.7841 15.1724 20.9123 15.2759 21.0031 15.4092C21.0938 15.5425 21.1429 15.6998 21.1442 15.861V15.8726C21.143 16.0875 21.0569 16.2933 20.9047 16.4451C20.7525 16.5969 20.5466 16.6825 20.3316 16.6832H20.3357ZM21.1442 12.6335C21.1431 12.8541 21.0545 13.0652 20.8979 13.2205C20.7414 13.3758 20.5296 13.4627 20.309 13.4622C20.0885 13.4616 19.8772 13.3736 19.7214 13.2174C19.5657 13.0612 19.4782 12.8497 19.4782 12.6291C19.4782 12.4086 19.5657 12.197 19.7214 12.0409C19.8772 11.8847 20.0885 11.7967 20.309 11.7961C20.5296 11.7955 20.7414 11.8824 20.8979 12.0378C21.0545 12.1931 21.1431 12.4042 21.1442 12.6247V12.6335ZM23.5965 16.6886C23.4894 16.6902 23.383 16.6707 23.2835 16.6312C23.184 16.5917 23.0932 16.533 23.0163 16.4585C22.8611 16.3078 22.7721 16.1017 22.7689 15.8855C22.7656 15.6692 22.8484 15.4606 22.999 15.3054C23.1496 15.1502 23.3557 15.0611 23.572 15.0579H23.5842C23.8005 15.0563 24.0085 15.1406 24.1626 15.2924C24.3166 15.4441 24.4041 15.6509 24.4057 15.8671C24.4073 16.0834 24.323 16.2914 24.1712 16.4455C24.0194 16.5995 23.8127 16.687 23.5965 16.6886ZM23.5965 13.4319C23.4894 13.4338 23.383 13.4146 23.2833 13.3753C23.1837 13.3361 23.0928 13.2776 23.0157 13.2032C22.8601 13.053 22.7706 12.8471 22.7668 12.6308C22.763 12.4146 22.8453 12.2057 22.9955 12.0501C23.1458 11.8945 23.3517 11.805 23.5679 11.8012H23.5822C23.7984 11.7993 24.0066 11.8834 24.1608 12.035C24.3151 12.1865 24.4028 12.3932 24.4047 12.6094C24.4066 12.8257 24.3225 13.0338 24.1709 13.1881C24.0193 13.3423 23.8127 13.43 23.5965 13.4319ZM23.5931 10.1752C23.486 10.1759 23.3798 10.1556 23.2806 10.1153C23.1814 10.0749 23.0911 10.0155 23.0149 9.94027C22.9387 9.86506 22.878 9.77557 22.8364 9.67692C22.7948 9.57827 22.773 9.47238 22.7723 9.3653V9.35375C22.7735 9.19299 22.8222 9.03617 22.9123 8.90301C23.0023 8.76985 23.1298 8.66629 23.2786 8.60536C23.4273 8.54442 23.5908 8.52883 23.7484 8.56054C23.906 8.59225 24.0507 8.66985 24.1644 8.78358C24.278 8.89731 24.3555 9.04209 24.3871 9.19973C24.4187 9.35737 24.4029 9.52082 24.3419 9.66955C24.2808 9.81827 24.1771 9.94563 24.0439 10.0356C23.9107 10.1256 23.7538 10.1742 23.5931 10.1752ZM26.8321 16.6879C26.725 16.6871 26.6191 16.6653 26.5205 16.6235C26.4219 16.5818 26.3325 16.5211 26.2573 16.4448C26.1822 16.3685 26.1228 16.2782 26.0826 16.179C26.0423 16.0797 26.022 15.9735 26.0228 15.8665C26.0236 15.7594 26.0455 15.6535 26.0872 15.5549C26.129 15.4563 26.1897 15.3668 26.266 15.2917C26.3423 15.2166 26.4326 15.1572 26.5318 15.1169C26.6311 15.0767 26.7372 15.0564 26.8443 15.0572H26.8552C27.0714 15.0603 27.2776 15.1491 27.4283 15.3042C27.5791 15.4593 27.6621 15.6679 27.659 15.8841C27.6559 16.1004 27.5671 16.3065 27.412 16.4573C27.2569 16.608 27.0483 16.691 26.8321 16.6879ZM26.0208 12.6111C26.0208 12.3949 26.1067 12.1875 26.2596 12.0346C26.4125 11.8817 26.6199 11.7958 26.8362 11.7958C27.0524 11.7958 27.2598 11.8817 27.4127 12.0346C27.5656 12.1875 27.6515 12.3949 27.6515 12.6111V12.624C27.6498 12.8403 27.5623 13.047 27.4081 13.1987C27.254 13.3504 27.046 13.4347 26.8297 13.4329C26.6135 13.4312 26.4067 13.3437 26.255 13.1896C26.1033 13.0354 26.0191 12.8274 26.0208 12.6111ZM26.8314 10.1746C26.7243 10.1737 26.6185 10.1517 26.5199 10.1099C26.4213 10.0681 26.3319 10.0073 26.2568 9.93093C26.1052 9.77675 26.021 9.56864 26.0228 9.35239C26.0246 9.13615 26.1123 8.92947 26.2665 8.77784C26.4206 8.6262 26.6287 8.54202 26.845 8.54383H26.8565C27.0728 8.54716 27.2789 8.63626 27.4294 8.79153C27.58 8.9468 27.6627 9.15551 27.6593 9.37176C27.656 9.58801 27.5669 9.79407 27.4116 9.94463C27.2564 10.0952 27.0476 10.1779 26.8314 10.1746ZM30.1058 13.4312C29.8895 13.4343 29.6809 13.3513 29.5258 13.2006C29.3708 13.0499 29.2819 12.8437 29.2788 12.6274C29.2758 12.4112 29.3588 12.2026 29.5095 12.0475C29.6602 11.8924 29.8664 11.8036 30.0827 11.8005H30.0942C30.3105 11.799 30.5185 11.8834 30.6725 12.0353C30.8264 12.1871 30.9138 12.3939 30.9154 12.6101C30.9169 12.8264 30.8324 13.0344 30.6806 13.1883C30.5288 13.3423 30.322 13.4297 30.1058 13.4312ZM30.9075 9.37821C30.9062 9.5987 30.8175 9.80966 30.6609 9.96486C30.5042 10.12 30.2925 10.2068 30.072 10.2061C29.8515 10.2055 29.6403 10.1174 29.4846 9.96126C29.3289 9.80511 29.2415 9.59361 29.2415 9.37312C29.2415 9.15263 29.3289 8.94113 29.4846 8.78498C29.6403 8.62883 29.8515 8.54077 30.072 8.54009C30.2925 8.53942 30.5042 8.62619 30.6609 8.78138C30.8175 8.93658 30.9062 9.14754 30.9075 9.36802V9.37821Z" fill="#06192B"/>
</svg>
