<svg width="48" height="38" viewBox="0 0 48 38" fill="none" xmlns="http://www.w3.org/2000/svg">
<path d="M6.3659 35.52C6.41923 35.52 6.4659 35.5417 6.5059 35.585L6.8909 36C6.59757 36.34 6.2409 36.605 5.8209 36.795C5.40423 36.985 4.89923 37.08 4.3059 37.08C3.79257 37.08 3.3259 36.9917 2.9059 36.815C2.4859 36.635 2.12757 36.385 1.8309 36.065C1.53423 35.7417 1.30423 35.355 1.1409 34.905C0.977565 34.455 0.895898 33.96 0.895898 33.42C0.895898 32.88 0.980898 32.385 1.1509 31.935C1.3209 31.485 1.55923 31.0983 1.8659 30.775C2.1759 30.4517 2.5459 30.2017 2.9759 30.025C3.4059 29.845 3.8809 29.755 4.4009 29.755C4.9109 29.755 5.3609 29.8367 5.7509 30C6.1409 30.1633 6.48423 30.385 6.7809 30.665L6.4609 31.11C6.4409 31.1433 6.41423 31.1717 6.3809 31.195C6.3509 31.215 6.30923 31.225 6.2559 31.225C6.1959 31.225 6.12257 31.1933 6.0359 31.13C5.94923 31.0633 5.8359 30.99 5.6959 30.91C5.5559 30.83 5.3809 30.7583 5.1709 30.695C4.9609 30.6283 4.70257 30.595 4.3959 30.595C4.0259 30.595 3.68757 30.66 3.3809 30.79C3.07423 30.9167 2.80923 31.1017 2.5859 31.345C2.3659 31.5883 2.19423 31.885 2.0709 32.235C1.94757 32.585 1.8859 32.98 1.8859 33.42C1.8859 33.8667 1.94923 34.265 2.0759 34.615C2.2059 34.965 2.3809 35.2617 2.6009 35.505C2.82423 35.745 3.0859 35.9283 3.3859 36.055C3.68923 36.1817 4.0159 36.245 4.3659 36.245C4.57923 36.245 4.7709 36.2333 4.9409 36.21C5.11423 36.1833 5.27257 36.1433 5.4159 36.09C5.56257 36.0367 5.69757 35.97 5.8209 35.89C5.94757 35.8067 6.07257 35.7083 6.1959 35.595C6.25257 35.545 6.30923 35.52 6.3659 35.52ZM10.5506 34.72C10.1406 34.7333 9.79059 34.7667 9.50059 34.82C9.21392 34.87 8.97892 34.9367 8.79559 35.02C8.61559 35.1033 8.48392 35.2017 8.40059 35.315C8.32059 35.4283 8.28059 35.555 8.28059 35.695C8.28059 35.8283 8.30225 35.9433 8.34559 36.04C8.38892 36.1367 8.44725 36.2167 8.52059 36.28C8.59725 36.34 8.68559 36.385 8.78559 36.415C8.88892 36.4417 8.99892 36.455 9.11559 36.455C9.27225 36.455 9.41559 36.44 9.54559 36.41C9.67559 36.3767 9.79725 36.33 9.91059 36.27C10.0273 36.21 10.1373 36.1383 10.2406 36.055C10.3473 35.9717 10.4506 35.8767 10.5506 35.77V34.72ZM7.67559 32.65C7.95559 32.38 8.25725 32.1783 8.58059 32.045C8.90392 31.9117 9.26225 31.845 9.65559 31.845C9.93892 31.845 10.1906 31.8917 10.4106 31.985C10.6306 32.0783 10.8156 32.2083 10.9656 32.375C11.1156 32.5417 11.2289 32.7433 11.3056 32.98C11.3823 33.2167 11.4206 33.4767 11.4206 33.76V37H11.0256C10.9389 37 10.8723 36.9867 10.8256 36.96C10.7789 36.93 10.7423 36.8733 10.7156 36.79L10.6156 36.31C10.4823 36.4333 10.3523 36.5433 10.2256 36.64C10.0989 36.7333 9.96559 36.8133 9.82559 36.88C9.68559 36.9433 9.53559 36.9917 9.37559 37.025C9.21892 37.0617 9.04392 37.08 8.85059 37.08C8.65392 37.08 8.46892 37.0533 8.29559 37C8.12225 36.9433 7.97059 36.86 7.84059 36.75C7.71392 36.64 7.61225 36.5017 7.53559 36.335C7.46225 36.165 7.42559 35.965 7.42559 35.735C7.42559 35.535 7.48059 35.3433 7.59059 35.16C7.70059 34.9733 7.87892 34.8083 8.12559 34.665C8.37225 34.5217 8.69392 34.405 9.09059 34.315C9.48725 34.2217 9.97392 34.1683 10.5506 34.155V33.76C10.5506 33.3667 10.4656 33.07 10.2956 32.87C10.1256 32.6667 9.87725 32.565 9.55059 32.565C9.33059 32.565 9.14559 32.5933 8.99559 32.65C8.84892 32.7033 8.72059 32.765 8.61059 32.835C8.50392 32.9017 8.41059 32.9633 8.33059 33.02C8.25392 33.0733 8.17725 33.1 8.10059 33.1C8.04059 33.1 7.98892 33.085 7.94559 33.055C7.90225 33.0217 7.86559 32.9817 7.83559 32.935L7.67559 32.65ZM13.6963 29.635V37H12.8063V29.635H13.6963ZM18.5296 33.915C18.5296 33.7083 18.4996 33.52 18.4396 33.35C18.3829 33.1767 18.2979 33.0283 18.1846 32.905C18.0746 32.7783 17.9396 32.6817 17.7796 32.615C17.6196 32.545 17.4379 32.51 17.2346 32.51C16.8079 32.51 16.4696 32.635 16.2196 32.885C15.9729 33.1317 15.8196 33.475 15.7596 33.915H18.5296ZM19.2496 36.29C19.1396 36.4233 19.0079 36.54 18.8546 36.64C18.7012 36.7367 18.5362 36.8167 18.3596 36.88C18.1862 36.9433 18.0062 36.99 17.8196 37.02C17.6329 37.0533 17.4479 37.07 17.2646 37.07C16.9146 37.07 16.5912 37.0117 16.2946 36.895C16.0012 36.775 15.7462 36.6017 15.5296 36.375C15.3162 36.145 15.1496 35.8617 15.0296 35.525C14.9096 35.1883 14.8496 34.8017 14.8496 34.365C14.8496 34.0117 14.9029 33.6817 15.0096 33.375C15.1196 33.0683 15.2762 32.8033 15.4796 32.58C15.6829 32.3533 15.9312 32.1767 16.2246 32.05C16.5179 31.92 16.8479 31.855 17.2146 31.855C17.5179 31.855 17.7979 31.9067 18.0546 32.01C18.3146 32.11 18.5379 32.2567 18.7246 32.45C18.9146 32.64 19.0629 32.8767 19.1696 33.16C19.2762 33.44 19.3296 33.76 19.3296 34.12C19.3296 34.26 19.3146 34.3533 19.2846 34.4C19.2546 34.4467 19.1979 34.47 19.1146 34.47H15.7296C15.7396 34.79 15.7829 35.0683 15.8596 35.305C15.9396 35.5417 16.0496 35.74 16.1896 35.9C16.3296 36.0567 16.4962 36.175 16.6896 36.255C16.8829 36.3317 17.0996 36.37 17.3396 36.37C17.5629 36.37 17.7546 36.345 17.9146 36.295C18.0779 36.2417 18.2179 36.185 18.3346 36.125C18.4512 36.065 18.5479 36.01 18.6246 35.96C18.7046 35.9067 18.7729 35.88 18.8296 35.88C18.9029 35.88 18.9596 35.9083 18.9996 35.965L19.2496 36.29ZM21.2628 32.67C21.3728 32.5467 21.4894 32.435 21.6128 32.335C21.7361 32.235 21.8661 32.15 22.0028 32.08C22.1428 32.0067 22.2894 31.9517 22.4428 31.915C22.5994 31.875 22.7678 31.855 22.9478 31.855C23.2244 31.855 23.4678 31.9017 23.6778 31.995C23.8911 32.085 24.0678 32.215 24.2078 32.385C24.3511 32.5517 24.4594 32.7533 24.5328 32.99C24.6061 33.2267 24.6428 33.4883 24.6428 33.775V37H23.7478V33.775C23.7478 33.3917 23.6594 33.095 23.4828 32.885C23.3094 32.6717 23.0444 32.565 22.6878 32.565C22.4244 32.565 22.1778 32.6283 21.9478 32.755C21.7211 32.8817 21.5111 33.0533 21.3178 33.27V37H20.4228V31.935H20.9578C21.0844 31.935 21.1628 31.9967 21.1928 32.12L21.2628 32.67ZM29.2989 33.14C29.1323 32.9167 28.9523 32.7617 28.7589 32.675C28.5656 32.585 28.3489 32.54 28.1089 32.54C27.6389 32.54 27.2773 32.7083 27.0239 33.045C26.7706 33.3817 26.6439 33.8617 26.6439 34.485C26.6439 34.815 26.6723 35.0983 26.7289 35.335C26.7856 35.5683 26.8689 35.7617 26.9789 35.915C27.0889 36.065 27.2239 36.175 27.3839 36.245C27.5439 36.315 27.7256 36.35 27.9289 36.35C28.2223 36.35 28.4773 36.2833 28.6939 36.15C28.9139 36.0167 29.1156 35.8283 29.2989 35.585V33.14ZM30.1889 29.635V37H29.6589C29.5323 37 29.4523 36.9383 29.4189 36.815L29.3389 36.2C29.1223 36.46 28.8756 36.67 28.5989 36.83C28.3223 36.99 28.0023 37.07 27.6389 37.07C27.3489 37.07 27.0856 37.015 26.8489 36.905C26.6123 36.7917 26.4106 36.6267 26.2439 36.41C26.0773 36.1933 25.9489 35.9233 25.8589 35.6C25.7689 35.2767 25.7239 34.905 25.7239 34.485C25.7239 34.1117 25.7739 33.765 25.8739 33.445C25.9739 33.1217 26.1173 32.8417 26.3039 32.605C26.4906 32.3683 26.7189 32.1833 26.9889 32.05C27.2623 31.9133 27.5689 31.845 27.9089 31.845C28.2189 31.845 28.4839 31.8983 28.7039 32.005C28.9273 32.1083 29.1256 32.2533 29.2989 32.44V29.635H30.1889ZM34.3396 34.72C33.9296 34.7333 33.5796 34.7667 33.2896 34.82C33.003 34.87 32.768 34.9367 32.5846 35.02C32.4046 35.1033 32.273 35.2017 32.1896 35.315C32.1096 35.4283 32.0696 35.555 32.0696 35.695C32.0696 35.8283 32.0913 35.9433 32.1346 36.04C32.178 36.1367 32.2363 36.2167 32.3096 36.28C32.3863 36.34 32.4746 36.385 32.5746 36.415C32.678 36.4417 32.788 36.455 32.9046 36.455C33.0613 36.455 33.2046 36.44 33.3346 36.41C33.4646 36.3767 33.5863 36.33 33.6996 36.27C33.8163 36.21 33.9263 36.1383 34.0296 36.055C34.1363 35.9717 34.2396 35.8767 34.3396 35.77V34.72ZM31.4646 32.65C31.7446 32.38 32.0463 32.1783 32.3696 32.045C32.693 31.9117 33.0513 31.845 33.4446 31.845C33.728 31.845 33.9796 31.8917 34.1996 31.985C34.4196 32.0783 34.6046 32.2083 34.7546 32.375C34.9046 32.5417 35.018 32.7433 35.0946 32.98C35.1713 33.2167 35.2096 33.4767 35.2096 33.76V37H34.8146C34.728 37 34.6613 36.9867 34.6146 36.96C34.568 36.93 34.5313 36.8733 34.5046 36.79L34.4046 36.31C34.2713 36.4333 34.1413 36.5433 34.0146 36.64C33.888 36.7333 33.7546 36.8133 33.6146 36.88C33.4746 36.9433 33.3246 36.9917 33.1646 37.025C33.008 37.0617 32.833 37.08 32.6396 37.08C32.443 37.08 32.258 37.0533 32.0846 37C31.9113 36.9433 31.7596 36.86 31.6296 36.75C31.503 36.64 31.4013 36.5017 31.3246 36.335C31.2513 36.165 31.2146 35.965 31.2146 35.735C31.2146 35.535 31.2696 35.3433 31.3796 35.16C31.4896 34.9733 31.668 34.8083 31.9146 34.665C32.1613 34.5217 32.483 34.405 32.8796 34.315C33.2763 34.2217 33.763 34.1683 34.3396 34.155V33.76C34.3396 33.3667 34.2546 33.07 34.0846 32.87C33.9146 32.6667 33.6663 32.565 33.3396 32.565C33.1196 32.565 32.9346 32.5933 32.7846 32.65C32.638 32.7033 32.5096 32.765 32.3996 32.835C32.293 32.9017 32.1996 32.9633 32.1196 33.02C32.043 33.0733 31.9663 33.1 31.8896 33.1C31.8296 33.1 31.778 33.085 31.7346 33.055C31.6913 33.0217 31.6546 32.9817 31.6246 32.935L31.4646 32.65ZM37.4104 32.95C37.5704 32.6033 37.767 32.3333 38.0004 32.14C38.2337 31.9433 38.5187 31.845 38.8554 31.845C38.962 31.845 39.0637 31.8567 39.1604 31.88C39.2604 31.9033 39.3487 31.94 39.4254 31.99L39.3604 32.655C39.3404 32.7383 39.2904 32.78 39.2104 32.78C39.1637 32.78 39.0954 32.77 39.0054 32.75C38.9154 32.73 38.8137 32.72 38.7004 32.72C38.5404 32.72 38.397 32.7433 38.2704 32.79C38.147 32.8367 38.0354 32.9067 37.9354 33C37.8387 33.09 37.7504 33.2033 37.6704 33.34C37.5937 33.4733 37.5237 33.6267 37.4604 33.8V37H36.5654V31.935H37.0754C37.172 31.935 37.2387 31.9533 37.2754 31.99C37.312 32.0267 37.337 32.09 37.3504 32.18L37.4104 32.95ZM41.1479 31.935V37H40.2579V31.935H41.1479ZM41.3379 30.345C41.3379 30.4317 41.3196 30.5133 41.2829 30.59C41.2496 30.6633 41.2029 30.73 41.1429 30.79C41.0863 30.8467 41.0179 30.8917 40.9379 30.925C40.8613 30.9583 40.7796 30.975 40.6929 30.975C40.6063 30.975 40.5246 30.9583 40.4479 30.925C40.3746 30.8917 40.3096 30.8467 40.2529 30.79C40.1963 30.73 40.1513 30.6633 40.1179 30.59C40.0846 30.5133 40.0679 30.4317 40.0679 30.345C40.0679 30.2583 40.0846 30.1767 40.1179 30.1C40.1513 30.02 40.1963 29.9517 40.2529 29.895C40.3096 29.835 40.3746 29.7883 40.4479 29.755C40.5246 29.7217 40.6063 29.705 40.6929 29.705C40.7796 29.705 40.8613 29.7217 40.9379 29.755C41.0179 29.7883 41.0863 29.835 41.1429 29.895C41.2029 29.9517 41.2496 30.02 41.2829 30.1C41.3196 30.1767 41.3379 30.2583 41.3379 30.345ZM44.7453 31.855C45.1153 31.855 45.4486 31.9167 45.7453 32.04C46.0419 32.1633 46.2953 32.3383 46.5053 32.565C46.7153 32.7917 46.8753 33.0667 46.9853 33.39C47.0986 33.71 47.1553 34.0683 47.1553 34.465C47.1553 34.865 47.0986 35.225 46.9853 35.545C46.8753 35.865 46.7153 36.1383 46.5053 36.365C46.2953 36.5917 46.0419 36.7667 45.7453 36.89C45.4486 37.01 45.1153 37.07 44.7453 37.07C44.3719 37.07 44.0353 37.01 43.7353 36.89C43.4386 36.7667 43.1853 36.5917 42.9753 36.365C42.7653 36.1383 42.6036 35.865 42.4903 35.545C42.3803 35.225 42.3253 34.865 42.3253 34.465C42.3253 34.0683 42.3803 33.71 42.4903 33.39C42.6036 33.0667 42.7653 32.7917 42.9753 32.565C43.1853 32.3383 43.4386 32.1633 43.7353 32.04C44.0353 31.9167 44.3719 31.855 44.7453 31.855ZM44.7453 36.375C45.2453 36.375 45.6186 36.2083 45.8653 35.875C46.1119 35.5383 46.2353 35.07 46.2353 34.47C46.2353 33.8667 46.1119 33.3967 45.8653 33.06C45.6186 32.7233 45.2453 32.555 44.7453 32.555C44.4919 32.555 44.2703 32.5983 44.0803 32.685C43.8936 32.7717 43.7369 32.8967 43.6103 33.06C43.4869 33.2233 43.3936 33.425 43.3303 33.665C43.2703 33.9017 43.2403 34.17 43.2403 34.47C43.2403 35.07 43.3636 35.5383 43.6103 35.875C43.8603 36.2083 44.2386 36.375 44.7453 36.375Z" fill="#949494"/>
<path d="M33.3492 6.50925H15.2689C15.1758 6.51483 15.0824 6.51256 14.9897 6.50246C14.7709 6.46306 14.6385 6.3272 14.6378 6.10235C14.6371 5.8775 14.7669 5.74096 14.989 5.70428C15.0817 5.69385 15.1751 5.69158 15.2682 5.69749H33.3118C33.5204 4.3219 32.6658 2.89129 31.2393 2.55979C30.6163 2.4151 29.952 2.44634 29.2774 2.3954C29.2774 2.83626 29.2774 3.21056 29.2774 3.57806C29.274 4.3348 28.7544 4.8864 28.0499 4.88232C27.3455 4.87825 26.8401 4.33073 26.8367 3.59165C26.8367 3.22007 26.8367 2.84849 26.8367 2.44431H21.7419C21.6656 2.44737 21.5892 2.44601 21.513 2.44023C21.4054 2.43789 21.3031 2.39288 21.2286 2.31511C21.1541 2.23733 21.1136 2.13316 21.116 2.02552C21.1183 1.91787 21.1633 1.81556 21.2411 1.7411C21.3189 1.66664 21.423 1.62612 21.5307 1.62846C21.6061 1.62099 21.6828 1.62507 21.7589 1.62507H26.8442C26.8041 1.09861 26.8605 0.617662 27.2898 0.273256C27.5213 0.0832984 27.8154 -0.013576 28.1145 0.00153516C28.8502 0.0300659 29.2014 0.504898 29.2978 1.62778C29.6884 1.62778 30.0838 1.62778 30.4785 1.62778C31.5613 1.63594 32.477 2.03537 33.2079 2.83083C33.8193 3.50062 34.1548 4.30016 34.1589 5.20839C34.1693 8.78605 34.1693 12.3637 34.1589 15.9414C34.1508 17.8984 32.5245 19.524 30.5681 19.5294C25.9149 19.5417 21.2617 19.5417 16.6085 19.5294C14.6385 19.524 13.017 17.8916 13.0082 15.9217C12.9973 12.3608 12.9973 8.80009 13.0082 5.23964C13.0143 3.26966 14.6385 1.65428 16.6085 1.62914C17.0228 1.62439 17.4379 1.62914 17.8903 1.62914C17.8903 1.47698 17.8903 1.33704 17.8903 1.19643C17.8978 0.878288 18.0295 0.575707 18.2571 0.353357C18.4848 0.131007 18.7904 0.00652986 19.1086 0.00652986C19.4269 0.00652986 19.7325 0.131007 19.9601 0.353357C20.1878 0.575707 20.3194 0.878288 20.327 1.19643C20.3378 2.02744 20.3378 2.85823 20.327 3.68879C20.318 4.00683 20.185 4.30874 19.9563 4.52996C19.7276 4.75118 19.4215 4.87414 19.1033 4.87254C18.7852 4.87095 18.4803 4.74492 18.2538 4.52141C18.0274 4.29791 17.8974 3.99467 17.8917 3.67656C17.8815 3.27238 17.8917 2.86751 17.8917 2.44363C16.9406 2.44906 16.0005 2.31999 15.1609 2.87634C14.3212 3.43269 13.8342 4.20506 13.8287 5.20499C13.8093 8.78265 13.8093 12.3603 13.8287 15.938C13.8362 17.4576 15.0875 18.6891 16.6139 18.7129C17.8176 18.7313 19.0213 18.7177 20.2244 18.7177C23.6236 18.7177 27.0226 18.7177 30.4214 18.7177C31.8337 18.7177 32.9599 17.8441 33.2745 16.5059C33.3243 16.2914 33.3496 16.0719 33.3499 15.8517C33.3548 12.7994 33.356 9.74749 33.3533 6.69606L33.3492 6.50925ZM19.5152 2.44906C19.5152 2.05914 19.5152 1.66922 19.5152 1.2793C19.5152 0.996034 19.3576 0.819415 19.1192 0.813981C18.8807 0.808546 18.7068 0.990599 18.7027 1.28881C18.6996 2.05869 18.6996 2.82992 18.7027 3.60252C18.7027 3.88443 18.861 4.0624 19.0981 4.06852C19.3352 4.07463 19.5111 3.89122 19.5145 3.59708C19.5179 3.21192 19.5152 2.83083 19.5152 2.44906ZM28.4664 2.44363C28.4664 2.06254 28.4664 1.68077 28.4664 1.299C28.4664 1.00011 28.3074 0.817377 28.0588 0.817377C27.8101 0.817377 27.6512 0.998751 27.6512 1.29764C27.6485 2.06073 27.6485 2.82358 27.6512 3.58621C27.6512 3.88511 27.8101 4.06784 28.0588 4.06852C28.3074 4.0692 28.4664 3.88579 28.4664 3.58825C28.4691 3.20309 28.4664 2.822 28.4664 2.44363Z" fill="#949494"/>
<path d="M21.1415 9.36847C21.1398 9.53017 21.0901 9.68772 20.9986 9.82108C20.9072 9.95444 20.7781 10.0576 20.6279 10.1174C20.4777 10.1772 20.313 10.191 20.1549 10.157C19.9969 10.123 19.8525 10.0428 19.7401 9.92649C19.6277 9.8102 19.5525 9.66312 19.524 9.50395C19.4954 9.34479 19.5149 9.18073 19.5798 9.03264C19.6448 8.88456 19.7523 8.75914 19.8887 8.67233C20.0252 8.58553 20.1843 8.54126 20.346 8.54516C20.5602 8.55033 20.7637 8.6396 20.9126 8.79368C21.0614 8.94775 21.1437 9.15424 21.1415 9.36847Z" fill="#949494"/>
<path d="M23.5808 8.54518C23.7425 8.54411 23.9009 8.59116 24.0358 8.68035C24.1707 8.76953 24.276 8.89683 24.3384 9.04604C24.4007 9.19525 24.4173 9.35963 24.3859 9.51828C24.3546 9.67693 24.2768 9.82268 24.1624 9.93698C24.048 10.0513 23.9022 10.129 23.7435 10.1602C23.5848 10.1914 23.4205 10.1747 23.2713 10.1122C23.1221 10.0497 22.9949 9.9443 22.9059 9.80933C22.8168 9.67436 22.7699 9.51594 22.7711 9.35423C22.7727 9.14004 22.8585 8.93508 23.0101 8.78368C23.1616 8.63228 23.3666 8.54661 23.5808 8.54518Z" fill="#949494"/>
<path d="M27.6512 9.36708C27.6498 9.52878 27.6003 9.68642 27.5091 9.81994C27.4179 9.95346 27.289 10.0568 27.1389 10.1169C26.9888 10.177 26.8241 10.191 26.666 10.1573C26.5078 10.1236 26.3633 10.0436 26.2508 9.92747C26.1382 9.81137 26.0627 9.66441 26.0339 9.50529C26.0051 9.34617 26.0243 9.18208 26.089 9.03389C26.1537 8.88569 26.261 8.76009 26.3973 8.67306C26.5336 8.58603 26.6927 8.5415 26.8543 8.54513C27.0685 8.54994 27.2722 8.63888 27.4213 8.7927C27.5704 8.94652 27.653 9.15286 27.6512 9.36708Z" fill="#949494"/>
<path d="M30.0797 10.1708C29.9181 10.1684 29.7608 10.1181 29.6278 10.0261C29.4949 9.93409 29.3923 9.80466 29.3331 9.65422C29.2739 9.50378 29.2607 9.33913 29.2953 9.18121C29.3299 9.02329 29.4107 8.87922 29.5274 8.76732C29.6441 8.65543 29.7914 8.58076 29.9506 8.5528C30.1099 8.52485 30.2738 8.54488 30.4217 8.61034C30.5695 8.6758 30.6945 8.78374 30.7808 8.92044C30.8672 9.05714 30.9109 9.21641 30.9064 9.37802C30.9006 9.59232 30.8105 9.79568 30.6558 9.94406C30.5011 10.0924 30.2941 10.1739 30.0797 10.1708Z" fill="#949494"/>
<path d="M17.0595 13.4266C16.8979 13.4243 16.7406 13.3739 16.6077 13.282C16.4747 13.19 16.3721 13.0606 16.3129 12.9102C16.2537 12.7598 16.2405 12.5952 16.275 12.4373C16.3096 12.2794 16.3903 12.1354 16.5069 12.0234C16.6235 11.9115 16.7708 11.8368 16.93 11.8087C17.0892 11.7807 17.2531 11.8006 17.401 11.866C17.5488 11.9314 17.6739 12.0392 17.7603 12.1758C17.8467 12.3124 17.8905 12.4716 17.8862 12.6332C17.8795 12.8473 17.7892 13.0502 17.6347 13.1985C17.4801 13.3468 17.2737 13.4287 17.0595 13.4266Z" fill="#949494"/>
<path d="M20.3141 13.4266C20.1525 13.4241 19.9953 13.3737 19.8624 13.2817C19.7296 13.1896 19.6271 13.0602 19.5679 12.9098C19.5088 12.7594 19.4957 12.5948 19.5303 12.4369C19.565 12.2791 19.6457 12.1351 19.7624 12.0232C19.879 11.9113 20.0263 11.8367 20.1855 11.8087C20.3446 11.7807 20.5085 11.8007 20.6563 11.8661C20.8041 11.9314 20.9292 12.0393 21.0155 12.1759C21.1019 12.3125 21.1457 12.4716 21.1415 12.6332C21.1345 12.8473 21.0441 13.0502 20.8895 13.1985C20.7348 13.3468 20.5283 13.4287 20.3141 13.4266Z" fill="#949494"/>
<path d="M24.3959 12.6019C24.3988 12.7637 24.3534 12.9227 24.2656 13.0586C24.1777 13.1945 24.0514 13.3012 23.9027 13.3651C23.7541 13.429 23.5897 13.4472 23.4307 13.4174C23.2716 13.3876 23.125 13.3111 23.0096 13.1977C22.8942 13.0842 22.8151 12.939 22.7825 12.7805C22.7499 12.622 22.7651 12.4574 22.8264 12.3076C22.8877 12.1578 22.9921 12.0297 23.1265 11.9395C23.2608 11.8492 23.419 11.8011 23.5808 11.801C23.7945 11.801 23.9997 11.8849 24.1522 12.0347C24.3047 12.1845 24.3922 12.3882 24.3959 12.6019Z" fill="#949494"/>
<path d="M26.834 13.4265C26.6722 13.4264 26.5141 13.3783 26.3798 13.2881C26.2455 13.198 26.141 13.0699 26.0797 12.9202C26.0184 12.7705 26.0031 12.6059 26.0356 12.4475C26.0681 12.289 26.147 12.1438 26.2623 12.0303C26.3776 11.9168 26.5241 11.8402 26.683 11.8103C26.842 11.7803 27.0063 11.7983 27.155 11.862C27.3037 11.9256 27.4301 12.0321 27.5181 12.1679C27.6061 12.3036 27.6517 12.4625 27.6492 12.6242C27.6446 12.8378 27.5568 13.0411 27.4046 13.1909C27.2523 13.3408 27.0476 13.4253 26.834 13.4265Z" fill="#949494"/>
<path d="M30.9064 12.6046C30.9087 12.7663 30.8629 12.9251 30.7747 13.0606C30.6865 13.1962 30.56 13.3025 30.4113 13.3659C30.2626 13.4294 30.0983 13.4472 29.9394 13.4171C29.7806 13.3869 29.6342 13.3102 29.5191 13.1967C29.4039 13.0832 29.3251 12.9379 29.2927 12.7795C29.2603 12.6211 29.2758 12.4566 29.3371 12.307C29.3985 12.1573 29.5029 12.0293 29.6372 11.9392C29.7715 11.8492 29.9296 11.801 30.0913 11.801C30.3055 11.801 30.5111 11.8853 30.6636 12.0357C30.8162 12.1861 30.9034 12.3905 30.9064 12.6046Z" fill="#949494"/>
<path d="M17.0765 15.0569C17.2381 15.0569 17.3961 15.105 17.5304 15.195C17.6647 15.285 17.7691 15.413 17.8305 15.5625C17.8919 15.712 17.9074 15.8765 17.8752 16.0349C17.8429 16.1933 17.7642 16.3385 17.6492 16.4521C17.5342 16.5657 17.388 16.6425 17.2292 16.6728C17.0704 16.7031 16.9062 16.6855 16.7574 16.6222C16.6087 16.5589 16.4821 16.4529 16.3937 16.3175C16.3054 16.1821 16.2593 16.0235 16.2613 15.8619C16.264 15.6474 16.3511 15.4427 16.5037 15.292C16.6562 15.1414 16.862 15.0569 17.0765 15.0569Z" fill="#949494"/>
<path d="M20.333 16.6818C20.1713 16.6832 20.0129 16.6364 19.8778 16.5474C19.7428 16.4585 19.6372 16.3313 19.5746 16.1822C19.512 16.0331 19.4952 15.8688 19.5263 15.7101C19.5573 15.5514 19.6349 15.4055 19.7491 15.291C19.8633 15.1765 20.009 15.0986 20.1676 15.0671C20.3262 15.0356 20.4906 15.0521 20.6399 15.1143C20.7892 15.1765 20.9165 15.2817 21.0058 15.4165C21.0951 15.5514 21.1423 15.7097 21.1414 15.8714C21.1401 16.0856 21.0546 16.2907 20.9034 16.4424C20.7521 16.594 20.5472 16.68 20.333 16.6818Z" fill="#949494"/>
<path d="M24.396 15.8598C24.3984 16.0215 24.3527 16.1803 24.2646 16.316C24.1765 16.4516 24.0501 16.558 23.9013 16.6216C23.7526 16.6852 23.5883 16.7031 23.4294 16.673C23.2705 16.643 23.1241 16.5663 23.0089 16.4528C22.8936 16.3393 22.8148 16.1941 22.7823 16.0356C22.7499 15.8772 22.7653 15.7127 22.8266 15.563C22.8879 15.4133 22.9924 15.2853 23.1267 15.1952C23.261 15.105 23.4191 15.0569 23.5808 15.0569C23.7949 15.0569 24.0004 15.1411 24.1529 15.2913C24.3055 15.4415 24.3928 15.6458 24.396 15.8598Z" fill="#949494"/>
<path d="M27.6512 15.8776C27.6499 16.0393 27.6006 16.1969 27.5096 16.3305C27.4185 16.4641 27.2897 16.5676 27.1397 16.6278C26.9897 16.688 26.8251 16.7023 26.6669 16.6687C26.5088 16.6352 26.3642 16.5554 26.2515 16.4394C26.1388 16.3235 26.0631 16.1767 26.0341 16.0176C26.0051 15.8586 26.024 15.6945 26.0885 15.5462C26.153 15.3979 26.2601 15.2722 26.3962 15.185C26.5324 15.0977 26.6914 15.053 26.853 15.0563C27.0673 15.0608 27.2712 15.1495 27.4206 15.3032C27.57 15.4569 27.6528 15.6633 27.6512 15.8776Z" fill="#949494"/>
</svg>
