<svg width="78" height="16" viewBox="0 0 78 16" fill="none" xmlns="http://www.w3.org/2000/svg">
<path d="M70.9091 0.909088H7.09091C3.17471 0.909088 1.90735e-06 4.0838 1.90735e-06 8C1.90735e-06 11.9162 3.17471 15.0909 7.09091 15.0909H70.9091C74.8253 15.0909 78 11.9162 78 8C78 4.0838 74.8253 0.909088 70.9091 0.909088Z" fill="#D05F5F"/>
<path d="M20.9425 6.18111H19.6143C19.5765 5.9633 19.5066 5.77036 19.4048 5.60227C19.303 5.43182 19.1764 5.28741 19.0249 5.16903C18.8733 5.05066 18.7005 4.96188 18.5064 4.9027C18.3146 4.84115 18.1075 4.81037 17.8849 4.81037C17.4896 4.81037 17.1392 4.9098 16.8338 5.10866C16.5284 5.30516 16.2893 5.59399 16.1165 5.97514C15.9437 6.35393 15.8572 6.81676 15.8572 7.36364C15.8572 7.91998 15.9437 8.38873 16.1165 8.76989C16.2917 9.14867 16.5308 9.43513 16.8338 9.62926C17.1392 9.82102 17.4884 9.9169 17.8814 9.9169C18.0992 9.9169 18.3028 9.88849 18.4922 9.83168C18.6839 9.77249 18.8556 9.68608 19.0071 9.57244C19.161 9.45881 19.29 9.31913 19.3942 9.15341C19.5007 8.98769 19.5741 8.7983 19.6143 8.58523L20.9425 8.59233C20.8928 8.93797 20.785 9.26231 20.6193 9.56534C20.456 9.86837 20.2417 10.1359 19.9766 10.3679C19.7114 10.5975 19.4013 10.7775 19.0462 10.9077C18.6911 11.0355 18.2969 11.0994 17.8636 11.0994C17.2244 11.0994 16.6539 10.9515 16.152 10.6555C15.6501 10.3596 15.2547 9.93229 14.9659 9.37358C14.6771 8.81487 14.5327 8.14489 14.5327 7.36364C14.5327 6.58002 14.6783 5.91004 14.9695 5.35369C15.2607 4.79498 15.6572 4.36766 16.1591 4.07173C16.661 3.7758 17.2292 3.62784 17.8636 3.62784C18.2685 3.62784 18.6449 3.68466 18.9929 3.7983C19.3409 3.91193 19.651 4.07884 19.9233 4.29901C20.1955 4.51681 20.4193 4.78433 20.5945 5.10156C20.772 5.41643 20.888 5.77628 20.9425 6.18111ZM23.6618 11.1101C23.3161 11.1101 23.0048 11.0485 22.7278 10.9254C22.4532 10.8 22.2354 10.6153 22.0744 10.3714C21.9158 10.1276 21.8365 9.82694 21.8365 9.46946C21.8365 9.1617 21.8933 8.9072 22.0069 8.70597C22.1206 8.50473 22.2756 8.34375 22.4721 8.22301C22.6686 8.10227 22.89 8.01113 23.1362 7.94957C23.3848 7.88565 23.6416 7.83949 23.9068 7.81108C24.2264 7.77794 24.4856 7.74834 24.6845 7.7223C24.8833 7.69389 25.0278 7.65128 25.1177 7.59446C25.21 7.53527 25.2562 7.44413 25.2562 7.32102V7.29972C25.2562 7.0322 25.1769 6.82505 25.0183 6.67827C24.8597 6.53149 24.6312 6.4581 24.3329 6.4581C24.0181 6.4581 23.7683 6.52675 23.5836 6.66406C23.4013 6.80137 23.2782 6.96354 23.2143 7.15057L22.014 6.98011C22.1087 6.64867 22.265 6.37169 22.4828 6.14915C22.7006 5.92424 22.9669 5.75616 23.2818 5.64489C23.5967 5.53125 23.9447 5.47443 24.3258 5.47443C24.5886 5.47443 24.8502 5.50521 25.1106 5.56676C25.371 5.62831 25.609 5.73011 25.8244 5.87216C26.0398 6.01184 26.2127 6.20241 26.3429 6.44389C26.4754 6.68537 26.5417 6.98722 26.5417 7.34943V11H25.3059V10.2507H25.2633C25.1852 10.4022 25.0751 10.5443 24.9331 10.6768C24.7934 10.8071 24.617 10.9124 24.4039 10.9929C24.1932 11.071 23.9458 11.1101 23.6618 11.1101ZM23.9956 10.1655C24.2536 10.1655 24.4773 10.1146 24.6667 10.0128C24.8561 9.90862 25.0017 9.77131 25.1035 9.60085C25.2077 9.4304 25.2598 9.24455 25.2598 9.04332V8.40057C25.2195 8.43371 25.1509 8.46449 25.0538 8.4929C24.9591 8.52131 24.8526 8.54616 24.7342 8.56747C24.6158 8.58878 24.4986 8.60772 24.3826 8.62429C24.2666 8.64086 24.166 8.65507 24.0808 8.6669C23.889 8.69294 23.7174 8.73556 23.5659 8.79474C23.4144 8.85393 23.2948 8.93679 23.2072 9.04332C23.1196 9.14749 23.0758 9.28243 23.0758 9.44815C23.0758 9.6849 23.1622 9.86364 23.335 9.98438C23.5079 10.1051 23.728 10.1655 23.9956 10.1655ZM29.1199 7.80398V11H27.8343V5.54545H29.063V6.4723H29.127C29.2524 6.1669 29.4525 5.92424 29.7271 5.74432C30.0041 5.56439 30.3462 5.47443 30.7534 5.47443C31.1298 5.47443 31.4577 5.55492 31.737 5.71591C32.0188 5.87689 32.2366 6.11009 32.3904 6.41548C32.5467 6.72088 32.6236 7.09138 32.6213 7.52699V11H31.3358V7.72585C31.3358 7.36127 31.2411 7.07599 31.0517 6.87003C30.8646 6.66406 30.6054 6.56108 30.274 6.56108C30.0491 6.56108 29.849 6.6108 29.6738 6.71023C29.501 6.80729 29.3649 6.94815 29.2654 7.13281C29.1684 7.31747 29.1199 7.54119 29.1199 7.80398ZM36.3074 11.1065C35.7628 11.1065 35.2953 10.987 34.9047 10.7479C34.5164 10.5088 34.2169 10.1785 34.0062 9.7571C33.7979 9.33333 33.6937 8.84564 33.6937 8.29403C33.6937 7.74006 33.8002 7.25118 34.0133 6.82741C34.2264 6.40128 34.527 6.06984 34.9153 5.8331C35.3059 5.59399 35.7676 5.47443 36.3002 5.47443C36.743 5.47443 37.1348 5.55611 37.4757 5.71946C37.819 5.88045 38.0924 6.1089 38.296 6.40483C38.4996 6.69839 38.6156 7.04167 38.644 7.43466H37.4153C37.3656 7.17187 37.2472 6.95289 37.0602 6.7777C36.8755 6.60014 36.6281 6.51136 36.318 6.51136C36.0552 6.51136 35.8244 6.58239 35.6255 6.72443C35.4267 6.86411 35.2716 7.06534 35.1603 7.32812C35.0514 7.59091 34.997 7.90578 34.997 8.27273C34.997 8.64441 35.0514 8.96402 35.1603 9.23153C35.2692 9.49669 35.4219 9.70147 35.6184 9.84588C35.8173 9.98793 36.0505 10.0589 36.318 10.0589C36.5074 10.0589 36.6767 10.0234 36.8258 9.95241C36.9773 9.87902 37.104 9.77367 37.2058 9.63636C37.3076 9.49905 37.3774 9.33215 37.4153 9.13565H38.644C38.6132 9.52154 38.4996 9.86364 38.3031 10.1619C38.1066 10.4579 37.8391 10.6899 37.5005 10.858C37.162 11.0237 36.7643 11.1065 36.3074 11.1065ZM42.1143 11.1065C41.5675 11.1065 41.0952 10.9929 40.6974 10.7656C40.3021 10.536 39.9979 10.2116 39.7848 9.79261C39.5717 9.37121 39.4652 8.87524 39.4652 8.30469C39.4652 7.74361 39.5717 7.25118 39.7848 6.82741C40.0002 6.40128 40.3009 6.06984 40.6868 5.8331C41.0727 5.59399 41.526 5.47443 42.0469 5.47443C42.383 5.47443 42.7003 5.52888 42.9986 5.63778C43.2992 5.74432 43.5644 5.91004 43.794 6.13494C44.026 6.35985 44.2083 6.64631 44.3409 6.99432C44.4735 7.33996 44.5398 7.75189 44.5398 8.23011V8.62429H40.0689V7.75781H43.3075C43.3052 7.5116 43.2519 7.29261 43.1477 7.10085C43.0436 6.90672 42.898 6.75402 42.7109 6.64276C42.5263 6.53149 42.3108 6.47585 42.0646 6.47585C41.8018 6.47585 41.571 6.53977 41.3722 6.66761C41.1733 6.79309 41.0182 6.95881 40.907 7.16477C40.7981 7.36837 40.7424 7.59209 40.7401 7.83594V8.59233C40.7401 8.90956 40.7981 9.18182 40.9141 9.40909C41.0301 9.634 41.1922 9.80682 41.4006 9.92756C41.6089 10.0459 41.8527 10.1051 42.1321 10.1051C42.3191 10.1051 42.4884 10.0791 42.6399 10.027C42.7914 9.97254 42.9228 9.89323 43.0341 9.78906C43.1454 9.6849 43.2294 9.55587 43.2862 9.40199L44.4865 9.53693C44.4107 9.85417 44.2663 10.1312 44.0533 10.3679C43.8426 10.6023 43.5727 10.7846 43.2436 10.9148C42.9145 11.0426 42.5381 11.1065 42.1143 11.1065ZM46.9128 3.72727V11H45.6273V3.72727H46.9128ZM49.8043 11.1101C49.4587 11.1101 49.1474 11.0485 48.8704 10.9254C48.5958 10.8 48.378 10.6153 48.217 10.3714C48.0584 10.1276 47.979 9.82694 47.979 9.46946C47.979 9.1617 48.0359 8.9072 48.1495 8.70597C48.2631 8.50473 48.4182 8.34375 48.6147 8.22301C48.8112 8.10227 49.0326 8.01113 49.2788 7.94957C49.5273 7.88565 49.7842 7.83949 50.0494 7.81108C50.369 7.77794 50.6282 7.74834 50.8271 7.7223C51.0259 7.69389 51.1703 7.65128 51.2603 7.59446C51.3526 7.53527 51.3988 7.44413 51.3988 7.32102V7.29972C51.3988 7.0322 51.3195 6.82505 51.1609 6.67827C51.0022 6.53149 50.7738 6.4581 50.4755 6.4581C50.1606 6.4581 49.9109 6.52675 49.7262 6.66406C49.5439 6.80137 49.4208 6.96354 49.3569 7.15057L48.1566 6.98011C48.2513 6.64867 48.4076 6.37169 48.6254 6.14915C48.8432 5.92424 49.1095 5.75616 49.4244 5.64489C49.7392 5.53125 50.0872 5.47443 50.4684 5.47443C50.7312 5.47443 50.9928 5.50521 51.2532 5.56676C51.5136 5.62831 51.7515 5.73011 51.967 5.87216C52.1824 6.01184 52.3552 6.20241 52.4854 6.44389C52.618 6.68537 52.6843 6.98722 52.6843 7.34943V11H51.4485V10.2507H51.4059C51.3278 10.4022 51.2177 10.5443 51.0756 10.6768C50.936 10.8071 50.7596 10.9124 50.5465 10.9929C50.3358 11.071 50.0884 11.1101 49.8043 11.1101ZM50.1381 10.1655C50.3962 10.1655 50.6199 10.1146 50.8093 10.0128C50.9987 9.90862 51.1443 9.77131 51.2461 9.60085C51.3503 9.4304 51.4023 9.24455 51.4023 9.04332V8.40057C51.3621 8.43371 51.2934 8.46449 51.1964 8.4929C51.1017 8.52131 50.9951 8.54616 50.8768 8.56747C50.7584 8.58878 50.6412 8.60772 50.5252 8.62429C50.4092 8.64086 50.3086 8.65507 50.2234 8.6669C50.0316 8.69294 49.86 8.73556 49.7085 8.79474C49.5569 8.85393 49.4374 8.93679 49.3498 9.04332C49.2622 9.14749 49.2184 9.28243 49.2184 9.44815C49.2184 9.6849 49.3048 9.86364 49.4776 9.98438C49.6504 10.1051 49.8706 10.1655 50.1381 10.1655ZM56.0011 11.0959C55.5726 11.0959 55.189 10.9858 54.8505 10.7656C54.512 10.5455 54.2444 10.2259 54.0479 9.80682C53.8514 9.38778 53.7532 8.87879 53.7532 8.27983C53.7532 7.67377 53.8526 7.16241 54.0515 6.74574C54.2527 6.3267 54.5238 6.01065 54.8647 5.79759C55.2056 5.58215 55.5856 5.47443 56.0046 5.47443C56.3242 5.47443 56.587 5.52888 56.793 5.63778C56.9989 5.74432 57.1623 5.87334 57.283 6.02486C57.4038 6.17401 57.4973 6.31487 57.5636 6.44744H57.6168V3.72727H58.9059V11H57.6417V10.1406H57.5636C57.4973 10.2732 57.4014 10.4141 57.2759 10.5632C57.1504 10.71 56.9847 10.8355 56.7788 10.9396C56.5728 11.0438 56.3136 11.0959 56.0011 11.0959ZM56.3597 10.0412C56.632 10.0412 56.864 9.9678 57.0558 9.82102C57.2475 9.67187 57.3931 9.46473 57.4925 9.19957C57.592 8.93442 57.6417 8.62547 57.6417 8.27273C57.6417 7.91998 57.592 7.6134 57.4925 7.35298C57.3955 7.09257 57.2511 6.89015 57.0593 6.74574C56.8699 6.60133 56.6367 6.52912 56.3597 6.52912C56.0733 6.52912 55.8342 6.60369 55.6424 6.75284C55.4506 6.90199 55.3062 7.10795 55.2092 7.37074C55.1121 7.63352 55.0636 7.93419 55.0636 8.27273C55.0636 8.61364 55.1121 8.91785 55.2092 9.18537C55.3086 9.45052 55.4542 9.66004 55.646 9.81392C55.8401 9.96544 56.078 10.0412 56.3597 10.0412ZM62.655 11.1065C62.1223 11.1065 61.6607 10.9893 61.2701 10.755C60.8794 10.5206 60.5764 10.1927 60.361 9.77131C60.1479 9.34991 60.0414 8.85748 60.0414 8.29403C60.0414 7.73059 60.1479 7.23698 60.361 6.81321C60.5764 6.38944 60.8794 6.06037 61.2701 5.82599C61.6607 5.59162 62.1223 5.47443 62.655 5.47443C63.1877 5.47443 63.6493 5.59162 64.04 5.82599C64.4306 6.06037 64.7324 6.38944 64.9455 6.81321C65.1609 7.23698 65.2686 7.73059 65.2686 8.29403C65.2686 8.85748 65.1609 9.34991 64.9455 9.77131C64.7324 10.1927 64.4306 10.5206 64.04 10.755C63.6493 10.9893 63.1877 11.1065 62.655 11.1065ZM62.6621 10.0767C62.9509 10.0767 63.1924 9.9974 63.3865 9.83878C63.5807 9.67779 63.7251 9.46236 63.8198 9.19247C63.9168 8.92259 63.9654 8.62192 63.9654 8.29048C63.9654 7.95668 63.9168 7.65483 63.8198 7.38494C63.7251 7.11269 63.5807 6.89607 63.3865 6.73509C63.1924 6.5741 62.9509 6.49361 62.6621 6.49361C62.3662 6.49361 62.12 6.5741 61.9235 6.73509C61.7293 6.89607 61.5837 7.11269 61.4867 7.38494C61.392 7.65483 61.3446 7.95668 61.3446 8.29048C61.3446 8.62192 61.392 8.92259 61.4867 9.19247C61.5837 9.46236 61.7293 9.67779 61.9235 9.83878C62.12 9.9974 62.3662 10.0767 62.6621 10.0767Z" fill="white"/>
</svg>
