<svg width="31" height="31" viewBox="0 0 31 31" fill="none" xmlns="http://www.w3.org/2000/svg">
<path d="M16.005 30.7398H14.2325C14.1583 30.7178 14.0825 30.7014 14.0058 30.691C11.8982 30.5646 9.84529 29.9698 7.99662 28.9498C3.74622 26.5872 1.14126 23.0129 0.236459 18.2251C0.128978 17.6584 0.0781683 17.0819 0 16.5093V14.7368C0.0225605 14.6527 0.039534 14.5672 0.0508094 14.4808C0.195991 12.154 0.909237 9.89816 2.12813 7.91079C4.96369 3.33794 9.08707 0.852191 14.4611 0.531701C17.4157 0.33733 20.3563 1.08 22.8642 2.65397C27.4371 5.48562 29.9091 9.62268 30.2238 14.9948C30.3887 17.685 29.7782 20.3661 28.465 22.7198C26.1199 26.9839 22.5503 29.5803 17.7559 30.5092C17.1775 30.6109 16.5873 30.6617 16.005 30.7398ZM15.1236 3.04481C12.6348 3.04404 10.2016 3.78111 8.13159 5.16286C6.06157 6.54461 4.44764 8.50902 3.49379 10.8078C2.53993 13.1066 2.28897 15.6365 2.77262 18.0779C3.25627 20.5193 4.45283 22.7625 6.21105 24.524C7.96927 26.2855 10.2102 27.4862 12.6507 27.9744C15.0912 28.4626 17.6216 28.2163 19.9221 27.2668C22.2227 26.3172 24.1901 24.7069 25.5757 22.6395C26.9613 20.572 27.7029 18.1402 27.7068 15.6514C27.7098 13.997 27.3866 12.3582 26.7557 10.8288C26.1247 9.29948 25.1983 7.90955 24.0295 6.73862C22.8608 5.56768 21.4726 4.63871 19.9444 4.00488C18.4162 3.37106 16.778 3.04481 15.1236 3.04481V3.04481Z" fill="white"/>
<path d="M10.7796 15.6398C10.7796 14.3708 10.7796 13.1019 10.7796 11.833C10.7796 11.3444 10.8656 11.2565 11.3385 11.2565H18.8954C19.3684 11.2565 19.4563 11.3444 19.4563 11.831V19.4524C19.4563 19.9546 19.384 20.025 18.87 20.025C16.3713 20.025 13.8725 20.025 11.3737 20.025C10.85 20.025 10.7874 19.9566 10.7874 19.4251C10.7809 18.1613 10.7783 16.8996 10.7796 15.6398Z" fill="white"/>
</svg>
