<svg width="32" height="32" viewBox="0 0 32 32" fill="none" xmlns="http://www.w3.org/2000/svg">
<path d="M20.7406 31.64C20.341 31.4609 19.9052 31.3354 19.551 31.0902C18.8783 30.6255 18.5324 29.9428 18.5051 29.1198C18.4895 28.6583 18.5051 28.1961 18.5051 27.6999C18.3722 27.6942 18.2641 27.6851 18.156 27.6851C16.7733 27.6851 15.3914 27.6851 14.0087 27.6851C11.9978 27.6851 10.5862 26.2768 10.5754 24.2667C10.5716 23.4632 10.5716 22.66 10.5754 21.8571C10.5754 21.3899 10.8454 21.0869 11.2358 21.0927C11.6263 21.0984 11.8872 21.4006 11.8872 21.8719C11.8872 22.6974 11.8872 23.5229 11.8872 24.3435C11.8946 25.4752 12.6994 26.3387 13.837 26.361C15.3427 26.3915 16.8492 26.3692 18.3549 26.3676C18.4023 26.3615 18.4493 26.3518 18.4952 26.3387V25.9606C18.4952 19.1643 18.5134 12.3688 18.482 5.5709C18.4754 3.99668 19.3777 3.02342 20.5813 2.67011C21.7848 2.3168 22.9876 1.88176 24.187 1.48222C24.2973 1.45367 24.3974 1.39476 24.4759 1.31217H14.0962C12.6928 1.31217 11.888 2.11538 11.8872 3.51376C11.8872 4.2856 11.8872 5.05826 11.8872 5.8301C11.8872 6.29486 11.6131 6.59781 11.2169 6.59038C10.8206 6.58295 10.5763 6.29073 10.5738 5.83753C10.5697 4.99388 10.5606 4.14857 10.5738 3.30491C10.6068 1.40628 12.0283 0.00293509 13.9319 0.00293509C16.4381 -0.00366886 18.9451 0.00293509 21.4522 0.00293509H28.9419C30.318 0.00293509 31.3143 0.786329 31.6445 2.12363C31.6591 2.15931 31.6773 2.19334 31.699 2.22517V26.7572C31.6797 26.7808 31.6641 26.8073 31.6528 26.8356C31.434 27.8873 30.7951 28.5609 29.7864 28.8994C28.8313 29.2188 27.8745 29.5334 26.9194 29.8512L21.5454 31.64H20.7406ZM19.8119 17.1518C19.8119 21.044 19.8317 24.9362 19.7979 28.8276C19.7896 29.7827 20.6036 30.5908 21.7171 30.2053C24.2366 29.3311 26.775 28.513 29.3051 27.6719C30.0678 27.4176 30.3824 26.9834 30.3832 26.1769C30.3832 18.3837 30.3832 10.5896 30.3832 2.79476C30.3832 1.67126 29.5577 1.08268 28.4845 1.43847C25.9668 2.27717 23.4479 3.11725 20.928 3.95871C20.0934 4.23442 19.8119 4.62571 19.8119 5.50733V17.1518Z" fill="#844F92"/>
<path d="M14.5436 13.6558C14.3644 13.2868 14.0615 13.172 13.6628 13.1729C10.0223 13.18 6.38162 13.18 2.74064 13.1729H2.29487C2.41457 13.0441 2.48474 12.9648 2.55986 12.8897C3.7915 11.6586 5.02368 10.4281 6.25642 9.1981C6.34754 9.11457 6.43047 9.02252 6.50407 8.92321C6.58817 8.79839 6.62644 8.6483 6.61239 8.49846C6.59834 8.34862 6.53282 8.20826 6.42699 8.10126C6.32115 7.99426 6.18152 7.92721 6.03184 7.91151C5.88216 7.89582 5.73166 7.93244 5.60593 8.01516C5.52199 8.0746 5.44402 8.14205 5.37314 8.21658L0.247648 13.3264C-0.0825495 13.6566 -0.0825495 14.0289 0.247648 14.3574C1.96138 16.0651 3.67813 17.772 5.39791 19.478C5.54461 19.6179 5.72669 19.7153 5.92457 19.7595C6.17222 19.8107 6.3852 19.6703 6.51976 19.4524C6.58715 19.3535 6.6232 19.2365 6.6232 19.1168C6.6232 18.9971 6.58715 18.8802 6.51976 18.7813C6.44308 18.6716 6.35479 18.5706 6.25642 18.48C5.03194 17.256 3.80691 16.0326 2.58132 14.8098C2.5029 14.7273 2.42778 14.6497 2.2891 14.5052H2.70927C6.36071 14.5052 10.0119 14.5052 13.6628 14.5052C14.0606 14.5052 14.3644 14.3905 14.5436 14.0215V13.6558Z" fill="#D05F5F"/>
</svg>
