<svg width="32" height="32" viewBox="0 0 32 32" fill="none" xmlns="http://www.w3.org/2000/svg">
<path d="M20.8243 32C20.4169 31.8188 19.9724 31.6919 19.6112 31.444C18.9251 30.9739 18.5724 30.2835 18.5446 29.4511C18.5286 28.9844 18.5446 28.5169 18.5446 28.0151C18.409 28.0092 18.2988 28.0001 18.1885 28.0001C16.7784 28.0001 15.3691 28.0001 13.959 28.0001C11.9082 28.0001 10.4686 26.5757 10.4577 24.5428C10.4538 23.7302 10.4538 22.9178 10.4577 22.1058C10.4577 21.6332 10.733 21.3268 11.1312 21.3327C11.5294 21.3385 11.7954 21.6441 11.7954 22.1208C11.7954 22.9557 11.7954 23.7906 11.7954 24.6204C11.803 25.7651 12.6238 26.6384 13.7839 26.6609C15.3194 26.6918 16.8558 26.6692 18.3914 26.6676C18.4397 26.6614 18.4876 26.6517 18.5345 26.6384V26.256C18.5345 19.3824 18.553 12.5096 18.521 5.63428C18.5143 4.04215 19.4344 3.05782 20.6619 2.70049C21.8893 2.34316 23.1159 1.90317 24.3391 1.49909C24.4516 1.47021 24.5537 1.41063 24.6337 1.3271H14.0482C12.6171 1.3271 11.7962 2.13944 11.7954 3.55374C11.7954 4.33436 11.7954 5.11581 11.7954 5.89643C11.7954 6.36647 11.5159 6.67288 11.1118 6.66536C10.7077 6.65785 10.4585 6.3623 10.456 5.90395C10.4518 5.05069 10.4425 4.19577 10.456 3.34252C10.4897 1.42228 11.9394 0.00296849 13.8807 0.00296849C16.4366 -0.00371061 18.9933 0.00296849 21.55 0.00296849H29.1882C30.5916 0.00296849 31.6077 0.795276 31.9444 2.14779C31.9592 2.18387 31.9779 2.2183 32 2.25048V27.0616C31.9803 27.0855 31.9644 27.1123 31.9529 27.141C31.7298 28.2046 31.0782 28.8859 30.0494 29.2282C29.0754 29.5513 28.0997 29.8694 27.1256 30.1908L21.6451 32H20.8243ZM19.8772 17.3469C19.8772 21.2834 19.8974 25.2199 19.8629 29.1555C19.8545 30.1215 20.6846 30.9389 21.8202 30.549C24.3896 29.6648 26.9783 28.8375 29.5586 27.9867C30.3365 27.7296 30.6572 27.2904 30.6581 26.4747C30.6581 18.5928 30.6581 10.7101 30.6581 2.82656C30.6581 1.69027 29.8162 1.095 28.7218 1.45484C26.1541 2.30308 23.5853 3.15272 21.0154 4.00375C20.1643 4.2826 19.8772 4.67833 19.8772 5.56999V17.3469Z" fill="white"/>
<path d="M0 13.8497C0.176952 13.4638 0.476221 13.3438 0.870081 13.3446C4.46674 13.3521 8.0634 13.3521 11.6601 13.3446H12.1004C11.9814 13.2099 11.912 13.1271 11.8386 13.0485C10.6209 11.7608 9.40345 10.4737 8.18626 9.18724C8.09647 9.09964 8.01457 9.00339 7.94163 8.89972C7.85819 8.76911 7.82013 8.61189 7.83394 8.45489C7.84774 8.29788 7.91256 8.15081 8.01733 8.03875C8.1221 7.92669 8.26034 7.85659 8.40848 7.8404C8.55661 7.8242 8.70547 7.86292 8.82965 7.94995C8.91231 8.01213 8.98906 8.08269 9.05879 8.16063L14.1227 13.4992C14.4489 13.8446 14.4489 14.234 14.1227 14.5776C12.4271 16.3678 10.731 18.1551 9.03433 19.9395C8.88941 20.0859 8.70955 20.1877 8.51407 20.2339C8.26944 20.2875 8.05987 20.1407 7.92614 19.9127C7.85956 19.8093 7.82396 19.6869 7.82396 19.5617C7.82396 19.4365 7.85956 19.3142 7.92614 19.2108C8.00188 19.0961 8.08909 18.9904 8.18626 18.8956C9.3953 17.6154 10.6054 16.3358 11.8166 15.0568C11.8982 14.9705 11.9683 14.8893 12.1061 14.7382H11.6911C8.08461 14.7382 4.47789 14.7382 0.870897 14.7382C0.477036 14.7382 0.177767 14.6182 0 14.2322L0 13.8497Z" fill="white"/>
</svg>
