<svg width="32" height="32" viewBox="0 0 32 32" fill="none" xmlns="http://www.w3.org/2000/svg">
<path d="M19.3125 31.9325C18.8542 31.5292 18.8875 31.22 19.425 30.8992C20.0492 30.5259 20.675 30.1584 21.2942 29.7709C21.349 29.7326 21.395 29.6831 21.429 29.6256C21.4631 29.5681 21.4845 29.504 21.4917 29.4375C21.5011 24.3437 21.5036 19.2498 21.4992 14.1559C21.4992 14.1159 21.4925 14.0725 21.4833 13.9842C21.1608 14.2234 20.8642 14.4425 20.5667 14.6625C19.97 15.1067 19.8375 15.0859 19.3859 14.4825C18.365 13.1159 17.35 11.7459 16.3175 10.3892C16.0908 10.0917 15.9492 9.79671 15.995 9.42004C16.003 9.27904 16.003 9.13771 15.995 8.99671H15.5084C15.4342 9.39587 15.1509 9.48838 14.775 9.47754C14.2125 9.46171 13.65 9.47754 13.0875 9.47171C12.68 9.47171 12.4983 9.28754 12.4958 8.87921C12.4986 8.11254 12.5 7.34532 12.5 6.57754C12.5 6.17087 12.6833 5.99421 13.0933 5.98754C13.6558 5.98754 14.2183 6.00004 14.7808 5.98254C15.1592 5.97088 15.4375 6.07004 15.5192 6.48254C15.8033 6.48254 16.0742 6.49421 16.3433 6.48254C16.4674 6.47236 16.592 6.49494 16.7046 6.54803C16.8172 6.60111 16.9139 6.68284 16.985 6.78504C17.735 7.71921 18.4917 8.64337 19.2467 9.57087C19.3109 9.64921 19.3784 9.72421 19.4967 9.86421V8.18837C19.4967 7.06504 20.08 6.48337 21.2133 6.48254H23.4C23.4266 6.47789 23.4526 6.47034 23.4775 6.46004V5.99421C22.8375 5.94254 22.26 5.74421 21.7767 5.30837C21.2934 4.87254 21.0483 4.36671 21.0558 3.71754C21.0675 2.68837 21.0558 1.65921 21.0558 0.634208C21.0558 0.168375 21.2275 0.00087503 21.7 4.16968e-05C22.7833 4.16968e-05 23.8667 4.16968e-05 24.95 4.16968e-05C25.8892 -0.00579164 26.5 0.600875 26.5 1.54171C26.505 3.06004 26.5 4.57754 26.5 6.09504V6.48254H27.5609C27.8525 6.48254 28.1442 6.48254 28.4359 6.48254C29.3675 6.49421 30 7.12088 30 8.05754C30 11.3842 30 14.7106 30 18.0367V18.4592C30.4317 18.4592 30.8542 18.475 31.275 18.4534C31.5817 18.4384 31.8234 18.5167 32 18.7709V23.1375C31.8234 23.3875 31.5834 23.4625 31.2767 23.455C30.5492 23.4367 29.8217 23.4492 29.0933 23.4492H28.5V23.8334C28.5 26.2925 28.4959 28.75 28.5059 31.2109C28.5059 31.515 28.44 31.7559 28.1875 31.9325H22.8125C22.3725 31.545 22.385 31.2709 22.86 30.9159C23.335 30.5609 23.7867 30.2109 24.2617 29.8742C24.343 29.8228 24.4086 29.7501 24.4515 29.664C24.4944 29.5779 24.5129 29.4817 24.505 29.3859C24.4984 25.3753 24.4967 21.365 24.5 17.355V16.9817H25.5134V18.4425H26.98V15.4875H22.5V15.8809C22.5 20.5042 22.5017 25.1275 22.505 29.7509C22.505 30.0792 22.4017 30.3042 22.1067 30.4584C21.8667 30.5834 21.6425 30.7392 21.4108 30.8817L21.4342 30.9442H22V31.9325H19.3125ZM23.9317 7.48087C22.985 7.48087 22.06 7.48087 21.1359 7.48087C20.67 7.48087 20.5017 7.65337 20.5008 8.12421C20.5008 9.13254 20.5008 10.1409 20.5008 11.1492C20.5008 11.4217 20.4409 11.6492 20.1617 11.7509C19.8825 11.8525 19.69 11.7025 19.5209 11.4934C18.7959 10.595 18.0683 9.69893 17.3383 8.80504C17.2433 8.68838 17.1467 8.57421 16.9983 8.39587C17.0097 8.61799 17.0084 8.84058 16.9942 9.06254C16.9417 9.46254 17.0925 9.77004 17.3342 10.0817C18.0242 10.9675 18.6858 11.875 19.3592 12.7734C19.6008 13.0967 19.8434 13.4184 20.1017 13.7617C20.5134 13.4542 20.9134 13.1742 21.2884 12.8634C21.4048 12.7605 21.4768 12.6165 21.4892 12.4617C21.5058 11.4117 21.4984 10.3617 21.4984 9.31171V8.99421H22.5067V14.4409H27.0067V8.99921H28.0067V18.4417H28.9758C28.9817 18.3859 28.9909 18.3459 28.9909 18.3067C28.9909 14.8867 28.9909 11.467 28.9909 8.04754C28.9909 7.66504 28.8 7.48337 28.4075 7.48171C27.3142 7.47837 26.2209 7.47837 25.1275 7.48171C25.0571 7.48788 24.9872 7.49902 24.9183 7.51504C24.75 9.49421 24.5834 11.4667 24.4167 13.4475H23.5084C23.4167 11.445 23.8083 9.49421 23.9317 7.48087ZM30.9817 22.4367V19.4775H25.5234V22.4367H30.9817ZM27.4817 30.9267V23.465H25.5V23.815C25.5 25.79 25.495 27.7659 25.505 29.7409C25.505 30.0517 25.4158 30.2792 25.1525 30.4509C24.9533 30.5817 24.7734 30.74 24.5317 30.9267H27.4817ZM22.0625 2.49421C22.0625 2.91087 22.0767 3.30587 22.0584 3.69671C22.0392 4.11337 22.225 4.40921 22.5458 4.64837C22.9508 4.95504 23.4158 5.00421 23.905 4.99087C24.3125 4.98004 24.4933 5.17171 24.4992 5.57421C24.5033 5.87087 24.4992 6.16754 24.4992 6.45588H25.4992C25.4992 5.57004 25.505 4.70587 25.4909 3.84837C25.4722 3.7323 25.4091 3.62802 25.315 3.55754C24.9075 3.23587 24.4883 2.92921 24.07 2.62087C24.0041 2.55787 23.9223 2.51407 23.8334 2.49421C23.25 2.48754 22.6717 2.49421 22.0625 2.49421ZM25.5 2.43837C25.5 2.08254 25.5075 1.79337 25.5 1.50504C25.4884 1.15337 25.3267 0.996708 24.9742 0.994208C24.2459 0.994208 23.5167 0.994208 22.7883 0.994208H22.09V1.49421C22.7175 1.49421 23.3208 1.48004 23.9233 1.50171C24.1162 1.51398 24.3026 1.57537 24.465 1.68004C24.8017 1.89671 25.1159 2.15337 25.5 2.43837ZM13.5134 8.46254H14.4817V7.00254H13.5134V8.46254ZM15.9859 7.49421H15.5192V7.95504H15.9859V7.49421Z" fill="#844F92"/>
<path d="M0 20.9542C0.115833 20.3275 0.174167 19.6775 0.356667 19.0675C1.53583 15.1142 4.14333 12.6108 8.16667 11.6958C13.5425 10.4742 19.0383 14.0383 20.2433 19.4458C20.5472 20.8037 20.5714 22.2092 20.3146 23.5768C20.0577 24.9443 19.525 26.2452 18.7491 27.4002C17.9731 28.5552 16.9702 29.5402 15.8012 30.295C14.6323 31.0499 13.322 31.5588 11.95 31.7908C11.6333 31.8458 11.3142 31.885 10.9967 31.9308H9.5C9.06 31.8617 8.61333 31.8225 8.18167 31.7183C4.18917 30.7583 1.56417 28.3275 0.375833 24.3958C0.185833 23.7675 0.125833 23.1008 0 22.4517V20.9542ZM9.5 12.5258C4.77 12.8325 1.025 16.9717 1.0325 21.4575H1.97583V22.4658H1.05917C1.34583 27.0575 5.30917 30.6667 9.50667 30.8675V29.9508H10.5067V30.9108C15.7325 30.8275 19.3517 26.3275 19.4133 22.44H18.5233V21.44H19.4717C19.4325 16.4725 15.0925 12.465 10.49 12.5075V13.4525H9.5V12.5258Z" fill="#844F92"/>
<path d="M14.5 0.00256348H15.5V0.555063C15.5 1.1159 15.5067 1.67673 15.5 2.2384C15.5042 2.54905 15.3903 2.84971 15.1813 3.07959C14.9723 3.30947 14.6838 3.45141 14.3742 3.47673C14.0925 3.50423 13.9892 3.61506 13.9992 3.88756C14.0125 4.2384 13.9992 4.5909 13.9992 4.96423H13.0142C13.0142 4.4859 12.9775 4.0084 13.0242 3.5384C13.0561 3.266 13.1825 3.01339 13.3813 2.82446C13.5801 2.63554 13.8388 2.52223 14.1125 2.50423C14.4375 2.4784 14.5092 2.3309 14.5042 2.04423C14.4917 1.37173 14.5 0.69923 14.5 0.00256348Z" fill="#844F92"/>
<path d="M28.9868 19.9725V20.9325H28.0193V19.9725H28.9868Z" fill="#844F92"/>
<path d="M7.05506 17.1876L7.93422 16.7443C7.99839 16.8584 8.05672 16.9526 8.10589 17.0518C8.80006 18.4351 9.49756 19.8159 10.1801 21.2051C10.2315 21.3216 10.3055 21.4268 10.3977 21.5146C10.49 21.6024 10.5987 21.6711 10.7176 21.7168C11.7076 22.1218 12.6859 22.5501 13.6951 22.9868C13.5626 23.2959 13.4376 23.5868 13.3034 23.9034C12.4209 23.5268 11.5634 23.1609 10.7059 22.7934C10.1226 22.5434 10.1226 22.5434 9.66922 22.9884C8.322 24.3345 6.97478 25.6804 5.62756 27.0259C5.55244 27.112 5.48365 27.2033 5.42172 27.2993C5.16006 27.0151 4.94506 26.7826 4.72339 26.5434L9.40256 21.8768C8.61422 20.3009 7.84339 18.7618 7.05506 17.1876Z" fill="#844F92"/>
</svg>
