<svg width="78" height="20" viewBox="0 0 78 20" fill="none" xmlns="http://www.w3.org/2000/svg">
<rect x="0.5" y="0.5" width="77" height="19" rx="9.5" fill="white"/>
<path d="M18.2388 12.395C18.3021 12.395 18.3571 12.42 18.4038 12.47L18.8688 12.975C18.5755 13.3283 18.2155 13.6017 17.7888 13.795C17.3621 13.985 16.8521 14.08 16.2588 14.08C15.7321 14.08 15.2555 13.99 14.8288 13.81C14.4055 13.6267 14.0438 13.3733 13.7438 13.05C13.4438 12.7233 13.2121 12.335 13.0488 11.885C12.8888 11.435 12.8088 10.94 12.8088 10.4C12.8088 9.86 12.8938 9.365 13.0638 8.915C13.2371 8.46167 13.4788 8.07333 13.7888 7.75C14.1021 7.42333 14.4755 7.17 14.9088 6.99C15.3455 6.81 15.8255 6.72 16.3488 6.72C16.8688 6.72 17.3271 6.805 17.7238 6.975C18.1238 7.14167 18.4705 7.365 18.7638 7.645L18.3788 8.19C18.3521 8.22667 18.3205 8.25833 18.2838 8.285C18.2471 8.31167 18.1971 8.325 18.1338 8.325C18.0671 8.325 17.9905 8.295 17.9038 8.235C17.8205 8.17167 17.7121 8.10333 17.5788 8.03C17.4488 7.95333 17.2838 7.885 17.0838 7.825C16.8871 7.76167 16.6405 7.73 16.3438 7.73C16.0005 7.73 15.6855 7.79 15.3988 7.91C15.1121 8.03 14.8655 8.205 14.6588 8.435C14.4521 8.665 14.2905 8.945 14.1738 9.275C14.0605 9.605 14.0038 9.98 14.0038 10.4C14.0038 10.8233 14.0638 11.2017 14.1838 11.535C14.3038 11.865 14.4688 12.145 14.6788 12.375C14.8888 12.6017 15.1355 12.775 15.4188 12.895C15.7021 13.015 16.0071 13.075 16.3338 13.075C16.5338 13.075 16.7121 13.065 16.8688 13.045C17.0288 13.0217 17.1755 12.9867 17.3088 12.94C17.4421 12.89 17.5671 12.8283 17.6838 12.755C17.8038 12.6817 17.9221 12.5917 18.0388 12.485C18.1055 12.425 18.1721 12.395 18.2388 12.395ZM21.777 8.82C22.1537 8.82 22.4937 8.88167 22.797 9.005C23.1037 9.12833 23.3637 9.30333 23.577 9.53C23.7937 9.75667 23.9603 10.0317 24.077 10.355C24.1937 10.6783 24.252 11.0417 24.252 11.445C24.252 11.8483 24.1937 12.2117 24.077 12.535C23.9603 12.8583 23.7937 13.135 23.577 13.365C23.3637 13.5917 23.1037 13.7667 22.797 13.89C22.4937 14.0133 22.1537 14.075 21.777 14.075C21.397 14.075 21.0537 14.0133 20.747 13.89C20.4437 13.7667 20.1837 13.5917 19.967 13.365C19.7503 13.135 19.5837 12.8583 19.467 12.535C19.3503 12.2117 19.292 11.8483 19.292 11.445C19.292 11.0417 19.3503 10.6783 19.467 10.355C19.5837 10.0317 19.7503 9.75667 19.967 9.53C20.1837 9.30333 20.4437 9.12833 20.747 9.005C21.0537 8.88167 21.397 8.82 21.777 8.82ZM21.777 13.235C22.237 13.235 22.5787 13.0817 22.802 12.775C23.0287 12.465 23.142 12.0233 23.142 11.45C23.142 10.8767 23.0287 10.435 22.802 10.125C22.5787 9.81167 22.237 9.655 21.777 9.655C21.3103 9.655 20.9637 9.81167 20.737 10.125C20.5103 10.435 20.397 10.8767 20.397 11.45C20.397 12.0233 20.5103 12.465 20.737 12.775C20.9637 13.0817 21.3103 13.235 21.777 13.235ZM25.2849 14V8.9H25.9349C26.0815 8.9 26.1749 8.96833 26.2149 9.105L26.2849 9.55C26.3782 9.44333 26.4749 9.34667 26.5749 9.26C26.6749 9.17 26.7815 9.09333 26.8949 9.03C27.0115 8.96333 27.1349 8.91167 27.2649 8.875C27.3982 8.83833 27.5415 8.82 27.6949 8.82C27.8582 8.82 28.0082 8.84333 28.1449 8.89C28.2815 8.93667 28.4015 9.00333 28.5049 9.09C28.6115 9.17667 28.7032 9.28167 28.7799 9.405C28.8565 9.52833 28.9199 9.66667 28.9699 9.82C29.0465 9.64333 29.1432 9.49167 29.2599 9.365C29.3765 9.23833 29.5065 9.135 29.6499 9.055C29.7932 8.975 29.9449 8.91667 30.1049 8.88C30.2682 8.84 30.4332 8.82 30.5999 8.82C30.8732 8.82 31.1165 8.86333 31.3299 8.95C31.5465 9.03667 31.7282 9.16333 31.8749 9.33C32.0249 9.49333 32.1382 9.695 32.2149 9.935C32.2915 10.175 32.3299 10.4483 32.3299 10.755V14H31.2549V10.755C31.2549 10.395 31.1765 10.125 31.0199 9.945C30.8666 9.76167 30.6382 9.67 30.3349 9.67C30.1982 9.67 30.0699 9.69333 29.9499 9.74C29.8299 9.78667 29.7249 9.855 29.6349 9.945C29.5449 10.035 29.4732 10.1483 29.4199 10.285C29.3699 10.4183 29.3449 10.575 29.3449 10.755V14H28.2699V10.755C28.2699 10.3817 28.1949 10.1083 28.0449 9.935C27.8949 9.75833 27.6749 9.67 27.3849 9.67C27.1849 9.67 26.9999 9.72167 26.8299 9.825C26.6599 9.925 26.5032 10.0633 26.3599 10.24V14H25.2849ZM34.6607 12.72C34.8107 12.9133 34.974 13.05 35.1507 13.13C35.3307 13.2067 35.529 13.245 35.7457 13.245C36.1657 13.245 36.4923 13.0917 36.7257 12.785C36.9623 12.4783 37.0807 12.0217 37.0807 11.415C37.0807 11.1017 37.054 10.835 37.0007 10.615C36.9473 10.3917 36.8707 10.21 36.7707 10.07C36.6707 9.93 36.549 9.82833 36.4057 9.765C36.2623 9.70167 36.1007 9.67 35.9207 9.67C35.6473 9.67 35.4107 9.73 35.2107 9.85C35.014 9.96667 34.8307 10.135 34.6607 10.355V12.72ZM34.6057 9.64C34.819 9.39 35.0607 9.18833 35.3307 9.035C35.604 8.88167 35.9207 8.805 36.2807 8.805C36.5673 8.805 36.8273 8.86333 37.0607 8.98C37.294 9.09333 37.494 9.26 37.6607 9.48C37.8273 9.7 37.9557 9.97333 38.0457 10.3C38.139 10.6233 38.1857 10.995 38.1857 11.415C38.1857 11.7917 38.134 12.1433 38.0307 12.47C37.9307 12.7933 37.7857 13.075 37.5957 13.315C37.4057 13.5517 37.1757 13.7383 36.9057 13.875C36.6357 14.0083 36.3307 14.075 35.9907 14.075C35.6907 14.075 35.4357 14.0267 35.2257 13.93C35.019 13.8333 34.8307 13.7 34.6607 13.53V15.695H33.5857V8.9H34.2357C34.3823 8.9 34.4757 8.96833 34.5157 9.105L34.6057 9.64ZM40.3252 6.6V14H39.2502V6.6H40.3252ZM44.9971 10.875C44.9971 10.695 44.9704 10.5283 44.9171 10.375C44.8671 10.2183 44.7921 10.0833 44.6921 9.97C44.5921 9.85333 44.4671 9.76333 44.3171 9.7C44.1704 9.63333 44.0004 9.6 43.8071 9.6C43.4171 9.6 43.1104 9.71167 42.8871 9.935C42.6637 10.1583 42.5221 10.4717 42.4621 10.875H44.9971ZM42.4321 11.535C42.4454 11.825 42.4904 12.0767 42.5671 12.29C42.6437 12.5 42.7454 12.675 42.8721 12.815C43.0021 12.955 43.1554 13.06 43.3321 13.13C43.5121 13.1967 43.7121 13.23 43.9321 13.23C44.1421 13.23 44.3237 13.2067 44.4771 13.16C44.6304 13.11 44.7637 13.0567 44.8771 13C44.9904 12.94 45.0871 12.8867 45.1671 12.84C45.2471 12.79 45.3204 12.765 45.3871 12.765C45.4737 12.765 45.5404 12.7983 45.5871 12.865L45.8921 13.26C45.7654 13.41 45.6221 13.5367 45.4621 13.64C45.3021 13.7433 45.1321 13.8283 44.9521 13.895C44.7721 13.9583 44.5871 14.0033 44.3971 14.03C44.2071 14.06 44.0221 14.075 43.8421 14.075C43.4887 14.075 43.1604 14.0167 42.8571 13.9C42.5571 13.78 42.2954 13.605 42.0721 13.375C41.8521 13.145 41.6787 12.86 41.5521 12.52C41.4287 12.18 41.3671 11.7883 41.3671 11.345C41.3671 10.9917 41.4221 10.6617 41.5321 10.355C41.6454 10.0483 41.8054 9.78167 42.0121 9.555C42.2221 9.32833 42.4754 9.15 42.7721 9.02C43.0721 8.88667 43.4104 8.82 43.7871 8.82C44.1004 8.82 44.3904 8.87167 44.6571 8.975C44.9237 9.075 45.1537 9.22333 45.3471 9.42C45.5404 9.61667 45.6904 9.85833 45.7971 10.145C45.9071 10.4283 45.9621 10.7517 45.9621 11.115C45.9621 11.2817 45.9437 11.3933 45.9071 11.45C45.8704 11.5067 45.8037 11.535 45.7071 11.535H42.4321ZM48.5507 14.08C48.1274 14.08 47.8007 13.9617 47.5707 13.725C47.3441 13.485 47.2307 13.1483 47.2307 12.715V9.745H46.6707C46.6107 9.745 46.5591 9.72667 46.5157 9.69C46.4724 9.65 46.4507 9.59167 46.4507 9.515V9.08L47.2757 8.96L47.5107 7.485C47.5274 7.42833 47.5557 7.38333 47.5957 7.35C47.6357 7.31333 47.6891 7.295 47.7557 7.295H48.3057V8.97H49.7207V9.745H48.3057V12.64C48.3057 12.8233 48.3507 12.9633 48.4407 13.06C48.5307 13.1567 48.6507 13.205 48.8007 13.205C48.8841 13.205 48.9557 13.195 49.0157 13.175C49.0757 13.1517 49.1274 13.1283 49.1707 13.105C49.2141 13.0783 49.2507 13.055 49.2807 13.035C49.3141 13.0117 49.3457 13 49.3757 13C49.4357 13 49.4841 13.0333 49.5207 13.1L49.8407 13.625C49.6741 13.7717 49.4774 13.885 49.2507 13.965C49.0241 14.0417 48.7907 14.08 48.5507 14.08ZM53.2931 11.77C52.9098 11.7833 52.5864 11.815 52.3231 11.865C52.0598 11.9117 51.8464 11.9733 51.6831 12.05C51.5198 12.1233 51.4014 12.2117 51.3281 12.315C51.2581 12.4183 51.2231 12.5317 51.2231 12.655C51.2231 12.775 51.2414 12.8783 51.2781 12.965C51.3181 13.0483 51.3714 13.1183 51.4381 13.175C51.5081 13.2283 51.5881 13.2683 51.6781 13.295C51.7714 13.3183 51.8731 13.33 51.9831 13.33C52.2631 13.33 52.5031 13.2783 52.7031 13.175C52.9064 13.0683 53.1031 12.915 53.2931 12.715V11.77ZM50.4431 9.61C51.0198 9.07333 51.7064 8.805 52.5031 8.805C52.7964 8.805 53.0564 8.85333 53.2831 8.95C53.5131 9.04333 53.7048 9.17667 53.8581 9.35C54.0148 9.52333 54.1331 9.73 54.2131 9.97C54.2964 10.2067 54.3381 10.47 54.3381 10.76V14H53.8581C53.7548 14 53.6764 13.985 53.6231 13.955C53.5698 13.9217 53.5248 13.8567 53.4881 13.76L53.3831 13.345C53.2531 13.4617 53.1248 13.5667 52.9981 13.66C52.8714 13.75 52.7398 13.8267 52.6031 13.89C52.4698 13.9533 52.3248 14 52.1681 14.03C52.0148 14.0633 51.8448 14.08 51.6581 14.08C51.4514 14.08 51.2581 14.0517 51.0781 13.995C50.9014 13.9383 50.7481 13.8533 50.6181 13.74C50.4881 13.6233 50.3848 13.48 50.3081 13.31C50.2348 13.14 50.1981 12.94 50.1981 12.71C50.1981 12.5133 50.2498 12.3217 50.3531 12.135C50.4598 11.9483 50.6331 11.7817 50.8731 11.635C51.1164 11.485 51.4348 11.3617 51.8281 11.265C52.2248 11.1683 52.7131 11.1133 53.2931 11.1V10.76C53.2931 10.3933 53.2148 10.12 53.0581 9.94C52.9014 9.76 52.6714 9.67 52.3681 9.67C52.1614 9.67 51.9881 9.69667 51.8481 9.75C51.7081 9.8 51.5864 9.855 51.4831 9.915C51.3798 9.975 51.2881 10.0317 51.2081 10.085C51.1281 10.135 51.0431 10.16 50.9531 10.16C50.8798 10.16 50.8164 10.1417 50.7631 10.105C50.7131 10.065 50.6714 10.0167 50.6381 9.96L50.4431 9.61ZM58.8524 10.155C58.7024 9.96167 58.5374 9.82667 58.3574 9.75C58.1774 9.67333 57.9824 9.635 57.7724 9.635C57.3524 9.635 57.024 9.79 56.7874 10.1C56.5507 10.4067 56.4324 10.8617 56.4324 11.465C56.4324 11.7783 56.459 12.0467 56.5124 12.27C56.5657 12.49 56.6424 12.67 56.7424 12.81C56.8424 12.95 56.964 13.0517 57.1074 13.115C57.2507 13.1783 57.4124 13.21 57.5924 13.21C57.8657 13.21 58.1007 13.1517 58.2974 13.035C58.4974 12.915 58.6824 12.7467 58.8524 12.53V10.155ZM59.9274 6.6V14H59.2774C59.134 14 59.0424 13.9317 59.0024 13.795L58.9074 13.24C58.694 13.49 58.4507 13.6917 58.1774 13.845C57.9074 13.9983 57.5924 14.075 57.2324 14.075C56.9457 14.075 56.6857 14.0183 56.4524 13.905C56.219 13.7883 56.019 13.62 55.8524 13.4C55.6857 13.18 55.5557 12.9083 55.4624 12.585C55.3724 12.2583 55.3274 11.885 55.3274 11.465C55.3274 11.085 55.3774 10.7333 55.4774 10.41C55.5807 10.0867 55.7274 9.80667 55.9174 9.57C56.1074 9.33 56.3374 9.14333 56.6074 9.01C56.8807 8.87333 57.1857 8.805 57.5224 8.805C57.8224 8.805 58.0774 8.85333 58.2874 8.95C58.4974 9.04333 58.6857 9.175 58.8524 9.345V6.6H59.9274ZM63.9669 11.77C63.5836 11.7833 63.2602 11.815 62.9969 11.865C62.7336 11.9117 62.5202 11.9733 62.3569 12.05C62.1936 12.1233 62.0752 12.2117 62.0019 12.315C61.9319 12.4183 61.8969 12.5317 61.8969 12.655C61.8969 12.775 61.9152 12.8783 61.9519 12.965C61.9919 13.0483 62.0452 13.1183 62.1119 13.175C62.1819 13.2283 62.2619 13.2683 62.3519 13.295C62.4452 13.3183 62.5469 13.33 62.6569 13.33C62.9369 13.33 63.1769 13.2783 63.3769 13.175C63.5802 13.0683 63.7769 12.915 63.9669 12.715V11.77ZM61.1169 9.61C61.6936 9.07333 62.3802 8.805 63.1769 8.805C63.4702 8.805 63.7302 8.85333 63.9569 8.95C64.1869 9.04333 64.3786 9.17667 64.5319 9.35C64.6886 9.52333 64.8069 9.73 64.8869 9.97C64.9702 10.2067 65.0119 10.47 65.0119 10.76V14H64.5319C64.4286 14 64.3502 13.985 64.2969 13.955C64.2436 13.9217 64.1986 13.8567 64.1619 13.76L64.0569 13.345C63.9269 13.4617 63.7986 13.5667 63.6719 13.66C63.5452 13.75 63.4136 13.8267 63.2769 13.89C63.1436 13.9533 62.9986 14 62.8419 14.03C62.6886 14.0633 62.5186 14.08 62.3319 14.08C62.1252 14.08 61.9319 14.0517 61.7519 13.995C61.5752 13.9383 61.4219 13.8533 61.2919 13.74C61.1619 13.6233 61.0586 13.48 60.9819 13.31C60.9086 13.14 60.8719 12.94 60.8719 12.71C60.8719 12.5133 60.9236 12.3217 61.0269 12.135C61.1336 11.9483 61.3069 11.7817 61.5469 11.635C61.7902 11.485 62.1086 11.3617 62.5019 11.265C62.8986 11.1683 63.3869 11.1133 63.9669 11.1V10.76C63.9669 10.3933 63.8886 10.12 63.7319 9.94C63.5752 9.76 63.3452 9.67 63.0419 9.67C62.8352 9.67 62.6619 9.69667 62.5219 9.75C62.3819 9.8 62.2602 9.855 62.1569 9.915C62.0536 9.975 61.9619 10.0317 61.8819 10.085C61.8019 10.135 61.7169 10.16 61.6269 10.16C61.5536 10.16 61.4902 10.1417 61.4369 10.105C61.3869 10.065 61.3452 10.0167 61.3119 9.96L61.1169 9.61Z" fill="#317227"/>
<rect x="0.5" y="0.5" width="77" height="19" rx="9.5" stroke="#317227"/>
</svg>
