<svg width="78" height="24" viewBox="0 0 66 13" fill="none" xmlns="http://www.w3.org/2000/svg">
<rect y="1" width="66" height="12" rx="6" fill="#B9B9B9"/>
<path d="M16.3973 8.636C16.4559 8.636 16.5079 8.65867 16.5533 8.704L16.9773 9.164C16.7426 9.45467 16.4533 9.67733 16.1093 9.832C15.7679 9.98667 15.3573 10.064 14.8773 10.064C14.4479 10.064 14.0613 9.99067 13.7173 9.844C13.3759 9.69733 13.0839 9.49333 12.8413 9.232C12.5986 8.97067 12.4119 8.65867 12.2812 8.296C12.1533 7.93333 12.0893 7.53733 12.0893 7.108C12.0893 6.67333 12.1586 6.276 12.2973 5.916C12.4359 5.55333 12.6306 5.24133 12.8813 4.98C13.1346 4.71867 13.4359 4.516 13.7853 4.372C14.1346 4.22533 14.5213 4.152 14.9453 4.152C15.3666 4.152 15.7399 4.22133 16.0653 4.36C16.3933 4.49867 16.6719 4.68 16.9013 4.904L16.5413 5.404C16.5199 5.436 16.4919 5.464 16.4573 5.488C16.4253 5.512 16.3799 5.524 16.3213 5.524C16.2813 5.524 16.2399 5.51333 16.1973 5.492C16.1546 5.468 16.1079 5.44 16.0573 5.408C16.0066 5.37333 15.9479 5.336 15.8813 5.296C15.8146 5.256 15.7373 5.22 15.6493 5.188C15.5613 5.15333 15.4586 5.12533 15.3413 5.104C15.2266 5.08 15.0933 5.068 14.9413 5.068C14.6826 5.068 14.4453 5.11467 14.2293 5.208C14.0159 5.29867 13.8319 5.432 13.6773 5.608C13.5226 5.78133 13.4026 5.99467 13.3173 6.248C13.2319 6.49867 13.1893 6.78533 13.1893 7.108C13.1893 7.43333 13.2346 7.72267 13.3253 7.976C13.4186 8.22933 13.5439 8.44267 13.7013 8.616C13.8586 8.78933 14.0439 8.92267 14.2573 9.016C14.4706 9.10667 14.6999 9.152 14.9453 9.152C15.0919 9.152 15.2239 9.144 15.3413 9.128C15.4613 9.112 15.5706 9.08667 15.6693 9.052C15.7706 9.01733 15.8653 8.97333 15.9533 8.92C16.0439 8.864 16.1333 8.796 16.2213 8.716C16.2479 8.692 16.2759 8.67333 16.3053 8.66C16.3346 8.644 16.3653 8.636 16.3973 8.636ZM19.2884 5.832C19.5924 5.832 19.8684 5.88133 20.1164 5.98C20.367 6.07867 20.5804 6.21867 20.7564 6.4C20.935 6.58133 21.0724 6.80267 21.1684 7.064C21.2644 7.32533 21.3124 7.61733 21.3124 7.94C21.3124 8.26533 21.2644 8.55867 21.1684 8.82C21.0724 9.08133 20.935 9.304 20.7564 9.488C20.5804 9.672 20.367 9.81333 20.1164 9.912C19.8684 10.0107 19.5924 10.06 19.2884 10.06C18.9817 10.06 18.703 10.0107 18.4524 9.912C18.2017 9.81333 17.987 9.672 17.8084 9.488C17.6324 9.304 17.495 9.08133 17.3964 8.82C17.3004 8.55867 17.2524 8.26533 17.2524 7.94C17.2524 7.61733 17.3004 7.32533 17.3964 7.064C17.495 6.80267 17.6324 6.58133 17.8084 6.4C17.987 6.21867 18.2017 6.07867 18.4524 5.98C18.703 5.88133 18.9817 5.832 19.2884 5.832ZM19.2884 9.3C19.6297 9.3 19.8817 9.18533 20.0444 8.956C20.2097 8.72667 20.2924 8.39067 20.2924 7.948C20.2924 7.50533 20.2097 7.168 20.0444 6.936C19.8817 6.704 19.6297 6.588 19.2884 6.588C18.9417 6.588 18.6844 6.70533 18.5164 6.94C18.351 7.172 18.2684 7.508 18.2684 7.948C18.2684 8.388 18.351 8.724 18.5164 8.956C18.6844 9.18533 18.9417 9.3 19.2884 9.3ZM22.0661 10V5.896H22.6701C22.7981 5.896 22.8821 5.956 22.9221 6.076L22.9861 6.38C23.0581 6.3 23.1328 6.22667 23.2101 6.16C23.2901 6.09333 23.3741 6.036 23.4621 5.988C23.5528 5.94 23.6488 5.90267 23.7501 5.876C23.8541 5.84667 23.9675 5.832 24.0901 5.832C24.3488 5.832 24.5608 5.90267 24.7261 6.044C24.8941 6.18267 25.0195 6.368 25.1021 6.6C25.1661 6.464 25.2461 6.348 25.3421 6.252C25.4381 6.15333 25.5435 6.07333 25.6581 6.012C25.7728 5.95067 25.8941 5.90533 26.0221 5.876C26.1528 5.84667 26.2835 5.832 26.4141 5.832C26.6408 5.832 26.8421 5.86667 27.0181 5.936C27.1941 6.00533 27.3421 6.10667 27.4621 6.24C27.5821 6.37333 27.6728 6.536 27.7341 6.728C27.7981 6.92 27.8301 7.14 27.8301 7.388V10H26.8421V7.388C26.8421 7.12667 26.7848 6.93067 26.6701 6.8C26.5555 6.66667 26.3875 6.6 26.1661 6.6C26.0648 6.6 25.9701 6.61733 25.8821 6.652C25.7968 6.68667 25.7208 6.73733 25.6541 6.804C25.5901 6.868 25.5395 6.94933 25.5021 7.048C25.4648 7.14667 25.4461 7.26 25.4461 7.388V10H24.4541V7.388C24.4541 7.11333 24.3981 6.91333 24.2861 6.788C24.1768 6.66267 24.0155 6.6 23.8021 6.6C23.6581 6.6 23.5235 6.636 23.3981 6.708C23.2755 6.77733 23.1608 6.87333 23.0541 6.996V10H22.0661ZM29.7573 8.936C29.8693 9.072 29.9906 9.168 30.1213 9.224C30.2546 9.28 30.3986 9.308 30.5533 9.308C30.7026 9.308 30.8373 9.28 30.9573 9.224C31.0773 9.168 31.1786 9.08267 31.2613 8.968C31.3466 8.85333 31.4119 8.70933 31.4573 8.536C31.5026 8.36 31.5253 8.15333 31.5253 7.916C31.5253 7.676 31.5053 7.47333 31.4653 7.308C31.4279 7.14 31.3733 7.004 31.3013 6.9C31.2293 6.796 31.1413 6.72 31.0373 6.672C30.9359 6.624 30.8199 6.6 30.6893 6.6C30.4839 6.6 30.3093 6.644 30.1653 6.732C30.0213 6.81733 29.8853 6.93867 29.7573 7.096V8.936ZM29.7053 6.456C29.8733 6.26667 30.0639 6.11333 30.2773 5.996C30.4906 5.87867 30.7413 5.82 31.0293 5.82C31.2533 5.82 31.4573 5.86667 31.6413 5.96C31.8279 6.05333 31.9879 6.18933 32.1213 6.368C32.2573 6.544 32.3613 6.76267 32.4333 7.024C32.5079 7.28267 32.5453 7.58 32.5453 7.916C32.5453 8.22267 32.5039 8.50667 32.4213 8.768C32.3386 9.02933 32.2199 9.256 32.0653 9.448C31.9133 9.64 31.7279 9.79067 31.5093 9.9C31.2933 10.0067 31.0506 10.06 30.7812 10.06C30.5519 10.06 30.3559 10.0253 30.1933 9.956C30.0306 9.884 29.8853 9.78533 29.7573 9.66V11.34H28.7693V5.896H29.3733C29.5013 5.896 29.5853 5.956 29.6253 6.076L29.7053 6.456ZM34.3161 4.056V10H33.3281V4.056H34.3161ZM37.9445 7.476C37.9445 7.348 37.9258 7.228 37.8885 7.116C37.8538 7.00133 37.8005 6.90133 37.7285 6.816C37.6565 6.73067 37.5645 6.664 37.4525 6.616C37.3432 6.56533 37.2152 6.54 37.0685 6.54C36.7832 6.54 36.5578 6.62133 36.3925 6.784C36.2298 6.94667 36.1258 7.17733 36.0805 7.476H37.9445ZM36.0605 8.072C36.0765 8.28267 36.1138 8.46533 36.1725 8.62C36.2312 8.772 36.3085 8.89867 36.4045 9C36.5005 9.09867 36.6138 9.17333 36.7445 9.224C36.8778 9.272 37.0245 9.296 37.1845 9.296C37.3445 9.296 37.4818 9.27733 37.5965 9.24C37.7138 9.20267 37.8152 9.16133 37.9005 9.116C37.9885 9.07067 38.0645 9.02933 38.1285 8.992C38.1952 8.95467 38.2592 8.936 38.3205 8.936C38.4032 8.936 38.4645 8.96667 38.5045 9.028L38.7885 9.388C38.6792 9.516 38.5565 9.624 38.4205 9.712C38.2845 9.79733 38.1418 9.86667 37.9925 9.92C37.8458 9.97067 37.6952 10.0067 37.5405 10.028C37.3885 10.0493 37.2405 10.06 37.0965 10.06C36.8112 10.06 36.5458 10.0133 36.3005 9.92C36.0552 9.824 35.8418 9.684 35.6605 9.5C35.4792 9.31333 35.3365 9.084 35.2325 8.812C35.1285 8.53733 35.0765 8.22 35.0765 7.86C35.0765 7.58 35.1218 7.31733 35.2125 7.072C35.3032 6.824 35.4325 6.60933 35.6005 6.428C35.7712 6.244 35.9778 6.09867 36.2205 5.992C36.4658 5.88533 36.7418 5.832 37.0485 5.832C37.3072 5.832 37.5458 5.87333 37.7645 5.956C37.9832 6.03867 38.1712 6.16 38.3285 6.32C38.4858 6.47733 38.6085 6.672 38.6965 6.904C38.7872 7.13333 38.8325 7.396 38.8325 7.692C38.8325 7.84133 38.8165 7.94267 38.7845 7.996C38.7525 8.04667 38.6912 8.072 38.6005 8.072H36.0605ZM40.9029 10.064C40.5455 10.064 40.2709 9.964 40.0789 9.764C39.8895 9.56133 39.7949 9.28267 39.7949 8.928V6.636H39.3749C39.3215 6.636 39.2762 6.61867 39.2389 6.584C39.2015 6.54933 39.1829 6.49733 39.1829 6.428V6.036L39.8429 5.928L40.0509 4.808C40.0642 4.75467 40.0895 4.71333 40.1269 4.684C40.1642 4.65467 40.2122 4.64 40.2709 4.64H40.7829V5.932H41.8789V6.636H40.7829V8.86C40.7829 8.988 40.8135 9.088 40.8749 9.16C40.9389 9.232 41.0255 9.268 41.1349 9.268C41.1962 9.268 41.2469 9.26133 41.2869 9.248C41.3295 9.232 41.3655 9.216 41.3949 9.2C41.4269 9.184 41.4549 9.16933 41.4789 9.156C41.5029 9.14 41.5269 9.132 41.5509 9.132C41.5802 9.132 41.6042 9.14 41.6229 9.156C41.6415 9.16933 41.6615 9.19067 41.6829 9.22L41.9789 9.7C41.8349 9.82 41.6695 9.91067 41.4829 9.972C41.2962 10.0333 41.1029 10.064 40.9029 10.064ZM44.6794 8.248C44.3941 8.26133 44.1541 8.28667 43.9594 8.324C43.7648 8.35867 43.6088 8.404 43.4914 8.46C43.3741 8.516 43.2901 8.58133 43.2394 8.656C43.1888 8.73067 43.1634 8.812 43.1634 8.9C43.1634 9.07333 43.2141 9.19733 43.3154 9.272C43.4194 9.34667 43.5541 9.384 43.7194 9.384C43.9221 9.384 44.0968 9.348 44.2434 9.276C44.3928 9.20133 44.5381 9.08933 44.6794 8.94V8.248ZM42.4154 6.468C42.8874 6.036 43.4554 5.82 44.1194 5.82C44.3594 5.82 44.5741 5.86 44.7634 5.94C44.9528 6.01733 45.1128 6.12667 45.2434 6.268C45.3741 6.40667 45.4728 6.57333 45.5394 6.768C45.6088 6.96267 45.6434 7.176 45.6434 7.408V10H45.1954C45.1021 10 45.0301 9.98667 44.9794 9.96C44.9288 9.93067 44.8888 9.87333 44.8594 9.788L44.7714 9.492C44.6674 9.58533 44.5661 9.668 44.4674 9.74C44.3688 9.80933 44.2661 9.868 44.1594 9.916C44.0528 9.964 43.9381 10 43.8154 10.024C43.6954 10.0507 43.5621 10.064 43.4154 10.064C43.2421 10.064 43.0821 10.0413 42.9354 9.996C42.7888 9.948 42.6621 9.87733 42.5554 9.784C42.4488 9.69067 42.3661 9.57467 42.3074 9.436C42.2488 9.29733 42.2194 9.136 42.2194 8.952C42.2194 8.848 42.2368 8.74533 42.2714 8.644C42.3061 8.54 42.3621 8.44133 42.4394 8.348C42.5194 8.25467 42.6221 8.16667 42.7474 8.084C42.8728 8.00133 43.0261 7.92933 43.2074 7.868C43.3914 7.80667 43.6048 7.75733 43.8474 7.72C44.0901 7.68 44.3674 7.656 44.6794 7.648V7.408C44.6794 7.13333 44.6208 6.93067 44.5034 6.8C44.3861 6.66667 44.2168 6.6 43.9954 6.6C43.8354 6.6 43.7021 6.61867 43.5954 6.656C43.4914 6.69333 43.3994 6.736 43.3194 6.784C43.2394 6.82933 43.1661 6.87067 43.0994 6.908C43.0354 6.94533 42.9634 6.964 42.8834 6.964C42.8141 6.964 42.7554 6.94667 42.7074 6.912C42.6594 6.87467 42.6208 6.832 42.5914 6.784L42.4154 6.468ZM49.1499 6.944C49.0379 6.808 48.9153 6.712 48.7819 6.656C48.6513 6.6 48.5099 6.572 48.3579 6.572C48.2086 6.572 48.0739 6.6 47.9539 6.656C47.8339 6.712 47.7313 6.79733 47.6459 6.912C47.5606 7.024 47.4953 7.168 47.4499 7.344C47.4046 7.51733 47.3819 7.72267 47.3819 7.96C47.3819 8.2 47.4006 8.404 47.4379 8.572C47.4779 8.73733 47.5339 8.87333 47.6059 8.98C47.6779 9.084 47.7659 9.16 47.8699 9.208C47.9739 9.25333 48.0899 9.276 48.2179 9.276C48.4233 9.276 48.5979 9.23333 48.7419 9.148C48.8859 9.06267 49.0219 8.94133 49.1499 8.784V6.944ZM50.1379 4.056V10H49.5339C49.4033 10 49.3206 9.94 49.2859 9.82L49.2019 9.424C49.0366 9.61333 48.8459 9.76667 48.6299 9.884C48.4166 10.0013 48.1673 10.06 47.8819 10.06C47.6579 10.06 47.4526 10.0133 47.2659 9.92C47.0793 9.82667 46.9179 9.692 46.7819 9.516C46.6486 9.33733 46.5446 9.11733 46.4699 8.856C46.3979 8.59467 46.3619 8.296 46.3619 7.96C46.3619 7.656 46.4033 7.37333 46.4859 7.112C46.5686 6.85067 46.6873 6.624 46.8419 6.432C46.9966 6.24 47.1819 6.09067 47.3979 5.984C47.6139 5.87467 47.8566 5.82 48.1259 5.82C48.3553 5.82 48.5513 5.856 48.7139 5.928C48.8766 6 49.0219 6.09733 49.1499 6.22V4.056H50.1379ZM52.929 5.832C53.233 5.832 53.509 5.88133 53.757 5.98C54.0077 6.07867 54.221 6.21867 54.397 6.4C54.5757 6.58133 54.713 6.80267 54.809 7.064C54.905 7.32533 54.953 7.61733 54.953 7.94C54.953 8.26533 54.905 8.55867 54.809 8.82C54.713 9.08133 54.5757 9.304 54.397 9.488C54.221 9.672 54.0077 9.81333 53.757 9.912C53.509 10.0107 53.233 10.06 52.929 10.06C52.6223 10.06 52.3437 10.0107 52.093 9.912C51.8423 9.81333 51.6277 9.672 51.449 9.488C51.273 9.304 51.1357 9.08133 51.037 8.82C50.941 8.55867 50.893 8.26533 50.893 7.94C50.893 7.61733 50.941 7.32533 51.037 7.064C51.1357 6.80267 51.273 6.58133 51.449 6.4C51.6277 6.21867 51.8423 6.07867 52.093 5.98C52.3437 5.88133 52.6223 5.832 52.929 5.832ZM52.929 9.3C53.2703 9.3 53.5223 9.18533 53.685 8.956C53.8503 8.72667 53.933 8.39067 53.933 7.948C53.933 7.50533 53.8503 7.168 53.685 6.936C53.5223 6.704 53.2703 6.588 52.929 6.588C52.5823 6.588 52.325 6.70533 52.157 6.94C51.9917 7.172 51.909 7.508 51.909 7.948C51.909 8.388 51.9917 8.724 52.157 8.956C52.325 9.18533 52.5823 9.3 52.929 9.3Z" fill="white"/>
</svg>
