<svg width="48" height="48" viewBox="0 0 48 48" fill="none" xmlns="http://www.w3.org/2000/svg">
<g filter="url(#filter0_d_402_218)">
<rect x="4" width="40" height="40" rx="10" fill="white"/>
</g>
<path d="M23.6836 32.42C23.6836 32.9567 23.5986 33.445 23.4286 33.885C23.2586 34.325 23.0186 34.7017 22.7086 35.015C22.3986 35.3283 22.0253 35.5717 21.5886 35.745C21.1553 35.915 20.6753 36 20.1486 36H17.4736V28.835H20.1486C20.6753 28.835 21.1553 28.9217 21.5886 29.095C22.0253 29.265 22.3986 29.5083 22.7086 29.825C23.0186 30.1383 23.2586 30.515 23.4286 30.955C23.5986 31.395 23.6836 31.8833 23.6836 32.42ZM22.6886 32.42C22.6886 31.98 22.6286 31.5867 22.5086 31.24C22.3886 30.8933 22.2186 30.6 21.9986 30.36C21.7786 30.12 21.5119 29.9367 21.1986 29.81C20.8853 29.6833 20.5353 29.62 20.1486 29.62H18.4436V35.215H20.1486C20.5353 35.215 20.8853 35.1517 21.1986 35.025C21.5119 34.8983 21.7786 34.7167 21.9986 34.48C22.2186 34.24 22.3886 33.9467 22.5086 33.6C22.6286 33.2533 22.6886 32.86 22.6886 32.42ZM25.7184 30.935V36H24.8234V30.935H25.7184ZM26.7484 28.755L25.5834 30.045C25.5367 30.095 25.49 30.1317 25.4434 30.155C25.4 30.175 25.3434 30.185 25.2734 30.185H24.7434L25.4834 28.975C25.53 28.8983 25.58 28.8433 25.6334 28.81C25.69 28.7733 25.7717 28.755 25.8784 28.755H26.7484ZM29.9207 33.72C29.5107 33.7333 29.1607 33.7667 28.8707 33.82C28.584 33.87 28.349 33.9367 28.1657 34.02C27.9857 34.1033 27.854 34.2017 27.7707 34.315C27.6907 34.4283 27.6507 34.555 27.6507 34.695C27.6507 34.8283 27.6724 34.9433 27.7157 35.04C27.759 35.1367 27.8174 35.2167 27.8907 35.28C27.9674 35.34 28.0557 35.385 28.1557 35.415C28.259 35.4417 28.369 35.455 28.4857 35.455C28.6424 35.455 28.7857 35.44 28.9157 35.41C29.0457 35.3767 29.1674 35.33 29.2807 35.27C29.3974 35.21 29.5074 35.1383 29.6107 35.055C29.7174 34.9717 29.8207 34.8767 29.9207 34.77V33.72ZM27.0457 31.65C27.3257 31.38 27.6274 31.1783 27.9507 31.045C28.274 30.9117 28.6324 30.845 29.0257 30.845C29.309 30.845 29.5607 30.8917 29.7807 30.985C30.0007 31.0783 30.1857 31.2083 30.3357 31.375C30.4857 31.5417 30.599 31.7433 30.6757 31.98C30.7524 32.2167 30.7907 32.4767 30.7907 32.76V36H30.3957C30.309 36 30.2424 35.9867 30.1957 35.96C30.149 35.93 30.1124 35.8733 30.0857 35.79L29.9857 35.31C29.8524 35.4333 29.7224 35.5433 29.5957 35.64C29.469 35.7333 29.3357 35.8133 29.1957 35.88C29.0557 35.9433 28.9057 35.9917 28.7457 36.025C28.589 36.0617 28.414 36.08 28.2207 36.08C28.024 36.08 27.839 36.0533 27.6657 36C27.4924 35.9433 27.3407 35.86 27.2107 35.75C27.084 35.64 26.9824 35.5017 26.9057 35.335C26.8324 35.165 26.7957 34.965 26.7957 34.735C26.7957 34.535 26.8507 34.3433 26.9607 34.16C27.0707 33.9733 27.249 33.8083 27.4957 33.665C27.7424 33.5217 28.064 33.405 28.4607 33.315C28.8574 33.2217 29.344 33.1683 29.9207 33.155V32.76C29.9207 32.3667 29.8357 32.07 29.6657 31.87C29.4957 31.6667 29.2474 31.565 28.9207 31.565C28.7007 31.565 28.5157 31.5933 28.3657 31.65C28.219 31.7033 28.0907 31.765 27.9807 31.835C27.874 31.9017 27.7807 31.9633 27.7007 32.02C27.624 32.0733 27.5474 32.1 27.4707 32.1C27.4107 32.1 27.359 32.085 27.3157 32.055C27.2724 32.0217 27.2357 31.9817 27.2057 31.935L27.0457 31.65Z" fill="#06192B"/>
<path d="M33.3492 10.5093H15.2689C15.1758 10.5148 15.0824 10.5126 14.9897 10.5025C14.7709 10.4631 14.6385 10.3272 14.6378 10.1023C14.6371 9.8775 14.7669 9.74096 14.989 9.70428C15.0817 9.69385 15.1751 9.69158 15.2682 9.69749H33.3118C33.5204 8.3219 32.6658 6.89129 31.2393 6.55979C30.6163 6.4151 29.952 6.44634 29.2774 6.3954C29.2774 6.83626 29.2774 7.21056 29.2774 7.57806C29.274 8.3348 28.7544 8.8864 28.0499 8.88232C27.3455 8.87825 26.8401 8.33073 26.8367 7.59165C26.8367 7.22007 26.8367 6.84849 26.8367 6.44431H21.7419C21.6656 6.44737 21.5892 6.44601 21.513 6.44023C21.4054 6.43789 21.3031 6.39288 21.2286 6.31511C21.1541 6.23733 21.1136 6.13316 21.116 6.02552C21.1183 5.91787 21.1633 5.81556 21.2411 5.7411C21.3189 5.66664 21.423 5.62612 21.5307 5.62846C21.6061 5.62099 21.6828 5.62507 21.7589 5.62507H26.8442C26.8041 5.09861 26.8605 4.61766 27.2898 4.27326C27.5214 4.0833 27.8154 3.98642 28.1145 4.00154C28.8502 4.03007 29.2014 4.5049 29.2978 5.62778C29.6884 5.62778 30.0838 5.62778 30.4785 5.62778C31.5613 5.63594 32.477 6.03537 33.2079 6.83083C33.8193 7.50062 34.1548 8.30016 34.1589 9.20839C34.1693 12.786 34.1693 16.3637 34.1589 19.9414C34.1508 21.8984 32.5245 23.524 30.5681 23.5294C25.9149 23.5417 21.2617 23.5417 16.6085 23.5294C14.6385 23.524 13.017 21.8916 13.0082 19.9217C12.9973 16.3608 12.9973 12.8001 13.0082 9.23964C13.0143 7.26966 14.6385 5.65428 16.6085 5.62914C17.0228 5.62439 17.4379 5.62914 17.8903 5.62914C17.8903 5.47698 17.8903 5.33704 17.8903 5.19643C17.8978 4.87829 18.0295 4.57571 18.2571 4.35336C18.4848 4.13101 18.7904 4.00653 19.1086 4.00653C19.4269 4.00653 19.7325 4.13101 19.9601 4.35336C20.1878 4.57571 20.3194 4.87829 20.327 5.19643C20.3378 6.02744 20.3378 6.85823 20.327 7.68879C20.318 8.00683 20.185 8.30874 19.9563 8.52996C19.7276 8.75118 19.4215 8.87414 19.1033 8.87254C18.7852 8.87095 18.4803 8.74492 18.2538 8.52141C18.0274 8.29791 17.8974 7.99467 17.8917 7.67656C17.8815 7.27238 17.8917 6.86751 17.8917 6.44363C16.9406 6.44906 16.0005 6.31999 15.1609 6.87634C14.3212 7.43269 13.8342 8.20506 13.8287 9.20499C13.8093 12.7826 13.8093 16.3603 13.8287 19.938C13.8362 21.4576 15.0875 22.6891 16.6139 22.7129C17.8176 22.7313 19.0213 22.7177 20.2244 22.7177C23.6236 22.7177 27.0226 22.7177 30.4214 22.7177C31.8337 22.7177 32.9599 21.8441 33.2745 20.5059C33.3243 20.2914 33.3496 20.0719 33.3499 19.8517C33.3548 16.7994 33.356 13.7475 33.3533 10.6961L33.3492 10.5093ZM19.5152 6.44906C19.5152 6.05914 19.5152 5.66922 19.5152 5.2793C19.5152 4.99603 19.3576 4.81942 19.1192 4.81398C18.8807 4.80855 18.7068 4.9906 18.7027 5.28881C18.6996 6.05869 18.6996 6.82992 18.7027 7.60252C18.7027 7.88443 18.861 8.0624 19.0981 8.06852C19.3352 8.07463 19.5111 7.89122 19.5145 7.59708C19.5179 7.21192 19.5152 6.83083 19.5152 6.44906ZM28.4664 6.44363C28.4664 6.06254 28.4664 5.68077 28.4664 5.299C28.4664 5.00011 28.3074 4.81738 28.0588 4.81738C27.8101 4.81738 27.6512 4.99875 27.6512 5.29764C27.6485 6.06073 27.6485 6.82358 27.6512 7.58621C27.6512 7.88511 27.8101 8.06784 28.0588 8.06852C28.3074 8.0692 28.4664 7.88579 28.4664 7.58825C28.4691 7.20309 28.4664 6.822 28.4664 6.44363Z" fill="#06192B"/>
<path d="M21.1415 13.3685C21.1398 13.5302 21.0901 13.6877 20.9987 13.8211C20.9072 13.9544 20.7782 14.0576 20.628 14.1174C20.4777 14.1772 20.3131 14.191 20.155 14.157C19.9969 14.123 19.8525 14.0428 19.7402 13.9265C19.6278 13.8102 19.5526 13.6631 19.524 13.504C19.4955 13.3448 19.5149 13.1807 19.5799 13.0326C19.6448 12.8846 19.7524 12.7591 19.8888 12.6723C20.0252 12.5855 20.1844 12.5413 20.346 12.5452C20.5602 12.5503 20.7638 12.6396 20.9126 12.7937C21.0615 12.9478 21.1437 13.1542 21.1415 13.3685Z" fill="#9A9A9A"/>
<path d="M23.5807 12.5452C23.7425 12.5441 23.9008 12.5912 24.0357 12.6803C24.1706 12.7695 24.2759 12.8968 24.3383 13.046C24.4006 13.1953 24.4172 13.3596 24.3859 13.5183C24.3545 13.6769 24.2767 13.8227 24.1623 13.937C24.0479 14.0513 23.9021 14.129 23.7434 14.1602C23.5848 14.1914 23.4204 14.1747 23.2712 14.1122C23.1221 14.0497 22.9949 13.9443 22.9058 13.8093C22.8167 13.6744 22.7698 13.5159 22.771 13.3542C22.7726 13.14 22.8585 12.9351 23.01 12.7837C23.1615 12.6323 23.3666 12.5466 23.5807 12.5452V12.5452Z" fill="#9A9A9A"/>
<path d="M27.6513 13.3671C27.6499 13.5288 27.6005 13.6864 27.5092 13.8199C27.418 13.9535 27.2891 14.0568 27.139 14.1169C26.9889 14.177 26.8243 14.191 26.6661 14.1573C26.508 14.1236 26.3634 14.0436 26.2509 13.9275C26.1383 13.8114 26.0628 13.6644 26.034 13.5053C26.0052 13.3462 26.0244 13.1821 26.0891 13.0339C26.1538 12.8857 26.2611 12.7601 26.3974 12.6731C26.5337 12.586 26.6928 12.5415 26.8545 12.5451C27.0687 12.5499 27.2723 12.6389 27.4214 12.7927C27.5706 12.9465 27.6531 13.1529 27.6513 13.3671Z" fill="#9A9A9A"/>
<path d="M30.0797 14.1706C29.918 14.1683 29.7607 14.1179 29.6278 14.026C29.4948 13.934 29.3922 13.8045 29.333 13.6541C29.2738 13.5037 29.2607 13.339 29.2953 13.1811C29.3299 13.0232 29.4106 12.8791 29.5273 12.7672C29.644 12.6553 29.7914 12.5806 29.9506 12.5527C30.1098 12.5247 30.2738 12.5448 30.4216 12.6102C30.5694 12.6757 30.6944 12.7836 30.7808 12.9203C30.8671 13.057 30.9108 13.2163 30.9064 13.3779C30.9005 13.5922 30.8105 13.7956 30.6557 13.9439C30.501 14.0923 30.294 14.1738 30.0797 14.1706V14.1706Z" fill="#9A9A9A"/>
<path d="M17.0597 17.4265C16.898 17.4242 16.7408 17.3738 16.6078 17.2819C16.4749 17.1899 16.3723 17.0605 16.313 16.9101C16.2538 16.7597 16.2406 16.5951 16.2752 16.4372C16.3097 16.2793 16.3904 16.1352 16.5071 16.0233C16.6237 15.9114 16.771 15.8366 16.9301 15.8086C17.0893 15.7806 17.2533 15.8005 17.4011 15.8659C17.5489 15.9312 17.674 16.0391 17.7604 16.1757C17.8468 16.3123 17.8907 16.4715 17.8864 16.6331C17.8796 16.8471 17.7893 17.0501 17.6348 17.1984C17.4803 17.3467 17.2738 17.4286 17.0597 17.4265Z" fill="#9A9A9A"/>
<path d="M20.3139 17.4266C20.1523 17.4241 19.9951 17.3737 19.8622 17.2817C19.7294 17.1896 19.6269 17.0602 19.5677 16.9098C19.5086 16.7594 19.4955 16.5948 19.5302 16.4369C19.5648 16.2791 19.6455 16.1351 19.7622 16.0232C19.8788 15.9113 20.0261 15.8367 20.1853 15.8087C20.3444 15.7807 20.5083 15.8007 20.6561 15.8661C20.8039 15.9314 20.929 16.0393 21.0154 16.1759C21.1017 16.3125 21.1456 16.4716 21.1413 16.6332C21.1344 16.8473 21.0439 17.0502 20.8893 17.1985C20.7346 17.3468 20.5281 17.4287 20.3139 17.4266V17.4266Z" fill="#9A9A9A"/>
<path d="M24.9998 16.4737C25.005 16.7715 24.9215 17.064 24.7598 17.3141C24.5982 17.5642 24.3658 17.7606 24.0922 17.8781C23.8186 17.9957 23.5162 18.0292 23.2236 17.9743C22.9309 17.9194 22.6612 17.7787 22.4487 17.57C22.2363 17.3613 22.0908 17.0941 22.0308 16.8024C21.9708 16.5108 21.9989 16.2078 22.1116 15.9322C22.2243 15.6566 22.4165 15.4207 22.6638 15.2547C22.911 15.0887 23.202 15 23.4998 15C23.8931 14.9999 24.2707 15.1544 24.5513 15.43C24.8318 15.7057 24.9929 16.0805 24.9998 16.4737Z" fill="#06192B"/>
<path d="M26.8341 17.4266C26.6723 17.4266 26.5142 17.3784 26.3799 17.2883C26.2456 17.1981 26.1411 17.07 26.0798 16.9203C26.0185 16.7706 26.0032 16.6061 26.0357 16.4476C26.0682 16.2891 26.1471 16.1439 26.2624 16.0304C26.3777 15.917 26.5242 15.8404 26.6831 15.8104C26.8421 15.7804 27.0064 15.7984 27.1551 15.8621C27.3038 15.9258 27.4302 16.0323 27.5182 16.168C27.6062 16.3037 27.6518 16.4626 27.6493 16.6243C27.6447 16.8379 27.5569 17.0412 27.4047 17.1911C27.2524 17.3409 27.0477 17.4254 26.8341 17.4266V17.4266Z" fill="#9A9A9A"/>
<path d="M30.9066 16.6046C30.9089 16.7663 30.863 16.9251 30.7749 17.0606C30.6867 17.1962 30.5602 17.3025 30.4115 17.3659C30.2627 17.4294 30.0985 17.4472 29.9396 17.4171C29.7807 17.3869 29.6344 17.3102 29.5192 17.1967C29.4041 17.0832 29.3253 16.9379 29.2929 16.7795C29.2605 16.6211 29.276 16.4566 29.3373 16.307C29.3986 16.1573 29.5031 16.0293 29.6374 15.9392C29.7717 15.8492 29.9297 15.801 30.0914 15.801C30.3057 15.801 30.5113 15.8853 30.6638 16.0357C30.8164 16.1861 30.9036 16.3905 30.9066 16.6046V16.6046Z" fill="#9A9A9A"/>
<path d="M17.0765 19.0569C17.2381 19.0569 17.3961 19.105 17.5304 19.195C17.6646 19.285 17.7691 19.413 17.8305 19.5625C17.8919 19.712 17.9074 19.8765 17.8751 20.0349C17.8428 20.1933 17.7642 20.3385 17.6492 20.4521C17.5341 20.5657 17.3879 20.6425 17.2291 20.6728C17.0704 20.7031 16.9061 20.6855 16.7574 20.6222C16.6086 20.5589 16.482 20.4529 16.3937 20.3175C16.3054 20.1821 16.2593 20.0235 16.2613 19.8619C16.264 19.6474 16.351 19.4427 16.5036 19.292C16.6562 19.1414 16.862 19.0569 17.0765 19.0569Z" fill="#9A9A9A"/>
<path d="M20.3332 20.6818C20.1715 20.6832 20.013 20.6364 19.878 20.5474C19.7429 20.4585 19.6374 20.3313 19.5748 20.1822C19.5122 20.0331 19.4953 19.8688 19.5264 19.7101C19.5575 19.5514 19.6351 19.4055 19.7493 19.291C19.8635 19.1765 20.0091 19.0986 20.1678 19.0671C20.3264 19.0356 20.4908 19.0521 20.6401 19.1143C20.7893 19.1765 20.9167 19.2817 21.006 19.4165C21.0953 19.5514 21.1425 19.7097 21.1415 19.8714C21.1403 20.0856 21.0548 20.2907 20.9035 20.4424C20.7523 20.594 20.5474 20.68 20.3332 20.6818V20.6818Z" fill="#9A9A9A"/>
<path d="M24.3959 19.8598C24.3983 20.0215 24.3525 20.1803 24.2645 20.316C24.1764 20.4516 24.0499 20.558 23.9012 20.6216C23.7525 20.6852 23.5882 20.7031 23.4293 20.673C23.2704 20.643 23.124 20.5663 23.0088 20.4528C22.8935 20.3393 22.8147 20.1941 22.7822 20.0356C22.7498 19.8772 22.7652 19.7127 22.8265 19.563C22.8878 19.4133 22.9923 19.2853 23.1266 19.1952C23.2609 19.105 23.419 19.0569 23.5807 19.0569C23.7948 19.0569 24.0003 19.1411 24.1528 19.2913C24.3053 19.4415 24.3926 19.6458 24.3959 19.8598V19.8598Z" fill="#9A9A9A"/>
<path d="M27.6513 19.8775C27.6501 20.0392 27.6008 20.1968 27.5097 20.3304C27.4186 20.464 27.2899 20.5675 27.1398 20.6277C26.9898 20.6879 26.8252 20.7022 26.667 20.6686C26.5089 20.6351 26.3643 20.5553 26.2516 20.4393C26.1389 20.3234 26.0632 20.1765 26.0342 20.0175C26.0052 19.8584 26.0242 19.6944 26.0886 19.5461C26.1531 19.3978 26.2602 19.2721 26.3964 19.1849C26.5325 19.0976 26.6915 19.0528 26.8531 19.0562C27.0674 19.0607 27.2713 19.1494 27.4207 19.3031C27.5701 19.4568 27.653 19.6631 27.6513 19.8775V19.8775Z" fill="#9A9A9A"/>
<defs>
<filter id="filter0_d_402_218" x="0" y="0" width="48" height="48" filterUnits="userSpaceOnUse" color-interpolation-filters="sRGB">
<feFlood flood-opacity="0" result="BackgroundImageFix"/>
<feColorMatrix in="SourceAlpha" type="matrix" values="0 0 0 0 0 0 0 0 0 0 0 0 0 0 0 0 0 0 127 0" result="hardAlpha"/>
<feOffset dy="4"/>
<feGaussianBlur stdDeviation="2"/>
<feComposite in2="hardAlpha" operator="out"/>
<feColorMatrix type="matrix" values="0 0 0 0 0 0 0 0 0 0 0 0 0 0 0 0 0 0 0.25 0"/>
<feBlend mode="normal" in2="BackgroundImageFix" result="effect1_dropShadow_402_218"/>
<feBlend mode="normal" in="SourceGraphic" in2="effect1_dropShadow_402_218" result="shape"/>
</filter>
</defs>
</svg>
