<svg width="15" height="15" viewBox="0 0 15 15" fill="none" xmlns="http://www.w3.org/2000/svg">
<path d="M0.124275 2.73017C-0.203036 1.55563 0.30421 0.476967 1.38468 0.116556C2.10528 -0.123146 2.76076 0.0309482 3.30313 0.565999C4.48642 1.73883 5.66115 2.92022 6.84015 4.09733C7.33455 4.59129 7.65243 4.59301 8.14254 4.10418C9.28499 2.96274 10.4257 1.8213 11.5647 0.679857C12.2793 -0.0332584 13.1585 -0.205331 13.9125 0.258665C14.7188 0.754336 15.2474 1.61641 14.873 2.65569C14.8682 2.67648 14.8656 2.69772 14.8653 2.71904C14.6836 3.03029 14.4576 3.31348 14.1944 3.55972C13.0685 4.67662 11.9466 5.79723 10.8287 6.92155C10.4174 7.33418 10.4397 7.7177 10.8878 8.11064C12.044 9.27663 13.2007 10.4418 14.358 11.606C14.6878 11.9137 14.9075 12.3208 14.9835 12.7652C15.0375 13.1033 14.9492 13.4192 14.8584 13.7377C14.831 13.7822 14.8019 13.8233 14.7727 13.8712C13.9262 15.2837 12.431 15.2752 11.5288 14.3061C10.4517 13.1504 9.30098 12.0623 8.1871 10.946C7.64472 10.4041 7.35339 10.4024 6.81616 10.9374C5.66 12.0926 4.50356 13.2457 3.34683 14.3968C2.52598 15.2101 1.44037 15.1964 0.615241 14.3831C0.394136 14.1546 0.21155 13.8918 0.0745783 13.605C-0.147342 12.742 0.137984 12.064 0.771185 11.4579C1.90564 10.3656 2.99896 9.23211 4.11284 8.11321C4.55754 7.71856 4.57553 7.33675 4.15654 6.9147C3.02266 5.7841 1.8905 4.65407 0.760047 3.52462C0.508903 3.29366 0.29451 3.02576 0.124275 2.73017V2.73017Z" fill="#06192B"/>
</svg>
