<svg width="84" height="72" viewBox="0 0 84 72" fill="none" xmlns="http://www.w3.org/2000/svg">
<path d="M0.00616471 65.4163C0.606196 64.2306 1.13431 63.0038 1.81653 61.8695C13.6363 42.2315 25.4678 22.601 37.3109 2.97806C38.8377 0.446421 41.2152 -0.550206 43.6811 0.294359C45.0455 0.762876 45.962 1.72046 46.6915 2.93491C51.6602 11.1997 56.6379 19.4591 61.6245 27.7129C68.7481 39.5259 75.8718 51.3388 82.9954 63.1518C83.7866 64.4607 84.2284 65.8129 83.8791 67.3602C83.6583 68.4106 83.1108 69.3641 82.315 70.0843C81.5192 70.8045 80.5158 71.2543 79.4487 71.3693C79.0393 71.4151 78.6277 71.437 78.2157 71.4351C54.0706 71.4351 29.9255 71.4385 5.78044 71.4454C3.93103 71.4454 2.28711 71.0056 1.15486 69.4644C0.639075 68.7555 0.376047 67.8657 0 67.0561L0.00616471 65.4163ZM45.5284 35.4928H45.6086C45.7195 31.8864 45.851 28.2801 45.9312 24.6737C45.9723 22.888 44.953 21.6345 43.2023 21.3098C42.5096 21.1843 41.8013 21.1704 41.1042 21.2687C39.0925 21.5605 38.0321 22.7873 38.0958 24.795C38.3328 32.0899 38.5911 39.3834 38.8705 46.6756C38.9137 47.8448 39.487 48.5887 40.6316 48.827C41.3501 48.9838 42.0898 49.0192 42.8201 48.9318C44.4311 48.714 45.1359 47.8551 45.1894 46.2296C45.3031 42.65 45.4161 39.0711 45.5284 35.4928ZM42.0125 61.1462C44.2071 61.1852 46.1223 59.307 46.2045 57.0508C46.2867 54.7945 44.3407 52.8074 42.0947 52.793C41.001 52.8036 39.9552 53.2426 39.1817 54.0158C38.4081 54.789 37.9687 55.8347 37.9577 56.9283C37.9466 58.0219 38.3649 59.0763 39.1227 59.8649C39.8804 60.6535 40.9172 61.1136 42.0104 61.1462H42.0125Z" fill="#D05F5F"/>
</svg>
