<svg width="63" height="53" viewBox="0 0 63 53" fill="none" xmlns="http://www.w3.org/2000/svg">
<g filter="url(#filter0_d_224_14013)">
<rect x="4" width="55" height="45" rx="10" fill="white"/>
</g>
<path d="M9.69359 32.625V35.13H12.6386V35.92H9.69359V39H8.72359V31.835H13.1386V32.625H9.69359ZM15.8634 33.855C16.2334 33.855 16.5668 33.9167 16.8634 34.04C17.1601 34.1633 17.4134 34.3383 17.6234 34.565C17.8334 34.7917 17.9934 35.0667 18.1034 35.39C18.2168 35.71 18.2734 36.0683 18.2734 36.465C18.2734 36.865 18.2168 37.225 18.1034 37.545C17.9934 37.865 17.8334 38.1383 17.6234 38.365C17.4134 38.5917 17.1601 38.7667 16.8634 38.89C16.5668 39.01 16.2334 39.07 15.8634 39.07C15.4901 39.07 15.1534 39.01 14.8534 38.89C14.5568 38.7667 14.3034 38.5917 14.0934 38.365C13.8834 38.1383 13.7218 37.865 13.6084 37.545C13.4984 37.225 13.4434 36.865 13.4434 36.465C13.4434 36.0683 13.4984 35.71 13.6084 35.39C13.7218 35.0667 13.8834 34.7917 14.0934 34.565C14.3034 34.3383 14.5568 34.1633 14.8534 34.04C15.1534 33.9167 15.4901 33.855 15.8634 33.855ZM15.8634 38.375C16.3634 38.375 16.7368 38.2083 16.9834 37.875C17.2301 37.5383 17.3534 37.07 17.3534 36.47C17.3534 35.8667 17.2301 35.3967 16.9834 35.06C16.7368 34.7233 16.3634 34.555 15.8634 34.555C15.6101 34.555 15.3884 34.5983 15.1984 34.685C15.0118 34.7717 14.8551 34.8967 14.7284 35.06C14.6051 35.2233 14.5118 35.425 14.4484 35.665C14.3884 35.9017 14.3584 36.17 14.3584 36.47C14.3584 37.07 14.4818 37.5383 14.7284 37.875C14.9784 38.2083 15.3568 38.375 15.8634 38.375ZM20.2473 34.95C20.4073 34.6033 20.6039 34.3333 20.8373 34.14C21.0706 33.9433 21.3556 33.845 21.6923 33.845C21.7989 33.845 21.9006 33.8567 21.9973 33.88C22.0973 33.9033 22.1856 33.94 22.2623 33.99L22.1973 34.655C22.1773 34.7383 22.1273 34.78 22.0473 34.78C22.0006 34.78 21.9323 34.77 21.8423 34.75C21.7523 34.73 21.6506 34.72 21.5373 34.72C21.3773 34.72 21.2339 34.7433 21.1073 34.79C20.9839 34.8367 20.8723 34.9067 20.7723 35C20.6756 35.09 20.5873 35.2033 20.5073 35.34C20.4306 35.4733 20.3606 35.6267 20.2973 35.8V39H19.4023V33.935H19.9123C20.0089 33.935 20.0756 33.9533 20.1123 33.99C20.1489 34.0267 20.1739 34.09 20.1873 34.18L20.2473 34.95ZM23.0448 39V33.935H23.5798C23.7065 33.935 23.7848 33.9967 23.8148 34.12L23.8798 34.64C24.0665 34.41 24.2765 34.2217 24.5098 34.075C24.7432 33.9283 25.0132 33.855 25.3198 33.855C25.6598 33.855 25.9348 33.95 26.1448 34.14C26.3582 34.33 26.5115 34.5867 26.6048 34.91C26.6782 34.7267 26.7715 34.5683 26.8848 34.435C27.0015 34.3017 27.1315 34.1917 27.2748 34.105C27.4182 34.0183 27.5698 33.955 27.7298 33.915C27.8932 33.875 28.0582 33.855 28.2248 33.855C28.4915 33.855 28.7282 33.8983 28.9348 33.985C29.1448 34.0683 29.3215 34.1917 29.4648 34.355C29.6115 34.5183 29.7232 34.72 29.7998 34.96C29.8765 35.1967 29.9148 35.4683 29.9148 35.775V39H29.0198V35.775C29.0198 35.3783 28.9332 35.0783 28.7598 34.875C28.5865 34.6683 28.3365 34.565 28.0098 34.565C27.8632 34.565 27.7232 34.5917 27.5898 34.645C27.4598 34.695 27.3448 34.77 27.2448 34.87C27.1448 34.97 27.0648 35.0967 27.0048 35.25C26.9482 35.4 26.9198 35.575 26.9198 35.775V39H26.0248V35.775C26.0248 35.3683 25.9432 35.065 25.7798 34.865C25.6165 34.665 25.3782 34.565 25.0648 34.565C24.8448 34.565 24.6415 34.625 24.4548 34.745C24.2682 34.8617 24.0965 35.0217 23.9398 35.225V39H23.0448ZM35.4325 33.935V39H34.9025C34.7758 39 34.6958 38.9383 34.6625 38.815L34.5925 38.27C34.3725 38.5133 34.1258 38.71 33.8525 38.86C33.5792 39.0067 33.2658 39.08 32.9125 39.08C32.6358 39.08 32.3908 39.035 32.1775 38.945C31.9675 38.8517 31.7908 38.7217 31.6475 38.555C31.5042 38.3883 31.3958 38.1867 31.3225 37.95C31.2525 37.7133 31.2175 37.4517 31.2175 37.165V33.935H32.1075V37.165C32.1075 37.5483 32.1942 37.845 32.3675 38.055C32.5442 38.265 32.8125 38.37 33.1725 38.37C33.4358 38.37 33.6808 38.3083 33.9075 38.185C34.1375 38.0583 34.3492 37.885 34.5425 37.665V33.935H35.4325ZM37.7637 31.635V39H36.8737V31.635H37.7637ZM41.952 36.72C41.542 36.7333 41.192 36.7667 40.902 36.82C40.6153 36.87 40.3803 36.9367 40.197 37.02C40.017 37.1033 39.8853 37.2017 39.802 37.315C39.722 37.4283 39.682 37.555 39.682 37.695C39.682 37.8283 39.7036 37.9433 39.747 38.04C39.7903 38.1367 39.8486 38.2167 39.922 38.28C39.9986 38.34 40.087 38.385 40.187 38.415C40.2903 38.4417 40.4003 38.455 40.517 38.455C40.6736 38.455 40.817 38.44 40.947 38.41C41.077 38.3767 41.1986 38.33 41.312 38.27C41.4286 38.21 41.5386 38.1383 41.642 38.055C41.7486 37.9717 41.852 37.8767 41.952 37.77V36.72ZM39.077 34.65C39.357 34.38 39.6586 34.1783 39.982 34.045C40.3053 33.9117 40.6636 33.845 41.057 33.845C41.3403 33.845 41.592 33.8917 41.812 33.985C42.032 34.0783 42.217 34.2083 42.367 34.375C42.517 34.5417 42.6303 34.7433 42.707 34.98C42.7836 35.2167 42.822 35.4767 42.822 35.76V39H42.427C42.3403 39 42.2736 38.9867 42.227 38.96C42.1803 38.93 42.1436 38.8733 42.117 38.79L42.017 38.31C41.8836 38.4333 41.7536 38.5433 41.627 38.64C41.5003 38.7333 41.367 38.8133 41.227 38.88C41.087 38.9433 40.937 38.9917 40.777 39.025C40.6203 39.0617 40.4453 39.08 40.252 39.08C40.0553 39.08 39.8703 39.0533 39.697 39C39.5236 38.9433 39.372 38.86 39.242 38.75C39.1153 38.64 39.0136 38.5017 38.937 38.335C38.8636 38.165 38.827 37.965 38.827 37.735C38.827 37.535 38.882 37.3433 38.992 37.16C39.102 36.9733 39.2803 36.8083 39.527 36.665C39.7736 36.5217 40.0953 36.405 40.492 36.315C40.8886 36.2217 41.3753 36.1683 41.952 36.155V35.76C41.952 35.3667 41.867 35.07 41.697 34.87C41.527 34.6667 41.2786 34.565 40.952 34.565C40.732 34.565 40.547 34.5933 40.397 34.65C40.2503 34.7033 40.122 34.765 40.012 34.835C39.9053 34.9017 39.812 34.9633 39.732 35.02C39.6553 35.0733 39.5786 35.1 39.502 35.1C39.442 35.1 39.3903 35.085 39.347 35.055C39.3036 35.0217 39.267 34.9817 39.237 34.935L39.077 34.65ZM45.0227 34.95C45.1827 34.6033 45.3793 34.3333 45.6127 34.14C45.846 33.9433 46.131 33.845 46.4677 33.845C46.5743 33.845 46.676 33.8567 46.7727 33.88C46.8727 33.9033 46.961 33.94 47.0377 33.99L46.9727 34.655C46.9527 34.7383 46.9027 34.78 46.8227 34.78C46.776 34.78 46.7077 34.77 46.6177 34.75C46.5277 34.73 46.426 34.72 46.3127 34.72C46.1527 34.72 46.0093 34.7433 45.8827 34.79C45.7593 34.8367 45.6477 34.9067 45.5477 35C45.451 35.09 45.3627 35.2033 45.2827 35.34C45.206 35.4733 45.136 35.6267 45.0727 35.8V39H44.1777V33.935H44.6877C44.7843 33.935 44.851 33.9533 44.8877 33.99C44.9243 34.0267 44.9493 34.09 44.9627 34.18L45.0227 34.95ZM48.7602 33.935V39H47.8702V33.935H48.7602ZM48.9502 32.345C48.9502 32.4317 48.9319 32.5133 48.8952 32.59C48.8619 32.6633 48.8152 32.73 48.7552 32.79C48.6986 32.8467 48.6302 32.8917 48.5502 32.925C48.4736 32.9583 48.3919 32.975 48.3052 32.975C48.2186 32.975 48.1369 32.9583 48.0602 32.925C47.9869 32.8917 47.9219 32.8467 47.8652 32.79C47.8086 32.73 47.7636 32.6633 47.7302 32.59C47.6969 32.5133 47.6802 32.4317 47.6802 32.345C47.6802 32.2583 47.6969 32.1767 47.7302 32.1C47.7636 32.02 47.8086 31.9517 47.8652 31.895C47.9219 31.835 47.9869 31.7883 48.0602 31.755C48.1369 31.7217 48.2186 31.705 48.3052 31.705C48.3919 31.705 48.4736 31.7217 48.5502 31.755C48.6302 31.7883 48.6986 31.835 48.7552 31.895C48.8152 31.9517 48.8619 32.02 48.8952 32.1C48.9319 32.1767 48.9502 32.2583 48.9502 32.345ZM52.3576 33.855C52.7276 33.855 53.0609 33.9167 53.3576 34.04C53.6542 34.1633 53.9076 34.3383 54.1176 34.565C54.3276 34.7917 54.4876 35.0667 54.5976 35.39C54.7109 35.71 54.7676 36.0683 54.7676 36.465C54.7676 36.865 54.7109 37.225 54.5976 37.545C54.4876 37.865 54.3276 38.1383 54.1176 38.365C53.9076 38.5917 53.6542 38.7667 53.3576 38.89C53.0609 39.01 52.7276 39.07 52.3576 39.07C51.9842 39.07 51.6476 39.01 51.3476 38.89C51.0509 38.7667 50.7976 38.5917 50.5876 38.365C50.3776 38.1383 50.2159 37.865 50.1026 37.545C49.9926 37.225 49.9376 36.865 49.9376 36.465C49.9376 36.0683 49.9926 35.71 50.1026 35.39C50.2159 35.0667 50.3776 34.7917 50.5876 34.565C50.7976 34.3383 51.0509 34.1633 51.3476 34.04C51.6476 33.9167 51.9842 33.855 52.3576 33.855ZM52.3576 38.375C52.8576 38.375 53.2309 38.2083 53.4776 37.875C53.7242 37.5383 53.8476 37.07 53.8476 36.47C53.8476 35.8667 53.7242 35.3967 53.4776 35.06C53.2309 34.7233 52.8576 34.555 52.3576 34.555C52.1042 34.555 51.8826 34.5983 51.6926 34.685C51.5059 34.7717 51.3492 34.8967 51.2226 35.06C51.0992 35.2233 51.0059 35.425 50.9426 35.665C50.8826 35.9017 50.8526 36.17 50.8526 36.47C50.8526 37.07 50.9759 37.5383 51.2226 37.875C51.4726 38.2083 51.8509 38.375 52.3576 38.375Z" fill="#844F92"/>
<path d="M30.8295 5.0023C31.0247 5.10045 31.2376 5.17449 31.4121 5.30191C31.5574 5.4079 31.6775 5.54475 31.7636 5.70265C31.8497 5.86054 31.8998 6.03555 31.9103 6.21511C31.9356 6.5021 31.9717 6.53711 32.2696 6.53826C32.4275 6.53826 32.5847 6.53482 32.7426 6.53826C33.3418 6.55605 33.7579 6.84936 33.9858 7.39923C34.0432 7.53124 34.104 7.56568 34.2355 7.56511C35.2239 7.56052 36.2117 7.56166 37.2001 7.56511C37.9922 7.56511 38.3899 7.96402 38.3899 8.75209C38.3899 9.54017 38.3957 10.342 38.3836 11.1364C38.3792 11.2608 38.328 11.3789 38.2401 11.467C38.1747 11.5244 38.0077 11.5324 37.9302 11.4871C37.8822 11.4544 37.8418 11.412 37.8115 11.3625C37.7812 11.313 37.7618 11.2577 37.7545 11.2001C37.7333 10.8362 37.7459 10.47 37.7459 10.105C37.7459 9.62511 37.7459 9.14527 37.7459 8.66542C37.7459 8.35892 37.6088 8.22002 37.3034 8.20968C37.1622 8.20509 37.0204 8.20968 36.8528 8.20968V12.9542C36.8554 13.0258 36.8537 13.0975 36.8477 13.1689C36.8439 13.2454 36.8106 13.3176 36.7547 13.3701C36.6988 13.4225 36.6247 13.4512 36.548 13.4501C36.4754 13.458 36.4025 13.4383 36.3437 13.3951C36.2848 13.3518 36.2443 13.2881 36.2301 13.2165C36.2125 13.1328 36.2055 13.0471 36.2094 12.9616C36.2094 11.4651 36.2094 9.96854 36.2094 8.47199V8.22116H34.1046C34.0897 8.34744 34.0845 8.47544 34.0581 8.59827C34.0246 8.76438 33.938 8.9151 33.8114 9.02773C33.6848 9.14036 33.525 9.20881 33.3562 9.22276C33.2637 9.23137 33.1702 9.23137 33.0772 9.23137H27.4057C26.589 9.23137 26.3846 9.05056 26.2916 8.22576H24.1754V24.288C24.1754 24.6031 24.1909 24.6191 24.4991 24.6191C25.9025 24.6191 27.3059 24.6191 28.7092 24.6232C28.8659 24.6232 28.9595 24.5853 29.0209 24.4355C29.6138 23.0005 30.519 21.7688 31.497 20.5703C33.8463 17.6912 36.1526 14.7777 38.4732 11.8786C38.8273 11.4366 39.2767 11.2386 39.8375 11.366C40.3472 11.4808 40.6818 11.8102 40.8133 12.3182C40.9281 12.7728 40.8081 13.1752 40.5137 13.5402C39.5651 14.715 38.6199 15.8931 37.6782 17.0748C35.8487 19.3581 34.017 21.6415 32.1829 23.9252C31.9838 24.172 31.7174 24.3643 31.4637 24.5985C31.5169 24.6078 31.5706 24.6142 31.6245 24.6174C33.0563 24.6174 34.4884 24.6174 35.9207 24.6174C36.1899 24.6174 36.2077 24.5979 36.2077 24.3184V19.8723C36.2077 19.8149 36.2077 19.7575 36.2077 19.7001C36.2209 19.4809 36.346 19.3489 36.5354 19.3506C36.7248 19.3523 36.8477 19.4855 36.8494 19.707C36.8534 20.1295 36.8494 20.5519 36.8494 20.9744V24.3258C36.8494 24.9756 36.5589 25.262 35.9017 25.262C34.2188 25.262 32.5365 25.262 30.8507 25.2586C30.7695 25.2546 30.6883 25.2669 30.6119 25.2946C30.5354 25.3223 30.4652 25.3648 30.4053 25.4198C30.2676 25.5452 30.1223 25.6619 29.9703 25.7694C29.5426 26.0696 28.9865 25.9054 28.8057 25.4164C28.7529 25.2746 28.6765 25.2603 28.552 25.2603C27.1916 25.263 25.8311 25.263 24.4704 25.2603C23.8224 25.2603 23.5262 24.9635 23.5262 24.3149C23.5262 19.0447 23.5262 13.7746 23.5262 8.50471V8.24355C23.4923 8.22576 23.4809 8.21485 23.4688 8.21428C22.7473 8.17467 22.6342 8.22289 22.6354 8.98628C22.6438 14.5787 22.6457 20.1712 22.6411 25.7637C22.6411 25.8784 22.6216 26.0151 22.6767 26.0989C22.7467 26.2062 22.877 26.2814 22.9941 26.3474C23.0515 26.3784 23.1348 26.3554 23.2059 26.3554H37.1737C37.6375 26.3554 37.7477 26.2492 37.7477 25.7906C37.7477 23.163 37.7477 20.5351 37.7477 17.907C37.7477 17.8215 37.7281 17.7084 37.7729 17.6574C37.8544 17.5655 37.9715 17.4685 38.0857 17.4507C38.2407 17.4266 38.3486 17.546 38.3825 17.7033C38.3928 17.7741 38.3957 17.8459 38.3911 17.9174C38.3911 20.5577 38.3911 23.1999 38.3911 25.844C38.3911 26.5902 37.9784 27 37.2345 27H23.1623C22.4161 27 22.0011 26.593 22.0006 25.852C22.0002 20.1368 22 14.4218 22 8.70732C22 7.97206 22.4092 7.56453 23.148 7.56224C24.1429 7.55918 25.1377 7.55918 26.1326 7.56224C26.2796 7.56224 26.3513 7.52608 26.4133 7.37856C26.6354 6.84821 27.0447 6.56179 27.6244 6.53826C27.8247 6.53023 28.0262 6.53826 28.2259 6.53482C28.3534 6.53482 28.4555 6.4866 28.4664 6.34368C28.506 5.61645 28.9107 5.19573 29.5851 5L30.8295 5.0023ZM38.693 14.7835L37.6461 13.9477L30.7468 22.5522L31.7938 23.3891L38.693 14.7835ZM30.1895 8.58449C31.1775 8.58449 32.1653 8.58449 33.153 8.58449C33.4044 8.58449 33.44 8.54604 33.4445 8.30095C33.4445 8.16491 33.4491 8.02888 33.4445 7.89285C33.4222 7.4704 33.1403 7.19317 32.7133 7.18341C32.5555 7.17997 32.3982 7.18341 32.2409 7.18341C31.6365 7.18054 31.334 6.90561 31.2703 6.30121C31.229 5.90459 30.9575 5.65376 30.5569 5.64802C30.3135 5.64458 30.0701 5.644 29.8268 5.64802C29.4221 5.65491 29.138 5.92468 29.1127 6.32761C29.0743 6.86371 28.7483 7.17365 28.2087 7.18284C28.0084 7.18628 27.8069 7.1771 27.6072 7.18743C27.4376 7.19512 27.277 7.26591 27.1569 7.3859C27.0368 7.50589 26.9659 7.66643 26.958 7.83602C26.9506 7.97206 26.9546 8.10809 26.9546 8.24412C26.9546 8.57129 26.9689 8.58851 27.2886 8.58851L30.1895 8.58449ZM39.0965 14.2784C39.438 13.8513 39.7709 13.4495 40.086 13.0351C40.1874 12.8986 40.2325 12.7285 40.2122 12.5597C40.192 12.3909 40.1078 12.2363 39.977 12.1277C39.7066 11.9021 39.2985 11.9124 39.0672 12.1851C38.7194 12.5914 38.3928 13.0162 38.0496 13.4426L39.0965 14.2784ZM30.4294 23.1176C30.4013 23.1377 30.3852 23.1429 30.3795 23.1543C30.0661 23.7794 29.7516 24.4039 29.4456 25.033C29.4187 25.0904 29.452 25.1725 29.4577 25.2431C29.5271 25.227 29.6132 25.2316 29.6632 25.1914C30.2056 24.7598 30.7423 24.3207 31.2795 23.8827C31.2927 23.8712 31.2961 23.8477 31.3088 23.8207L30.4294 23.1176Z" fill="#844F92"/>
<path d="M32.217 11.7178C31.48 11.7178 30.7436 11.7235 30.0071 11.7109C29.8832 11.7058 29.7656 11.6544 29.6777 11.5669C29.5399 11.4125 29.6329 11.1651 29.8349 11.1025C29.9249 11.0795 30.0177 11.0701 30.1105 11.0744C31.5121 11.0744 32.9138 11.0744 34.3154 11.0744C34.3728 11.0723 34.4303 11.0735 34.4876 11.0778C34.6856 11.0985 34.8188 11.2351 34.8131 11.409C34.8073 11.5829 34.6753 11.7155 34.4687 11.7167C33.7173 11.7207 32.9666 11.7167 32.2158 11.7167L32.217 11.7178Z" fill="#844F92"/>
<path d="M32.2117 12.5105H34.3354C34.4071 12.5105 34.4984 12.4887 34.5454 12.5237C34.6453 12.5983 34.7808 12.6959 34.7911 12.7981C34.8014 12.9002 34.6953 13.034 34.6057 13.1155C34.5483 13.1654 34.4289 13.1534 34.3371 13.1534C32.9213 13.1556 31.5055 13.1556 30.0897 13.1534C30.0184 13.1566 29.947 13.1519 29.8767 13.1396C29.6988 13.0983 29.6064 12.9812 29.623 12.7952C29.6385 12.623 29.7435 12.5266 29.9169 12.5082C29.9806 12.5025 30.0455 12.5042 30.1097 12.5042L32.2117 12.5105Z" fill="#844F92"/>
<path d="M32.2169 15.6817C32.9249 15.6817 33.6328 15.6817 34.3407 15.6817C34.412 15.6789 34.4835 15.6827 34.5542 15.6932C34.7178 15.7253 34.824 15.8453 34.7976 15.9945C34.7775 16.1065 34.6724 16.2184 34.5771 16.2964C34.5226 16.3412 34.4124 16.3246 34.3275 16.3246C32.9189 16.3246 31.5102 16.3246 30.1013 16.3246C30.0299 16.3264 29.9584 16.3222 29.8877 16.3119C29.7064 16.2804 29.6111 16.1667 29.6191 15.983C29.6272 15.7994 29.7282 15.7087 29.9004 15.6869C29.9645 15.6807 30.0289 15.6786 30.0932 15.6806L32.2169 15.6817Z" fill="#844F92"/>
<path d="M26.7779 21.8561L27.3381 21.06C27.4856 20.8493 27.6297 20.6364 27.7806 20.4286C27.9115 20.2478 28.086 20.2082 28.2427 20.3138C28.3994 20.4194 28.435 20.6071 28.3133 20.7844C27.9689 21.285 27.6245 21.7849 27.2698 22.2768C27.2238 22.3457 27.1635 22.404 27.093 22.4475C27.0225 22.4911 26.9434 22.5189 26.8611 22.5292C26.7789 22.5394 26.6954 22.5318 26.6164 22.5069C26.5373 22.4819 26.4646 22.4403 26.4031 22.3847C26.1672 22.1884 25.9399 21.9829 25.7143 21.7734C25.5565 21.6276 25.5421 21.4371 25.6621 21.2999C25.782 21.1627 25.9755 21.1552 26.1391 21.2947C26.3503 21.4755 26.5563 21.6603 26.7779 21.8561Z" fill="#844F92"/>
<path d="M26.7796 17.2131C27.0793 16.7844 27.3726 16.3642 27.667 15.9441C27.7118 15.8798 27.7537 15.8132 27.8036 15.7524C27.9253 15.6037 28.0952 15.5721 28.2398 15.6674C28.2766 15.6902 28.3083 15.7203 28.3328 15.7559C28.3574 15.7914 28.3743 15.8317 28.3825 15.8742C28.3907 15.9166 28.39 15.9603 28.3804 16.0025C28.3709 16.0446 28.3527 16.0844 28.3271 16.1191C28.1009 16.4578 27.8633 16.7884 27.6303 17.1219C27.5155 17.286 27.4041 17.4525 27.2859 17.6132C27.0563 17.9272 26.6844 17.976 26.3893 17.728C26.1597 17.5346 25.937 17.3337 25.7161 17.1311C25.5571 16.9853 25.5398 16.7953 25.6587 16.657C25.7775 16.5186 25.9726 16.5106 26.1356 16.6489C26.3492 16.8263 26.5552 17.0151 26.7796 17.2131Z" fill="#844F92"/>
<path d="M26.7782 12.5065L27.6765 11.2236C27.7138 11.1708 27.7482 11.1163 27.7878 11.0658C27.9216 10.8936 28.1041 10.8603 28.2562 10.9717C28.3997 11.0767 28.4284 11.2587 28.3136 11.4308C28.1305 11.7041 27.9376 11.971 27.7488 12.2407C27.5932 12.4634 27.4429 12.6902 27.2804 12.9083C27.0508 13.2217 26.6823 13.2676 26.3839 13.0168C26.1543 12.8239 25.931 12.6219 25.7106 12.4175C25.5527 12.2712 25.5384 12.0794 25.6658 11.9434C25.7932 11.8074 25.9723 11.7988 26.1428 11.9434C26.3494 12.1196 26.5497 12.3039 26.7782 12.5065Z" fill="#844F92"/>
<path d="M31.0879 17.1133C31.4455 17.1133 31.8025 17.1104 32.1601 17.1133C32.3925 17.1161 32.5366 17.2441 32.5343 17.4353C32.532 17.6264 32.3851 17.755 32.1543 17.7556C31.4323 17.7586 30.7102 17.7586 29.9881 17.7556C29.7534 17.7556 29.6185 17.6287 29.6196 17.4301C29.6208 17.2315 29.7528 17.1156 29.9939 17.1133C30.3589 17.1133 30.7245 17.1133 31.0879 17.1133Z" fill="#844F92"/>
<defs>
<filter id="filter0_d_224_14013" x="0" y="0" width="63" height="53" filterUnits="userSpaceOnUse" color-interpolation-filters="sRGB">
<feFlood flood-opacity="0" result="BackgroundImageFix"/>
<feColorMatrix in="SourceAlpha" type="matrix" values="0 0 0 0 0 0 0 0 0 0 0 0 0 0 0 0 0 0 127 0" result="hardAlpha"/>
<feOffset dy="4"/>
<feGaussianBlur stdDeviation="2"/>
<feComposite in2="hardAlpha" operator="out"/>
<feColorMatrix type="matrix" values="0 0 0 0 0 0 0 0 0 0 0 0 0 0 0 0 0 0 0.25 0"/>
<feBlend mode="normal" in2="BackgroundImageFix" result="effect1_dropShadow_224_14013"/>
<feBlend mode="normal" in="SourceGraphic" in2="effect1_dropShadow_224_14013" result="shape"/>
</filter>
</defs>
</svg>
