<svg width="29" height="26" viewBox="0 0 29 26" fill="none" xmlns="http://www.w3.org/2000/svg">
<path d="M10.0868 17.835V25H9.2368V19.735C9.2368 19.665 9.23846 19.59 9.2418 19.51C9.24846 19.43 9.25513 19.3483 9.2618 19.265L6.8018 23.745C6.72513 23.895 6.60846 23.97 6.4518 23.97H6.3118C6.15513 23.97 6.03846 23.895 5.9618 23.745L3.4518 19.245C3.4718 19.4217 3.4818 19.585 3.4818 19.735V25H2.6318V17.835H3.3468C3.43346 17.835 3.50013 17.8433 3.5468 17.86C3.59346 17.8767 3.63846 17.9233 3.6818 18L6.1568 22.41C6.1968 22.49 6.23513 22.5733 6.2718 22.66C6.3118 22.7467 6.34846 22.835 6.3818 22.925C6.41513 22.835 6.45013 22.7467 6.4868 22.66C6.52346 22.57 6.56346 22.485 6.6068 22.405L9.0368 18C9.0768 17.9233 9.12013 17.8767 9.1668 17.86C9.2168 17.8433 9.28513 17.835 9.3718 17.835H10.0868ZM14.9427 21.915C14.9427 21.7083 14.9127 21.52 14.8527 21.35C14.796 21.1767 14.711 21.0283 14.5977 20.905C14.4877 20.7783 14.3527 20.6817 14.1927 20.615C14.0327 20.545 13.851 20.51 13.6477 20.51C13.221 20.51 12.8827 20.635 12.6327 20.885C12.386 21.1317 12.2327 21.475 12.1727 21.915H14.9427ZM15.6627 24.29C15.5527 24.4233 15.421 24.54 15.2677 24.64C15.1143 24.7367 14.9493 24.8167 14.7727 24.88C14.5993 24.9433 14.4193 24.99 14.2327 25.02C14.046 25.0533 13.861 25.07 13.6777 25.07C13.3277 25.07 13.0043 25.0117 12.7077 24.895C12.4143 24.775 12.1593 24.6017 11.9427 24.375C11.7293 24.145 11.5627 23.8617 11.4427 23.525C11.3227 23.1883 11.2627 22.8017 11.2627 22.365C11.2627 22.0117 11.316 21.6817 11.4227 21.375C11.5327 21.0683 11.6893 20.8033 11.8927 20.58C12.096 20.3533 12.3443 20.1767 12.6377 20.05C12.931 19.92 13.261 19.855 13.6277 19.855C13.931 19.855 14.211 19.9067 14.4677 20.01C14.7277 20.11 14.951 20.2567 15.1377 20.45C15.3277 20.64 15.476 20.8767 15.5827 21.16C15.6893 21.44 15.7427 21.76 15.7427 22.12C15.7427 22.26 15.7277 22.3533 15.6977 22.4C15.6677 22.4467 15.611 22.47 15.5277 22.47H12.1427C12.1527 22.79 12.196 23.0683 12.2727 23.305C12.3527 23.5417 12.4627 23.74 12.6027 23.9C12.7427 24.0567 12.9093 24.175 13.1027 24.255C13.296 24.3317 13.5127 24.37 13.7527 24.37C13.976 24.37 14.1677 24.345 14.3277 24.295C14.491 24.2417 14.631 24.185 14.7477 24.125C14.8643 24.065 14.961 24.01 15.0377 23.96C15.1177 23.9067 15.186 23.88 15.2427 23.88C15.316 23.88 15.3727 23.9083 15.4127 23.965L15.6627 24.29ZM17.6759 20.67C17.7859 20.5467 17.9025 20.435 18.0259 20.335C18.1492 20.235 18.2792 20.15 18.4159 20.08C18.5559 20.0067 18.7025 19.9517 18.8559 19.915C19.0125 19.875 19.1809 19.855 19.3609 19.855C19.6375 19.855 19.8809 19.9017 20.0909 19.995C20.3042 20.085 20.4809 20.215 20.6209 20.385C20.7642 20.5517 20.8725 20.7533 20.9459 20.99C21.0192 21.2267 21.0559 21.4883 21.0559 21.775V25H20.1609V21.775C20.1609 21.3917 20.0725 21.095 19.8959 20.885C19.7225 20.6717 19.4575 20.565 19.1009 20.565C18.8375 20.565 18.5909 20.6283 18.3609 20.755C18.1342 20.8817 17.9242 21.0533 17.7309 21.27V25H16.8359V19.935H17.3709C17.4975 19.935 17.5759 19.9967 17.6059 20.12L17.6759 20.67ZM26.577 19.935V25H26.047C25.9204 25 25.8404 24.9383 25.807 24.815L25.737 24.27C25.517 24.5133 25.2704 24.71 24.997 24.86C24.7237 25.0067 24.4104 25.08 24.057 25.08C23.7804 25.08 23.5354 25.035 23.322 24.945C23.112 24.8517 22.9354 24.7217 22.792 24.555C22.6487 24.3883 22.5404 24.1867 22.467 23.95C22.397 23.7133 22.362 23.4517 22.362 23.165V19.935H23.252V23.165C23.252 23.5483 23.3387 23.845 23.512 24.055C23.6887 24.265 23.957 24.37 24.317 24.37C24.5804 24.37 24.8254 24.3083 25.052 24.185C25.282 24.0583 25.4937 23.885 25.687 23.665V19.935H26.577ZM25.952 17.755L24.787 19.045C24.7404 19.095 24.6937 19.1317 24.647 19.155C24.6037 19.175 24.547 19.185 24.477 19.185H23.947L24.687 17.975C24.7337 17.8983 24.7837 17.8433 24.837 17.81C24.8937 17.7733 24.9754 17.755 25.082 17.755H25.952Z" fill="#949494"/>
<line x1="4.5" y1="0.5" x2="23.5" y2="0.5" stroke="#949494" stroke-linecap="round"/>
<line x1="4.5" y1="6.15723" x2="23.5" y2="6.15723" stroke="#949494" stroke-linecap="round"/>
<line x1="4.5" y1="11.9351" x2="23.5" y2="11.9351" stroke="#949494" stroke-linecap="round"/>
</svg>
