<svg width="53" height="53" viewBox="0 0 53 53" fill="none" xmlns="http://www.w3.org/2000/svg">
<g filter="url(#filter0_d_224_13881)">
<rect x="4" width="45" height="45" rx="10" fill="white"/>
</g>
<path d="M18.883 32.65H16.563V39H15.598V32.65H13.273V31.835H18.883V32.65ZM21.3387 36.72C20.9287 36.7333 20.5787 36.7667 20.2887 36.82C20.002 36.87 19.767 36.9367 19.5837 37.02C19.4037 37.1033 19.272 37.2017 19.1887 37.315C19.1087 37.4283 19.0687 37.555 19.0687 37.695C19.0687 37.8283 19.0903 37.9433 19.1337 38.04C19.177 38.1367 19.2353 38.2167 19.3087 38.28C19.3853 38.34 19.4737 38.385 19.5737 38.415C19.677 38.4417 19.787 38.455 19.9037 38.455C20.0603 38.455 20.2037 38.44 20.3337 38.41C20.4637 38.3767 20.5853 38.33 20.6987 38.27C20.8153 38.21 20.9253 38.1383 21.0287 38.055C21.1353 37.9717 21.2387 37.8767 21.3387 37.77V36.72ZM18.4637 34.65C18.7437 34.38 19.0453 34.1783 19.3687 34.045C19.692 33.9117 20.0503 33.845 20.4437 33.845C20.727 33.845 20.9787 33.8917 21.1987 33.985C21.4187 34.0783 21.6037 34.2083 21.7537 34.375C21.9037 34.5417 22.017 34.7433 22.0937 34.98C22.1703 35.2167 22.2087 35.4767 22.2087 35.76V39H21.8137C21.727 39 21.6603 38.9867 21.6137 38.96C21.567 38.93 21.5303 38.8733 21.5037 38.79L21.4037 38.31C21.2703 38.4333 21.1403 38.5433 21.0137 38.64C20.887 38.7333 20.7537 38.8133 20.6137 38.88C20.4737 38.9433 20.3237 38.9917 20.1637 39.025C20.007 39.0617 19.832 39.08 19.6387 39.08C19.442 39.08 19.257 39.0533 19.0837 39C18.9103 38.9433 18.7587 38.86 18.6287 38.75C18.502 38.64 18.4003 38.5017 18.3237 38.335C18.2503 38.165 18.2137 37.965 18.2137 37.735C18.2137 37.535 18.2687 37.3433 18.3787 37.16C18.4887 36.9733 18.667 36.8083 18.9137 36.665C19.1603 36.5217 19.482 36.405 19.8787 36.315C20.2753 36.2217 20.762 36.1683 21.3387 36.155V35.76C21.3387 35.3667 21.2537 35.07 21.0837 34.87C20.9137 34.6667 20.6653 34.565 20.3387 34.565C20.1187 34.565 19.9337 34.5933 19.7837 34.65C19.637 34.7033 19.5087 34.765 19.3987 34.835C19.292 34.9017 19.1987 34.9633 19.1187 35.02C19.042 35.0733 18.9653 35.1 18.8887 35.1C18.8287 35.1 18.777 35.085 18.7337 35.055C18.6903 35.0217 18.6537 34.9817 18.6237 34.935L18.4637 34.65ZM24.4094 34.95C24.5694 34.6033 24.766 34.3333 24.9994 34.14C25.2327 33.9433 25.5177 33.845 25.8544 33.845C25.961 33.845 26.0627 33.8567 26.1594 33.88C26.2594 33.9033 26.3477 33.94 26.4244 33.99L26.3594 34.655C26.3394 34.7383 26.2894 34.78 26.2094 34.78C26.1627 34.78 26.0944 34.77 26.0044 34.75C25.9144 34.73 25.8127 34.72 25.6994 34.72C25.5394 34.72 25.396 34.7433 25.2694 34.79C25.146 34.8367 25.0344 34.9067 24.9344 35C24.8377 35.09 24.7494 35.2033 24.6694 35.34C24.5927 35.4733 24.5227 35.6267 24.4594 35.8V39H23.5644V33.935H24.0744C24.171 33.935 24.2377 33.9533 24.2744 33.99C24.311 34.0267 24.336 34.09 24.3494 34.18L24.4094 34.95ZM30.3919 35.915C30.3919 35.7083 30.3619 35.52 30.3019 35.35C30.2452 35.1767 30.1602 35.0283 30.0469 34.905C29.9369 34.7783 29.8019 34.6817 29.6419 34.615C29.4819 34.545 29.3002 34.51 29.0969 34.51C28.6702 34.51 28.3319 34.635 28.0819 34.885C27.8352 35.1317 27.6819 35.475 27.6219 35.915H30.3919ZM31.1119 38.29C31.0019 38.4233 30.8702 38.54 30.7169 38.64C30.5635 38.7367 30.3985 38.8167 30.2219 38.88C30.0485 38.9433 29.8685 38.99 29.6819 39.02C29.4952 39.0533 29.3102 39.07 29.1269 39.07C28.7769 39.07 28.4535 39.0117 28.1569 38.895C27.8635 38.775 27.6085 38.6017 27.3919 38.375C27.1785 38.145 27.0119 37.8617 26.8919 37.525C26.7719 37.1883 26.7119 36.8017 26.7119 36.365C26.7119 36.0117 26.7652 35.6817 26.8719 35.375C26.9819 35.0683 27.1385 34.8033 27.3419 34.58C27.5452 34.3533 27.7935 34.1767 28.0869 34.05C28.3802 33.92 28.7102 33.855 29.0769 33.855C29.3802 33.855 29.6602 33.9067 29.9169 34.01C30.1769 34.11 30.4002 34.2567 30.5869 34.45C30.7769 34.64 30.9252 34.8767 31.0319 35.16C31.1385 35.44 31.1919 35.76 31.1919 36.12C31.1919 36.26 31.1769 36.3533 31.1469 36.4C31.1169 36.4467 31.0602 36.47 30.9769 36.47H27.5919C27.6019 36.79 27.6452 37.0683 27.7219 37.305C27.8019 37.5417 27.9119 37.74 28.0519 37.9C28.1919 38.0567 28.3585 38.175 28.5519 38.255C28.7452 38.3317 28.9619 38.37 29.2019 38.37C29.4252 38.37 29.6169 38.345 29.7769 38.295C29.9402 38.2417 30.0802 38.185 30.1969 38.125C30.3135 38.065 30.4102 38.01 30.4869 37.96C30.5669 37.9067 30.6352 37.88 30.6919 37.88C30.7652 37.88 30.8219 37.9083 30.8619 37.965L31.1119 38.29ZM35.0301 36.72C34.6201 36.7333 34.2701 36.7667 33.9801 36.82C33.6934 36.87 33.4584 36.9367 33.2751 37.02C33.0951 37.1033 32.9634 37.2017 32.8801 37.315C32.8001 37.4283 32.7601 37.555 32.7601 37.695C32.7601 37.8283 32.7817 37.9433 32.8251 38.04C32.8684 38.1367 32.9267 38.2167 33.0001 38.28C33.0767 38.34 33.1651 38.385 33.2651 38.415C33.3684 38.4417 33.4784 38.455 33.5951 38.455C33.7517 38.455 33.8951 38.44 34.0251 38.41C34.1551 38.3767 34.2767 38.33 34.3901 38.27C34.5067 38.21 34.6167 38.1383 34.7201 38.055C34.8267 37.9717 34.9301 37.8767 35.0301 37.77V36.72ZM32.1551 34.65C32.4351 34.38 32.7367 34.1783 33.0601 34.045C33.3834 33.9117 33.7417 33.845 34.1351 33.845C34.4184 33.845 34.6701 33.8917 34.8901 33.985C35.1101 34.0783 35.2951 34.2083 35.4451 34.375C35.5951 34.5417 35.7084 34.7433 35.7851 34.98C35.8617 35.2167 35.9001 35.4767 35.9001 35.76V39H35.5051C35.4184 39 35.3517 38.9867 35.3051 38.96C35.2584 38.93 35.2217 38.8733 35.1951 38.79L35.0951 38.31C34.9617 38.4333 34.8317 38.5433 34.7051 38.64C34.5784 38.7333 34.4451 38.8133 34.3051 38.88C34.1651 38.9433 34.0151 38.9917 33.8551 39.025C33.6984 39.0617 33.5234 39.08 33.3301 39.08C33.1334 39.08 32.9484 39.0533 32.7751 39C32.6017 38.9433 32.4501 38.86 32.3201 38.75C32.1934 38.64 32.0917 38.5017 32.0151 38.335C31.9417 38.165 31.9051 37.965 31.9051 37.735C31.9051 37.535 31.9601 37.3433 32.0701 37.16C32.1801 36.9733 32.3584 36.8083 32.6051 36.665C32.8517 36.5217 33.1734 36.405 33.5701 36.315C33.9667 36.2217 34.4534 36.1683 35.0301 36.155V35.76C35.0301 35.3667 34.9451 35.07 34.7751 34.87C34.6051 34.6667 34.3567 34.565 34.0301 34.565C33.8101 34.565 33.6251 34.5933 33.4751 34.65C33.3284 34.7033 33.2001 34.765 33.0901 34.835C32.9834 34.9017 32.8901 34.9633 32.8101 35.02C32.7334 35.0733 32.6567 35.1 32.5801 35.1C32.5201 35.1 32.4684 35.085 32.4251 35.055C32.3817 35.0217 32.3451 34.9817 32.3151 34.935L32.1551 34.65ZM40.2058 34.77C40.1658 34.8433 40.1041 34.88 40.0208 34.88C39.9708 34.88 39.9141 34.8617 39.8508 34.825C39.7874 34.7883 39.7091 34.7483 39.6158 34.705C39.5258 34.6583 39.4174 34.6167 39.2908 34.58C39.1641 34.54 39.0141 34.52 38.8408 34.52C38.6908 34.52 38.5558 34.54 38.4358 34.58C38.3158 34.6167 38.2124 34.6683 38.1258 34.735C38.0424 34.8017 37.9774 34.88 37.9308 34.97C37.8874 35.0567 37.8658 35.1517 37.8658 35.255C37.8658 35.385 37.9024 35.4933 37.9758 35.58C38.0524 35.6667 38.1524 35.7417 38.2758 35.805C38.3991 35.8683 38.5391 35.925 38.6958 35.975C38.8524 36.0217 39.0124 36.0733 39.1758 36.13C39.3424 36.1833 39.5041 36.2433 39.6608 36.31C39.8174 36.3767 39.9574 36.46 40.0808 36.56C40.2041 36.66 40.3024 36.7833 40.3758 36.93C40.4524 37.0733 40.4908 37.2467 40.4908 37.45C40.4908 37.6833 40.4491 37.9 40.3658 38.1C40.2824 38.2967 40.1591 38.4683 39.9958 38.615C39.8324 38.7583 39.6324 38.8717 39.3958 38.955C39.1591 39.0383 38.8858 39.08 38.5758 39.08C38.2224 39.08 37.9024 39.0233 37.6158 38.91C37.3291 38.7933 37.0858 38.645 36.8858 38.465L37.0958 38.125C37.1224 38.0817 37.1541 38.0483 37.1908 38.025C37.2274 38.0017 37.2741 37.99 37.3308 37.99C37.3908 37.99 37.4541 38.0133 37.5208 38.06C37.5874 38.1067 37.6674 38.1583 37.7608 38.215C37.8574 38.2717 37.9741 38.3233 38.1108 38.37C38.2474 38.4167 38.4174 38.44 38.6208 38.44C38.7941 38.44 38.9458 38.4183 39.0758 38.375C39.2058 38.3283 39.3141 38.2667 39.4008 38.19C39.4874 38.1133 39.5508 38.025 39.5908 37.925C39.6341 37.825 39.6558 37.7183 39.6558 37.605C39.6558 37.465 39.6174 37.35 39.5408 37.26C39.4674 37.1667 39.3691 37.0883 39.2458 37.025C39.1224 36.9583 38.9808 36.9017 38.8208 36.855C38.6641 36.805 38.5024 36.7533 38.3358 36.7C38.1724 36.6467 38.0108 36.5867 37.8508 36.52C37.6941 36.45 37.5541 36.3633 37.4308 36.26C37.3074 36.1567 37.2074 36.03 37.1308 35.88C37.0574 35.7267 37.0208 35.5417 37.0208 35.325C37.0208 35.1317 37.0608 34.9467 37.1408 34.77C37.2208 34.59 37.3374 34.4333 37.4908 34.3C37.6441 34.1633 37.8324 34.055 38.0558 33.975C38.2791 33.895 38.5341 33.855 38.8208 33.855C39.1541 33.855 39.4524 33.9083 39.7158 34.015C39.9824 34.1183 40.2124 34.2617 40.4058 34.445L40.2058 34.77Z" fill="#844F92"/>
<path d="M26.8295 5.0023C27.0247 5.10045 27.2376 5.17449 27.4121 5.30191C27.5574 5.4079 27.6775 5.54475 27.7636 5.70265C27.8497 5.86054 27.8998 6.03555 27.9103 6.21511C27.9356 6.5021 27.9717 6.53711 28.2696 6.53826C28.4275 6.53826 28.5847 6.53482 28.7426 6.53826C29.3418 6.55605 29.7579 6.84936 29.9858 7.39923C30.0432 7.53124 30.104 7.56568 30.2355 7.56511C31.2239 7.56052 32.2117 7.56166 33.2001 7.56511C33.9922 7.56511 34.3899 7.96402 34.3899 8.75209C34.3899 9.54017 34.3957 10.342 34.3836 11.1364C34.3792 11.2608 34.328 11.3789 34.2401 11.467C34.1747 11.5244 34.0077 11.5324 33.9302 11.4871C33.8822 11.4544 33.8418 11.412 33.8115 11.3625C33.7812 11.313 33.7618 11.2577 33.7545 11.2001C33.7333 10.8362 33.7459 10.47 33.7459 10.105C33.7459 9.62511 33.7459 9.14527 33.7459 8.66542C33.7459 8.35892 33.6088 8.22002 33.3034 8.20968C33.1622 8.20509 33.0204 8.20968 32.8528 8.20968V12.9542C32.8554 13.0258 32.8537 13.0975 32.8477 13.1689C32.8439 13.2454 32.8106 13.3176 32.7547 13.3701C32.6988 13.4225 32.6247 13.4512 32.548 13.4501C32.4754 13.458 32.4025 13.4383 32.3437 13.3951C32.2848 13.3518 32.2443 13.2881 32.2301 13.2165C32.2125 13.1328 32.2055 13.0471 32.2094 12.9616C32.2094 11.4651 32.2094 9.96854 32.2094 8.47199V8.22116H30.1046C30.0897 8.34744 30.0845 8.47544 30.0581 8.59827C30.0246 8.76438 29.938 8.9151 29.8114 9.02773C29.6848 9.14036 29.525 9.20881 29.3562 9.22276C29.2637 9.23137 29.1702 9.23137 29.0772 9.23137H23.4057C22.589 9.23137 22.3846 9.05056 22.2916 8.22576H20.1754V24.288C20.1754 24.6031 20.1909 24.6191 20.4991 24.6191C21.9025 24.6191 23.3059 24.6191 24.7092 24.6232C24.8659 24.6232 24.9595 24.5853 25.0209 24.4355C25.6138 23.0005 26.519 21.7688 27.497 20.5703C29.8463 17.6912 32.1526 14.7777 34.4732 11.8786C34.8273 11.4366 35.2767 11.2386 35.8375 11.366C36.3472 11.4808 36.6818 11.8102 36.8133 12.3182C36.9281 12.7728 36.8081 13.1752 36.5137 13.5402C35.5651 14.715 34.6199 15.8931 33.6782 17.0748C31.8487 19.3581 30.017 21.6415 28.1829 23.9252C27.9838 24.172 27.7174 24.3643 27.4637 24.5985C27.5169 24.6078 27.5706 24.6142 27.6245 24.6174C29.0563 24.6174 30.4884 24.6174 31.9207 24.6174C32.1899 24.6174 32.2077 24.5979 32.2077 24.3184V19.8723C32.2077 19.8149 32.2077 19.7575 32.2077 19.7001C32.2209 19.4809 32.346 19.3489 32.5354 19.3506C32.7248 19.3523 32.8477 19.4855 32.8494 19.707C32.8534 20.1295 32.8494 20.5519 32.8494 20.9744V24.3258C32.8494 24.9756 32.5589 25.262 31.9017 25.262C30.2188 25.262 28.5365 25.262 26.8507 25.2586C26.7695 25.2546 26.6883 25.2669 26.6119 25.2946C26.5354 25.3223 26.4652 25.3648 26.4053 25.4198C26.2676 25.5452 26.1223 25.6619 25.9703 25.7694C25.5426 26.0696 24.9865 25.9054 24.8057 25.4164C24.7529 25.2746 24.6765 25.2603 24.552 25.2603C23.1916 25.263 21.8311 25.263 20.4704 25.2603C19.8224 25.2603 19.5262 24.9635 19.5262 24.3149C19.5262 19.0447 19.5262 13.7746 19.5262 8.50471V8.24355C19.4923 8.22576 19.4809 8.21485 19.4688 8.21428C18.7473 8.17467 18.6342 8.22289 18.6354 8.98628C18.6438 14.5787 18.6457 20.1712 18.6411 25.7637C18.6411 25.8784 18.6216 26.0151 18.6767 26.0989C18.7467 26.2062 18.877 26.2814 18.9941 26.3474C19.0515 26.3784 19.1348 26.3554 19.2059 26.3554H33.1737C33.6375 26.3554 33.7477 26.2492 33.7477 25.7906C33.7477 23.163 33.7477 20.5351 33.7477 17.907C33.7477 17.8215 33.7281 17.7084 33.7729 17.6574C33.8544 17.5655 33.9715 17.4685 34.0857 17.4507C34.2407 17.4266 34.3486 17.546 34.3825 17.7033C34.3928 17.7741 34.3957 17.8459 34.3911 17.9174C34.3911 20.5577 34.3911 23.1999 34.3911 25.844C34.3911 26.5902 33.9784 27 33.2345 27H19.1623C18.4161 27 18.0011 26.593 18.0006 25.852C18.0002 20.1368 18 14.4218 18 8.70732C18 7.97206 18.4092 7.56453 19.148 7.56224C20.1429 7.55918 21.1377 7.55918 22.1326 7.56224C22.2796 7.56224 22.3513 7.52608 22.4133 7.37856C22.6354 6.84821 23.0447 6.56179 23.6244 6.53826C23.8247 6.53023 24.0262 6.53826 24.2259 6.53482C24.3534 6.53482 24.4555 6.4866 24.4664 6.34368C24.506 5.61645 24.9107 5.19573 25.5851 5L26.8295 5.0023ZM34.693 14.7835L33.6461 13.9477L26.7468 22.5522L27.7938 23.3891L34.693 14.7835ZM26.1895 8.58449C27.1775 8.58449 28.1653 8.58449 29.153 8.58449C29.4044 8.58449 29.44 8.54604 29.4445 8.30095C29.4445 8.16491 29.4491 8.02888 29.4445 7.89285C29.4222 7.4704 29.1403 7.19317 28.7133 7.18341C28.5555 7.17997 28.3982 7.18341 28.2409 7.18341C27.6365 7.18054 27.334 6.90561 27.2703 6.30121C27.229 5.90459 26.9575 5.65376 26.5569 5.64802C26.3135 5.64458 26.0701 5.644 25.8268 5.64802C25.4221 5.65491 25.138 5.92468 25.1127 6.32761C25.0743 6.86371 24.7483 7.17365 24.2087 7.18284C24.0084 7.18628 23.8069 7.1771 23.6072 7.18743C23.4376 7.19512 23.277 7.26591 23.1569 7.3859C23.0368 7.50589 22.9659 7.66643 22.958 7.83602C22.9506 7.97206 22.9546 8.10809 22.9546 8.24412C22.9546 8.57129 22.9689 8.58851 23.2886 8.58851L26.1895 8.58449ZM35.0965 14.2784C35.438 13.8513 35.7709 13.4495 36.086 13.0351C36.1874 12.8986 36.2325 12.7285 36.2122 12.5597C36.192 12.3909 36.1078 12.2363 35.977 12.1277C35.7066 11.9021 35.2985 11.9124 35.0672 12.1851C34.7194 12.5914 34.3928 13.0162 34.0496 13.4426L35.0965 14.2784ZM26.4294 23.1176C26.4013 23.1377 26.3852 23.1429 26.3795 23.1543C26.0661 23.7794 25.7516 24.4039 25.4456 25.033C25.4187 25.0904 25.452 25.1725 25.4577 25.2431C25.5271 25.227 25.6132 25.2316 25.6632 25.1914C26.2056 24.7598 26.7423 24.3207 27.2795 23.8827C27.2927 23.8712 27.2961 23.8477 27.3088 23.8207L26.4294 23.1176Z" fill="#844F92"/>
<path d="M28.217 11.7178C27.48 11.7178 26.7436 11.7235 26.0071 11.7109C25.8832 11.7058 25.7656 11.6544 25.6777 11.5669C25.5399 11.4125 25.6329 11.1651 25.8349 11.1025C25.9249 11.0795 26.0177 11.0701 26.1105 11.0744C27.5121 11.0744 28.9138 11.0744 30.3154 11.0744C30.3728 11.0723 30.4303 11.0735 30.4876 11.0778C30.6856 11.0985 30.8188 11.2351 30.8131 11.409C30.8073 11.5829 30.6753 11.7155 30.4687 11.7167C29.7173 11.7207 28.9666 11.7167 28.2158 11.7167L28.217 11.7178Z" fill="#844F92"/>
<path d="M28.2117 12.5105H30.3354C30.4071 12.5105 30.4984 12.4887 30.5454 12.5237C30.6453 12.5983 30.7808 12.6959 30.7911 12.7981C30.8014 12.9002 30.6953 13.034 30.6057 13.1155C30.5483 13.1654 30.4289 13.1534 30.3371 13.1534C28.9213 13.1556 27.5055 13.1556 26.0897 13.1534C26.0184 13.1566 25.947 13.1519 25.8767 13.1396C25.6988 13.0983 25.6064 12.9812 25.623 12.7952C25.6385 12.623 25.7435 12.5266 25.9169 12.5082C25.9806 12.5025 26.0455 12.5042 26.1097 12.5042L28.2117 12.5105Z" fill="#844F92"/>
<path d="M28.2169 15.6816C28.9249 15.6816 29.6328 15.6816 30.3407 15.6816C30.412 15.6788 30.4835 15.6827 30.5542 15.6931C30.7178 15.7253 30.824 15.8452 30.7976 15.9945C30.7775 16.1064 30.6724 16.2183 30.5771 16.2964C30.5226 16.3412 30.4124 16.3245 30.3275 16.3245C28.9189 16.3245 27.5102 16.3245 26.1013 16.3245C26.0299 16.3264 25.9584 16.3221 25.8877 16.3119C25.7064 16.2803 25.6111 16.1667 25.6191 15.983C25.6272 15.7993 25.7282 15.7086 25.9004 15.6868C25.9645 15.6807 26.0289 15.6786 26.0932 15.6805L28.2169 15.6816Z" fill="#844F92"/>
<path d="M22.7779 21.8561L23.3381 21.06C23.4856 20.8493 23.6297 20.6364 23.7806 20.4286C23.9115 20.2478 24.086 20.2082 24.2427 20.3138C24.3994 20.4194 24.435 20.6071 24.3133 20.7844C23.9689 21.285 23.6245 21.7849 23.2698 22.2768C23.2238 22.3457 23.1635 22.404 23.093 22.4475C23.0225 22.4911 22.9434 22.5189 22.8611 22.5292C22.7789 22.5394 22.6954 22.5318 22.6164 22.5069C22.5373 22.4819 22.4646 22.4403 22.4031 22.3847C22.1672 22.1884 21.9399 21.9829 21.7143 21.7734C21.5565 21.6276 21.5421 21.4371 21.6621 21.2999C21.782 21.1627 21.9755 21.1552 22.1391 21.2947C22.3503 21.4755 22.5563 21.6603 22.7779 21.8561Z" fill="#844F92"/>
<path d="M22.7796 17.2131C23.0793 16.7843 23.3726 16.3642 23.667 15.944C23.7118 15.8797 23.7537 15.8132 23.8036 15.7523C23.9253 15.6037 24.0952 15.5721 24.2398 15.6674C24.2766 15.6901 24.3083 15.7202 24.3328 15.7558C24.3574 15.7914 24.3743 15.8317 24.3825 15.8741C24.3907 15.9165 24.39 15.9602 24.3804 16.0024C24.3709 16.0446 24.3527 16.0843 24.3271 16.1191C24.1009 16.4577 23.8633 16.7883 23.6303 17.1218C23.5155 17.286 23.4041 17.4524 23.2859 17.6131C23.0563 17.9271 22.6844 17.9759 22.3893 17.7279C22.1597 17.5345 21.937 17.3336 21.7161 17.131C21.5571 16.9852 21.5398 16.7952 21.6587 16.6569C21.7775 16.5186 21.9726 16.5105 22.1356 16.6489C22.3492 16.8262 22.5552 17.0151 22.7796 17.2131Z" fill="#844F92"/>
<path d="M22.7782 12.5064L23.6765 11.2236C23.7138 11.1708 23.7482 11.1162 23.7878 11.0657C23.9216 10.8935 24.1041 10.8603 24.2562 10.9716C24.3997 11.0766 24.4284 11.2586 24.3136 11.4308C24.1305 11.704 23.9376 11.9709 23.7488 12.2407C23.5932 12.4634 23.4429 12.6901 23.2804 12.9082C23.0508 13.2216 22.6823 13.2675 22.3839 13.0167C22.1543 12.8238 21.931 12.6218 21.7106 12.4175C21.5527 12.2711 21.5384 12.0794 21.6658 11.9434C21.7932 11.8073 21.9723 11.7987 22.1428 11.9434C22.3494 12.1196 22.5497 12.3038 22.7782 12.5064Z" fill="#844F92"/>
<path d="M27.0879 17.1132C27.4455 17.1132 27.8025 17.1103 28.1601 17.1132C28.3925 17.1161 28.5366 17.2441 28.5343 17.4352C28.532 17.6264 28.3851 17.7549 28.1543 17.7555C27.4323 17.7586 26.7102 17.7586 25.9881 17.7555C25.7534 17.7555 25.6185 17.6286 25.6196 17.4301C25.6208 17.2315 25.7528 17.1155 25.9939 17.1132C26.3589 17.1132 26.7245 17.1132 27.0879 17.1132Z" fill="#844F92"/>
<defs>
<filter id="filter0_d_224_13881" x="0" y="0" width="53" height="53" filterUnits="userSpaceOnUse" color-interpolation-filters="sRGB">
<feFlood flood-opacity="0" result="BackgroundImageFix"/>
<feColorMatrix in="SourceAlpha" type="matrix" values="0 0 0 0 0 0 0 0 0 0 0 0 0 0 0 0 0 0 127 0" result="hardAlpha"/>
<feOffset dy="4"/>
<feGaussianBlur stdDeviation="2"/>
<feComposite in2="hardAlpha" operator="out"/>
<feColorMatrix type="matrix" values="0 0 0 0 0 0 0 0 0 0 0 0 0 0 0 0 0 0 0.25 0"/>
<feBlend mode="normal" in2="BackgroundImageFix" result="effect1_dropShadow_224_13881"/>
<feBlend mode="normal" in="SourceGraphic" in2="effect1_dropShadow_224_13881" result="shape"/>
</filter>
</defs>
</svg>
