<svg width="29" height="35" viewBox="0 0 29 35" fill="none" xmlns="http://www.w3.org/2000/svg">
<path d="M6.38305 27.65H4.06305V34H3.09805V27.65H0.773047V26.835H6.38305V27.65ZM8.83867 31.72C8.42867 31.7333 8.07867 31.7667 7.78867 31.82C7.50201 31.87 7.26701 31.9367 7.08367 32.02C6.90367 32.1033 6.77201 32.2017 6.68867 32.315C6.60867 32.4283 6.56867 32.555 6.56867 32.695C6.56867 32.8283 6.59034 32.9433 6.63367 33.04C6.67701 33.1367 6.73534 33.2167 6.80867 33.28C6.88534 33.34 6.97367 33.385 7.07367 33.415C7.17701 33.4417 7.28701 33.455 7.40367 33.455C7.56034 33.455 7.70367 33.44 7.83367 33.41C7.96367 33.3767 8.08534 33.33 8.19867 33.27C8.31534 33.21 8.42534 33.1383 8.52867 33.055C8.63534 32.9717 8.73867 32.8767 8.83867 32.77V31.72ZM5.96367 29.65C6.24367 29.38 6.54534 29.1783 6.86867 29.045C7.19201 28.9117 7.55034 28.845 7.94367 28.845C8.22701 28.845 8.47867 28.8917 8.69867 28.985C8.91867 29.0783 9.10367 29.2083 9.25367 29.375C9.40367 29.5417 9.51701 29.7433 9.59367 29.98C9.67034 30.2167 9.70867 30.4767 9.70867 30.76V34H9.31367C9.22701 34 9.16034 33.9867 9.11367 33.96C9.06701 33.93 9.03034 33.8733 9.00367 33.79L8.90367 33.31C8.77034 33.4333 8.64034 33.5433 8.51367 33.64C8.38701 33.7333 8.25367 33.8133 8.11367 33.88C7.97367 33.9433 7.82367 33.9917 7.66367 34.025C7.50701 34.0617 7.33201 34.08 7.13867 34.08C6.94201 34.08 6.75701 34.0533 6.58367 34C6.41034 33.9433 6.25867 33.86 6.12867 33.75C6.00201 33.64 5.90034 33.5017 5.82367 33.335C5.75034 33.165 5.71367 32.965 5.71367 32.735C5.71367 32.535 5.76867 32.3433 5.87867 32.16C5.98867 31.9733 6.16701 31.8083 6.41367 31.665C6.66034 31.5217 6.98201 31.405 7.37867 31.315C7.77534 31.2217 8.26201 31.1683 8.83867 31.155V30.76C8.83867 30.3667 8.75367 30.07 8.58367 29.87C8.41367 29.6667 8.16534 29.565 7.83867 29.565C7.61867 29.565 7.43367 29.5933 7.28367 29.65C7.13701 29.7033 7.00867 29.765 6.89867 29.835C6.79201 29.9017 6.69867 29.9633 6.61867 30.02C6.54201 30.0733 6.46534 30.1 6.38867 30.1C6.32867 30.1 6.27701 30.085 6.23367 30.055C6.19034 30.0217 6.15367 29.9817 6.12367 29.935L5.96367 29.65ZM11.9094 29.95C12.0694 29.6033 12.266 29.3333 12.4994 29.14C12.7327 28.9433 13.0177 28.845 13.3544 28.845C13.461 28.845 13.5627 28.8567 13.6594 28.88C13.7594 28.9033 13.8477 28.94 13.9244 28.99L13.8594 29.655C13.8394 29.7383 13.7894 29.78 13.7094 29.78C13.6627 29.78 13.5944 29.77 13.5044 29.75C13.4144 29.73 13.3127 29.72 13.1994 29.72C13.0394 29.72 12.896 29.7433 12.7694 29.79C12.646 29.8367 12.5344 29.9067 12.4344 30C12.3377 30.09 12.2494 30.2033 12.1694 30.34C12.0927 30.4733 12.0227 30.6267 11.9594 30.8V34H11.0644V28.935H11.5744C11.671 28.935 11.7377 28.9533 11.7744 28.99C11.811 29.0267 11.836 29.09 11.8494 29.18L11.9094 29.95ZM17.8919 30.915C17.8919 30.7083 17.8619 30.52 17.8019 30.35C17.7452 30.1767 17.6602 30.0283 17.5469 29.905C17.4369 29.7783 17.3019 29.6817 17.1419 29.615C16.9819 29.545 16.8002 29.51 16.5969 29.51C16.1702 29.51 15.8319 29.635 15.5819 29.885C15.3352 30.1317 15.1819 30.475 15.1219 30.915H17.8919ZM18.6119 33.29C18.5019 33.4233 18.3702 33.54 18.2169 33.64C18.0635 33.7367 17.8985 33.8167 17.7219 33.88C17.5485 33.9433 17.3685 33.99 17.1819 34.02C16.9952 34.0533 16.8102 34.07 16.6269 34.07C16.2769 34.07 15.9535 34.0117 15.6569 33.895C15.3635 33.775 15.1085 33.6017 14.8919 33.375C14.6785 33.145 14.5119 32.8617 14.3919 32.525C14.2719 32.1883 14.2119 31.8017 14.2119 31.365C14.2119 31.0117 14.2652 30.6817 14.3719 30.375C14.4819 30.0683 14.6385 29.8033 14.8419 29.58C15.0452 29.3533 15.2935 29.1767 15.5869 29.05C15.8802 28.92 16.2102 28.855 16.5769 28.855C16.8802 28.855 17.1602 28.9067 17.4169 29.01C17.6769 29.11 17.9002 29.2567 18.0869 29.45C18.2769 29.64 18.4252 29.8767 18.5319 30.16C18.6385 30.44 18.6919 30.76 18.6919 31.12C18.6919 31.26 18.6769 31.3533 18.6469 31.4C18.6169 31.4467 18.5602 31.47 18.4769 31.47H15.0919C15.1019 31.79 15.1452 32.0683 15.2219 32.305C15.3019 32.5417 15.4119 32.74 15.5519 32.9C15.6919 33.0567 15.8585 33.175 16.0519 33.255C16.2452 33.3317 16.4619 33.37 16.7019 33.37C16.9252 33.37 17.1169 33.345 17.2769 33.295C17.4402 33.2417 17.5802 33.185 17.6969 33.125C17.8135 33.065 17.9102 33.01 17.9869 32.96C18.0669 32.9067 18.1352 32.88 18.1919 32.88C18.2652 32.88 18.3219 32.9083 18.3619 32.965L18.6119 33.29ZM22.5301 31.72C22.1201 31.7333 21.7701 31.7667 21.4801 31.82C21.1934 31.87 20.9584 31.9367 20.7751 32.02C20.5951 32.1033 20.4634 32.2017 20.3801 32.315C20.3001 32.4283 20.2601 32.555 20.2601 32.695C20.2601 32.8283 20.2817 32.9433 20.3251 33.04C20.3684 33.1367 20.4267 33.2167 20.5001 33.28C20.5767 33.34 20.6651 33.385 20.7651 33.415C20.8684 33.4417 20.9784 33.455 21.0951 33.455C21.2517 33.455 21.3951 33.44 21.5251 33.41C21.6551 33.3767 21.7767 33.33 21.8901 33.27C22.0067 33.21 22.1167 33.1383 22.2201 33.055C22.3267 32.9717 22.4301 32.8767 22.5301 32.77V31.72ZM19.6551 29.65C19.9351 29.38 20.2367 29.1783 20.5601 29.045C20.8834 28.9117 21.2417 28.845 21.6351 28.845C21.9184 28.845 22.1701 28.8917 22.3901 28.985C22.6101 29.0783 22.7951 29.2083 22.9451 29.375C23.0951 29.5417 23.2084 29.7433 23.2851 29.98C23.3617 30.2167 23.4001 30.4767 23.4001 30.76V34H23.0051C22.9184 34 22.8517 33.9867 22.8051 33.96C22.7584 33.93 22.7217 33.8733 22.6951 33.79L22.5951 33.31C22.4617 33.4333 22.3317 33.5433 22.2051 33.64C22.0784 33.7333 21.9451 33.8133 21.8051 33.88C21.6651 33.9433 21.5151 33.9917 21.3551 34.025C21.1984 34.0617 21.0234 34.08 20.8301 34.08C20.6334 34.08 20.4484 34.0533 20.2751 34C20.1017 33.9433 19.9501 33.86 19.8201 33.75C19.6934 33.64 19.5917 33.5017 19.5151 33.335C19.4417 33.165 19.4051 32.965 19.4051 32.735C19.4051 32.535 19.4601 32.3433 19.5701 32.16C19.6801 31.9733 19.8584 31.8083 20.1051 31.665C20.3517 31.5217 20.6734 31.405 21.0701 31.315C21.4667 31.2217 21.9534 31.1683 22.5301 31.155V30.76C22.5301 30.3667 22.4451 30.07 22.2751 29.87C22.1051 29.6667 21.8567 29.565 21.5301 29.565C21.3101 29.565 21.1251 29.5933 20.9751 29.65C20.8284 29.7033 20.7001 29.765 20.5901 29.835C20.4834 29.9017 20.3901 29.9633 20.3101 30.02C20.2334 30.0733 20.1567 30.1 20.0801 30.1C20.0201 30.1 19.9684 30.085 19.9251 30.055C19.8817 30.0217 19.8451 29.9817 19.8151 29.935L19.6551 29.65ZM27.7058 29.77C27.6658 29.8433 27.6041 29.88 27.5208 29.88C27.4708 29.88 27.4141 29.8617 27.3508 29.825C27.2874 29.7883 27.2091 29.7483 27.1158 29.705C27.0258 29.6583 26.9174 29.6167 26.7908 29.58C26.6641 29.54 26.5141 29.52 26.3408 29.52C26.1908 29.52 26.0558 29.54 25.9358 29.58C25.8158 29.6167 25.7124 29.6683 25.6258 29.735C25.5424 29.8017 25.4774 29.88 25.4308 29.97C25.3874 30.0567 25.3658 30.1517 25.3658 30.255C25.3658 30.385 25.4024 30.4933 25.4758 30.58C25.5524 30.6667 25.6524 30.7417 25.7758 30.805C25.8991 30.8683 26.0391 30.925 26.1958 30.975C26.3524 31.0217 26.5124 31.0733 26.6758 31.13C26.8424 31.1833 27.0041 31.2433 27.1608 31.31C27.3174 31.3767 27.4574 31.46 27.5808 31.56C27.7041 31.66 27.8024 31.7833 27.8758 31.93C27.9524 32.0733 27.9908 32.2467 27.9908 32.45C27.9908 32.6833 27.9491 32.9 27.8658 33.1C27.7824 33.2967 27.6591 33.4683 27.4958 33.615C27.3324 33.7583 27.1324 33.8717 26.8958 33.955C26.6591 34.0383 26.3858 34.08 26.0758 34.08C25.7224 34.08 25.4024 34.0233 25.1158 33.91C24.8291 33.7933 24.5858 33.645 24.3858 33.465L24.5958 33.125C24.6224 33.0817 24.6541 33.0483 24.6908 33.025C24.7274 33.0017 24.7741 32.99 24.8308 32.99C24.8908 32.99 24.9541 33.0133 25.0208 33.06C25.0874 33.1067 25.1674 33.1583 25.2608 33.215C25.3574 33.2717 25.4741 33.3233 25.6108 33.37C25.7474 33.4167 25.9174 33.44 26.1208 33.44C26.2941 33.44 26.4458 33.4183 26.5758 33.375C26.7058 33.3283 26.8141 33.2667 26.9008 33.19C26.9874 33.1133 27.0508 33.025 27.0908 32.925C27.1341 32.825 27.1558 32.7183 27.1558 32.605C27.1558 32.465 27.1174 32.35 27.0408 32.26C26.9674 32.1667 26.8691 32.0883 26.7458 32.025C26.6224 31.9583 26.4808 31.9017 26.3208 31.855C26.1641 31.805 26.0024 31.7533 25.8358 31.7C25.6724 31.6467 25.5108 31.5867 25.3508 31.52C25.1941 31.45 25.0541 31.3633 24.9308 31.26C24.8074 31.1567 24.7074 31.03 24.6308 30.88C24.5574 30.7267 24.5208 30.5417 24.5208 30.325C24.5208 30.1317 24.5608 29.9467 24.6408 29.77C24.7208 29.59 24.8374 29.4333 24.9908 29.3C25.1441 29.1633 25.3324 29.055 25.5558 28.975C25.7791 28.895 26.0341 28.855 26.3208 28.855C26.6541 28.855 26.9524 28.9083 27.2158 29.015C27.4824 29.1183 27.7124 29.2617 27.9058 29.445L27.7058 29.77Z" fill="#06192B"/>
<rect x="1" width="27" height="17" rx="5" fill="#06192B"/>
<path d="M5.49995 4.78237C5.50435 5.17136 5.15206 5.49253 4.71317 5.49694C4.3597 5.50075 4.00448 5.16578 4.00007 4.82435C3.9942 4.35669 4.30803 4.00821 4.74223 3.99999C5.16557 3.99207 5.49467 4.33203 5.49995 4.78237Z" fill="white"/>
<path d="M5.49795 8.7463C5.53903 9.11196 5.15576 9.50609 4.80741 9.49993C4.34842 9.492 4.00682 9.18151 4.00007 8.75187C3.9942 8.34835 4.34666 8 4.75488 8C5.21035 8.00411 5.53346 8.4314 5.49795 8.7463Z" fill="white"/>
<path d="M5.50029 12.7504C5.54174 13.0855 5.18666 13.5018 4.81599 13.5C4.35127 13.4973 3.99853 13.1758 4 12.7457C4.00328 12.5484 4.08338 12.3601 4.22329 12.2208C4.3632 12.0816 4.55189 12.0023 4.74927 12C4.94818 12.0005 5.13881 12.0798 5.27952 12.2204C5.42023 12.361 5.4996 12.5515 5.50029 12.7504V12.7504Z" fill="white"/>
<line x1="8.5" y1="4.5" x2="21.5" y2="4.5" stroke="white" stroke-linecap="round"/>
<line x1="8.5" y1="8.5" x2="22.5" y2="8.5" stroke="white" stroke-linecap="round"/>
<line x1="8.5" y1="12.5" x2="17.5" y2="12.5" stroke="white" stroke-linecap="round"/>
</svg>
