<svg width="29" height="31" viewBox="0 0 29 31" fill="none" xmlns="http://www.w3.org/2000/svg">
<path d="M6.38305 23.65H4.06305V30H3.09805V23.65H0.773047V22.835H6.38305V23.65ZM8.83867 27.72C8.42867 27.7333 8.07867 27.7667 7.78867 27.82C7.50201 27.87 7.26701 27.9367 7.08367 28.02C6.90367 28.1033 6.77201 28.2017 6.68867 28.315C6.60867 28.4283 6.56867 28.555 6.56867 28.695C6.56867 28.8283 6.59034 28.9433 6.63367 29.04C6.67701 29.1367 6.73534 29.2167 6.80867 29.28C6.88534 29.34 6.97367 29.385 7.07367 29.415C7.17701 29.4417 7.28701 29.455 7.40367 29.455C7.56034 29.455 7.70367 29.44 7.83367 29.41C7.96367 29.3767 8.08534 29.33 8.19867 29.27C8.31534 29.21 8.42534 29.1383 8.52867 29.055C8.63534 28.9717 8.73867 28.8767 8.83867 28.77V27.72ZM5.96367 25.65C6.24367 25.38 6.54534 25.1783 6.86867 25.045C7.19201 24.9117 7.55034 24.845 7.94367 24.845C8.22701 24.845 8.47867 24.8917 8.69867 24.985C8.91867 25.0783 9.10367 25.2083 9.25367 25.375C9.40367 25.5417 9.51701 25.7433 9.59367 25.98C9.67034 26.2167 9.70867 26.4767 9.70867 26.76V30H9.31367C9.22701 30 9.16034 29.9867 9.11367 29.96C9.06701 29.93 9.03034 29.8733 9.00367 29.79L8.90367 29.31C8.77034 29.4333 8.64034 29.5433 8.51367 29.64C8.38701 29.7333 8.25367 29.8133 8.11367 29.88C7.97367 29.9433 7.82367 29.9917 7.66367 30.025C7.50701 30.0617 7.33201 30.08 7.13867 30.08C6.94201 30.08 6.75701 30.0533 6.58367 30C6.41034 29.9433 6.25867 29.86 6.12867 29.75C6.00201 29.64 5.90034 29.5017 5.82367 29.335C5.75034 29.165 5.71367 28.965 5.71367 28.735C5.71367 28.535 5.76867 28.3433 5.87867 28.16C5.98867 27.9733 6.16701 27.8083 6.41367 27.665C6.66034 27.5217 6.98201 27.405 7.37867 27.315C7.77534 27.2217 8.26201 27.1683 8.83867 27.155V26.76C8.83867 26.3667 8.75367 26.07 8.58367 25.87C8.41367 25.6667 8.16534 25.565 7.83867 25.565C7.61867 25.565 7.43367 25.5933 7.28367 25.65C7.13701 25.7033 7.00867 25.765 6.89867 25.835C6.79201 25.9017 6.69867 25.9633 6.61867 26.02C6.54201 26.0733 6.46534 26.1 6.38867 26.1C6.32867 26.1 6.27701 26.085 6.23367 26.055C6.19034 26.0217 6.15367 25.9817 6.12367 25.935L5.96367 25.65ZM11.9094 25.95C12.0694 25.6033 12.266 25.3333 12.4994 25.14C12.7327 24.9433 13.0177 24.845 13.3544 24.845C13.461 24.845 13.5627 24.8567 13.6594 24.88C13.7594 24.9033 13.8477 24.94 13.9244 24.99L13.8594 25.655C13.8394 25.7383 13.7894 25.78 13.7094 25.78C13.6627 25.78 13.5944 25.77 13.5044 25.75C13.4144 25.73 13.3127 25.72 13.1994 25.72C13.0394 25.72 12.896 25.7433 12.7694 25.79C12.646 25.8367 12.5344 25.9067 12.4344 26C12.3377 26.09 12.2494 26.2033 12.1694 26.34C12.0927 26.4733 12.0227 26.6267 11.9594 26.8V30H11.0644V24.935H11.5744C11.671 24.935 11.7377 24.9533 11.7744 24.99C11.811 25.0267 11.836 25.09 11.8494 25.18L11.9094 25.95ZM17.8919 26.915C17.8919 26.7083 17.8619 26.52 17.8019 26.35C17.7452 26.1767 17.6602 26.0283 17.5469 25.905C17.4369 25.7783 17.3019 25.6817 17.1419 25.615C16.9819 25.545 16.8002 25.51 16.5969 25.51C16.1702 25.51 15.8319 25.635 15.5819 25.885C15.3352 26.1317 15.1819 26.475 15.1219 26.915H17.8919ZM18.6119 29.29C18.5019 29.4233 18.3702 29.54 18.2169 29.64C18.0635 29.7367 17.8985 29.8167 17.7219 29.88C17.5485 29.9433 17.3685 29.99 17.1819 30.02C16.9952 30.0533 16.8102 30.07 16.6269 30.07C16.2769 30.07 15.9535 30.0117 15.6569 29.895C15.3635 29.775 15.1085 29.6017 14.8919 29.375C14.6785 29.145 14.5119 28.8617 14.3919 28.525C14.2719 28.1883 14.2119 27.8017 14.2119 27.365C14.2119 27.0117 14.2652 26.6817 14.3719 26.375C14.4819 26.0683 14.6385 25.8033 14.8419 25.58C15.0452 25.3533 15.2935 25.1767 15.5869 25.05C15.8802 24.92 16.2102 24.855 16.5769 24.855C16.8802 24.855 17.1602 24.9067 17.4169 25.01C17.6769 25.11 17.9002 25.2567 18.0869 25.45C18.2769 25.64 18.4252 25.8767 18.5319 26.16C18.6385 26.44 18.6919 26.76 18.6919 27.12C18.6919 27.26 18.6769 27.3533 18.6469 27.4C18.6169 27.4467 18.5602 27.47 18.4769 27.47H15.0919C15.1019 27.79 15.1452 28.0683 15.2219 28.305C15.3019 28.5417 15.4119 28.74 15.5519 28.9C15.6919 29.0567 15.8585 29.175 16.0519 29.255C16.2452 29.3317 16.4619 29.37 16.7019 29.37C16.9252 29.37 17.1169 29.345 17.2769 29.295C17.4402 29.2417 17.5802 29.185 17.6969 29.125C17.8135 29.065 17.9102 29.01 17.9869 28.96C18.0669 28.9067 18.1352 28.88 18.1919 28.88C18.2652 28.88 18.3219 28.9083 18.3619 28.965L18.6119 29.29ZM22.5301 27.72C22.1201 27.7333 21.7701 27.7667 21.4801 27.82C21.1934 27.87 20.9584 27.9367 20.7751 28.02C20.5951 28.1033 20.4634 28.2017 20.3801 28.315C20.3001 28.4283 20.2601 28.555 20.2601 28.695C20.2601 28.8283 20.2817 28.9433 20.3251 29.04C20.3684 29.1367 20.4267 29.2167 20.5001 29.28C20.5767 29.34 20.6651 29.385 20.7651 29.415C20.8684 29.4417 20.9784 29.455 21.0951 29.455C21.2517 29.455 21.3951 29.44 21.5251 29.41C21.6551 29.3767 21.7767 29.33 21.8901 29.27C22.0067 29.21 22.1167 29.1383 22.2201 29.055C22.3267 28.9717 22.4301 28.8767 22.5301 28.77V27.72ZM19.6551 25.65C19.9351 25.38 20.2367 25.1783 20.5601 25.045C20.8834 24.9117 21.2417 24.845 21.6351 24.845C21.9184 24.845 22.1701 24.8917 22.3901 24.985C22.6101 25.0783 22.7951 25.2083 22.9451 25.375C23.0951 25.5417 23.2084 25.7433 23.2851 25.98C23.3617 26.2167 23.4001 26.4767 23.4001 26.76V30H23.0051C22.9184 30 22.8517 29.9867 22.8051 29.96C22.7584 29.93 22.7217 29.8733 22.6951 29.79L22.5951 29.31C22.4617 29.4333 22.3317 29.5433 22.2051 29.64C22.0784 29.7333 21.9451 29.8133 21.8051 29.88C21.6651 29.9433 21.5151 29.9917 21.3551 30.025C21.1984 30.0617 21.0234 30.08 20.8301 30.08C20.6334 30.08 20.4484 30.0533 20.2751 30C20.1017 29.9433 19.9501 29.86 19.8201 29.75C19.6934 29.64 19.5917 29.5017 19.5151 29.335C19.4417 29.165 19.4051 28.965 19.4051 28.735C19.4051 28.535 19.4601 28.3433 19.5701 28.16C19.6801 27.9733 19.8584 27.8083 20.1051 27.665C20.3517 27.5217 20.6734 27.405 21.0701 27.315C21.4667 27.2217 21.9534 27.1683 22.5301 27.155V26.76C22.5301 26.3667 22.4451 26.07 22.2751 25.87C22.1051 25.6667 21.8567 25.565 21.5301 25.565C21.3101 25.565 21.1251 25.5933 20.9751 25.65C20.8284 25.7033 20.7001 25.765 20.5901 25.835C20.4834 25.9017 20.3901 25.9633 20.3101 26.02C20.2334 26.0733 20.1567 26.1 20.0801 26.1C20.0201 26.1 19.9684 26.085 19.9251 26.055C19.8817 26.0217 19.8451 25.9817 19.8151 25.935L19.6551 25.65ZM27.7058 25.77C27.6658 25.8433 27.6041 25.88 27.5208 25.88C27.4708 25.88 27.4141 25.8617 27.3508 25.825C27.2874 25.7883 27.2091 25.7483 27.1158 25.705C27.0258 25.6583 26.9174 25.6167 26.7908 25.58C26.6641 25.54 26.5141 25.52 26.3408 25.52C26.1908 25.52 26.0558 25.54 25.9358 25.58C25.8158 25.6167 25.7124 25.6683 25.6258 25.735C25.5424 25.8017 25.4774 25.88 25.4308 25.97C25.3874 26.0567 25.3658 26.1517 25.3658 26.255C25.3658 26.385 25.4024 26.4933 25.4758 26.58C25.5524 26.6667 25.6524 26.7417 25.7758 26.805C25.8991 26.8683 26.0391 26.925 26.1958 26.975C26.3524 27.0217 26.5124 27.0733 26.6758 27.13C26.8424 27.1833 27.0041 27.2433 27.1608 27.31C27.3174 27.3767 27.4574 27.46 27.5808 27.56C27.7041 27.66 27.8024 27.7833 27.8758 27.93C27.9524 28.0733 27.9908 28.2467 27.9908 28.45C27.9908 28.6833 27.9491 28.9 27.8658 29.1C27.7824 29.2967 27.6591 29.4683 27.4958 29.615C27.3324 29.7583 27.1324 29.8717 26.8958 29.955C26.6591 30.0383 26.3858 30.08 26.0758 30.08C25.7224 30.08 25.4024 30.0233 25.1158 29.91C24.8291 29.7933 24.5858 29.645 24.3858 29.465L24.5958 29.125C24.6224 29.0817 24.6541 29.0483 24.6908 29.025C24.7274 29.0017 24.7741 28.99 24.8308 28.99C24.8908 28.99 24.9541 29.0133 25.0208 29.06C25.0874 29.1067 25.1674 29.1583 25.2608 29.215C25.3574 29.2717 25.4741 29.3233 25.6108 29.37C25.7474 29.4167 25.9174 29.44 26.1208 29.44C26.2941 29.44 26.4458 29.4183 26.5758 29.375C26.7058 29.3283 26.8141 29.2667 26.9008 29.19C26.9874 29.1133 27.0508 29.025 27.0908 28.925C27.1341 28.825 27.1558 28.7183 27.1558 28.605C27.1558 28.465 27.1174 28.35 27.0408 28.26C26.9674 28.1667 26.8691 28.0883 26.7458 28.025C26.6224 27.9583 26.4808 27.9017 26.3208 27.855C26.1641 27.805 26.0024 27.7533 25.8358 27.7C25.6724 27.6467 25.5108 27.5867 25.3508 27.52C25.1941 27.45 25.0541 27.3633 24.9308 27.26C24.8074 27.1567 24.7074 27.03 24.6308 26.88C24.5574 26.7267 24.5208 26.5417 24.5208 26.325C24.5208 26.1317 24.5608 25.9467 24.6408 25.77C24.7208 25.59 24.8374 25.4333 24.9908 25.3C25.1441 25.1633 25.3324 25.055 25.5558 24.975C25.7791 24.895 26.0341 24.855 26.3208 24.855C26.6541 24.855 26.9524 24.9083 27.2158 25.015C27.4824 25.1183 27.7124 25.2617 27.9058 25.445L27.7058 25.77Z" fill="#949494"/>
<path d="M5.49995 0.782373C5.50435 1.17136 5.15206 1.49253 4.71317 1.49694C4.3597 1.50075 4.00448 1.16578 4.00007 0.824354C3.9942 0.356688 4.30803 0.0082135 4.74223 -6.62041e-06C5.16557 -0.00793316 5.49467 0.332027 5.49995 0.782373Z" fill="#949494"/>
<path d="M5.49795 4.7463C5.53903 5.11196 5.15576 5.50609 4.80741 5.49993C4.34842 5.492 4.00682 5.18151 4.00007 4.75187C3.9942 4.34835 4.34666 4 4.75488 4C5.21035 4.00411 5.53346 4.4314 5.49795 4.7463Z" fill="#949494"/>
<path d="M5.50029 8.75044C5.54174 9.08553 5.18666 9.50176 4.81599 9.49999C4.35127 9.49735 3.99853 9.17577 4 8.74573C4.00328 8.54837 4.08338 8.36005 4.22329 8.22081C4.3632 8.08156 4.55189 8.00234 4.74927 8C4.94818 8.00054 5.13881 8.07976 5.27952 8.22036C5.42023 8.36096 5.4996 8.55152 5.50029 8.75044Z" fill="#949494"/>
<line x1="8.5" y1="0.5" x2="21.5" y2="0.5" stroke="#949494" stroke-linecap="round"/>
<line x1="8.5" y1="4.5" x2="22.5" y2="4.5" stroke="#949494" stroke-linecap="round"/>
<line x1="8.5" y1="8.5" x2="17.5" y2="8.5" stroke="#949494" stroke-linecap="round"/>
</svg>
