<svg width="27" height="38" viewBox="0 0 27 38" fill="none" xmlns="http://www.w3.org/2000/svg">
<path d="M3.60766 37H2.63766V29.835H3.60766V37ZM5.99227 32.67C6.10227 32.5467 6.21893 32.435 6.34227 32.335C6.4656 32.235 6.5956 32.15 6.73227 32.08C6.87227 32.0067 7.01893 31.9517 7.17227 31.915C7.32893 31.875 7.49727 31.855 7.67727 31.855C7.95393 31.855 8.19727 31.9017 8.40727 31.995C8.6206 32.085 8.79727 32.215 8.93727 32.385C9.0806 32.5517 9.18893 32.7533 9.26227 32.99C9.3356 33.2267 9.37227 33.4883 9.37227 33.775V37H8.47727V33.775C8.47727 33.3917 8.38893 33.095 8.21227 32.885C8.03893 32.6717 7.77393 32.565 7.41727 32.565C7.15393 32.565 6.90727 32.6283 6.67727 32.755C6.4506 32.8817 6.2406 33.0533 6.04727 33.27V37H5.15227V31.935H5.68727C5.81393 31.935 5.89227 31.9967 5.92227 32.12L5.99227 32.67ZM11.6684 31.935V37H10.7784V31.935H11.6684ZM11.8584 30.345C11.8584 30.4317 11.8401 30.5133 11.8034 30.59C11.7701 30.6633 11.7234 30.73 11.6634 30.79C11.6068 30.8467 11.5384 30.8917 11.4584 30.925C11.3818 30.9583 11.3001 30.975 11.2134 30.975C11.1268 30.975 11.0451 30.9583 10.9684 30.925C10.8951 30.8917 10.8301 30.8467 10.7734 30.79C10.7168 30.73 10.6718 30.6633 10.6384 30.59C10.6051 30.5133 10.5884 30.4317 10.5884 30.345C10.5884 30.2583 10.6051 30.1767 10.6384 30.1C10.6718 30.02 10.7168 29.9517 10.7734 29.895C10.8301 29.835 10.8951 29.7883 10.9684 29.755C11.0451 29.7217 11.1268 29.705 11.2134 29.705C11.3001 29.705 11.3818 29.7217 11.4584 29.755C11.5384 29.7883 11.6068 29.835 11.6634 29.895C11.7234 29.9517 11.7701 30.02 11.8034 30.1C11.8401 30.1767 11.8584 30.2583 11.8584 30.345ZM16.6558 32.835C16.6291 32.8717 16.6024 32.9 16.5758 32.92C16.5491 32.94 16.5124 32.95 16.4658 32.95C16.4158 32.95 16.3608 32.93 16.3008 32.89C16.2408 32.8467 16.1658 32.8 16.0758 32.75C15.9891 32.7 15.8808 32.655 15.7508 32.615C15.6241 32.5717 15.4674 32.55 15.2808 32.55C15.0308 32.55 14.8108 32.595 14.6208 32.685C14.4308 32.7717 14.2708 32.8983 14.1408 33.065C14.0141 33.2317 13.9174 33.4333 13.8508 33.67C13.7874 33.9067 13.7558 34.1717 13.7558 34.465C13.7558 34.7717 13.7908 35.045 13.8608 35.285C13.9308 35.5217 14.0291 35.7217 14.1558 35.885C14.2858 36.045 14.4408 36.1683 14.6208 36.255C14.8041 36.3383 15.0091 36.38 15.2358 36.38C15.4524 36.38 15.6308 36.355 15.7708 36.305C15.9108 36.2517 16.0258 36.1933 16.1158 36.13C16.2091 36.0667 16.2858 36.01 16.3458 35.96C16.4091 35.9067 16.4708 35.88 16.5308 35.88C16.6041 35.88 16.6608 35.9083 16.7008 35.965L16.9508 36.29C16.8408 36.4267 16.7158 36.5433 16.5758 36.64C16.4358 36.7367 16.2841 36.8183 16.1208 36.885C15.9608 36.9483 15.7924 36.995 15.6158 37.025C15.4391 37.055 15.2591 37.07 15.0758 37.07C14.7591 37.07 14.4641 37.0117 14.1908 36.895C13.9208 36.7783 13.6858 36.61 13.4858 36.39C13.2858 36.1667 13.1291 35.8933 13.0158 35.57C12.9024 35.2467 12.8458 34.8783 12.8458 34.465C12.8458 34.0883 12.8974 33.74 13.0008 33.42C13.1074 33.1 13.2608 32.825 13.4608 32.595C13.6641 32.3617 13.9124 32.18 14.2058 32.05C14.5024 31.92 14.8424 31.855 15.2258 31.855C15.5824 31.855 15.8958 31.9133 16.1658 32.03C16.4391 32.1433 16.6808 32.305 16.8908 32.515L16.6558 32.835ZM18.8462 31.935V37H17.9562V31.935H18.8462ZM19.0362 30.345C19.0362 30.4317 19.0178 30.5133 18.9812 30.59C18.9478 30.6633 18.9012 30.73 18.8412 30.79C18.7845 30.8467 18.7162 30.8917 18.6362 30.925C18.5595 30.9583 18.4778 30.975 18.3912 30.975C18.3045 30.975 18.2228 30.9583 18.1462 30.925C18.0728 30.8917 18.0078 30.8467 17.9512 30.79C17.8945 30.73 17.8495 30.6633 17.8162 30.59C17.7828 30.5133 17.7662 30.4317 17.7662 30.345C17.7662 30.2583 17.7828 30.1767 17.8162 30.1C17.8495 30.02 17.8945 29.9517 17.9512 29.895C18.0078 29.835 18.0728 29.7883 18.1462 29.755C18.2228 29.7217 18.3045 29.705 18.3912 29.705C18.4778 29.705 18.5595 29.7217 18.6362 29.755C18.7162 29.7883 18.7845 29.835 18.8412 29.895C18.9012 29.9517 18.9478 30.02 18.9812 30.1C19.0178 30.1767 19.0362 30.2583 19.0362 30.345ZM22.4435 31.855C22.8135 31.855 23.1468 31.9167 23.4435 32.04C23.7402 32.1633 23.9935 32.3383 24.2035 32.565C24.4135 32.7917 24.5735 33.0667 24.6835 33.39C24.7968 33.71 24.8535 34.0683 24.8535 34.465C24.8535 34.865 24.7968 35.225 24.6835 35.545C24.5735 35.865 24.4135 36.1383 24.2035 36.365C23.9935 36.5917 23.7402 36.7667 23.4435 36.89C23.1468 37.01 22.8135 37.07 22.4435 37.07C22.0702 37.07 21.7335 37.01 21.4335 36.89C21.1368 36.7667 20.8835 36.5917 20.6735 36.365C20.4635 36.1383 20.3018 35.865 20.1885 35.545C20.0785 35.225 20.0235 34.865 20.0235 34.465C20.0235 34.0683 20.0785 33.71 20.1885 33.39C20.3018 33.0667 20.4635 32.7917 20.6735 32.565C20.8835 32.3383 21.1368 32.1633 21.4335 32.04C21.7335 31.9167 22.0702 31.855 22.4435 31.855ZM22.4435 36.375C22.9435 36.375 23.3168 36.2083 23.5635 35.875C23.8102 35.5383 23.9335 35.07 23.9335 34.47C23.9335 33.8667 23.8102 33.3967 23.5635 33.06C23.3168 32.7233 22.9435 32.555 22.4435 32.555C22.1902 32.555 21.9685 32.5983 21.7785 32.685C21.5918 32.7717 21.4352 32.8967 21.3085 33.06C21.1852 33.2233 21.0918 33.425 21.0285 33.665C20.9685 33.9017 20.9385 34.17 20.9385 34.47C20.9385 35.07 21.0618 35.5383 21.3085 35.875C21.5585 36.2083 21.9368 36.375 22.4435 36.375Z" fill="#949494"/>
<path d="M6.0377 11.2536C5.81411 11.2343 5.6084 11.2335 5.41053 11.1963C4.10626 10.9522 3.55287 9.36804 4.41481 8.35592C4.45878 8.30412 4.50574 8.25456 4.55381 8.20686C7.10869 5.65124 9.66469 3.0966 12.2218 0.542965C12.3762 0.391544 12.552 0.263604 12.7435 0.163236C13.2656 -0.112152 14.2199 -0.0529005 14.6951 0.446822C14.9679 0.733761 15.2541 1.0058 15.5354 1.2864C17.8284 3.57918 20.1196 5.87321 22.4089 8.16848C22.5803 8.34064 22.7517 8.54113 22.8401 8.76472C23.3223 9.96986 22.5829 11.1799 21.2992 11.2346C21.1959 11.2391 21.092 11.2346 20.9694 11.2346V11.4731C20.9694 13.2864 20.9723 15.0994 20.9694 16.9138C20.9671 17.9103 20.3377 18.7133 19.3856 18.9377C19.2044 18.9767 19.0194 18.9953 18.8341 18.9932C17.8939 18.9984 16.9533 18.9958 16.0128 18.9954C15.5414 18.9954 15.3308 18.7875 15.3308 18.3198C15.3308 16.9037 15.3308 15.4866 15.3308 14.0683C15.3308 13.3975 14.9552 13.0248 14.2822 13.0248C13.7504 13.0248 13.2186 13.0226 12.6865 13.0248C12.0627 13.0274 11.6803 13.4094 11.6803 14.0329C11.6784 15.4561 11.6784 16.8795 11.6803 18.303C11.6803 18.7875 11.4758 18.9939 10.9947 18.9939C10.0664 18.9939 9.13776 18.9738 8.21061 18.9991C6.97006 19.0331 6.01198 18.0508 6.03248 16.8162C6.06415 15.0405 6.0403 13.2641 6.0403 11.4873L6.0377 11.2536ZM16.4439 17.8793H18.7942C19.4922 17.8793 19.8566 17.5145 19.857 16.8158C19.857 14.7983 19.857 12.7806 19.857 10.7629C19.857 10.344 20.0806 10.1227 20.4987 10.1208C20.7525 10.1208 21.0063 10.1238 21.2597 10.1208C21.4065 10.1223 21.5492 10.0722 21.6629 9.97922C21.7765 9.88625 21.8539 9.75633 21.8816 9.61212C21.9431 9.314 21.7847 9.10942 21.588 8.91303C19.0795 6.40635 16.5722 3.89879 14.066 1.39037C13.6621 0.986417 13.3468 0.987535 12.9403 1.3941L6.23259 8.10178C5.92627 8.40809 5.61847 8.71292 5.31401 9.0211C5.11166 9.22606 5.05129 9.47052 5.16495 9.73621C5.27675 9.99297 5.4858 10.1197 5.76827 10.1197H6.4573C6.94845 10.1197 7.15154 10.325 7.15154 10.8217C7.15154 12.8393 7.15154 14.8568 7.15154 16.8743C7.15154 17.4944 7.53873 17.8775 8.16142 17.8782C8.89778 17.8782 9.63413 17.8782 10.3705 17.8782C10.4301 17.8782 10.4894 17.8723 10.5631 17.8682V17.6341C10.5631 16.3776 10.5527 15.121 10.5713 13.8652C10.5859 12.8758 11.3792 12.0071 12.3653 11.9408C13.1225 11.8898 13.8857 11.9304 14.6459 11.9322C14.7077 11.9351 14.7691 11.9448 14.8289 11.9609C15.7944 12.1808 16.435 12.9745 16.4413 13.9807C16.4488 15.2 16.4432 16.4189 16.4432 17.6382L16.4439 17.8793Z" fill="#949494"/>
</svg>
