<svg width="27" height="37" viewBox="0 0 27 37" fill="none" xmlns="http://www.w3.org/2000/svg">
<path d="M3.60766 36H2.63766V28.835H3.60766V36ZM5.99227 31.67C6.10227 31.5467 6.21893 31.435 6.34227 31.335C6.4656 31.235 6.5956 31.15 6.73227 31.08C6.87227 31.0067 7.01893 30.9517 7.17227 30.915C7.32893 30.875 7.49727 30.855 7.67727 30.855C7.95393 30.855 8.19727 30.9017 8.40727 30.995C8.6206 31.085 8.79727 31.215 8.93727 31.385C9.0806 31.5517 9.18893 31.7533 9.26227 31.99C9.3356 32.2267 9.37227 32.4883 9.37227 32.775V36H8.47727V32.775C8.47727 32.3917 8.38893 32.095 8.21227 31.885C8.03893 31.6717 7.77393 31.565 7.41727 31.565C7.15393 31.565 6.90727 31.6283 6.67727 31.755C6.4506 31.8817 6.2406 32.0533 6.04727 32.27V36H5.15227V30.935H5.68727C5.81393 30.935 5.89227 30.9967 5.92227 31.12L5.99227 31.67ZM11.6684 30.935V36H10.7784V30.935H11.6684ZM11.8584 29.345C11.8584 29.4317 11.8401 29.5133 11.8034 29.59C11.7701 29.6633 11.7234 29.73 11.6634 29.79C11.6068 29.8467 11.5384 29.8917 11.4584 29.925C11.3818 29.9583 11.3001 29.975 11.2134 29.975C11.1268 29.975 11.0451 29.9583 10.9684 29.925C10.8951 29.8917 10.8301 29.8467 10.7734 29.79C10.7168 29.73 10.6718 29.6633 10.6384 29.59C10.6051 29.5133 10.5884 29.4317 10.5884 29.345C10.5884 29.2583 10.6051 29.1767 10.6384 29.1C10.6718 29.02 10.7168 28.9517 10.7734 28.895C10.8301 28.835 10.8951 28.7883 10.9684 28.755C11.0451 28.7217 11.1268 28.705 11.2134 28.705C11.3001 28.705 11.3818 28.7217 11.4584 28.755C11.5384 28.7883 11.6068 28.835 11.6634 28.895C11.7234 28.9517 11.7701 29.02 11.8034 29.1C11.8401 29.1767 11.8584 29.2583 11.8584 29.345ZM16.6558 31.835C16.6291 31.8717 16.6024 31.9 16.5758 31.92C16.5491 31.94 16.5124 31.95 16.4658 31.95C16.4158 31.95 16.3608 31.93 16.3008 31.89C16.2408 31.8467 16.1658 31.8 16.0758 31.75C15.9891 31.7 15.8808 31.655 15.7508 31.615C15.6241 31.5717 15.4674 31.55 15.2808 31.55C15.0308 31.55 14.8108 31.595 14.6208 31.685C14.4308 31.7717 14.2708 31.8983 14.1408 32.065C14.0141 32.2317 13.9174 32.4333 13.8508 32.67C13.7874 32.9067 13.7558 33.1717 13.7558 33.465C13.7558 33.7717 13.7908 34.045 13.8608 34.285C13.9308 34.5217 14.0291 34.7217 14.1558 34.885C14.2858 35.045 14.4408 35.1683 14.6208 35.255C14.8041 35.3383 15.0091 35.38 15.2358 35.38C15.4524 35.38 15.6308 35.355 15.7708 35.305C15.9108 35.2517 16.0258 35.1933 16.1158 35.13C16.2091 35.0667 16.2858 35.01 16.3458 34.96C16.4091 34.9067 16.4708 34.88 16.5308 34.88C16.6041 34.88 16.6608 34.9083 16.7008 34.965L16.9508 35.29C16.8408 35.4267 16.7158 35.5433 16.5758 35.64C16.4358 35.7367 16.2841 35.8183 16.1208 35.885C15.9608 35.9483 15.7924 35.995 15.6158 36.025C15.4391 36.055 15.2591 36.07 15.0758 36.07C14.7591 36.07 14.4641 36.0117 14.1908 35.895C13.9208 35.7783 13.6858 35.61 13.4858 35.39C13.2858 35.1667 13.1291 34.8933 13.0158 34.57C12.9024 34.2467 12.8458 33.8783 12.8458 33.465C12.8458 33.0883 12.8974 32.74 13.0008 32.42C13.1074 32.1 13.2608 31.825 13.4608 31.595C13.6641 31.3617 13.9124 31.18 14.2058 31.05C14.5024 30.92 14.8424 30.855 15.2258 30.855C15.5824 30.855 15.8958 30.9133 16.1658 31.03C16.4391 31.1433 16.6808 31.305 16.8908 31.515L16.6558 31.835ZM18.8462 30.935V36H17.9562V30.935H18.8462ZM19.0362 29.345C19.0362 29.4317 19.0178 29.5133 18.9812 29.59C18.9478 29.6633 18.9012 29.73 18.8412 29.79C18.7845 29.8467 18.7162 29.8917 18.6362 29.925C18.5595 29.9583 18.4778 29.975 18.3912 29.975C18.3045 29.975 18.2228 29.9583 18.1462 29.925C18.0728 29.8917 18.0078 29.8467 17.9512 29.79C17.8945 29.73 17.8495 29.6633 17.8162 29.59C17.7828 29.5133 17.7662 29.4317 17.7662 29.345C17.7662 29.2583 17.7828 29.1767 17.8162 29.1C17.8495 29.02 17.8945 28.9517 17.9512 28.895C18.0078 28.835 18.0728 28.7883 18.1462 28.755C18.2228 28.7217 18.3045 28.705 18.3912 28.705C18.4778 28.705 18.5595 28.7217 18.6362 28.755C18.7162 28.7883 18.7845 28.835 18.8412 28.895C18.9012 28.9517 18.9478 29.02 18.9812 29.1C19.0178 29.1767 19.0362 29.2583 19.0362 29.345ZM22.4435 30.855C22.8135 30.855 23.1468 30.9167 23.4435 31.04C23.7402 31.1633 23.9935 31.3383 24.2035 31.565C24.4135 31.7917 24.5735 32.0667 24.6835 32.39C24.7968 32.71 24.8535 33.0683 24.8535 33.465C24.8535 33.865 24.7968 34.225 24.6835 34.545C24.5735 34.865 24.4135 35.1383 24.2035 35.365C23.9935 35.5917 23.7402 35.7667 23.4435 35.89C23.1468 36.01 22.8135 36.07 22.4435 36.07C22.0702 36.07 21.7335 36.01 21.4335 35.89C21.1368 35.7667 20.8835 35.5917 20.6735 35.365C20.4635 35.1383 20.3018 34.865 20.1885 34.545C20.0785 34.225 20.0235 33.865 20.0235 33.465C20.0235 33.0683 20.0785 32.71 20.1885 32.39C20.3018 32.0667 20.4635 31.7917 20.6735 31.565C20.8835 31.3383 21.1368 31.1633 21.4335 31.04C21.7335 30.9167 22.0702 30.855 22.4435 30.855ZM22.4435 35.375C22.9435 35.375 23.3168 35.2083 23.5635 34.875C23.8102 34.5383 23.9335 34.07 23.9335 33.47C23.9335 32.8667 23.8102 32.3967 23.5635 32.06C23.3168 31.7233 22.9435 31.555 22.4435 31.555C22.1902 31.555 21.9685 31.5983 21.7785 31.685C21.5918 31.7717 21.4352 31.8967 21.3085 32.06C21.1852 32.2233 21.0918 32.425 21.0285 32.665C20.9685 32.9017 20.9385 33.17 20.9385 33.47C20.9385 34.07 21.0618 34.5383 21.3085 34.875C21.5585 35.2083 21.9368 35.375 22.4435 35.375Z" fill="#06192B"/>
<path d="M6.0377 11.2536C5.81411 11.2343 5.6084 11.2335 5.41053 11.1963C4.10626 10.9522 3.55287 9.36804 4.41481 8.35592C4.45878 8.30412 4.50574 8.25456 4.55381 8.20686C7.10869 5.65124 9.66469 3.0966 12.2218 0.542965C12.3762 0.391519 12.552 0.263576 12.7435 0.163236C13.2652 -0.112152 14.2199 -0.0529005 14.6951 0.446822C14.9679 0.733761 15.254 1.0058 15.5354 1.2864C17.8284 3.57943 20.1196 5.87346 22.4089 8.16848C22.5803 8.34064 22.7517 8.54113 22.8401 8.76472C23.3223 9.96986 22.5829 11.1799 21.2992 11.2346C21.1959 11.2391 21.092 11.2346 20.9694 11.2346V11.4731C20.9694 13.2867 20.9694 15.1002 20.9694 16.9138C20.9671 17.9103 20.3359 18.7133 19.3856 18.9377C19.2044 18.9768 19.0194 18.9954 18.8341 18.9932C17.8939 18.9984 16.9533 18.9958 16.0128 18.9954C15.5414 18.9954 15.3308 18.7875 15.3308 18.3198V14.0683C15.3308 13.3975 14.9552 13.0248 14.2822 13.0248C13.7504 13.0248 13.2186 13.0226 12.6865 13.0248C12.0627 13.0274 11.6803 13.4094 11.6803 14.0329C11.6784 15.4561 11.6784 16.8795 11.6803 18.303C11.6803 18.7875 11.4758 18.9939 10.9947 18.9939C10.0664 18.9939 9.13776 18.9738 8.21061 18.9991C6.97006 19.0331 6.01198 18.0508 6.03248 16.8162C6.06415 15.0405 6.0403 13.2641 6.0403 11.4873L6.0377 11.2536Z" fill="#06192B"/>
</svg>
