<?xml version="1.0" encoding="UTF-8" ?>
<!DOCTYPE svg PUBLIC "-//W3C//DTD SVG 1.1//EN" "http://www.w3.org/Graphics/SVG/1.1/DTD/svg11.dtd">
<svg width="1024pt" height="1024pt" viewBox="0 0 1024 1024" version="1.1" xmlns="http://www.w3.org/2000/svg">
<g id="#06192bff">
<path fill="#06192b" opacity="1.00" d=" M 585.34 93.60 C 598.08 92.55 610.97 92.87 623.75 93.18 C 630.71 108.75 637.16 124.54 643.66 140.31 C 644.67 143.31 647.90 145.02 647.51 148.66 C 670.15 202.51 693.11 256.25 715.98 310.01 C 716.52 312.43 719.13 311.90 721.01 312.16 C 721.70 314.85 717.74 316.51 719.82 319.09 C 749.84 389.44 779.62 459.91 809.58 530.34 C 810.48 532.83 812.35 534.74 813.71 537.00 C 812.48 539.67 814.68 541.95 815.59 544.33 C 862.36 654.57 909.25 764.76 956.08 874.97 C 963.81 892.60 970.70 910.61 978.97 928.00 C 942.31 927.99 905.65 928.02 868.99 927.98 C 865.40 925.95 863.51 928.62 861.01 929.93 C 858.48 928.97 855.99 926.89 853.01 928.04 C 814.40 927.85 775.78 928.20 737.18 927.88 C 677.65 788.83 617.85 649.85 558.11 510.93 C 549.81 491.89 542.28 472.46 533.22 453.79 C 525.04 433.10 515.72 412.62 507.11 391.96 C 506.28 390.21 506.01 388.07 504.30 386.92 C 502.26 395.04 498.15 402.45 495.29 410.29 C 489.88 424.20 483.85 437.96 478.92 451.98 C 477.40 453.70 476.83 455.92 475.99 458.00 C 428.71 575.21 381.15 692.56 333.79 809.84 C 331.10 814.56 330.68 820.18 327.72 824.71 C 313.72 859.62 299.47 894.43 285.48 929.34 C 284.62 932.46 282.17 936.15 278.00 934.02 C 270.98 934.33 263.83 932.03 256.91 933.70 C 185.31 932.28 113.58 933.38 41.91 932.93 C 48.12 915.51 55.81 898.61 62.45 881.34 C 76.74 845.99 90.90 810.60 105.35 775.32 C 107.02 772.69 104.45 769.91 105.04 767.14 C 106.89 765.85 110.03 766.00 110.21 763.11 C 124.05 728.69 138.02 694.33 151.85 659.91 C 155.75 649.23 160.95 638.97 164.07 628.06 C 168.31 621.12 170.42 613.12 173.71 605.71 C 240.64 439.96 307.72 274.20 374.44 108.34 C 376.30 103.91 378.11 99.45 380.30 95.17 C 399.54 94.68 418.80 95.21 437.99 93.99 C 487.10 93.73 536.26 94.54 585.34 93.60 Z" />
</g>
</svg>
