<svg width="167" height="153" viewBox="0 0 167 153" fill="none" xmlns="http://www.w3.org/2000/svg">
<path d="M166.872 99.5306C166.748 99.7581 166.643 99.9955 166.559 100.241C164.908 106.987 159.59 111.234 152.673 111.26C144.088 111.291 135.508 111.26 126.923 111.26C98.6723 111.26 70.4219 111.26 42.1714 111.26C35.2591 111.26 29.6752 107.009 28.1725 100.606C27.8884 99.3897 27.7422 98.1449 27.7369 96.8954C27.7166 69.4087 27.7166 41.919 27.7369 14.4264C27.7543 7.2048 32.2319 1.62962 39.0267 0.270675C40.313 0.0570569 41.6172 -0.0304703 42.9206 0.00933895C79.1563 0.00933895 115.392 0.00933895 151.628 0.00933895C159.851 0.00933895 164.542 3.62014 166.676 11.5778C166.703 11.6737 166.807 11.7433 166.872 11.8305V99.5306ZM86.6029 74.8561C87.2519 74.0895 87.7441 73.5189 88.2276 72.9396C96.5729 62.9391 104.912 52.9227 113.246 42.8903C114.897 40.9041 116.844 39.4058 119.392 38.8788C123.913 37.9031 127.424 39.567 130.342 42.9861C139.68 53.939 149.042 64.873 158.427 75.7882C158.823 76.2499 159.246 76.6898 159.842 77.3431C159.899 76.7638 159.934 76.5591 159.934 76.3544C159.934 55.6566 159.934 34.9587 159.934 14.2609C159.934 9.81381 156.963 6.94346 152.529 6.94346C115.751 6.94346 78.9734 6.94346 42.1975 6.94346C37.6241 6.94346 34.793 9.77461 34.7669 14.3698C34.7669 39.792 34.7669 65.2157 34.7669 90.6408C34.7669 91.0764 34.8409 91.5337 34.8801 91.978L35.3462 92.2437C35.6952 91.6948 36.0839 91.1722 36.5091 90.68C44.8719 82.2969 53.2448 73.9225 61.6279 65.5569C66.3363 60.8659 72.6955 60.892 77.3995 65.5786C80.4223 68.6058 83.4321 71.6634 86.6029 74.8561ZM35.9124 101.19C37.524 103.525 39.7366 104.344 42.3848 104.344C55.1613 104.344 67.929 104.344 80.688 104.344H152.072C157.129 104.344 159.912 101.525 159.943 96.4512C159.943 94.2734 160.052 92.0956 159.895 89.9178C159.841 88.8713 159.477 87.8646 158.849 87.0256C147.586 73.7846 136.287 60.5726 124.954 47.3896C122.776 44.8459 120.62 44.9026 118.464 47.4942C109.082 58.7636 99.6959 70.0315 90.3052 81.298C87.9662 84.103 86.1761 84.1596 83.5497 81.5376C79.9403 77.9427 76.3368 74.3392 72.7391 70.727C70.4044 68.3967 68.6491 68.3836 66.3537 70.679L37.0579 99.9531C36.6833 100.328 36.3349 100.733 35.9124 101.19Z" fill="#F8F8F8"/>
<path d="M119.27 153C112.162 151.071 105.062 149.124 97.9495 147.216C68.9295 139.445 39.9096 131.682 10.8896 123.926C2.73594 121.749 -1.6066 114.366 0.549423 106.238C4.92245 89.7828 9.32597 73.3346 13.76 56.8936C14.409 54.4545 15.9116 53.2915 17.8586 53.5833C19.9972 53.91 21.1906 55.9136 20.5634 58.27C18.4466 66.293 16.308 74.3131 14.1476 82.3303C11.8798 90.8151 9.60763 99.3012 7.3311 107.789C6.08104 112.467 8.07591 115.943 12.7713 117.201C48.0168 126.65 83.2667 136.087 118.521 145.513C123.704 146.902 126.945 145.021 128.334 139.85C130.002 133.674 131.644 127.489 133.321 121.313C134.005 118.8 135.935 117.646 138.056 118.443C139.877 119.126 140.643 120.891 140.033 123.182C138.727 128.055 137.42 132.916 136.092 137.786C135.656 139.358 135.277 140.939 134.82 142.499C133.234 147.908 129.724 151.323 124.227 152.665C123.979 152.748 123.738 152.853 123.508 152.978L119.27 153Z" fill="#F8F8F8"/>
<path d="M62.608 20.8901C65.3562 20.91 68.0367 21.7448 70.3103 23.2887C72.5839 24.8326 74.3484 27.0162 75.3805 29.5633C76.4126 32.1104 76.666 34.9064 76.1084 37.5976C75.5509 40.2887 74.2076 42.7539 72.2485 44.6813C70.2894 46.6087 67.8025 47.9116 65.1027 48.4251C62.4028 48.9387 59.6113 48.6398 57.0814 47.5662C54.5515 46.4927 52.3969 44.6927 50.8903 42.3942C49.3837 40.0957 48.5928 37.402 48.6178 34.6538C48.658 30.9766 50.1521 27.4649 52.7735 24.8859C55.3949 22.3069 58.9306 20.8703 62.608 20.8901ZM69.4593 34.828C69.4593 33.4623 69.0549 32.1271 68.2972 30.9908C67.5395 29.8545 66.4623 28.968 65.2015 28.443C63.9407 27.918 62.5526 27.778 61.2124 28.0407C59.8721 28.3033 58.6396 28.9569 57.6702 29.919C56.7009 30.8811 56.038 32.1087 55.7653 33.4469C55.4925 34.7851 55.622 36.1742 56.1375 37.4389C56.6531 38.7037 57.5314 39.7875 58.662 40.5537C59.7925 41.32 61.1246 41.7344 62.4904 41.7447C63.4041 41.7499 64.3097 41.5743 65.1553 41.2281C66.0009 40.8819 66.7697 40.3719 67.4174 39.7274C68.0651 39.083 68.5789 38.3168 68.9294 37.4729C69.2798 36.6291 69.4599 35.7243 69.4593 34.8106V34.828Z" fill="#F8F8F8"/>
<g transform="translate(76.0938,57.0938)">
<path d="M20.7717 14.5403C20.7518 14.6019 20.7344 14.6646 20.7113 14.7253C20.5708 15.0961 20.2381 15.3105 19.7996 15.3114C18.8654 15.3125 17.931 15.3125 16.9965 15.3114H15.3106V15.4891C15.3106 16.9245 15.3106 18.3599 15.3106 19.7953C15.3106 20.265 15.0747 20.6075 14.6704 20.7344C14.6423 20.7458 14.6126 20.7529 14.5824 20.7556C14.2618 20.7578 13.9376 20.7892 13.6216 20.7507C13.2142 20.7014 12.9284 20.3583 12.8896 19.9485C12.8831 19.8795 12.8822 19.8096 12.8822 19.74C12.8822 18.3266 12.8822 16.9132 12.8822 15.4996V15.312H12.7064C11.2725 15.312 9.8384 15.312 8.4041 15.312C7.93455 15.312 7.59121 15.0778 7.46385 14.6731C7.44112 14.6075 7.4276 14.5389 7.42368 14.4695C7.41884 14.2217 7.41143 13.9733 7.42368 13.7261C7.44676 13.2909 7.79892 12.9338 8.23371 12.8916C8.30732 12.885 8.38121 12.8822 8.4551 12.8831C9.86736 12.8831 11.2797 12.8831 12.6922 12.8831H12.8817V12.7097C12.8817 11.3137 12.8908 9.91742 12.8765 8.52173C12.8714 8.02266 13.0292 7.58262 13.6529 7.41779H14.5396C15.1636 7.5812 15.3209 8.02466 15.3157 8.52116C15.3018 9.91657 15.3109 11.3123 15.3109 12.7079V12.8831H15.4984C16.9148 12.8831 18.3311 12.8831 19.7471 12.8831C19.8165 12.8816 19.8858 12.8845 19.9548 12.8916C20.3355 12.9395 20.5897 13.1483 20.7224 13.5067C20.7404 13.5552 20.7552 13.6051 20.7711 13.6545L20.7717 14.5403Z" fill="#C8C8C8"/>
</g>
<circle cx="90.0938" cy="70.0938" r="13.3438" stroke="#C8C8C8" stroke-width="2.5"/>
</svg>
