<svg width="29" height="29" viewBox="0 0 29 29" fill="none" xmlns="http://www.w3.org/2000/svg">
<path d="M20.7717 14.5403C20.7518 14.6019 20.7344 14.6646 20.7113 14.7253C20.5708 15.0961 20.2381 15.3105 19.7996 15.3114C18.8654 15.3125 17.931 15.3125 16.9965 15.3114H15.3106V15.4891C15.3106 16.9245 15.3106 18.3599 15.3106 19.7953C15.3106 20.265 15.0747 20.6075 14.6704 20.7344C14.6423 20.7458 14.6126 20.7529 14.5824 20.7556C14.2618 20.7578 13.9376 20.7892 13.6216 20.7507C13.2142 20.7014 12.9284 20.3583 12.8896 19.9485C12.8831 19.8795 12.8822 19.8096 12.8822 19.74C12.8822 18.3266 12.8822 16.9132 12.8822 15.4996V15.312H12.7064C11.2725 15.312 9.8384 15.312 8.4041 15.312C7.93455 15.312 7.59121 15.0778 7.46385 14.6731C7.44112 14.6075 7.4276 14.5389 7.42368 14.4695C7.41884 14.2217 7.41143 13.9733 7.42368 13.7261C7.44676 13.2909 7.79892 12.9338 8.23371 12.8916C8.30732 12.885 8.38121 12.8822 8.4551 12.8831C9.86736 12.8831 11.2797 12.8831 12.6922 12.8831H12.8817V12.7097C12.8817 11.3137 12.8908 9.91742 12.8765 8.52173C12.8714 8.02266 13.0292 7.58262 13.6529 7.41779H14.5396C15.1636 7.5812 15.3209 8.02466 15.3157 8.52116C15.3018 9.91657 15.3109 11.3123 15.3109 12.7079V12.8831H15.4984C16.9148 12.8831 18.3311 12.8831 19.7471 12.8831C19.8165 12.8816 19.8858 12.8845 19.9548 12.8916C20.3355 12.9395 20.5897 13.1483 20.7224 13.5067C20.7404 13.5552 20.7552 13.6051 20.7711 13.6545L20.7717 14.5403Z" fill="#C8C8C8"/>
<circle cx="14.0938" cy="14.0938" r="13.3438" stroke="#C8C8C8" stroke-width="1.5"/>
</svg>
