<svg width="39" height="39" viewBox="0 0 39 39" fill="none" xmlns="http://www.w3.org/2000/svg">
<g filter="url(#filter0_d_231_14958)">
<rect x="4" width="31" height="31" rx="6" fill="white"/>
</g>
<path d="M28.8005 10.1376C28.6533 10.5791 28.3393 10.7312 27.8841 10.7302C23.7169 10.7217 19.5497 10.7201 15.3825 10.7253C14.9527 10.7253 14.6633 10.5139 14.5819 10.1445C14.5599 10.0428 14.56 9.93767 14.5819 9.83603C14.6038 9.73439 14.6472 9.63859 14.7091 9.55503C14.7709 9.47147 14.8499 9.40206 14.9408 9.35144C15.0316 9.30081 15.1322 9.27013 15.2358 9.26145C15.3089 9.25556 15.383 9.25851 15.456 9.25851C19.5987 9.25851 23.7416 9.25687 27.8846 9.2536C28.3398 9.2536 28.6523 9.4047 28.8005 9.84621V10.1376Z" fill="#949494"/>
<path d="M28.8005 15.6457C28.6533 16.0872 28.3393 16.2392 27.8841 16.2383C23.7169 16.2298 19.5497 16.2281 15.3825 16.2334C14.9527 16.2334 14.6633 16.0224 14.5819 15.6525C14.5599 15.5509 14.56 15.4457 14.5819 15.3441C14.6038 15.2424 14.6472 15.1467 14.7091 15.0631C14.7709 14.9795 14.8499 14.9101 14.9408 14.8595C15.0316 14.8089 15.1322 14.7782 15.2358 14.7695C15.3089 14.7636 15.383 14.7666 15.456 14.7666C19.5987 14.7666 23.7416 14.7649 27.8846 14.7617C28.3398 14.7617 28.6523 14.9128 28.8005 15.3543V15.6457Z" fill="#949494"/>
<path d="M28.8005 21.1543C28.6533 21.5958 28.3393 21.7474 27.8841 21.7464C23.7169 21.7382 19.5497 21.7366 15.3825 21.7415C14.9527 21.7415 14.6633 21.5305 14.5819 21.1606C14.5599 21.059 14.56 20.9538 14.5819 20.8522C14.6038 20.7506 14.6472 20.6548 14.7091 20.5712C14.7709 20.4876 14.8499 20.4182 14.9408 20.3676C15.0316 20.317 15.1322 20.2863 15.2358 20.2776C15.3089 20.2717 15.383 20.2747 15.456 20.2747C19.5987 20.2747 23.7416 20.273 27.8846 20.2698C28.3398 20.2698 28.6523 20.4209 28.8005 20.8624V21.1543Z" fill="#949494"/>
<path d="M10 9.98109C10.002 9.78511 10.062 9.59411 10.1725 9.43225C10.283 9.27038 10.439 9.14491 10.6208 9.07171C10.8026 8.99851 11.0021 8.98087 11.1939 9.02101C11.3857 9.06114 11.5613 9.15726 11.6985 9.29721C11.8357 9.43716 11.9284 9.61465 11.9647 9.80724C12.001 9.99983 11.9794 10.1989 11.9027 10.3792C11.8259 10.5595 11.6973 10.713 11.5333 10.8203C11.3693 10.9276 11.1771 10.9838 10.9812 10.9818C10.7185 10.9789 10.4677 10.8719 10.2838 10.6843C10.0998 10.4967 9.99781 10.2438 10 9.98109V9.98109Z" fill="#949494"/>
<path d="M11.9819 15.497C11.9823 15.693 11.9245 15.8847 11.816 16.0479C11.7074 16.2111 11.5529 16.3384 11.372 16.4138C11.1911 16.4891 10.9918 16.5091 10.7995 16.4713C10.6072 16.4334 10.4305 16.3394 10.2916 16.2011C10.1528 16.0628 10.058 15.8864 10.0194 15.6943C9.98081 15.5021 10 15.3028 10.0747 15.1216C10.1493 14.9404 10.276 14.7854 10.4388 14.6762C10.6015 14.5669 10.793 14.5084 10.989 14.5081C11.2516 14.5082 11.5035 14.6123 11.6895 14.7976C11.8756 14.983 11.9807 15.2344 11.9819 15.497Z" fill="#949494"/>
<path d="M10.988 22C10.7921 21.9994 10.6008 21.9408 10.4382 21.8315C10.2756 21.7222 10.149 21.5672 10.0745 21.386C9.99997 21.2048 9.98083 21.0056 10.0195 20.8136C10.0581 20.6215 10.1528 20.4452 10.2916 20.307C10.4304 20.1687 10.6071 20.0747 10.7993 20.0368C10.9915 19.9989 11.1906 20.0189 11.3715 20.0941C11.5524 20.1694 11.7069 20.2965 11.8156 20.4596C11.9242 20.6226 11.9821 20.8141 11.9819 21.0101C11.981 21.273 11.8759 21.5249 11.6895 21.7104C11.5032 21.896 11.251 22.0001 10.988 22V22Z" fill="#949494"/>
<defs>
<filter id="filter0_d_231_14958" x="0" y="0" width="39" height="39" filterUnits="userSpaceOnUse" color-interpolation-filters="sRGB">
<feFlood flood-opacity="0" result="BackgroundImageFix"/>
<feColorMatrix in="SourceAlpha" type="matrix" values="0 0 0 0 0 0 0 0 0 0 0 0 0 0 0 0 0 0 127 0" result="hardAlpha"/>
<feOffset dy="4"/>
<feGaussianBlur stdDeviation="2"/>
<feComposite in2="hardAlpha" operator="out"/>
<feColorMatrix type="matrix" values="0 0 0 0 0 0 0 0 0 0 0 0 0 0 0 0 0 0 0.25 0"/>
<feBlend mode="normal" in2="BackgroundImageFix" result="effect1_dropShadow_231_14958"/>
<feBlend mode="normal" in="SourceGraphic" in2="effect1_dropShadow_231_14958" result="shape"/>
</filter>
</defs>
</svg>
