<svg width="48" height="48" viewBox="0 0 48 48" fill="none" xmlns="http://www.w3.org/2000/svg">
<g filter="url(#filter0_d_347_728)">
<rect x="4" width="40" height="40" rx="10" fill="white"/>
</g>
<path d="M22.9999 28.835V36H22.1499V30.735C22.1499 30.665 22.1515 30.59 22.1549 30.51C22.1615 30.43 22.1682 30.3483 22.1749 30.265L19.7149 34.745C19.6382 34.895 19.5215 34.97 19.3649 34.97H19.2249C19.0682 34.97 18.9515 34.895 18.8749 34.745L16.3649 30.245C16.3849 30.4217 16.3949 30.585 16.3949 30.735V36H15.5449V28.835H16.2599C16.3465 28.835 16.4132 28.8433 16.4599 28.86C16.5065 28.8767 16.5515 28.9233 16.5949 29L19.0699 33.41C19.1099 33.49 19.1482 33.5733 19.1849 33.66C19.2249 33.7467 19.2615 33.835 19.2949 33.925C19.3282 33.835 19.3632 33.7467 19.3999 33.66C19.4365 33.57 19.4765 33.485 19.5199 33.405L21.9499 29C21.9899 28.9233 22.0332 28.8767 22.0799 28.86C22.1299 28.8433 22.1982 28.835 22.2849 28.835H22.9999ZM27.8557 32.915C27.8557 32.7083 27.8257 32.52 27.7657 32.35C27.7091 32.1767 27.6241 32.0283 27.5107 31.905C27.4007 31.7783 27.2657 31.6817 27.1057 31.615C26.9457 31.545 26.7641 31.51 26.5607 31.51C26.1341 31.51 25.7957 31.635 25.5457 31.885C25.2991 32.1317 25.1457 32.475 25.0857 32.915H27.8557ZM28.5757 35.29C28.4657 35.4233 28.3341 35.54 28.1807 35.64C28.0274 35.7367 27.8624 35.8167 27.6857 35.88C27.5124 35.9433 27.3324 35.99 27.1457 36.02C26.9591 36.0533 26.7741 36.07 26.5907 36.07C26.2407 36.07 25.9174 36.0117 25.6207 35.895C25.3274 35.775 25.0724 35.6017 24.8557 35.375C24.6424 35.145 24.4757 34.8617 24.3557 34.525C24.2357 34.1883 24.1757 33.8017 24.1757 33.365C24.1757 33.0117 24.2291 32.6817 24.3357 32.375C24.4457 32.0683 24.6024 31.8033 24.8057 31.58C25.0091 31.3533 25.2574 31.1767 25.5507 31.05C25.8441 30.92 26.1741 30.855 26.5407 30.855C26.8441 30.855 27.1241 30.9067 27.3807 31.01C27.6407 31.11 27.8641 31.2567 28.0507 31.45C28.2407 31.64 28.3891 31.8767 28.4957 32.16C28.6024 32.44 28.6557 32.76 28.6557 33.12C28.6557 33.26 28.6407 33.3533 28.6107 33.4C28.5807 33.4467 28.5241 33.47 28.4407 33.47H25.0557C25.0657 33.79 25.1091 34.0683 25.1857 34.305C25.2657 34.5417 25.3757 34.74 25.5157 34.9C25.6557 35.0567 25.8224 35.175 26.0157 35.255C26.2091 35.3317 26.4257 35.37 26.6657 35.37C26.8891 35.37 27.0807 35.345 27.2407 35.295C27.4041 35.2417 27.5441 35.185 27.6607 35.125C27.7774 35.065 27.8741 35.01 27.9507 34.96C28.0307 34.9067 28.0991 34.88 28.1557 34.88C28.2291 34.88 28.2857 34.9083 28.3257 34.965L28.5757 35.29ZM32.6989 31.77C32.6589 31.8433 32.5973 31.88 32.5139 31.88C32.4639 31.88 32.4073 31.8617 32.3439 31.825C32.2806 31.7883 32.2023 31.7483 32.1089 31.705C32.0189 31.6583 31.9106 31.6167 31.7839 31.58C31.6573 31.54 31.5073 31.52 31.3339 31.52C31.1839 31.52 31.0489 31.54 30.9289 31.58C30.8089 31.6167 30.7056 31.6683 30.6189 31.735C30.5356 31.8017 30.4706 31.88 30.4239 31.97C30.3806 32.0567 30.3589 32.1517 30.3589 32.255C30.3589 32.385 30.3956 32.4933 30.4689 32.58C30.5456 32.6667 30.6456 32.7417 30.7689 32.805C30.8923 32.8683 31.0323 32.925 31.1889 32.975C31.3456 33.0217 31.5056 33.0733 31.6689 33.13C31.8356 33.1833 31.9973 33.2433 32.1539 33.31C32.3106 33.3767 32.4506 33.46 32.5739 33.56C32.6973 33.66 32.7956 33.7833 32.8689 33.93C32.9456 34.0733 32.9839 34.2467 32.9839 34.45C32.9839 34.6833 32.9423 34.9 32.8589 35.1C32.7756 35.2967 32.6523 35.4683 32.4889 35.615C32.3256 35.7583 32.1256 35.8717 31.8889 35.955C31.6523 36.0383 31.3789 36.08 31.0689 36.08C30.7156 36.08 30.3956 36.0233 30.1089 35.91C29.8223 35.7933 29.5789 35.645 29.3789 35.465L29.5889 35.125C29.6156 35.0817 29.6473 35.0483 29.6839 35.025C29.7206 35.0017 29.7673 34.99 29.8239 34.99C29.8839 34.99 29.9473 35.0133 30.0139 35.06C30.0806 35.1067 30.1606 35.1583 30.2539 35.215C30.3506 35.2717 30.4673 35.3233 30.6039 35.37C30.7406 35.4167 30.9106 35.44 31.1139 35.44C31.2873 35.44 31.4389 35.4183 31.5689 35.375C31.6989 35.3283 31.8073 35.2667 31.8939 35.19C31.9806 35.1133 32.0439 35.025 32.0839 34.925C32.1273 34.825 32.1489 34.7183 32.1489 34.605C32.1489 34.465 32.1106 34.35 32.0339 34.26C31.9606 34.1667 31.8623 34.0883 31.7389 34.025C31.6156 33.9583 31.4739 33.9017 31.3139 33.855C31.1573 33.805 30.9956 33.7533 30.8289 33.7C30.6656 33.6467 30.5039 33.5867 30.3439 33.52C30.1873 33.45 30.0473 33.3633 29.9239 33.26C29.8006 33.1567 29.7006 33.03 29.6239 32.88C29.5506 32.7267 29.5139 32.5417 29.5139 32.325C29.5139 32.1317 29.5539 31.9467 29.6339 31.77C29.7139 31.59 29.8306 31.4333 29.9839 31.3C30.1373 31.1633 30.3256 31.055 30.5489 30.975C30.7723 30.895 31.0273 30.855 31.3139 30.855C31.6473 30.855 31.9456 30.9083 32.2089 31.015C32.4756 31.1183 32.7056 31.2617 32.8989 31.445L32.6989 31.77Z" fill="#06192B"/>
<path d="M33.3492 10.5093H15.2689C15.1758 10.5148 15.0824 10.5126 14.9897 10.5025C14.7709 10.4631 14.6385 10.3272 14.6378 10.1023C14.6371 9.8775 14.7669 9.74096 14.989 9.70428C15.0817 9.69385 15.1751 9.69158 15.2682 9.69749H33.3118C33.5204 8.3219 32.6658 6.89129 31.2393 6.55979C30.6163 6.4151 29.952 6.44634 29.2774 6.3954C29.2774 6.83626 29.2774 7.21056 29.2774 7.57806C29.274 8.3348 28.7544 8.8864 28.0499 8.88232C27.3455 8.87825 26.8401 8.33073 26.8367 7.59165C26.8367 7.22007 26.8367 6.84849 26.8367 6.44431H21.7419C21.6656 6.44737 21.5892 6.44601 21.513 6.44023C21.4054 6.43789 21.3031 6.39288 21.2286 6.31511C21.1541 6.23733 21.1136 6.13316 21.116 6.02552C21.1183 5.91787 21.1633 5.81556 21.2411 5.7411C21.3189 5.66664 21.423 5.62612 21.5307 5.62846C21.6061 5.62099 21.6828 5.62507 21.7589 5.62507H26.8442C26.8041 5.09861 26.8605 4.61766 27.2898 4.27326C27.5213 4.0833 27.8154 3.98642 28.1145 4.00154C28.8502 4.03007 29.2014 4.5049 29.2978 5.62778C29.6884 5.62778 30.0838 5.62778 30.4785 5.62778C31.5613 5.63594 32.477 6.03537 33.2079 6.83083C33.8193 7.50062 34.1548 8.30016 34.1589 9.20839C34.1693 12.786 34.1693 16.3637 34.1589 19.9414C34.1508 21.8984 32.5245 23.524 30.5681 23.5294C25.9149 23.5417 21.2617 23.5417 16.6085 23.5294C14.6385 23.524 13.017 21.8916 13.0082 19.9217C12.9973 16.3608 12.9973 12.8001 13.0082 9.23964C13.0143 7.26966 14.6385 5.65428 16.6085 5.62914C17.0228 5.62439 17.4379 5.62914 17.8903 5.62914C17.8903 5.47698 17.8903 5.33704 17.8903 5.19643C17.8978 4.87829 18.0295 4.57571 18.2571 4.35336C18.4848 4.13101 18.7904 4.00653 19.1086 4.00653C19.4269 4.00653 19.7325 4.13101 19.9601 4.35336C20.1878 4.57571 20.3194 4.87829 20.327 5.19643C20.3378 6.02744 20.3378 6.85823 20.327 7.68879C20.318 8.00683 20.185 8.30874 19.9563 8.52996C19.7276 8.75118 19.4215 8.87414 19.1033 8.87254C18.7852 8.87095 18.4803 8.74492 18.2538 8.52141C18.0274 8.29791 17.8974 7.99467 17.8917 7.67656C17.8815 7.27238 17.8917 6.86751 17.8917 6.44363C16.9406 6.44906 16.0005 6.31999 15.1609 6.87634C14.3212 7.43269 13.8342 8.20506 13.8287 9.20499C13.8093 12.7826 13.8093 16.3603 13.8287 19.938C13.8362 21.4576 15.0875 22.6891 16.6139 22.7129C17.8176 22.7313 19.0213 22.7177 20.2244 22.7177C23.6236 22.7177 27.0226 22.7177 30.4214 22.7177C31.8337 22.7177 32.9599 21.8441 33.2745 20.5059C33.3243 20.2914 33.3496 20.0719 33.3499 19.8517C33.3548 16.7994 33.356 13.7475 33.3533 10.6961L33.3492 10.5093ZM19.5152 6.44906C19.5152 6.05914 19.5152 5.66922 19.5152 5.2793C19.5152 4.99603 19.3576 4.81942 19.1192 4.81398C18.8807 4.80855 18.7068 4.9906 18.7027 5.28881C18.6996 6.05869 18.6996 6.82992 18.7027 7.60252C18.7027 7.88443 18.861 8.0624 19.0981 8.06852C19.3352 8.07463 19.5111 7.89122 19.5145 7.59708C19.5179 7.21192 19.5152 6.83083 19.5152 6.44906ZM28.4664 6.44363C28.4664 6.06254 28.4664 5.68077 28.4664 5.299C28.4664 5.00011 28.3074 4.81738 28.0588 4.81738C27.8101 4.81738 27.6512 4.99875 27.6512 5.29764C27.6485 6.06073 27.6485 6.82358 27.6512 7.58621C27.6512 7.88511 27.8101 8.06784 28.0588 8.06852C28.3074 8.0692 28.4664 7.88579 28.4664 7.58825C28.4691 7.20309 28.4664 6.822 28.4664 6.44363Z" fill="#06192B"/>
<path d="M21.1415 13.3685C21.1398 13.5302 21.0901 13.6877 20.9987 13.8211C20.9072 13.9544 20.7782 14.0576 20.628 14.1174C20.4777 14.1772 20.3131 14.191 20.155 14.157C19.9969 14.123 19.8525 14.0428 19.7402 13.9265C19.6278 13.8102 19.5526 13.6631 19.524 13.504C19.4955 13.3448 19.5149 13.1807 19.5799 13.0326C19.6448 12.8846 19.7524 12.7591 19.8888 12.6723C20.0252 12.5855 20.1844 12.5413 20.346 12.5452C20.5602 12.5503 20.7638 12.6396 20.9126 12.7937C21.0615 12.9478 21.1437 13.1542 21.1415 13.3685Z" fill="#06192B"/>
<path d="M23.5807 12.5452C23.7425 12.5441 23.9008 12.5912 24.0357 12.6803C24.1706 12.7695 24.2759 12.8968 24.3383 13.046C24.4006 13.1953 24.4172 13.3596 24.3859 13.5183C24.3545 13.6769 24.2767 13.8227 24.1623 13.937C24.0479 14.0513 23.9021 14.129 23.7434 14.1602C23.5848 14.1914 23.4204 14.1747 23.2712 14.1122C23.1221 14.0497 22.9949 13.9443 22.9058 13.8093C22.8167 13.6744 22.7698 13.5159 22.771 13.3542C22.7726 13.14 22.8585 12.9351 23.01 12.7837C23.1615 12.6323 23.3666 12.5466 23.5807 12.5452Z" fill="#06192B"/>
<path d="M27.6513 13.3671C27.6499 13.5288 27.6005 13.6864 27.5092 13.8199C27.418 13.9535 27.2891 14.0568 27.139 14.1169C26.9889 14.177 26.8243 14.191 26.6661 14.1573C26.508 14.1236 26.3634 14.0436 26.2509 13.9275C26.1383 13.8114 26.0628 13.6644 26.034 13.5053C26.0052 13.3462 26.0244 13.1821 26.0891 13.0339C26.1538 12.8857 26.2611 12.7601 26.3974 12.6731C26.5337 12.586 26.6928 12.5415 26.8545 12.5451C27.0687 12.5499 27.2723 12.6389 27.4214 12.7927C27.5706 12.9465 27.6531 13.1529 27.6513 13.3671Z" fill="#06192B"/>
<path d="M30.0797 14.1706C29.918 14.1683 29.7607 14.1179 29.6278 14.026C29.4948 13.934 29.3922 13.8045 29.333 13.6541C29.2738 13.5037 29.2607 13.339 29.2953 13.1811C29.3299 13.0232 29.4106 12.8791 29.5273 12.7672C29.644 12.6553 29.7914 12.5806 29.9506 12.5527C30.1098 12.5247 30.2738 12.5448 30.4216 12.6102C30.5694 12.6757 30.6944 12.7836 30.7808 12.9203C30.8671 13.057 30.9108 13.2163 30.9064 13.3779C30.9005 13.5922 30.8105 13.7956 30.6557 13.9439C30.501 14.0923 30.294 14.1738 30.0797 14.1706Z" fill="#06192B"/>
<path d="M17.0594 17.4265C16.8978 17.4242 16.7405 17.3738 16.6076 17.2819C16.4746 17.1899 16.372 17.0605 16.3128 16.9101C16.2536 16.7597 16.2404 16.5951 16.2749 16.4372C16.3095 16.2793 16.3902 16.1352 16.5068 16.0233C16.6234 15.9114 16.7707 15.8366 16.9299 15.8086C17.0891 15.7806 17.253 15.8005 17.4009 15.8659C17.5487 15.9312 17.6738 16.0391 17.7602 16.1757C17.8466 16.3123 17.8904 16.4715 17.8861 16.6331C17.8794 16.8471 17.7891 17.0501 17.6346 17.1984C17.4801 17.3467 17.2736 17.4286 17.0594 17.4265Z" fill="#06192B"/>
<path d="M20.3141 17.4266C20.1525 17.4241 19.9953 17.3737 19.8625 17.2817C19.7296 17.1896 19.6271 17.0602 19.568 16.9098C19.5089 16.7594 19.4958 16.5948 19.5304 16.4369C19.565 16.2791 19.6458 16.1351 19.7624 16.0232C19.8791 15.9113 20.0263 15.8367 20.1855 15.8087C20.3447 15.7807 20.5086 15.8007 20.6564 15.8661C20.8042 15.9314 20.9292 16.0393 21.0156 16.1759C21.102 16.3125 21.1458 16.4716 21.1415 16.6332C21.1346 16.8473 21.0442 17.0502 20.8895 17.1985C20.7349 17.3468 20.5284 17.4287 20.3141 17.4266Z" fill="#06192B"/>
<path d="M24.3958 16.6019C24.3987 16.7637 24.3533 16.9227 24.2654 17.0586C24.1776 17.1945 24.0513 17.3012 23.9026 17.3651C23.7539 17.429 23.5896 17.4472 23.4306 17.4174C23.2715 17.3876 23.1249 17.3111 23.0095 17.1977C22.8941 17.0842 22.815 16.939 22.7824 16.7805C22.7497 16.622 22.765 16.4574 22.8263 16.3076C22.8875 16.1578 22.992 16.0297 23.1263 15.9395C23.2607 15.8492 23.4188 15.8011 23.5807 15.801C23.7944 15.801 23.9996 15.8849 24.1521 16.0347C24.3046 16.1845 24.3921 16.3882 24.3958 16.6019Z" fill="#06192B"/>
<path d="M26.8341 17.4266C26.6723 17.4266 26.5142 17.3784 26.3799 17.2883C26.2456 17.1981 26.1411 17.07 26.0798 16.9203C26.0185 16.7706 26.0032 16.6061 26.0357 16.4476C26.0682 16.2891 26.1471 16.1439 26.2624 16.0304C26.3777 15.917 26.5242 15.8404 26.6831 15.8104C26.8421 15.7804 27.0064 15.7984 27.1551 15.8621C27.3038 15.9258 27.4302 16.0323 27.5182 16.168C27.6062 16.3037 27.6518 16.4626 27.6493 16.6243C27.6447 16.8379 27.5569 17.0412 27.4047 17.1911C27.2524 17.3409 27.0477 17.4254 26.8341 17.4266Z" fill="#06192B"/>
<path d="M30.9064 16.6046C30.9087 16.7663 30.8628 16.9251 30.7746 17.0606C30.6865 17.1962 30.56 17.3025 30.4112 17.3659C30.2625 17.4294 30.0983 17.4472 29.9394 17.4171C29.7805 17.3869 29.6342 17.3102 29.519 17.1967C29.4038 17.0832 29.3251 16.9379 29.2927 16.7795C29.2603 16.6211 29.2757 16.4566 29.3371 16.307C29.3984 16.1573 29.5029 16.0293 29.6371 15.9392C29.7714 15.8492 29.9295 15.801 30.0912 15.801C30.3054 15.801 30.511 15.8853 30.6636 16.0357C30.8161 16.1861 30.9033 16.3905 30.9064 16.6046Z" fill="#06192B"/>
<path d="M17.0765 19.0569C17.2381 19.0569 17.3961 19.105 17.5304 19.195C17.6646 19.285 17.7691 19.413 17.8305 19.5625C17.8919 19.712 17.9074 19.8765 17.8751 20.0349C17.8428 20.1933 17.7642 20.3385 17.6492 20.4521C17.5341 20.5657 17.3879 20.6425 17.2291 20.6728C17.0704 20.7031 16.9061 20.6855 16.7574 20.6222C16.6086 20.5589 16.482 20.4529 16.3937 20.3175C16.3054 20.1821 16.2593 20.0235 16.2613 19.8619C16.264 19.6474 16.351 19.4427 16.5036 19.292C16.6562 19.1414 16.862 19.0569 17.0765 19.0569Z" fill="#06192B"/>
<path d="M20.3329 20.6818C20.1712 20.6832 20.0128 20.6364 19.8777 20.5474C19.7427 20.4585 19.6371 20.3313 19.5745 20.1822C19.5119 20.0331 19.4951 19.8688 19.5262 19.7101C19.5572 19.5514 19.6348 19.4055 19.749 19.291C19.8632 19.1765 20.0089 19.0986 20.1675 19.0671C20.3261 19.0356 20.4905 19.0521 20.6398 19.1143C20.7891 19.1765 20.9165 19.2817 21.0058 19.4165C21.0951 19.5514 21.1422 19.7097 21.1413 19.8714C21.1401 20.0856 21.0546 20.2907 20.9033 20.4424C20.752 20.594 20.5471 20.68 20.3329 20.6818Z" fill="#06192B"/>
<path d="M24.3959 19.8598C24.3983 20.0215 24.3525 20.1803 24.2645 20.316C24.1764 20.4516 24.0499 20.558 23.9012 20.6216C23.7525 20.6852 23.5882 20.7031 23.4293 20.673C23.2704 20.643 23.124 20.5663 23.0088 20.4528C22.8935 20.3393 22.8147 20.1941 22.7822 20.0356C22.7498 19.8772 22.7652 19.7127 22.8265 19.563C22.8878 19.4133 22.9923 19.2853 23.1266 19.1952C23.2609 19.105 23.419 19.0569 23.5807 19.0569C23.7948 19.0569 24.0003 19.1411 24.1528 19.2913C24.3053 19.4415 24.3926 19.6458 24.3959 19.8598Z" fill="#06192B"/>
<path d="M27.6513 19.8775C27.6501 20.0392 27.6008 20.1968 27.5097 20.3304C27.4186 20.464 27.2899 20.5675 27.1398 20.6277C26.9898 20.6879 26.8252 20.7022 26.667 20.6686C26.5089 20.6351 26.3643 20.5553 26.2516 20.4393C26.1389 20.3234 26.0632 20.1765 26.0342 20.0175C26.0052 19.8584 26.0242 19.6944 26.0886 19.5461C26.1531 19.3978 26.2602 19.2721 26.3964 19.1849C26.5325 19.0976 26.6915 19.0528 26.8531 19.0562C27.0674 19.0607 27.2713 19.1494 27.4207 19.3031C27.5701 19.4568 27.653 19.6631 27.6513 19.8775Z" fill="#06192B"/>
<defs>
<filter id="filter0_d_347_728" x="0" y="0" width="48" height="48" filterUnits="userSpaceOnUse" color-interpolation-filters="sRGB">
<feFlood flood-opacity="0" result="BackgroundImageFix"/>
<feColorMatrix in="SourceAlpha" type="matrix" values="0 0 0 0 0 0 0 0 0 0 0 0 0 0 0 0 0 0 127 0" result="hardAlpha"/>
<feOffset dy="4"/>
<feGaussianBlur stdDeviation="2"/>
<feComposite in2="hardAlpha" operator="out"/>
<feColorMatrix type="matrix" values="0 0 0 0 0 0 0 0 0 0 0 0 0 0 0 0 0 0 0.25 0"/>
<feBlend mode="normal" in2="BackgroundImageFix" result="effect1_dropShadow_347_728"/>
<feBlend mode="normal" in="SourceGraphic" in2="effect1_dropShadow_347_728" result="shape"/>
</filter>
</defs>
</svg>
