<svg xmlns="http://www.w3.org/2000/svg" viewBox="0 0 304.95 263.42">
<defs>
<style>.cls-1{fill:#844f92;}</style>
</defs>
<g id="Capa_2" data-name="Capa 2">
<g id="Capa_1-2" data-name="Capa 1">
<path class="cls-1" d="M301.94,96.56c-17-27.75-38.65-49.5-64.41-64.66A160.92,160.92,0,0,0,157.3,9.51a157,157,0,0,0-25.78,2A85.24,85.24,0,0,1,152,50.58c1.38,0,2.77-.07,4.16-.07H157c43.85.31,83.92,24.89,110,67.44a20.5,20.5,0,0,0,35-21.39Z"/>
<path class="cls-1" d="M56.32,153.5a20.49,20.49,0,0,0,34.95.48c.68-1.08,1.38-2.13,2.09-3.17a84.92,84.92,0,0,1-24.53,3.62A86.07,86.07,0,0,1,56.32,153.5Z"/>
<path class="cls-1" d="M155.91,114.73h.47c25,.17,48,14.39,63.09,39a20.5,20.5,0,1,0,35-21.39c-22.62-37-58.26-58.33-97.78-58.61-.9,0-1.81,0-2.71,0a84.81,84.81,0,0,1-14.42,43A66.92,66.92,0,0,1,155.91,114.73Z"/>
<path class="cls-1" d="M156.21,138.06h-.48c-25.58,0-49.71,14.07-64.63,37.71a20.5,20.5,0,0,0,34.67,21.88c7.47-11.83,18.37-18.59,30-18.59h.21c11.37.08,22,6.76,29,18.34A20.5,20.5,0,1,0,220,176C205.3,152.07,182.07,138.24,156.21,138.06Z"/>
<circle class="cls-1" cx="155.45" cy="239.92" r="23.5"/>
<path class="cls-1" d="M68.9,0a68.9,68.9,0,1,0,68.89,68.9A69,69,0,0,0,68.9,0Zm0,26.67a41.91,41.91,0,0,1,16,3.16L32.32,90A42.2,42.2,0,0,1,68.9,26.67Zm0,84.45a41.85,41.85,0,0,1-16.66-3.43l52.88-60.47a42.21,42.21,0,0,1-36.22,63.9Z"/>
</g>
</g>
</svg>