<svg xmlns="http://www.w3.org/2000/svg" viewBox="0 0 265 277.26"><defs><style>.cls-1{fill:#9dcf95;}.cls-2{fill:#ebecef;}.cls-3{fill:#d05f5f;}</style></defs><g id="Capa_2" data-name="Capa 2"><g id="Capa_1-2" data-name="Capa 1"><polygon class="cls-1" points="86.98 181.26 51 181.26 16.32 246.54 74.1 246.54 86.98 181.26"/><polygon class="cls-1" points="228.34 208.26 214 181.26 95.06 181.26 92.22 208.26 228.34 208.26"/><polygon class="cls-1" points="84.97 277.26 265 277.26 233.66 218.26 91.17 218.26 84.97 277.26"/><polygon class="cls-1" points="9.56 259.26 0 277.26 68.04 277.26 71.59 259.26 9.56 259.26"/><polygon class="cls-2" points="228.34 208.26 92.22 208.26 95.06 181.26 86.98 181.26 74.1 246.54 16.32 246.54 9.56 259.26 71.59 259.26 68.04 277.26 84.97 277.26 91.17 218.26 233.66 218.26 228.34 208.26"/><path class="cls-3" d="M134.78,0A80.44,80.44,0,0,0,57.85,103.78C68.68,153,134.41,236.31,134.41,236.31s67.07-84,77.45-133A80.42,80.42,0,0,0,134.78,0Zm-3.15,30.22a21.6,21.6,0,0,1,6.76.13c5.64,1,8.92,5.09,8.79,10.85-.26,11.62-.68,23.24-1,34.86h-.26q-.54,17.31-1.09,34.61c-.17,5.24-2.44,8-7.63,8.71a21.47,21.47,0,0,1-7.06-.34c-3.69-.77-5.53-3.17-5.67-6.94q-1.35-35.25-2.5-70.51C121.72,35.12,125.14,31.16,131.63,30.22Zm16.43,115.32c-.26,7.27-6.43,13.33-13.51,13.2h0a13.46,13.46,0,0,1,.27-26.92A13.59,13.59,0,0,1,148.06,145.54Z"/></g></g></svg>