<svg width="67" height="37" viewBox="0 0 67 37" fill="none" xmlns="http://www.w3.org/2000/svg">
<path d="M3.48816 28.835C3.57483 28.835 3.63816 28.8467 3.67816 28.87C3.7215 28.89 3.76983 28.9333 3.82316 29L7.97316 34.4C7.96316 34.3133 7.9565 34.23 7.95316 34.15C7.94983 34.0667 7.94816 33.9867 7.94816 33.91V28.835H8.79816V36H8.30816C8.2315 36 8.1665 35.9867 8.11316 35.96C8.06316 35.9333 8.01316 35.8883 7.96316 35.825L3.81816 30.43C3.82483 30.5133 3.82983 30.595 3.83316 30.675C3.8365 30.755 3.83816 30.8283 3.83816 30.895V36H2.98816V28.835H3.48816ZM12.4568 30.855C12.8268 30.855 13.1601 30.9167 13.4568 31.04C13.7568 31.1633 14.0101 31.3383 14.2168 31.565C14.4268 31.7917 14.5868 32.0667 14.6968 32.39C14.8101 32.71 14.8668 33.0683 14.8668 33.465C14.8668 33.865 14.8101 34.225 14.6968 34.545C14.5868 34.865 14.4268 35.1383 14.2168 35.365C14.0101 35.5917 13.7568 35.7667 13.4568 35.89C13.1601 36.01 12.8268 36.07 12.4568 36.07C12.0868 36.07 11.7518 36.01 11.4518 35.89C11.1551 35.7667 10.9018 35.5917 10.6918 35.365C10.4818 35.1383 10.3201 34.865 10.2068 34.545C10.0934 34.225 10.0368 33.865 10.0368 33.465C10.0368 33.0683 10.0934 32.71 10.2068 32.39C10.3201 32.0667 10.4818 31.7917 10.6918 31.565C10.9018 31.3383 11.1551 31.1633 11.4518 31.04C11.7518 30.9167 12.0868 30.855 12.4568 30.855ZM12.4568 35.375C12.9568 35.375 13.3301 35.2083 13.5768 34.875C13.8234 34.5383 13.9468 34.07 13.9468 33.47C13.9468 32.8667 13.8234 32.3967 13.5768 32.06C13.3301 31.7233 12.9568 31.555 12.4568 31.555C12.2034 31.555 11.9834 31.5983 11.7968 31.685C11.6101 31.7717 11.4534 31.8967 11.3268 32.06C11.2034 32.2233 11.1101 32.425 11.0468 32.665C10.9868 32.9017 10.9568 33.17 10.9568 33.47C10.9568 33.77 10.9868 34.0383 11.0468 34.275C11.1101 34.5117 11.2034 34.7117 11.3268 34.875C11.4534 35.035 11.6101 35.1583 11.7968 35.245C11.9834 35.3317 12.2034 35.375 12.4568 35.375ZM17.4984 36.08C17.0984 36.08 16.7901 35.9683 16.5734 35.745C16.3601 35.5217 16.2534 35.2 16.2534 34.78V31.68H15.6434C15.5901 31.68 15.5451 31.665 15.5084 31.635C15.4717 31.6017 15.4534 31.5517 15.4534 31.485V31.13L16.2834 31.025L16.4884 29.46C16.4951 29.41 16.5167 29.37 16.5534 29.34C16.5901 29.3067 16.6367 29.29 16.6934 29.29H17.1434V31.035H18.5934V31.68H17.1434V34.72C17.1434 34.9333 17.1951 35.0917 17.2984 35.195C17.4017 35.2983 17.5351 35.35 17.6984 35.35C17.7917 35.35 17.8717 35.3383 17.9384 35.315C18.0084 35.2883 18.0684 35.26 18.1184 35.23C18.1684 35.2 18.2101 35.1733 18.2434 35.15C18.2801 35.1233 18.3117 35.11 18.3384 35.11C18.3851 35.11 18.4267 35.1383 18.4634 35.195L18.7234 35.62C18.5701 35.7633 18.3851 35.8767 18.1684 35.96C17.9517 36.04 17.7284 36.08 17.4984 36.08ZM20.6839 30.935V36H19.7939V30.935H20.6839ZM20.8839 29.345C20.8839 29.4317 20.8655 29.5133 20.8289 29.59C20.7955 29.6633 20.7489 29.73 20.6889 29.79C20.6322 29.8467 20.5655 29.8917 20.4889 29.925C20.4122 29.9583 20.3305 29.975 20.2439 29.975C20.1572 29.975 20.0755 29.9583 19.9989 29.925C19.9255 29.8917 19.8589 29.8467 19.7989 29.79C19.7422 29.73 19.6972 29.6633 19.6639 29.59C19.6305 29.5133 19.6139 29.4317 19.6139 29.345C19.6139 29.2583 19.6305 29.1767 19.6639 29.1C19.6972 29.02 19.7422 28.9517 19.7989 28.895C19.8589 28.835 19.9255 28.7883 19.9989 28.755C20.0755 28.7217 20.1572 28.705 20.2439 28.705C20.3305 28.705 20.4122 28.7217 20.4889 28.755C20.5655 28.7883 20.6322 28.835 20.6889 28.895C20.7489 28.9517 20.7955 29.02 20.8289 29.1C20.8655 29.1767 20.8839 29.2583 20.8839 29.345ZM22.4525 36V31.695L21.8925 31.63C21.8225 31.6133 21.7641 31.5883 21.7175 31.555C21.6741 31.5183 21.6525 31.4667 21.6525 31.4V31.035H22.4525V30.755C22.4525 30.445 22.5008 30.1617 22.5975 29.905C22.6941 29.645 22.8391 29.4217 23.0325 29.235C23.2258 29.0483 23.4658 28.9033 23.7525 28.8C24.0425 28.6967 24.3791 28.645 24.7625 28.645C24.8891 28.645 25.0175 28.6533 25.1475 28.67C25.2808 28.6867 25.3958 28.7117 25.4925 28.745L25.4625 29.21C25.4558 29.2533 25.4358 29.2817 25.4025 29.295C25.3691 29.305 25.3208 29.31 25.2575 29.31C25.2208 29.31 25.1825 29.31 25.1425 29.31C25.1025 29.3067 25.0575 29.305 25.0075 29.305C24.4175 29.305 23.9875 29.4283 23.7175 29.675C23.4508 29.9183 23.3175 30.2867 23.3175 30.78V31.035H26.3775V36H25.4875V31.68H23.3475V36H22.4525ZM31.4106 31.835C31.3839 31.8717 31.3573 31.9 31.3306 31.92C31.3039 31.94 31.2656 31.95 31.2156 31.95C31.1656 31.95 31.1106 31.93 31.0506 31.89C30.9939 31.8467 30.9206 31.8 30.8306 31.75C30.7406 31.7 30.6306 31.655 30.5006 31.615C30.3739 31.5717 30.2173 31.55 30.0306 31.55C29.7839 31.55 29.5656 31.595 29.3756 31.685C29.1856 31.7717 29.0256 31.8983 28.8956 32.065C28.7689 32.2317 28.6723 32.4333 28.6056 32.67C28.5423 32.9067 28.5106 33.1717 28.5106 33.465C28.5106 33.7717 28.5456 34.045 28.6156 34.285C28.6856 34.5217 28.7839 34.7217 28.9106 34.885C29.0373 35.045 29.1906 35.1683 29.3706 35.255C29.5539 35.3383 29.7589 35.38 29.9856 35.38C30.2023 35.38 30.3806 35.355 30.5206 35.305C30.6606 35.2517 30.7773 35.1933 30.8706 35.13C30.9639 35.0667 31.0406 35.01 31.1006 34.96C31.1606 34.9067 31.2206 34.88 31.2806 34.88C31.3573 34.88 31.4139 34.9083 31.4506 34.965L31.7006 35.29C31.4806 35.56 31.2056 35.7583 30.8756 35.885C30.5456 36.0083 30.1973 36.07 29.8306 36.07C29.5139 36.07 29.2189 36.0117 28.9456 35.895C28.6756 35.7783 28.4406 35.61 28.2406 35.39C28.0406 35.1667 27.8823 34.8933 27.7656 34.57C27.6523 34.2467 27.5956 33.8783 27.5956 33.465C27.5956 33.0883 27.6473 32.74 27.7506 32.42C27.8573 32.1 28.0106 31.825 28.2106 31.595C28.4139 31.3617 28.6639 31.18 28.9606 31.05C29.2573 30.92 29.5973 30.855 29.9806 30.855C30.3339 30.855 30.6473 30.9133 30.9206 31.03C31.1939 31.1433 31.4356 31.305 31.6456 31.515L31.4106 31.835ZM36.3436 36H35.9486C35.8619 36 35.7919 35.9867 35.7386 35.96C35.6852 35.9333 35.6502 35.8767 35.6336 35.79L35.5336 35.32C35.4002 35.44 35.2702 35.5483 35.1436 35.645C35.0169 35.7383 34.8836 35.8183 34.7436 35.885C34.6036 35.9483 34.4536 35.9967 34.2936 36.03C34.1369 36.0633 33.9619 36.08 33.7686 36.08C33.5719 36.08 33.3869 36.0533 33.2136 36C33.0436 35.9433 32.8952 35.86 32.7686 35.75C32.6419 35.64 32.5402 35.5017 32.4636 35.335C32.3902 35.165 32.3536 34.965 32.3536 34.735C32.3536 34.535 32.4086 34.3433 32.5186 34.16C32.6286 33.9733 32.8052 33.8083 33.0486 33.665C33.2952 33.5217 33.6169 33.405 34.0136 33.315C34.4102 33.2217 34.8952 33.1683 35.4686 33.155V32.76C35.4686 32.3667 35.3836 32.07 35.2136 31.87C35.0469 31.6667 34.7986 31.565 34.4686 31.565C34.2519 31.565 34.0686 31.5933 33.9186 31.65C33.7719 31.7033 33.6436 31.765 33.5336 31.835C33.4269 31.9017 33.3336 31.9633 33.2536 32.02C33.1769 32.0733 33.1002 32.1 33.0236 32.1C32.9636 32.1 32.9102 32.085 32.8636 32.055C32.8202 32.0217 32.7852 31.9817 32.7586 31.935L32.5986 31.65C32.8786 31.38 33.1802 31.1783 33.5036 31.045C33.8269 30.9117 34.1852 30.845 34.5786 30.845C34.8619 30.845 35.1136 30.8917 35.3336 30.985C35.5536 31.0783 35.7386 31.2083 35.8886 31.375C36.0386 31.5417 36.1519 31.7433 36.2286 31.98C36.3052 32.2167 36.3436 32.4767 36.3436 32.76V36ZM34.0336 35.455C34.1902 35.455 34.3336 35.44 34.4636 35.41C34.5936 35.3767 34.7152 35.3317 34.8286 35.275C34.9452 35.215 35.0552 35.1433 35.1586 35.06C35.2652 34.9767 35.3686 34.8817 35.4686 34.775V33.72C35.0586 33.7333 34.7102 33.7667 34.4236 33.82C34.1369 33.87 33.9036 33.9367 33.7236 34.02C33.5436 34.1033 33.4119 34.2017 33.3286 34.315C33.2486 34.4283 33.2086 34.555 33.2086 34.695C33.2086 34.8283 33.2302 34.9433 33.2736 35.04C33.3169 35.1367 33.3752 35.2167 33.4486 35.28C33.5219 35.34 33.6086 35.385 33.7086 35.415C33.8086 35.4417 33.9169 35.455 34.0336 35.455ZM41.1469 31.835C41.1202 31.8717 41.0936 31.9 41.0669 31.92C41.0402 31.94 41.0019 31.95 40.9519 31.95C40.9019 31.95 40.8469 31.93 40.7869 31.89C40.7302 31.8467 40.6569 31.8 40.5669 31.75C40.4769 31.7 40.3669 31.655 40.2369 31.615C40.1102 31.5717 39.9536 31.55 39.7669 31.55C39.5202 31.55 39.3019 31.595 39.1119 31.685C38.9219 31.7717 38.7619 31.8983 38.6319 32.065C38.5052 32.2317 38.4086 32.4333 38.3419 32.67C38.2786 32.9067 38.2469 33.1717 38.2469 33.465C38.2469 33.7717 38.2819 34.045 38.3519 34.285C38.4219 34.5217 38.5202 34.7217 38.6469 34.885C38.7736 35.045 38.9269 35.1683 39.1069 35.255C39.2902 35.3383 39.4952 35.38 39.7219 35.38C39.9386 35.38 40.1169 35.355 40.2569 35.305C40.3969 35.2517 40.5136 35.1933 40.6069 35.13C40.7002 35.0667 40.7769 35.01 40.8369 34.96C40.8969 34.9067 40.9569 34.88 41.0169 34.88C41.0936 34.88 41.1502 34.9083 41.1869 34.965L41.4369 35.29C41.2169 35.56 40.9419 35.7583 40.6119 35.885C40.2819 36.0083 39.9336 36.07 39.5669 36.07C39.2502 36.07 38.9552 36.0117 38.6819 35.895C38.4119 35.7783 38.1769 35.61 37.9769 35.39C37.7769 35.1667 37.6186 34.8933 37.5019 34.57C37.3886 34.2467 37.3319 33.8783 37.3319 33.465C37.3319 33.0883 37.3836 32.74 37.4869 32.42C37.5936 32.1 37.7469 31.825 37.9469 31.595C38.1502 31.3617 38.4002 31.18 38.6969 31.05C38.9936 30.92 39.3336 30.855 39.7169 30.855C40.0702 30.855 40.3836 30.9133 40.6569 31.03C40.9302 31.1433 41.1719 31.305 41.3819 31.515L41.1469 31.835ZM43.3499 30.935V36H42.4599V30.935H43.3499ZM43.5499 29.345C43.5499 29.4317 43.5315 29.5133 43.4949 29.59C43.4615 29.6633 43.4149 29.73 43.3549 29.79C43.2982 29.8467 43.2315 29.8917 43.1549 29.925C43.0782 29.9583 42.9965 29.975 42.9099 29.975C42.8232 29.975 42.7415 29.9583 42.6649 29.925C42.5915 29.8917 42.5249 29.8467 42.4649 29.79C42.4082 29.73 42.3632 29.6633 42.3299 29.59C42.2965 29.5133 42.2799 29.4317 42.2799 29.345C42.2799 29.2583 42.2965 29.1767 42.3299 29.1C42.3632 29.02 42.4082 28.9517 42.4649 28.895C42.5249 28.835 42.5915 28.7883 42.6649 28.755C42.7415 28.7217 42.8232 28.705 42.9099 28.705C42.9965 28.705 43.0782 28.7217 43.1549 28.755C43.2315 28.7883 43.2982 28.835 43.3549 28.895C43.4149 28.9517 43.4615 29.02 43.4949 29.1C43.5315 29.1767 43.5499 29.2583 43.5499 29.345ZM46.9685 30.855C47.3385 30.855 47.6718 30.9167 47.9685 31.04C48.2685 31.1633 48.5218 31.3383 48.7285 31.565C48.9385 31.7917 49.0985 32.0667 49.2085 32.39C49.3218 32.71 49.3785 33.0683 49.3785 33.465C49.3785 33.865 49.3218 34.225 49.2085 34.545C49.0985 34.865 48.9385 35.1383 48.7285 35.365C48.5218 35.5917 48.2685 35.7667 47.9685 35.89C47.6718 36.01 47.3385 36.07 46.9685 36.07C46.5985 36.07 46.2635 36.01 45.9635 35.89C45.6668 35.7667 45.4135 35.5917 45.2035 35.365C44.9935 35.1383 44.8318 34.865 44.7185 34.545C44.6051 34.225 44.5485 33.865 44.5485 33.465C44.5485 33.0683 44.6051 32.71 44.7185 32.39C44.8318 32.0667 44.9935 31.7917 45.2035 31.565C45.4135 31.3383 45.6668 31.1633 45.9635 31.04C46.2635 30.9167 46.5985 30.855 46.9685 30.855ZM46.9685 35.375C47.4685 35.375 47.8418 35.2083 48.0885 34.875C48.3351 34.5383 48.4585 34.07 48.4585 33.47C48.4585 32.8667 48.3351 32.3967 48.0885 32.06C47.8418 31.7233 47.4685 31.555 46.9685 31.555C46.7151 31.555 46.4951 31.5983 46.3085 31.685C46.1218 31.7717 45.9651 31.8967 45.8385 32.06C45.7151 32.2233 45.6218 32.425 45.5585 32.665C45.4985 32.9017 45.4685 33.17 45.4685 33.47C45.4685 33.77 45.4985 34.0383 45.5585 34.275C45.6218 34.5117 45.7151 34.7117 45.8385 34.875C45.9651 35.035 46.1218 35.1583 46.3085 35.245C46.4951 35.3317 46.7151 35.375 46.9685 35.375ZM50.4751 36V30.935H51.0051C51.1318 30.935 51.2118 30.9967 51.2451 31.12L51.3151 31.67C51.5351 31.4267 51.7801 31.23 52.0501 31.08C52.3235 30.93 52.6385 30.855 52.9951 30.855C53.2718 30.855 53.5151 30.9017 53.7251 30.995C53.9385 31.085 54.1151 31.215 54.2551 31.385C54.3985 31.5517 54.5068 31.7533 54.5801 31.99C54.6535 32.2267 54.6901 32.4883 54.6901 32.775V36H53.8001V32.775C53.8001 32.3917 53.7118 32.095 53.5351 31.885C53.3618 31.6717 53.0951 31.565 52.7351 31.565C52.4718 31.565 52.2251 31.6283 51.9951 31.755C51.7685 31.8817 51.5585 32.0533 51.3651 32.27V36H50.4751ZM58.0368 30.855C58.3401 30.855 58.6201 30.9067 58.8768 31.01C59.1334 31.11 59.3551 31.2567 59.5418 31.45C59.7284 31.64 59.8734 31.8767 59.9768 32.16C60.0834 32.44 60.1368 32.76 60.1368 33.12C60.1368 33.26 60.1218 33.3533 60.0918 33.4C60.0618 33.4467 60.0051 33.47 59.9218 33.47H56.5518C56.5584 33.79 56.6018 34.0683 56.6818 34.305C56.7618 34.5417 56.8718 34.74 57.0118 34.9C57.1518 35.0567 57.3184 35.175 57.5118 35.255C57.7051 35.3317 57.9218 35.37 58.1618 35.37C58.3851 35.37 58.5768 35.345 58.7368 35.295C58.9001 35.2417 59.0401 35.185 59.1568 35.125C59.2734 35.065 59.3701 35.01 59.4468 34.96C59.5268 34.9067 59.5951 34.88 59.6518 34.88C59.7251 34.88 59.7818 34.9083 59.8218 34.965L60.0718 35.29C59.9618 35.4233 59.8301 35.54 59.6768 35.64C59.5234 35.7367 59.3584 35.8167 59.1818 35.88C59.0084 35.9433 58.8284 35.99 58.6418 36.02C58.4551 36.0533 58.2701 36.07 58.0868 36.07C57.7368 36.07 57.4134 36.0117 57.1168 35.895C56.8234 35.775 56.5684 35.6017 56.3518 35.375C56.1384 35.145 55.9718 34.8617 55.8518 34.525C55.7318 34.1883 55.6718 33.8017 55.6718 33.365C55.6718 33.0117 55.7251 32.6817 55.8318 32.375C55.9418 32.0683 56.0984 31.8033 56.3018 31.58C56.5051 31.3533 56.7534 31.1767 57.0468 31.05C57.3401 30.92 57.6701 30.855 58.0368 30.855ZM58.0568 31.51C57.6268 31.51 57.2884 31.635 57.0418 31.885C56.7951 32.1317 56.6418 32.475 56.5818 32.915H59.3368C59.3368 32.7083 59.3084 32.52 59.2518 32.35C59.1951 32.1767 59.1118 32.0283 59.0018 31.905C58.8918 31.7783 58.7568 31.6817 58.5968 31.615C58.4401 31.545 58.2601 31.51 58.0568 31.51ZM64.1759 31.77C64.1359 31.8433 64.0742 31.88 63.9909 31.88C63.9409 31.88 63.8842 31.8617 63.8209 31.825C63.7576 31.7883 63.6792 31.7483 63.5859 31.705C63.4959 31.6583 63.3876 31.6167 63.2609 31.58C63.1342 31.54 62.9842 31.52 62.8109 31.52C62.6609 31.52 62.5259 31.54 62.4059 31.58C62.2859 31.6167 62.1826 31.6683 62.0959 31.735C62.0126 31.8017 61.9476 31.88 61.9009 31.97C61.8576 32.0567 61.8359 32.1517 61.8359 32.255C61.8359 32.385 61.8726 32.4933 61.9459 32.58C62.0226 32.6667 62.1226 32.7417 62.2459 32.805C62.3692 32.8683 62.5092 32.925 62.6659 32.975C62.8226 33.0217 62.9826 33.0733 63.1459 33.13C63.3126 33.1833 63.4742 33.2433 63.6309 33.31C63.7876 33.3767 63.9276 33.46 64.0509 33.56C64.1742 33.66 64.2726 33.7833 64.3459 33.93C64.4226 34.0733 64.4609 34.2467 64.4609 34.45C64.4609 34.6833 64.4192 34.9 64.3359 35.1C64.2526 35.2967 64.1292 35.4683 63.9659 35.615C63.8026 35.7583 63.6026 35.8717 63.3659 35.955C63.1292 36.0383 62.8559 36.08 62.5459 36.08C62.1926 36.08 61.8726 36.0233 61.5859 35.91C61.2992 35.7933 61.0559 35.645 60.8559 35.465L61.0659 35.125C61.0926 35.0817 61.1242 35.0483 61.1609 35.025C61.1976 35.0017 61.2459 34.99 61.3059 34.99C61.3659 34.99 61.4292 35.0133 61.4959 35.06C61.5626 35.1067 61.6426 35.1583 61.7359 35.215C61.8326 35.2717 61.9476 35.3233 62.0809 35.37C62.2176 35.4167 62.3876 35.44 62.5909 35.44C62.7642 35.44 62.9159 35.4183 63.0459 35.375C63.1759 35.3283 63.2842 35.2667 63.3709 35.19C63.4576 35.1133 63.5209 35.025 63.5609 34.925C63.6042 34.825 63.6259 34.7183 63.6259 34.605C63.6259 34.465 63.5876 34.35 63.5109 34.26C63.4376 34.1667 63.3392 34.0883 63.2159 34.025C63.0926 33.9583 62.9509 33.9017 62.7909 33.855C62.6342 33.805 62.4726 33.7533 62.3059 33.7C62.1426 33.6467 61.9809 33.5867 61.8209 33.52C61.6642 33.45 61.5242 33.3633 61.4009 33.26C61.2776 33.1567 61.1776 33.03 61.1009 32.88C61.0276 32.7267 60.9909 32.5417 60.9909 32.325C60.9909 32.1317 61.0309 31.9467 61.1109 31.77C61.1909 31.59 61.3076 31.4333 61.4609 31.3C61.6142 31.1633 61.8026 31.055 62.0259 30.975C62.2492 30.895 62.5042 30.855 62.7909 30.855C63.1242 30.855 63.4226 30.9083 63.6859 31.015C63.9526 31.1183 64.1826 31.2617 64.3759 31.445L64.1759 31.77Z" fill="#949494"/>
<path d="M41.7353 1.38586H23.2647C22.5662 1.38586 22 1.95208 22 2.65055V13.9994C22 14.6979 22.5662 15.2641 23.2647 15.2641H41.7353C42.4338 15.2641 43 14.6979 43 13.9994V2.65055C43 1.95208 42.4338 1.38586 41.7353 1.38586Z" stroke="#949494" stroke-miterlimit="10"/>
<path d="M42.8287 2.01766L33.6737 9.03828C32.9753 9.57366 32.0009 9.56533 31.312 9.01568L22.2998 1.83325" stroke="#949494" stroke-miterlimit="10"/>
<path d="M22 13.9995L30.4459 8.32446" stroke="#949494" stroke-miterlimit="10"/>
<path d="M42.9999 13.9994L34.5742 8.34814" stroke="#949494" stroke-miterlimit="10"/>
</svg>
