<svg width="36" height="26" viewBox="0 0 36 26" fill="none" xmlns="http://www.w3.org/2000/svg">
<path d="M15.9878 21.8473C11.9563 21.8473 7.92496 21.8473 3.89386 21.8473C1.95807 21.8473 0.414201 20.5764 0.0631832 18.7077C0.0188413 18.4456 -0.00159152 18.18 0.00213663 17.9141C-0.00071221 13.2563 -0.00071221 8.60065 0.00213663 3.94727C0.00579942 2.00111 1.16874 0.513402 2.99342 0.101337C3.31956 0.032901 3.65221 0.000352683 3.98542 0.00427326C11.9931 0.00142442 20.0004 0 28.0072 0C30.3087 0 31.9686 1.58721 31.9808 3.88745C32.0064 8.57501 32.0064 13.2626 31.9808 17.9501C31.9698 20.2498 30.3118 21.8443 28.0127 21.8455C24.0052 21.8484 19.9969 21.849 15.9878 21.8473ZM1.53196 5.13463C1.52342 5.23352 1.51731 5.27748 1.51731 5.32143C1.51731 9.53364 1.50938 13.741 1.52036 17.9507C1.52464 19.3609 2.51848 20.3157 3.93903 20.3157C11.9679 20.3157 19.9969 20.3157 28.0262 20.3157C29.498 20.3157 30.468 19.3475 30.468 17.8708C30.4717 13.7277 30.4717 9.58472 30.468 5.44169C30.468 5.3489 30.4546 5.25855 30.4448 5.13157C30.2916 5.21155 30.1738 5.27015 30.0584 5.33425C25.5922 7.82495 21.1273 10.3185 16.6636 12.8149C16.1783 13.0878 15.7918 13.078 15.3083 12.8063C10.8222 10.2847 6.32921 7.7753 1.82926 5.27809C1.7438 5.23169 1.65467 5.19384 1.53196 5.13463ZM1.5747 3.38564C1.64673 3.4296 1.70228 3.46622 1.75784 3.49858C6.41813 6.0955 11.0768 8.69385 15.7338 11.2936C15.9408 11.4096 16.0849 11.3846 16.2772 11.2771C20.8947 8.69852 25.5155 6.12501 30.1396 3.55657C30.3917 3.41678 30.429 3.29041 30.3343 3.03829C29.9784 2.08413 29.125 1.52616 27.9822 1.52616C20.0006 1.52616 12.0183 1.52616 4.03548 1.52616C3.92499 1.52616 3.81327 1.52616 3.70278 1.53105C2.64423 1.58721 1.78836 2.32404 1.5747 3.38564Z" fill="white"/>
<circle cx="29.5" cy="19.5" r="6" fill="#8FC886" stroke="#844F92"/>
</svg>
