<svg width="67" height="35" viewBox="0 0 67 35" fill="none" xmlns="http://www.w3.org/2000/svg">
<path d="M3.48816 26.835C3.57483 26.835 3.63816 26.8467 3.67816 26.87C3.7215 26.89 3.76983 26.9333 3.82316 27L7.97316 32.4C7.96316 32.3133 7.9565 32.23 7.95316 32.15C7.94983 32.0667 7.94816 31.9867 7.94816 31.91V26.835H8.79816V34H8.30816C8.2315 34 8.1665 33.9867 8.11316 33.96C8.06316 33.9333 8.01316 33.8883 7.96316 33.825L3.81816 28.43C3.82483 28.5133 3.82983 28.595 3.83316 28.675C3.8365 28.755 3.83816 28.8283 3.83816 28.895V34H2.98816V26.835H3.48816ZM12.4568 28.855C12.8268 28.855 13.1601 28.9167 13.4568 29.04C13.7568 29.1633 14.0101 29.3383 14.2168 29.565C14.4268 29.7917 14.5868 30.0667 14.6968 30.39C14.8101 30.71 14.8668 31.0683 14.8668 31.465C14.8668 31.865 14.8101 32.225 14.6968 32.545C14.5868 32.865 14.4268 33.1383 14.2168 33.365C14.0101 33.5917 13.7568 33.7667 13.4568 33.89C13.1601 34.01 12.8268 34.07 12.4568 34.07C12.0868 34.07 11.7518 34.01 11.4518 33.89C11.1551 33.7667 10.9018 33.5917 10.6918 33.365C10.4818 33.1383 10.3201 32.865 10.2068 32.545C10.0934 32.225 10.0368 31.865 10.0368 31.465C10.0368 31.0683 10.0934 30.71 10.2068 30.39C10.3201 30.0667 10.4818 29.7917 10.6918 29.565C10.9018 29.3383 11.1551 29.1633 11.4518 29.04C11.7518 28.9167 12.0868 28.855 12.4568 28.855ZM12.4568 33.375C12.9568 33.375 13.3301 33.2083 13.5768 32.875C13.8234 32.5383 13.9468 32.07 13.9468 31.47C13.9468 30.8667 13.8234 30.3967 13.5768 30.06C13.3301 29.7233 12.9568 29.555 12.4568 29.555C12.2034 29.555 11.9834 29.5983 11.7968 29.685C11.6101 29.7717 11.4534 29.8967 11.3268 30.06C11.2034 30.2233 11.1101 30.425 11.0468 30.665C10.9868 30.9017 10.9568 31.17 10.9568 31.47C10.9568 31.77 10.9868 32.0383 11.0468 32.275C11.1101 32.5117 11.2034 32.7117 11.3268 32.875C11.4534 33.035 11.6101 33.1583 11.7968 33.245C11.9834 33.3317 12.2034 33.375 12.4568 33.375ZM17.4984 34.08C17.0984 34.08 16.7901 33.9683 16.5734 33.745C16.3601 33.5217 16.2534 33.2 16.2534 32.78V29.68H15.6434C15.5901 29.68 15.5451 29.665 15.5084 29.635C15.4717 29.6017 15.4534 29.5517 15.4534 29.485V29.13L16.2834 29.025L16.4884 27.46C16.4951 27.41 16.5167 27.37 16.5534 27.34C16.5901 27.3067 16.6367 27.29 16.6934 27.29H17.1434V29.035H18.5934V29.68H17.1434V32.72C17.1434 32.9333 17.1951 33.0917 17.2984 33.195C17.4017 33.2983 17.5351 33.35 17.6984 33.35C17.7917 33.35 17.8717 33.3383 17.9384 33.315C18.0084 33.2883 18.0684 33.26 18.1184 33.23C18.1684 33.2 18.2101 33.1733 18.2434 33.15C18.2801 33.1233 18.3117 33.11 18.3384 33.11C18.3851 33.11 18.4267 33.1383 18.4634 33.195L18.7234 33.62C18.5701 33.7633 18.3851 33.8767 18.1684 33.96C17.9517 34.04 17.7284 34.08 17.4984 34.08ZM20.6839 28.935V34H19.7939V28.935H20.6839ZM20.8839 27.345C20.8839 27.4317 20.8655 27.5133 20.8289 27.59C20.7955 27.6633 20.7489 27.73 20.6889 27.79C20.6322 27.8467 20.5655 27.8917 20.4889 27.925C20.4122 27.9583 20.3305 27.975 20.2439 27.975C20.1572 27.975 20.0755 27.9583 19.9989 27.925C19.9255 27.8917 19.8589 27.8467 19.7989 27.79C19.7422 27.73 19.6972 27.6633 19.6639 27.59C19.6305 27.5133 19.6139 27.4317 19.6139 27.345C19.6139 27.2583 19.6305 27.1767 19.6639 27.1C19.6972 27.02 19.7422 26.9517 19.7989 26.895C19.8589 26.835 19.9255 26.7883 19.9989 26.755C20.0755 26.7217 20.1572 26.705 20.2439 26.705C20.3305 26.705 20.4122 26.7217 20.4889 26.755C20.5655 26.7883 20.6322 26.835 20.6889 26.895C20.7489 26.9517 20.7955 27.02 20.8289 27.1C20.8655 27.1767 20.8839 27.2583 20.8839 27.345ZM22.4525 34V29.695L21.8925 29.63C21.8225 29.6133 21.7641 29.5883 21.7175 29.555C21.6741 29.5183 21.6525 29.4667 21.6525 29.4V29.035H22.4525V28.755C22.4525 28.445 22.5008 28.1617 22.5975 27.905C22.6941 27.645 22.8391 27.4217 23.0325 27.235C23.2258 27.0483 23.4658 26.9033 23.7525 26.8C24.0425 26.6967 24.3791 26.645 24.7625 26.645C24.8891 26.645 25.0175 26.6533 25.1475 26.67C25.2808 26.6867 25.3958 26.7117 25.4925 26.745L25.4625 27.21C25.4558 27.2533 25.4358 27.2817 25.4025 27.295C25.3691 27.305 25.3208 27.31 25.2575 27.31C25.2208 27.31 25.1825 27.31 25.1425 27.31C25.1025 27.3067 25.0575 27.305 25.0075 27.305C24.4175 27.305 23.9875 27.4283 23.7175 27.675C23.4508 27.9183 23.3175 28.2867 23.3175 28.78V29.035H26.3775V34H25.4875V29.68H23.3475V34H22.4525ZM31.4106 29.835C31.3839 29.8717 31.3573 29.9 31.3306 29.92C31.3039 29.94 31.2656 29.95 31.2156 29.95C31.1656 29.95 31.1106 29.93 31.0506 29.89C30.9939 29.8467 30.9206 29.8 30.8306 29.75C30.7406 29.7 30.6306 29.655 30.5006 29.615C30.3739 29.5717 30.2173 29.55 30.0306 29.55C29.7839 29.55 29.5656 29.595 29.3756 29.685C29.1856 29.7717 29.0256 29.8983 28.8956 30.065C28.7689 30.2317 28.6723 30.4333 28.6056 30.67C28.5423 30.9067 28.5106 31.1717 28.5106 31.465C28.5106 31.7717 28.5456 32.045 28.6156 32.285C28.6856 32.5217 28.7839 32.7217 28.9106 32.885C29.0373 33.045 29.1906 33.1683 29.3706 33.255C29.5539 33.3383 29.7589 33.38 29.9856 33.38C30.2023 33.38 30.3806 33.355 30.5206 33.305C30.6606 33.2517 30.7773 33.1933 30.8706 33.13C30.9639 33.0667 31.0406 33.01 31.1006 32.96C31.1606 32.9067 31.2206 32.88 31.2806 32.88C31.3573 32.88 31.4139 32.9083 31.4506 32.965L31.7006 33.29C31.4806 33.56 31.2056 33.7583 30.8756 33.885C30.5456 34.0083 30.1973 34.07 29.8306 34.07C29.5139 34.07 29.2189 34.0117 28.9456 33.895C28.6756 33.7783 28.4406 33.61 28.2406 33.39C28.0406 33.1667 27.8823 32.8933 27.7656 32.57C27.6523 32.2467 27.5956 31.8783 27.5956 31.465C27.5956 31.0883 27.6473 30.74 27.7506 30.42C27.8573 30.1 28.0106 29.825 28.2106 29.595C28.4139 29.3617 28.6639 29.18 28.9606 29.05C29.2573 28.92 29.5973 28.855 29.9806 28.855C30.3339 28.855 30.6473 28.9133 30.9206 29.03C31.1939 29.1433 31.4356 29.305 31.6456 29.515L31.4106 29.835ZM36.3436 34H35.9486C35.8619 34 35.7919 33.9867 35.7386 33.96C35.6852 33.9333 35.6502 33.8767 35.6336 33.79L35.5336 33.32C35.4002 33.44 35.2702 33.5483 35.1436 33.645C35.0169 33.7383 34.8836 33.8183 34.7436 33.885C34.6036 33.9483 34.4536 33.9967 34.2936 34.03C34.1369 34.0633 33.9619 34.08 33.7686 34.08C33.5719 34.08 33.3869 34.0533 33.2136 34C33.0436 33.9433 32.8952 33.86 32.7686 33.75C32.6419 33.64 32.5402 33.5017 32.4636 33.335C32.3902 33.165 32.3536 32.965 32.3536 32.735C32.3536 32.535 32.4086 32.3433 32.5186 32.16C32.6286 31.9733 32.8052 31.8083 33.0486 31.665C33.2952 31.5217 33.6169 31.405 34.0136 31.315C34.4102 31.2217 34.8952 31.1683 35.4686 31.155V30.76C35.4686 30.3667 35.3836 30.07 35.2136 29.87C35.0469 29.6667 34.7986 29.565 34.4686 29.565C34.2519 29.565 34.0686 29.5933 33.9186 29.65C33.7719 29.7033 33.6436 29.765 33.5336 29.835C33.4269 29.9017 33.3336 29.9633 33.2536 30.02C33.1769 30.0733 33.1002 30.1 33.0236 30.1C32.9636 30.1 32.9102 30.085 32.8636 30.055C32.8202 30.0217 32.7852 29.9817 32.7586 29.935L32.5986 29.65C32.8786 29.38 33.1802 29.1783 33.5036 29.045C33.8269 28.9117 34.1852 28.845 34.5786 28.845C34.8619 28.845 35.1136 28.8917 35.3336 28.985C35.5536 29.0783 35.7386 29.2083 35.8886 29.375C36.0386 29.5417 36.1519 29.7433 36.2286 29.98C36.3052 30.2167 36.3436 30.4767 36.3436 30.76V34ZM34.0336 33.455C34.1902 33.455 34.3336 33.44 34.4636 33.41C34.5936 33.3767 34.7152 33.3317 34.8286 33.275C34.9452 33.215 35.0552 33.1433 35.1586 33.06C35.2652 32.9767 35.3686 32.8817 35.4686 32.775V31.72C35.0586 31.7333 34.7102 31.7667 34.4236 31.82C34.1369 31.87 33.9036 31.9367 33.7236 32.02C33.5436 32.1033 33.4119 32.2017 33.3286 32.315C33.2486 32.4283 33.2086 32.555 33.2086 32.695C33.2086 32.8283 33.2302 32.9433 33.2736 33.04C33.3169 33.1367 33.3752 33.2167 33.4486 33.28C33.5219 33.34 33.6086 33.385 33.7086 33.415C33.8086 33.4417 33.9169 33.455 34.0336 33.455ZM41.1469 29.835C41.1202 29.8717 41.0936 29.9 41.0669 29.92C41.0402 29.94 41.0019 29.95 40.9519 29.95C40.9019 29.95 40.8469 29.93 40.7869 29.89C40.7302 29.8467 40.6569 29.8 40.5669 29.75C40.4769 29.7 40.3669 29.655 40.2369 29.615C40.1102 29.5717 39.9536 29.55 39.7669 29.55C39.5202 29.55 39.3019 29.595 39.1119 29.685C38.9219 29.7717 38.7619 29.8983 38.6319 30.065C38.5052 30.2317 38.4086 30.4333 38.3419 30.67C38.2786 30.9067 38.2469 31.1717 38.2469 31.465C38.2469 31.7717 38.2819 32.045 38.3519 32.285C38.4219 32.5217 38.5202 32.7217 38.6469 32.885C38.7736 33.045 38.9269 33.1683 39.1069 33.255C39.2902 33.3383 39.4952 33.38 39.7219 33.38C39.9386 33.38 40.1169 33.355 40.2569 33.305C40.3969 33.2517 40.5136 33.1933 40.6069 33.13C40.7002 33.0667 40.7769 33.01 40.8369 32.96C40.8969 32.9067 40.9569 32.88 41.0169 32.88C41.0936 32.88 41.1502 32.9083 41.1869 32.965L41.4369 33.29C41.2169 33.56 40.9419 33.7583 40.6119 33.885C40.2819 34.0083 39.9336 34.07 39.5669 34.07C39.2502 34.07 38.9552 34.0117 38.6819 33.895C38.4119 33.7783 38.1769 33.61 37.9769 33.39C37.7769 33.1667 37.6186 32.8933 37.5019 32.57C37.3886 32.2467 37.3319 31.8783 37.3319 31.465C37.3319 31.0883 37.3836 30.74 37.4869 30.42C37.5936 30.1 37.7469 29.825 37.9469 29.595C38.1502 29.3617 38.4002 29.18 38.6969 29.05C38.9936 28.92 39.3336 28.855 39.7169 28.855C40.0702 28.855 40.3836 28.9133 40.6569 29.03C40.9302 29.1433 41.1719 29.305 41.3819 29.515L41.1469 29.835ZM43.3499 28.935V34H42.4599V28.935H43.3499ZM43.5499 27.345C43.5499 27.4317 43.5315 27.5133 43.4949 27.59C43.4615 27.6633 43.4149 27.73 43.3549 27.79C43.2982 27.8467 43.2315 27.8917 43.1549 27.925C43.0782 27.9583 42.9965 27.975 42.9099 27.975C42.8232 27.975 42.7415 27.9583 42.6649 27.925C42.5915 27.8917 42.5249 27.8467 42.4649 27.79C42.4082 27.73 42.3632 27.6633 42.3299 27.59C42.2965 27.5133 42.2799 27.4317 42.2799 27.345C42.2799 27.2583 42.2965 27.1767 42.3299 27.1C42.3632 27.02 42.4082 26.9517 42.4649 26.895C42.5249 26.835 42.5915 26.7883 42.6649 26.755C42.7415 26.7217 42.8232 26.705 42.9099 26.705C42.9965 26.705 43.0782 26.7217 43.1549 26.755C43.2315 26.7883 43.2982 26.835 43.3549 26.895C43.4149 26.9517 43.4615 27.02 43.4949 27.1C43.5315 27.1767 43.5499 27.2583 43.5499 27.345ZM46.9685 28.855C47.3385 28.855 47.6718 28.9167 47.9685 29.04C48.2685 29.1633 48.5218 29.3383 48.7285 29.565C48.9385 29.7917 49.0985 30.0667 49.2085 30.39C49.3218 30.71 49.3785 31.0683 49.3785 31.465C49.3785 31.865 49.3218 32.225 49.2085 32.545C49.0985 32.865 48.9385 33.1383 48.7285 33.365C48.5218 33.5917 48.2685 33.7667 47.9685 33.89C47.6718 34.01 47.3385 34.07 46.9685 34.07C46.5985 34.07 46.2635 34.01 45.9635 33.89C45.6668 33.7667 45.4135 33.5917 45.2035 33.365C44.9935 33.1383 44.8318 32.865 44.7185 32.545C44.6051 32.225 44.5485 31.865 44.5485 31.465C44.5485 31.0683 44.6051 30.71 44.7185 30.39C44.8318 30.0667 44.9935 29.7917 45.2035 29.565C45.4135 29.3383 45.6668 29.1633 45.9635 29.04C46.2635 28.9167 46.5985 28.855 46.9685 28.855ZM46.9685 33.375C47.4685 33.375 47.8418 33.2083 48.0885 32.875C48.3351 32.5383 48.4585 32.07 48.4585 31.47C48.4585 30.8667 48.3351 30.3967 48.0885 30.06C47.8418 29.7233 47.4685 29.555 46.9685 29.555C46.7151 29.555 46.4951 29.5983 46.3085 29.685C46.1218 29.7717 45.9651 29.8967 45.8385 30.06C45.7151 30.2233 45.6218 30.425 45.5585 30.665C45.4985 30.9017 45.4685 31.17 45.4685 31.47C45.4685 31.77 45.4985 32.0383 45.5585 32.275C45.6218 32.5117 45.7151 32.7117 45.8385 32.875C45.9651 33.035 46.1218 33.1583 46.3085 33.245C46.4951 33.3317 46.7151 33.375 46.9685 33.375ZM50.4751 34V28.935H51.0051C51.1318 28.935 51.2118 28.9967 51.2451 29.12L51.3151 29.67C51.5351 29.4267 51.7801 29.23 52.0501 29.08C52.3235 28.93 52.6385 28.855 52.9951 28.855C53.2718 28.855 53.5151 28.9017 53.7251 28.995C53.9385 29.085 54.1151 29.215 54.2551 29.385C54.3985 29.5517 54.5068 29.7533 54.5801 29.99C54.6535 30.2267 54.6901 30.4883 54.6901 30.775V34H53.8001V30.775C53.8001 30.3917 53.7118 30.095 53.5351 29.885C53.3618 29.6717 53.0951 29.565 52.7351 29.565C52.4718 29.565 52.2251 29.6283 51.9951 29.755C51.7685 29.8817 51.5585 30.0533 51.3651 30.27V34H50.4751ZM58.0368 28.855C58.3401 28.855 58.6201 28.9067 58.8768 29.01C59.1334 29.11 59.3551 29.2567 59.5418 29.45C59.7284 29.64 59.8734 29.8767 59.9768 30.16C60.0834 30.44 60.1368 30.76 60.1368 31.12C60.1368 31.26 60.1218 31.3533 60.0918 31.4C60.0618 31.4467 60.0051 31.47 59.9218 31.47H56.5518C56.5584 31.79 56.6018 32.0683 56.6818 32.305C56.7618 32.5417 56.8718 32.74 57.0118 32.9C57.1518 33.0567 57.3184 33.175 57.5118 33.255C57.7051 33.3317 57.9218 33.37 58.1618 33.37C58.3851 33.37 58.5768 33.345 58.7368 33.295C58.9001 33.2417 59.0401 33.185 59.1568 33.125C59.2734 33.065 59.3701 33.01 59.4468 32.96C59.5268 32.9067 59.5951 32.88 59.6518 32.88C59.7251 32.88 59.7818 32.9083 59.8218 32.965L60.0718 33.29C59.9618 33.4233 59.8301 33.54 59.6768 33.64C59.5234 33.7367 59.3584 33.8167 59.1818 33.88C59.0084 33.9433 58.8284 33.99 58.6418 34.02C58.4551 34.0533 58.2701 34.07 58.0868 34.07C57.7368 34.07 57.4134 34.0117 57.1168 33.895C56.8234 33.775 56.5684 33.6017 56.3518 33.375C56.1384 33.145 55.9718 32.8617 55.8518 32.525C55.7318 32.1883 55.6718 31.8017 55.6718 31.365C55.6718 31.0117 55.7251 30.6817 55.8318 30.375C55.9418 30.0683 56.0984 29.8033 56.3018 29.58C56.5051 29.3533 56.7534 29.1767 57.0468 29.05C57.3401 28.92 57.6701 28.855 58.0368 28.855ZM58.0568 29.51C57.6268 29.51 57.2884 29.635 57.0418 29.885C56.7951 30.1317 56.6418 30.475 56.5818 30.915H59.3368C59.3368 30.7083 59.3084 30.52 59.2518 30.35C59.1951 30.1767 59.1118 30.0283 59.0018 29.905C58.8918 29.7783 58.7568 29.6817 58.5968 29.615C58.4401 29.545 58.2601 29.51 58.0568 29.51ZM64.1759 29.77C64.1359 29.8433 64.0742 29.88 63.9909 29.88C63.9409 29.88 63.8842 29.8617 63.8209 29.825C63.7576 29.7883 63.6792 29.7483 63.5859 29.705C63.4959 29.6583 63.3876 29.6167 63.2609 29.58C63.1342 29.54 62.9842 29.52 62.8109 29.52C62.6609 29.52 62.5259 29.54 62.4059 29.58C62.2859 29.6167 62.1826 29.6683 62.0959 29.735C62.0126 29.8017 61.9476 29.88 61.9009 29.97C61.8576 30.0567 61.8359 30.1517 61.8359 30.255C61.8359 30.385 61.8726 30.4933 61.9459 30.58C62.0226 30.6667 62.1226 30.7417 62.2459 30.805C62.3692 30.8683 62.5092 30.925 62.6659 30.975C62.8226 31.0217 62.9826 31.0733 63.1459 31.13C63.3126 31.1833 63.4742 31.2433 63.6309 31.31C63.7876 31.3767 63.9276 31.46 64.0509 31.56C64.1742 31.66 64.2726 31.7833 64.3459 31.93C64.4226 32.0733 64.4609 32.2467 64.4609 32.45C64.4609 32.6833 64.4192 32.9 64.3359 33.1C64.2526 33.2967 64.1292 33.4683 63.9659 33.615C63.8026 33.7583 63.6026 33.8717 63.3659 33.955C63.1292 34.0383 62.8559 34.08 62.5459 34.08C62.1926 34.08 61.8726 34.0233 61.5859 33.91C61.2992 33.7933 61.0559 33.645 60.8559 33.465L61.0659 33.125C61.0926 33.0817 61.1242 33.0483 61.1609 33.025C61.1976 33.0017 61.2459 32.99 61.3059 32.99C61.3659 32.99 61.4292 33.0133 61.4959 33.06C61.5626 33.1067 61.6426 33.1583 61.7359 33.215C61.8326 33.2717 61.9476 33.3233 62.0809 33.37C62.2176 33.4167 62.3876 33.44 62.5909 33.44C62.7642 33.44 62.9159 33.4183 63.0459 33.375C63.1759 33.3283 63.2842 33.2667 63.3709 33.19C63.4576 33.1133 63.5209 33.025 63.5609 32.925C63.6042 32.825 63.6259 32.7183 63.6259 32.605C63.6259 32.465 63.5876 32.35 63.5109 32.26C63.4376 32.1667 63.3392 32.0883 63.2159 32.025C63.0926 31.9583 62.9509 31.9017 62.7909 31.855C62.6342 31.805 62.4726 31.7533 62.3059 31.7C62.1426 31.6467 61.9809 31.5867 61.8209 31.52C61.6642 31.45 61.5242 31.3633 61.4009 31.26C61.2776 31.1567 61.1776 31.03 61.1009 30.88C61.0276 30.7267 60.9909 30.5417 60.9909 30.325C60.9909 30.1317 61.0309 29.9467 61.1109 29.77C61.1909 29.59 61.3076 29.4333 61.4609 29.3C61.6142 29.1633 61.8026 29.055 62.0259 28.975C62.2492 28.895 62.5042 28.855 62.7909 28.855C63.1242 28.855 63.4226 28.9083 63.6859 29.015C63.9526 29.1183 64.1826 29.2617 64.3759 29.445L64.1759 29.77Z" fill="#06192B"/>
<path d="M41.2517 0H22.8454C22.7493 0 22.6569 0.0165983 22.5703 0.0474236L31.1243 6.86457C31.6626 7.29375 32.4202 7.30087 32.9656 6.88235L41.7378 0.154127C41.6002 0.0569083 41.4331 0 41.2517 0Z" fill="#06192B"/>
<path d="M22.019 0.668701C22.0071 0.72561 22 0.784889 22 0.845354V11.3758L29.2997 6.47098L22.019 0.668701Z" fill="#06192B"/>
<path d="M34.8271 6.50052L42.0972 11.3768V0.924683L34.8271 6.50052Z" fill="#06192B"/>
<path d="M22.8456 13H41.2519C41.6479 13 41.9799 12.7261 42.0711 12.3586L34.1324 7.03407L33.4721 7.54032C33.0535 7.86161 32.5556 8.02167 32.0576 8.02167C31.5597 8.02167 31.0333 7.85213 30.6089 7.51424L29.9817 7.01392L22.0264 12.3586C22.1177 12.7261 22.4496 13 22.8456 13V13Z" fill="#06192B"/>
</svg>
