<svg xmlns="http://www.w3.org/2000/svg" viewBox="0 0 278.04 194.63"><defs><style>.cls-1{fill:#d05f5f;}.cls-2{fill:#ccc;}.cls-3{fill:#ebecef;}.cls-4{fill:#eabb2d;}.cls-5{fill:#fff;}</style></defs><g id="Capa_2" data-name="Capa 2"><g id="Capa_1-2" data-name="Capa 1"><polygon class="cls-1" points="75.97 194.63 66.23 180.71 0 188.78 28.11 84.43 56.21 79.98 86.54 32.11 110.6 31.55 157.01 95.78 183.59 95.49 205.09 186.84 75.97 194.63"/><polygon class="cls-2" points="80.2 175.59 72.38 164.41 19.18 170.89 41.75 87.07 64.33 83.49 88.69 45.04 108.02 44.59 147.7 99.78 169.05 99.55 183.92 169.33 80.2 175.59"/><polygon class="cls-3" points="83.13 166.59 76.38 156.95 30.49 162.54 49.97 90.23 69.44 87.14 90.46 53.98 107.13 53.59 141.36 103.92 159.78 103.72 172.6 161.19 83.13 166.59"/><path class="cls-4" d="M96.69,43.1a33.56,33.56,0,1,0-64.29.22c4.52,20.56,32,55.32,32,55.32S92.35,63.58,96.69,43.1Z"/><ellipse class="cls-2" cx="231.07" cy="156.78" rx="16" ry="6"/><path class="cls-4" d="M231.07,17.54a47,47,0,0,0-45,60.65c6.33,28.78,44.74,77.44,44.74,77.44S270,106.55,276.11,77.88a47,47,0,0,0-45-60.34Zm0,15.06A16.4,16.4,0,1,1,214.66,49,16.43,16.43,0,0,1,231.07,32.6Zm24.84,61.25A19.06,19.06,0,0,1,252,97.31a36.51,36.51,0,0,1-44.62-2,7.38,7.38,0,0,1-2.44-7,16.56,16.56,0,0,1,16.71-14.9c3.14,0,6.27,0,9.4,0s6.26,0,9.39,0A16.54,16.54,0,0,1,257,87C257.38,89.4,257.54,91.85,255.91,93.85Z"/><path class="cls-5" d="M240.48,73.38c-3.13,0-6.26,0-9.39,0s-6.26,0-9.4,0A16.56,16.56,0,0,0,205,88.28a7.38,7.38,0,0,0,2.44,7,36.51,36.51,0,0,0,44.62,2,19.06,19.06,0,0,0,3.87-3.46c1.63-2,1.47-4.45,1-6.85A16.54,16.54,0,0,0,240.48,73.38Z"/><path class="cls-5" d="M231.12,65.4A16.4,16.4,0,1,0,214.66,49,16.49,16.49,0,0,0,231.12,65.4Z"/></g></g></svg>