<svg xmlns="http://www.w3.org/2000/svg" viewBox="0 0 300 502.88" width="50" height="50">
<defs>
<style>.cls-1{fill:#fff;}.cls-2{fill:#693b70;}</style>
</defs>
<g id="Capa_2" data-name="Capa 2">
<g id="Capa_1-2" data-name="Capa 1">
<circle class="cls-1" cx="150" cy="149" r="140.5"/>
<g id="Capa_2-2" data-name="Capa 2">
<g id="Capa_1-2-2" data-name="Capa 1-2">
<path class="cls-2" d="M150,0A150,150,0,0,0,0,150c0,31.48,11.28,59.68,26.28,84.82,34.81,58.36,124,241.88,124,241.88s90-184.56,124.56-243.54C289.33,208.48,300,180.76,300,150A150,150,0,0,0,150,0Zm0,268.5A118.5,118.5,0,1,1,268.5,150,118.49,118.49,0,0,1,150,268.5Z"/>
<!-- <path class="cls-2" d="M162.74,463.23C155,479,150.21,488.78,150.21,488.78s-4.73-9.74-12.5-25.56c-59.65,1-106.17,9.5-106.17,19.78,0,11,53.05,19.88,118.5,19.88S268.54,494,268.54,483C268.54,472.74,222.21,464.29,162.74,463.23Z"/> -->
<path class="cls-2" d="M230.46,223.29c-12.26-4-36.29-1.53-56.82-17.12-6.5-4.93-9.55-25,.13-32.38,10.93-8.36,32-31.41,32-58.82,0-34.23-25-62-55.77-62S94.27,80.74,94.27,115c0,27.29,18.73,50.46,32.63,58.71,10.5,6.24,5.38,27.48-.78,32.52-22.64,18.53-43,11.44-55.19,18.59a108.48,108.48,0,0,0,153.35,4.79q3.22-3,6.18-6.29Z"/>
</g>
</g>
</g>
</g>
</svg>