<svg width="39" height="39" viewBox="0 0 39 39" fill="none" xmlns="http://www.w3.org/2000/svg">
<g filter="url(#filter0_d_205_9659)">
<rect x="4" width="31" height="31" rx="6" fill="white"/>
</g>
<path d="M11.9358 24.9982C11.6436 24.8895 11.3277 24.8207 11.0635 24.6647C10.3876 24.2657 10.0239 23.6442 10.0142 22.8615C9.99528 21.3717 9.99528 19.8821 10.0142 18.3927C10.0215 17.8262 10.2502 17.2851 10.6513 16.885C11.0524 16.485 11.5941 16.2577 12.1606 16.2518C13.6439 16.2369 15.127 16.2369 16.6099 16.2518C17.1796 16.2581 17.7239 16.4881 18.1256 16.892C18.5273 17.296 18.7542 17.8416 18.7573 18.4112C18.7708 19.8823 18.7684 21.3533 18.7573 22.8239C18.7499 23.9057 17.983 24.785 16.916 24.9689C16.887 24.9766 16.8588 24.9873 16.832 25.001L11.9358 24.9982ZM14.4018 17.7294H12.3259C11.7686 17.7294 11.4899 18.0039 11.4899 18.5557C11.4899 19.934 11.4899 21.312 11.4899 22.6897C11.4899 23.2354 11.7662 23.5151 12.3064 23.5155C13.6906 23.5155 15.0746 23.5155 16.4585 23.5155C16.9908 23.5155 17.2746 23.2368 17.2751 22.7082C17.2751 21.3176 17.2751 19.927 17.2751 18.5366C17.2751 18.0094 16.9908 17.7298 16.4585 17.7289C15.7732 17.7283 15.0877 17.7284 14.4018 17.7294Z" fill="#949494"/>
<path d="M28.9979 12.7955C28.9143 13.1843 28.7963 13.5582 28.5455 13.8768C28.1112 14.4287 27.5454 14.7473 26.8436 14.7547C25.3604 14.7705 23.8769 14.7733 22.3942 14.7547C21.2362 14.7403 20.2673 13.7747 20.252 12.6181C20.2331 11.1283 20.2331 9.63852 20.252 8.14874C20.2654 6.99355 21.2344 6.02787 22.3923 6.01347C23.875 5.99551 25.3581 5.99551 26.8417 6.01347C27.8905 6.02462 28.7772 6.81286 28.9607 7.85053C28.97 7.89224 28.9818 7.93334 28.996 7.97362L28.9979 12.7955ZM21.7267 10.3843C21.7267 11.0769 21.7267 11.769 21.7267 12.4615C21.7267 12.9762 22.0296 13.2767 22.5475 13.2772C23.9258 13.2772 25.3038 13.2772 26.6815 13.2772C27.211 13.2772 27.5106 12.979 27.511 12.4518C27.511 11.0738 27.511 9.6958 27.511 8.31781C27.511 7.79108 27.2105 7.49288 26.681 7.49241C25.3089 7.49241 23.9369 7.49241 22.5651 7.49241C22.0235 7.49241 21.729 7.78783 21.7263 8.3285C21.7256 9.01316 21.7258 9.69844 21.7267 10.3843Z" fill="#949494"/>
<path d="M22.2087 24.9981C21.8139 24.9136 21.4358 24.7924 21.1135 24.5337C20.5709 24.1003 20.2574 23.5382 20.25 22.8443C20.2342 21.3621 20.2314 19.879 20.25 18.3968C20.2639 17.2305 21.2314 16.2625 22.3973 16.2485C23.879 16.2306 25.3612 16.2306 26.8439 16.2485C27.8913 16.2597 28.778 17.0484 28.961 18.0856C28.9704 18.1271 28.9822 18.1681 28.9963 18.2082V23.0338C28.9843 23.0747 28.9694 23.1146 28.9606 23.156C28.7808 24.0325 28.2638 24.6126 27.4203 24.8997C27.2935 24.9429 27.1607 24.967 27.0306 25L22.2087 24.9981ZM24.6097 23.5146C25.3064 23.5146 26.0064 23.5146 26.705 23.5146C27.2081 23.5146 27.5109 23.2094 27.5114 22.7036C27.5132 21.3188 27.5132 19.9341 27.5114 18.5496C27.5114 18.0322 27.2104 17.7293 26.6957 17.7289C25.3112 17.7289 23.9269 17.7289 22.5427 17.7289C22.0276 17.7289 21.7271 18.0317 21.7266 18.5491C21.7266 19.9278 21.7266 21.3057 21.7266 22.6831C21.7266 23.2131 22.0248 23.5122 22.5515 23.5136C23.238 23.5167 23.9241 23.5177 24.6097 23.5164V23.5146Z" fill="#949494"/>
<path d="M14.3665 14.7617C13.6698 14.7617 12.9698 14.7617 12.2712 14.7617C10.9636 14.7571 10.0105 13.8072 10.0077 12.5033C10.0049 11.0938 10.0049 9.6848 10.0077 8.27647C10.01 6.9587 10.9613 6.00928 12.2791 6.00742C13.6818 6.00526 15.0848 6.00526 16.4878 6.00742C17.8037 6.00928 18.7569 6.95917 18.7592 8.27647C18.7617 9.67985 18.7617 11.0832 18.7592 12.4866C18.7592 13.8146 17.8084 14.7626 16.4785 14.7626C15.7741 14.7629 15.07 14.7626 14.3665 14.7617ZM14.3795 13.2753C15.0778 13.2753 15.7761 13.2753 16.4744 13.2753C16.9927 13.2753 17.2775 12.9911 17.2779 12.4731C17.2779 11.0769 17.2779 9.68031 17.2779 8.28343C17.2779 7.77714 16.9909 7.48962 16.4883 7.48915C15.092 7.48915 13.6956 7.48915 12.299 7.48915C11.7802 7.48915 11.4959 7.77342 11.4955 8.29086C11.4955 9.68155 11.4955 11.0721 11.4955 12.4625C11.4955 12.9934 11.777 13.2749 12.3065 13.2758C12.9955 13.278 13.6859 13.2786 14.3776 13.2776L14.3795 13.2753Z" fill="#949494"/>
<defs>
<filter id="filter0_d_205_9659" x="0" y="0" width="39" height="39" filterUnits="userSpaceOnUse" color-interpolation-filters="sRGB">
<feFlood flood-opacity="0" result="BackgroundImageFix"/>
<feColorMatrix in="SourceAlpha" type="matrix" values="0 0 0 0 0 0 0 0 0 0 0 0 0 0 0 0 0 0 127 0" result="hardAlpha"/>
<feOffset dy="4"/>
<feGaussianBlur stdDeviation="2"/>
<feComposite in2="hardAlpha" operator="out"/>
<feColorMatrix type="matrix" values="0 0 0 0 0 0 0 0 0 0 0 0 0 0 0 0 0 0 0.25 0"/>
<feBlend mode="normal" in2="BackgroundImageFix" result="effect1_dropShadow_205_9659"/>
<feBlend mode="normal" in="SourceGraphic" in2="effect1_dropShadow_205_9659" result="shape"/>
</filter>
</defs>
</svg>
