<svg width="78" height="24" viewBox="0 0 66 12" fill="none" xmlns="http://www.w3.org/2000/svg">
<rect width="66" height="12" rx="6" fill="#D05F5F"/>
<path d="M19.492 6.108C19.492 6.532 19.4214 6.92533 19.28 7.288C19.1414 7.648 18.944 7.96 18.688 8.224C18.432 8.488 18.124 8.69467 17.764 8.844C17.404 8.99067 17.004 9.064 16.564 9.064C16.1267 9.064 15.728 8.99067 15.368 8.844C15.008 8.69467 14.6987 8.488 14.44 8.224C14.184 7.96 13.9854 7.648 13.844 7.288C13.7027 6.92533 13.632 6.532 13.632 6.108C13.632 5.684 13.7027 5.292 13.844 4.932C13.9854 4.56933 14.184 4.256 14.44 3.992C14.6987 3.728 15.008 3.52267 15.368 3.376C15.728 3.22667 16.1267 3.152 16.564 3.152C16.8574 3.152 17.1334 3.18667 17.392 3.256C17.6507 3.32267 17.888 3.41867 18.104 3.544C18.32 3.66667 18.5134 3.81733 18.684 3.996C18.8574 4.172 19.004 4.36933 19.124 4.588C19.244 4.80667 19.3347 5.044 19.396 5.3C19.46 5.556 19.492 5.82533 19.492 6.108ZM18.392 6.108C18.392 5.79067 18.3494 5.50667 18.264 5.256C18.1787 5.00267 18.0574 4.788 17.9 4.612C17.7427 4.436 17.5507 4.30133 17.324 4.208C17.1 4.11467 16.8467 4.068 16.564 4.068C16.2814 4.068 16.0267 4.11467 15.8 4.208C15.576 4.30133 15.384 4.436 15.224 4.612C15.0667 4.788 14.9454 5.00267 14.86 5.256C14.7747 5.50667 14.732 5.79067 14.732 6.108C14.732 6.42533 14.7747 6.71067 14.86 6.964C14.9454 7.21467 15.0667 7.428 15.224 7.604C15.384 7.77733 15.576 7.91067 15.8 8.004C16.0267 8.09733 16.2814 8.144 16.564 8.144C16.8467 8.144 17.1 8.09733 17.324 8.004C17.5507 7.91067 17.7427 7.77733 17.9 7.604C18.0574 7.428 18.1787 7.21467 18.264 6.964C18.3494 6.71067 18.392 6.42533 18.392 6.108ZM21.2065 7.936C21.3185 8.072 21.4398 8.168 21.5705 8.224C21.7038 8.28 21.8438 8.308 21.9905 8.308C22.1425 8.308 22.2785 8.28133 22.3985 8.228C22.5211 8.172 22.6251 8.08667 22.7105 7.972C22.7958 7.85467 22.8611 7.70667 22.9065 7.528C22.9518 7.34667 22.9745 7.13067 22.9745 6.88C22.9745 6.42933 22.8998 6.104 22.7505 5.904C22.6011 5.70133 22.3865 5.6 22.1065 5.6C21.9171 5.6 21.7518 5.644 21.6105 5.732C21.4691 5.81733 21.3345 5.93867 21.2065 6.096V7.936ZM21.2065 5.4C21.3718 5.22667 21.5545 5.08933 21.7545 4.988C21.9571 4.884 22.1878 4.832 22.4465 4.832C22.6838 4.832 22.8971 4.87867 23.0865 4.972C23.2785 5.06533 23.4411 5.2 23.5745 5.376C23.7105 5.54933 23.8145 5.76 23.8865 6.008C23.9585 6.256 23.9945 6.53467 23.9945 6.844C23.9945 7.17733 23.9531 7.48 23.8705 7.752C23.7878 8.024 23.6691 8.25733 23.5145 8.452C23.3625 8.644 23.1785 8.79333 22.9625 8.9C22.7465 9.00667 22.5065 9.06 22.2425 9.06C22.1145 9.06 21.9985 9.04667 21.8945 9.02C21.7905 8.996 21.6945 8.96133 21.6065 8.916C21.5185 8.87067 21.4371 8.816 21.3625 8.752C21.2905 8.68533 21.2211 8.612 21.1545 8.532L21.1105 8.808C21.0945 8.87733 21.0665 8.92667 21.0265 8.956C20.9891 8.98533 20.9371 9 20.8705 9H20.2185V3.056H21.2065V5.4ZM25.7575 3.056V9H24.7695V3.056H25.7575ZM27.7659 4.896V9H26.7739V4.896H27.7659ZM27.9019 3.7C27.9019 3.78533 27.8846 3.86533 27.8499 3.94C27.8152 4.01467 27.7686 4.08 27.7099 4.136C27.6539 4.192 27.5872 4.23733 27.5099 4.272C27.4326 4.304 27.3499 4.32 27.2619 4.32C27.1766 4.32 27.0952 4.304 27.0179 4.272C26.9432 4.23733 26.8779 4.192 26.8219 4.136C26.7659 4.08 26.7206 4.01467 26.6859 3.94C26.6539 3.86533 26.6379 3.78533 26.6379 3.7C26.6379 3.612 26.6539 3.52933 26.6859 3.452C26.7206 3.37467 26.7659 3.308 26.8219 3.252C26.8779 3.196 26.9432 3.152 27.0179 3.12C27.0952 3.08533 27.1766 3.068 27.2619 3.068C27.3499 3.068 27.4326 3.08533 27.5099 3.12C27.5872 3.152 27.6539 3.196 27.7099 3.252C27.7686 3.308 27.8152 3.37467 27.8499 3.452C27.8846 3.52933 27.9019 3.612 27.9019 3.7ZM30.2732 6.848C30.3958 6.848 30.5025 6.832 30.5932 6.8C30.6838 6.76533 30.7585 6.71867 30.8172 6.66C30.8785 6.60133 30.9238 6.53067 30.9532 6.448C30.9852 6.36533 31.0012 6.27467 31.0012 6.176C31.0012 5.97333 30.9398 5.81333 30.8172 5.696C30.6972 5.576 30.5158 5.516 30.2732 5.516C30.0305 5.516 29.8478 5.576 29.7252 5.696C29.6052 5.81333 29.5452 5.97333 29.5452 6.176C29.5452 6.272 29.5598 6.36133 29.5892 6.444C29.6212 6.52667 29.6665 6.59867 29.7252 6.66C29.7865 6.71867 29.8625 6.76533 29.9532 6.8C30.0465 6.832 30.1532 6.848 30.2732 6.848ZM31.3892 9.184C31.3892 9.104 31.3652 9.03867 31.3172 8.988C31.2692 8.93733 31.2038 8.89867 31.1212 8.872C31.0385 8.84267 30.9412 8.82133 30.8292 8.808C30.7198 8.79467 30.6025 8.78533 30.4772 8.78C30.3545 8.772 30.2265 8.76533 30.0932 8.76C29.9625 8.75467 29.8345 8.744 29.7092 8.728C29.5998 8.78933 29.5105 8.86133 29.4412 8.944C29.3745 9.02667 29.3412 9.12267 29.3412 9.232C29.3412 9.304 29.3585 9.37067 29.3932 9.432C29.4305 9.496 29.4878 9.55067 29.5652 9.596C29.6452 9.64133 29.7478 9.676 29.8732 9.7C29.9985 9.72667 30.1518 9.74 30.3332 9.74C30.5172 9.74 30.6758 9.72533 30.8092 9.696C30.9425 9.66933 31.0518 9.63067 31.1372 9.58C31.2252 9.532 31.2892 9.47333 31.3292 9.404C31.3692 9.33733 31.3892 9.264 31.3892 9.184ZM32.3732 5.036V5.404C32.3732 5.52133 32.3025 5.59333 32.1612 5.62L31.7932 5.688C31.8492 5.82933 31.8772 5.984 31.8772 6.152C31.8772 6.35467 31.8358 6.53867 31.7532 6.704C31.6732 6.86667 31.5612 7.00533 31.4172 7.12C31.2732 7.23467 31.1025 7.324 30.9052 7.388C30.7105 7.44933 30.4998 7.48 30.2732 7.48C30.1932 7.48 30.1158 7.476 30.0412 7.468C29.9665 7.46 29.8932 7.44933 29.8212 7.436C29.6932 7.51333 29.6292 7.6 29.6292 7.696C29.6292 7.77867 29.6665 7.84 29.7412 7.88C29.8185 7.91733 29.9198 7.944 30.0452 7.96C30.1705 7.976 30.3132 7.98667 30.4732 7.992C30.6332 7.99467 30.7972 8.00267 30.9652 8.016C31.1332 8.02933 31.2972 8.05333 31.4572 8.088C31.6172 8.12 31.7598 8.172 31.8852 8.244C32.0105 8.316 32.1105 8.41467 32.1852 8.54C32.2625 8.66267 32.3012 8.82133 32.3012 9.016C32.3012 9.19733 32.2558 9.37333 32.1652 9.544C32.0772 9.71467 31.9478 9.86667 31.7772 10C31.6092 10.1333 31.4012 10.24 31.1532 10.32C30.9078 10.4027 30.6278 10.444 30.3132 10.444C30.0038 10.444 29.7345 10.4133 29.5052 10.352C29.2758 10.2933 29.0852 10.2133 28.9332 10.112C28.7812 10.0133 28.6678 9.89867 28.5932 9.768C28.5185 9.63733 28.4812 9.50133 28.4812 9.36C28.4812 9.168 28.5385 9.008 28.6532 8.88C28.7705 8.74933 28.9305 8.64533 29.1332 8.568C29.0238 8.512 28.9372 8.43733 28.8732 8.344C28.8092 8.25067 28.7772 8.128 28.7772 7.976C28.7772 7.91467 28.7878 7.852 28.8092 7.788C28.8332 7.72133 28.8665 7.656 28.9092 7.592C28.9545 7.528 29.0105 7.468 29.0772 7.412C29.1438 7.35333 29.2225 7.30133 29.3132 7.256C29.1052 7.144 28.9412 6.99467 28.8212 6.808C28.7038 6.62133 28.6452 6.40267 28.6452 6.152C28.6452 5.94933 28.6852 5.76667 28.7652 5.604C28.8478 5.43867 28.9612 5.29867 29.1052 5.184C29.2518 5.06667 29.4238 4.97733 29.6212 4.916C29.8212 4.85467 30.0385 4.824 30.2732 4.824C30.4492 4.824 30.6145 4.84267 30.7692 4.88C30.9238 4.91467 31.0652 4.96667 31.1932 5.036H32.3732ZM35.1677 7.248C34.8824 7.26133 34.6424 7.28667 34.4477 7.324C34.2531 7.35867 34.0971 7.404 33.9797 7.46C33.8624 7.516 33.7784 7.58133 33.7277 7.656C33.6771 7.73067 33.6517 7.812 33.6517 7.9C33.6517 8.07333 33.7024 8.19733 33.8037 8.272C33.9077 8.34667 34.0424 8.384 34.2077 8.384C34.4104 8.384 34.5851 8.348 34.7317 8.276C34.8811 8.20133 35.0264 8.08933 35.1677 7.94V7.248ZM32.9037 5.468C33.3757 5.036 33.9437 4.82 34.6077 4.82C34.8477 4.82 35.0624 4.86 35.2517 4.94C35.4411 5.01733 35.6011 5.12667 35.7317 5.268C35.8624 5.40667 35.9611 5.57333 36.0277 5.768C36.0971 5.96267 36.1317 6.176 36.1317 6.408V9H35.6837C35.5904 9 35.5184 8.98667 35.4677 8.96C35.4171 8.93067 35.3771 8.87333 35.3477 8.788L35.2597 8.492C35.1557 8.58533 35.0544 8.668 34.9557 8.74C34.8571 8.80933 34.7544 8.868 34.6477 8.916C34.5411 8.964 34.4264 9 34.3037 9.024C34.1837 9.05067 34.0504 9.064 33.9037 9.064C33.7304 9.064 33.5704 9.04133 33.4237 8.996C33.2771 8.948 33.1504 8.87733 33.0437 8.784C32.9371 8.69067 32.8544 8.57467 32.7957 8.436C32.7371 8.29733 32.7077 8.136 32.7077 7.952C32.7077 7.848 32.7251 7.74533 32.7597 7.644C32.7944 7.54 32.8504 7.44133 32.9277 7.348C33.0077 7.25467 33.1104 7.16667 33.2357 7.084C33.3611 7.00133 33.5144 6.92933 33.6957 6.868C33.8797 6.80667 34.0931 6.75733 34.3357 6.72C34.5784 6.68 34.8557 6.656 35.1677 6.648V6.408C35.1677 6.13333 35.1091 5.93067 34.9917 5.8C34.8744 5.66667 34.7051 5.6 34.4837 5.6C34.3237 5.6 34.1904 5.61867 34.0837 5.656C33.9797 5.69333 33.8877 5.736 33.8077 5.784C33.7277 5.82933 33.6544 5.87067 33.5877 5.908C33.5237 5.94533 33.4517 5.964 33.3717 5.964C33.3024 5.964 33.2437 5.94667 33.1957 5.912C33.1477 5.87467 33.1091 5.832 33.0797 5.784L32.9037 5.468ZM38.3755 9.064C38.0182 9.064 37.7435 8.964 37.5515 8.764C37.3622 8.56133 37.2675 8.28267 37.2675 7.928V5.636H36.8475C36.7942 5.636 36.7489 5.61867 36.7115 5.584C36.6742 5.54933 36.6555 5.49733 36.6555 5.428V5.036L37.3155 4.928L37.5235 3.808C37.5369 3.75467 37.5622 3.71333 37.5995 3.684C37.6369 3.65467 37.6849 3.64 37.7435 3.64H38.2555V4.932H39.3515V5.636H38.2555V7.86C38.2555 7.988 38.2862 8.088 38.3475 8.16C38.4115 8.232 38.4982 8.268 38.6075 8.268C38.6689 8.268 38.7195 8.26133 38.7595 8.248C38.8022 8.232 38.8382 8.216 38.8675 8.2C38.8995 8.184 38.9275 8.16933 38.9515 8.156C38.9755 8.14 38.9995 8.132 39.0235 8.132C39.0529 8.132 39.0769 8.14 39.0955 8.156C39.1142 8.16933 39.1342 8.19067 39.1555 8.22L39.4515 8.7C39.3075 8.82 39.1422 8.91067 38.9555 8.972C38.7689 9.03333 38.5755 9.064 38.3755 9.064ZM41.7688 4.832C42.0728 4.832 42.3488 4.88133 42.5968 4.98C42.8475 5.07867 43.0608 5.21867 43.2368 5.4C43.4155 5.58133 43.5528 5.80267 43.6488 6.064C43.7448 6.32533 43.7928 6.61733 43.7928 6.94C43.7928 7.26533 43.7448 7.55867 43.6488 7.82C43.5528 8.08133 43.4155 8.304 43.2368 8.488C43.0608 8.672 42.8475 8.81333 42.5968 8.912C42.3488 9.01067 42.0728 9.06 41.7688 9.06C41.4622 9.06 41.1835 9.01067 40.9328 8.912C40.6822 8.81333 40.4675 8.672 40.2888 8.488C40.1128 8.304 39.9755 8.08133 39.8768 7.82C39.7808 7.55867 39.7328 7.26533 39.7328 6.94C39.7328 6.61733 39.7808 6.32533 39.8768 6.064C39.9755 5.80267 40.1128 5.58133 40.2888 5.4C40.4675 5.21867 40.6822 5.07867 40.9328 4.98C41.1835 4.88133 41.4622 4.832 41.7688 4.832ZM41.7688 8.3C42.1102 8.3 42.3622 8.18533 42.5248 7.956C42.6902 7.72667 42.7728 7.39067 42.7728 6.948C42.7728 6.50533 42.6902 6.168 42.5248 5.936C42.3622 5.704 42.1102 5.588 41.7688 5.588C41.4222 5.588 41.1648 5.70533 40.9968 5.94C40.8315 6.172 40.7488 6.508 40.7488 6.948C40.7488 7.388 40.8315 7.724 40.9968 7.956C41.1648 8.18533 41.4222 8.3 41.7688 8.3ZM45.4786 5.608C45.6066 5.36267 45.7586 5.17067 45.9346 5.032C46.1106 4.89067 46.3186 4.82 46.5586 4.82C46.7479 4.82 46.8999 4.86133 47.0146 4.944L46.9506 5.684C46.9373 5.732 46.9173 5.76667 46.8906 5.788C46.8666 5.80667 46.8333 5.816 46.7906 5.816C46.7506 5.816 46.6906 5.80933 46.6106 5.796C46.5333 5.78267 46.4573 5.776 46.3826 5.776C46.2733 5.776 46.1759 5.792 46.0906 5.824C46.0053 5.856 45.9279 5.90267 45.8586 5.964C45.7919 6.02267 45.7319 6.09467 45.6786 6.18C45.6279 6.26533 45.5799 6.36267 45.5346 6.472V9H44.5466V4.896H45.1266C45.2279 4.896 45.2986 4.91467 45.3386 4.952C45.3786 4.98667 45.4053 5.05067 45.4186 5.144L45.4786 5.608ZM48.555 4.896V9H47.563V4.896H48.555ZM48.691 3.7C48.691 3.78533 48.6736 3.86533 48.639 3.94C48.6043 4.01467 48.5576 4.08 48.499 4.136C48.443 4.192 48.3763 4.23733 48.299 4.272C48.2216 4.304 48.139 4.32 48.051 4.32C47.9656 4.32 47.8843 4.304 47.807 4.272C47.7323 4.23733 47.667 4.192 47.611 4.136C47.555 4.08 47.5096 4.01467 47.475 3.94C47.443 3.86533 47.427 3.78533 47.427 3.7C47.427 3.612 47.443 3.52933 47.475 3.452C47.5096 3.37467 47.555 3.308 47.611 3.252C47.667 3.196 47.7323 3.152 47.807 3.12C47.8843 3.08533 47.9656 3.068 48.051 3.068C48.139 3.068 48.2216 3.08533 48.299 3.12C48.3763 3.152 48.443 3.196 48.499 3.252C48.5576 3.308 48.6043 3.37467 48.639 3.452C48.6736 3.52933 48.691 3.612 48.691 3.7ZM51.3782 4.832C51.6822 4.832 51.9582 4.88133 52.2062 4.98C52.4569 5.07867 52.6702 5.21867 52.8462 5.4C53.0249 5.58133 53.1622 5.80267 53.2582 6.064C53.3542 6.32533 53.4022 6.61733 53.4022 6.94C53.4022 7.26533 53.3542 7.55867 53.2582 7.82C53.1622 8.08133 53.0249 8.304 52.8462 8.488C52.6702 8.672 52.4569 8.81333 52.2062 8.912C51.9582 9.01067 51.6822 9.06 51.3782 9.06C51.0716 9.06 50.7929 9.01067 50.5422 8.912C50.2916 8.81333 50.0769 8.672 49.8982 8.488C49.7222 8.304 49.5849 8.08133 49.4862 7.82C49.3902 7.55867 49.3422 7.26533 49.3422 6.94C49.3422 6.61733 49.3902 6.32533 49.4862 6.064C49.5849 5.80267 49.7222 5.58133 49.8982 5.4C50.0769 5.21867 50.2916 5.07867 50.5422 4.98C50.7929 4.88133 51.0716 4.832 51.3782 4.832ZM51.3782 8.3C51.7196 8.3 51.9716 8.18533 52.1342 7.956C52.2996 7.72667 52.3822 7.39067 52.3822 6.948C52.3822 6.50533 52.2996 6.168 52.1342 5.936C51.9716 5.704 51.7196 5.588 51.3782 5.588C51.0316 5.588 50.7742 5.70533 50.6062 5.94C50.4409 6.172 50.3582 6.508 50.3582 6.948C50.3582 7.388 50.4409 7.724 50.6062 7.956C50.7742 8.18533 51.0316 8.3 51.3782 8.3Z" fill="white"/>
</svg>
