<svg width="26" height="38" viewBox="0 0 26 38" fill="none" xmlns="http://www.w3.org/2000/svg">
<path d="M3.63926 33.305C3.91926 33.305 4.16592 33.2717 4.37926 33.205C4.59592 33.135 4.77592 33.0383 4.91926 32.915C5.06592 32.7883 5.17592 32.6383 5.24926 32.465C5.32259 32.2917 5.35926 32.1 5.35926 31.89C5.35926 31.4633 5.21926 31.1417 4.93926 30.925C4.65926 30.7083 4.23926 30.6 3.67926 30.6H2.61926V33.305H3.63926ZM6.94926 37H6.08926C5.91259 37 5.78259 36.9317 5.69926 36.795L3.83926 34.235C3.78259 34.155 3.72092 34.0983 3.65426 34.065C3.59092 34.0283 3.49092 34.01 3.35426 34.01H2.61926V37H1.65426V29.835H3.67926C4.13259 29.835 4.52426 29.8817 4.85426 29.975C5.18426 30.065 5.45592 30.1967 5.66926 30.37C5.88592 30.5433 6.04592 30.7533 6.14926 31C6.25259 31.2433 6.30426 31.5167 6.30426 31.82C6.30426 32.0733 6.26426 32.31 6.18426 32.53C6.10426 32.75 5.98759 32.9483 5.83426 33.125C5.68426 33.2983 5.49926 33.4467 5.27926 33.57C5.06259 33.6933 4.81592 33.7867 4.53926 33.85C4.66259 33.92 4.76926 34.0217 4.85926 34.155L6.94926 37ZM11.6737 31.935V37H11.1437C11.017 37 10.937 36.9383 10.9037 36.815L10.8337 36.27C10.6137 36.5133 10.367 36.71 10.0937 36.86C9.82038 37.0067 9.50704 37.08 9.15371 37.08C8.87704 37.08 8.63204 37.035 8.41871 36.945C8.20871 36.8517 8.03204 36.7217 7.88871 36.555C7.74538 36.3883 7.63704 36.1867 7.56371 35.95C7.49371 35.7133 7.45871 35.4517 7.45871 35.165V31.935H8.34871V35.165C8.34871 35.5483 8.43538 35.845 8.60871 36.055C8.78538 36.265 9.05371 36.37 9.41371 36.37C9.67704 36.37 9.92204 36.3083 10.1487 36.185C10.3787 36.0583 10.5904 35.885 10.7837 35.665V31.935H11.6737ZM14.6399 37.08C14.2399 37.08 13.9315 36.9683 13.7149 36.745C13.5015 36.5217 13.3949 36.2 13.3949 35.78V32.68H12.7849C12.7315 32.68 12.6865 32.665 12.6499 32.635C12.6132 32.6017 12.5949 32.5517 12.5949 32.485V32.13L13.4249 32.025L13.6299 30.46C13.6399 30.41 13.6615 30.37 13.6949 30.34C13.7315 30.3067 13.7782 30.29 13.8349 30.29H14.2849V32.035H15.7499V32.68H14.2849V35.72C14.2849 35.9333 14.3365 36.0917 14.4399 36.195C14.5432 36.2983 14.6765 36.35 14.8399 36.35C14.9332 36.35 15.0132 36.3383 15.0799 36.315C15.1499 36.2883 15.2099 36.26 15.2599 36.23C15.3099 36.2 15.3515 36.1733 15.3849 36.15C15.4215 36.1233 15.4532 36.11 15.4799 36.11C15.5265 36.11 15.5682 36.1383 15.6049 36.195L15.8649 36.62C15.7115 36.7633 15.5265 36.8767 15.3099 36.96C15.0932 37.04 14.8699 37.08 14.6399 37.08ZM19.4139 34.72C19.0039 34.7333 18.6539 34.7667 18.3639 34.82C18.0772 34.87 17.8422 34.9367 17.6589 35.02C17.4789 35.1033 17.3472 35.2017 17.2639 35.315C17.1839 35.4283 17.1439 35.555 17.1439 35.695C17.1439 35.8283 17.1655 35.9433 17.2089 36.04C17.2522 36.1367 17.3105 36.2167 17.3839 36.28C17.4605 36.34 17.5489 36.385 17.6489 36.415C17.7522 36.4417 17.8622 36.455 17.9789 36.455C18.1355 36.455 18.2789 36.44 18.4089 36.41C18.5389 36.3767 18.6605 36.33 18.7739 36.27C18.8905 36.21 19.0005 36.1383 19.1039 36.055C19.2105 35.9717 19.3139 35.8767 19.4139 35.77V34.72ZM16.5389 32.65C16.8189 32.38 17.1205 32.1783 17.4439 32.045C17.7672 31.9117 18.1255 31.845 18.5189 31.845C18.8022 31.845 19.0539 31.8917 19.2739 31.985C19.4939 32.0783 19.6789 32.2083 19.8289 32.375C19.9789 32.5417 20.0922 32.7433 20.1689 32.98C20.2455 33.2167 20.2839 33.4767 20.2839 33.76V37H19.8889C19.8022 37 19.7355 36.9867 19.6889 36.96C19.6422 36.93 19.6055 36.8733 19.5789 36.79L19.4789 36.31C19.3455 36.4333 19.2155 36.5433 19.0889 36.64C18.9622 36.7333 18.8289 36.8133 18.6889 36.88C18.5489 36.9433 18.3989 36.9917 18.2389 37.025C18.0822 37.0617 17.9072 37.08 17.7139 37.08C17.5172 37.08 17.3322 37.0533 17.1589 37C16.9855 36.9433 16.8339 36.86 16.7039 36.75C16.5772 36.64 16.4755 36.5017 16.3989 36.335C16.3255 36.165 16.2889 35.965 16.2889 35.735C16.2889 35.535 16.3439 35.3433 16.4539 35.16C16.5639 34.9733 16.7422 34.8083 16.9889 34.665C17.2355 34.5217 17.5572 34.405 17.9539 34.315C18.3505 34.2217 18.8372 34.1683 19.4139 34.155V33.76C19.4139 33.3667 19.3289 33.07 19.1589 32.87C18.9889 32.6667 18.7405 32.565 18.4139 32.565C18.1939 32.565 18.0089 32.5933 17.8589 32.65C17.7122 32.7033 17.5839 32.765 17.4739 32.835C17.3672 32.9017 17.2739 32.9633 17.1939 33.02C17.1172 33.0733 17.0405 33.1 16.9639 33.1C16.9039 33.1 16.8522 33.085 16.8089 33.055C16.7655 33.0217 16.7289 32.9817 16.6989 32.935L16.5389 32.65ZM24.5896 32.77C24.5496 32.8433 24.4879 32.88 24.4046 32.88C24.3546 32.88 24.2979 32.8617 24.2346 32.825C24.1712 32.7883 24.0929 32.7483 23.9996 32.705C23.9096 32.6583 23.8012 32.6167 23.6746 32.58C23.5479 32.54 23.3979 32.52 23.2246 32.52C23.0746 32.52 22.9396 32.54 22.8196 32.58C22.6996 32.6167 22.5962 32.6683 22.5096 32.735C22.4262 32.8017 22.3612 32.88 22.3146 32.97C22.2712 33.0567 22.2496 33.1517 22.2496 33.255C22.2496 33.385 22.2862 33.4933 22.3596 33.58C22.4362 33.6667 22.5362 33.7417 22.6596 33.805C22.7829 33.8683 22.9229 33.925 23.0796 33.975C23.2362 34.0217 23.3962 34.0733 23.5596 34.13C23.7262 34.1833 23.8879 34.2433 24.0446 34.31C24.2012 34.3767 24.3412 34.46 24.4646 34.56C24.5879 34.66 24.6862 34.7833 24.7596 34.93C24.8362 35.0733 24.8746 35.2467 24.8746 35.45C24.8746 35.6833 24.8329 35.9 24.7496 36.1C24.6662 36.2967 24.5429 36.4683 24.3796 36.615C24.2162 36.7583 24.0162 36.8717 23.7796 36.955C23.5429 37.0383 23.2696 37.08 22.9596 37.08C22.6062 37.08 22.2862 37.0233 21.9996 36.91C21.7129 36.7933 21.4696 36.645 21.2696 36.465L21.4796 36.125C21.5062 36.0817 21.5379 36.0483 21.5746 36.025C21.6112 36.0017 21.6579 35.99 21.7146 35.99C21.7746 35.99 21.8379 36.0133 21.9046 36.06C21.9712 36.1067 22.0512 36.1583 22.1446 36.215C22.2412 36.2717 22.3579 36.3233 22.4946 36.37C22.6312 36.4167 22.8012 36.44 23.0046 36.44C23.1779 36.44 23.3296 36.4183 23.4596 36.375C23.5896 36.3283 23.6979 36.2667 23.7846 36.19C23.8712 36.1133 23.9346 36.025 23.9746 35.925C24.0179 35.825 24.0396 35.7183 24.0396 35.605C24.0396 35.465 24.0012 35.35 23.9246 35.26C23.8512 35.1667 23.7529 35.0883 23.6296 35.025C23.5062 34.9583 23.3646 34.9017 23.2046 34.855C23.0479 34.805 22.8862 34.7533 22.7196 34.7C22.5562 34.6467 22.3946 34.5867 22.2346 34.52C22.0779 34.45 21.9379 34.3633 21.8146 34.26C21.6912 34.1567 21.5912 34.03 21.5146 33.88C21.4412 33.7267 21.4046 33.5417 21.4046 33.325C21.4046 33.1317 21.4446 32.9467 21.5246 32.77C21.6046 32.59 21.7212 32.4333 21.8746 32.3C22.0279 32.1633 22.2162 32.055 22.4396 31.975C22.6629 31.895 22.9179 31.855 23.2046 31.855C23.5379 31.855 23.8362 31.9083 24.0996 32.015C24.3662 32.1183 24.5962 32.2617 24.7896 32.445L24.5896 32.77Z" fill="#949494"/>
<path d="M2 18.3679C2.04056 18.0308 2.0888 17.6942 2.12114 17.356C2.28559 15.6283 2.44802 13.9003 2.60845 12.1722C2.75097 10.6417 2.89732 9.1113 3.02888 7.57922C3.05464 7.27719 3.16317 7.09192 3.44712 6.9483C4.68594 6.32231 5.90886 5.67385 7.13452 5.02594C7.32638 4.92453 7.49904 4.90863 7.69747 4.99798C8.0461 5.1542 8.40294 5.29289 8.75376 5.44363C8.98289 5.54229 9.0684 5.72483 8.98563 5.91394C8.90286 6.10305 8.71648 6.16445 8.48352 6.07126C8.25056 5.97807 8.00608 5.87557 7.74407 5.76758C7.71721 6.15129 7.68925 6.51142 7.66678 6.87101C7.52426 9.16995 7.38247 11.4691 7.24141 13.7684C7.19482 14.5188 7.14768 15.2692 7.09067 16.0185C7.07916 16.1737 7.11698 16.2433 7.27046 16.2981C8.82447 16.8578 10.3752 17.4267 11.9297 17.9919C11.9928 18.0149 12.058 18.0314 12.149 18.0593C12.1545 17.9584 12.1633 17.874 12.1633 17.7896C12.1633 15.5265 12.1633 13.2632 12.1633 10.9997C12.1597 10.9109 12.1634 10.822 12.1742 10.7338C12.1877 10.6564 12.2281 10.5861 12.2882 10.5355C12.3484 10.4849 12.4245 10.4572 12.5031 10.4572C12.5817 10.4572 12.6578 10.4849 12.718 10.5355C12.7782 10.5861 12.8185 10.6564 12.832 10.7338C12.8432 10.822 12.8471 10.9109 12.8435 10.9997C12.8435 13.2566 12.8435 15.513 12.8435 17.7688V18.0582C12.9301 18.0346 12.9871 18.0231 13.0419 18.0034C14.6003 17.4372 16.1582 16.8682 17.7188 16.3074C17.8832 16.2482 17.9265 16.1682 17.915 15.9972C17.8015 14.2919 17.6957 12.5866 17.5905 10.8813C17.4863 9.23683 17.3813 7.59238 17.2753 5.94793C17.2715 5.89311 17.2627 5.84268 17.2539 5.77033C17.0078 5.87119 16.7754 5.96711 16.5413 6.06085C16.2908 6.16061 16.1072 6.10689 16.0206 5.9112C15.934 5.71551 16.0272 5.53791 16.2716 5.43431C16.6367 5.28028 17.004 5.13283 17.3679 4.97496C17.439 4.94185 17.517 4.9263 17.5953 4.92964C17.6736 4.93298 17.75 4.9551 17.818 4.99414C19.1127 5.67239 20.408 6.34936 21.7038 7.02504C21.7754 7.05741 21.8366 7.10896 21.8807 7.17396C21.9249 7.23897 21.9501 7.31492 21.9538 7.3934C22.0404 8.34608 22.133 9.29822 22.2229 10.2509C22.342 11.5087 22.4604 12.7671 22.5781 14.026C22.6936 15.2575 22.8083 16.489 22.9223 17.7205C22.9448 17.9584 22.9667 18.1969 22.9942 18.4331C23.0122 18.5921 22.9942 18.7368 22.8566 18.8371C22.719 18.9374 22.5737 18.9046 22.4307 18.8371C21.1019 18.1969 19.7721 17.5599 18.4456 16.9186C18.3899 16.8879 18.3281 16.8701 18.2647 16.8664C18.2012 16.8627 18.1377 16.8732 18.0789 16.8972C16.3106 17.5457 14.5395 18.187 12.7712 18.8366C12.5996 18.9043 12.4088 18.9043 12.2373 18.8366C10.47 18.1876 8.69949 17.5451 6.93335 16.8961C6.87434 16.8725 6.81078 16.8623 6.74733 16.8664C6.68388 16.8705 6.62214 16.8887 6.56664 16.9197C5.25108 17.5567 3.93442 18.1899 2.61667 18.8196C2.30751 18.9676 2.18966 18.9347 2.00219 18.6551L2 18.3679ZM7.04298 5.88927C7.00352 5.88927 6.98817 5.88434 6.9772 5.88927C5.92366 6.43742 4.87066 6.98777 3.81821 7.5403C3.79202 7.55824 3.76986 7.58145 3.75315 7.60845C3.73645 7.63544 3.72556 7.66563 3.72119 7.69707C3.6746 8.09722 3.63732 8.49902 3.60005 8.90026C3.47105 10.2816 3.34315 11.6628 3.21635 13.0437C3.08954 14.4247 2.95817 15.8059 2.82223 17.1872C2.79811 17.441 2.78002 17.6959 2.75809 17.9628C2.78795 17.96 2.81749 17.9545 2.84634 17.9464C3.99161 17.3982 5.13578 16.847 6.27886 16.2926C6.31035 16.2721 6.33714 16.2451 6.35745 16.2134C6.37776 16.1818 6.39114 16.1462 6.39671 16.109C6.42522 15.8579 6.43454 15.6047 6.45153 15.3525C6.54179 13.9197 6.63315 12.4872 6.7256 11.055C6.80271 9.82645 6.88 8.59842 6.95747 7.37092C6.98433 6.88088 7.01229 6.39028 7.04298 5.88927ZM22.2377 17.9793C22.2377 17.896 22.2415 17.8439 22.2377 17.7924C22.0875 16.1866 21.9371 14.5811 21.7866 12.9758C21.6232 11.2337 21.4608 9.4919 21.2993 7.75024C21.2995 7.69703 21.284 7.64495 21.2547 7.60049C21.2255 7.55604 21.1838 7.52118 21.1348 7.50029C20.1399 6.98612 19.1483 6.46593 18.1551 5.94847C18.1003 5.91942 18.0411 5.89914 17.9632 5.86625C17.9813 6.17431 17.9956 6.44674 18.0126 6.71917C18.116 8.35632 18.2199 9.99346 18.3245 11.6306C18.418 13.1106 18.5094 14.5906 18.5985 16.0706C18.5967 16.1236 18.6117 16.1757 18.6412 16.2197C18.6707 16.2637 18.7133 16.2972 18.763 16.3156C19.6883 16.7542 20.6108 17.1993 21.5344 17.6422L22.2377 17.9793Z" fill="#949494"/>
<path d="M12.4949 0C14.2715 0.021926 15.7016 1.22621 15.9663 2.97043C16.0769 3.67354 15.9347 4.39307 15.5651 5.00132C14.6621 6.52189 13.7562 8.04045 12.8474 9.557C12.6429 9.89905 12.3617 9.89521 12.1551 9.54933C11.2583 8.04849 10.3582 6.5504 9.46912 5.04518C8.31801 3.09815 9.44281 0.605158 11.6858 0.115112C11.9517 0.054815 12.2252 0.0372742 12.4949 0ZM12.4949 8.77808C12.5201 8.74903 12.5437 8.71865 12.5656 8.68709C13.3774 7.32712 14.1958 5.97045 14.9978 4.60446C15.3343 4.03055 15.3908 3.39853 15.2285 2.76103C14.8646 1.32598 13.3895 0.43852 11.8848 0.771247C9.94711 1.1988 9.13859 3.27246 10.1055 4.78261C10.5287 5.44039 10.9124 6.12942 11.3147 6.80364C11.7023 7.45484 12.092 8.10276 12.496 8.77808H12.4949Z" fill="#949494"/>
<path d="M12.4812 5.25297C11.5181 5.23433 10.7469 4.44828 10.7606 3.49889C10.7737 2.53195 11.5768 1.7448 12.5267 1.76783C13.4903 1.79085 14.2599 2.5769 14.2473 3.52191C14.2457 3.75173 14.1986 3.97896 14.1089 4.19053C14.0191 4.4021 13.8884 4.59383 13.7242 4.75471C13.5601 4.91558 13.3658 5.04242 13.1525 5.12793C12.9391 5.21344 12.711 5.25593 12.4812 5.25297ZM12.5108 2.45301C12.3014 2.45215 12.0964 2.51338 11.9217 2.62897C11.747 2.74456 11.6105 2.90931 11.5295 3.10243C11.4484 3.29555 11.4264 3.50837 11.4662 3.71399C11.506 3.91962 11.6059 4.10883 11.7532 4.25774C11.9004 4.40664 12.0886 4.50855 12.2938 4.55059C12.4989 4.59263 12.712 4.57292 12.906 4.49395C13.0999 4.41497 13.2662 4.28028 13.3837 4.10688C13.5011 3.93348 13.5646 3.72916 13.566 3.51971C13.5646 3.23922 13.4533 2.97045 13.2561 2.77104C13.0588 2.57163 12.7913 2.45746 12.5108 2.45301Z" fill="#949494"/>
</svg>
