<svg width="26" height="38" viewBox="0 0 26 38" fill="none" xmlns="http://www.w3.org/2000/svg">
<path d="M3.63926 33.305C3.91926 33.305 4.16592 33.2717 4.37926 33.205C4.59592 33.135 4.77592 33.0383 4.91926 32.915C5.06592 32.7883 5.17592 32.6383 5.24926 32.465C5.32259 32.2917 5.35926 32.1 5.35926 31.89C5.35926 31.4633 5.21926 31.1417 4.93926 30.925C4.65926 30.7083 4.23926 30.6 3.67926 30.6H2.61926V33.305H3.63926ZM6.94926 37H6.08926C5.91259 37 5.78259 36.9317 5.69926 36.795L3.83926 34.235C3.78259 34.155 3.72092 34.0983 3.65426 34.065C3.59092 34.0283 3.49092 34.01 3.35426 34.01H2.61926V37H1.65426V29.835H3.67926C4.13259 29.835 4.52426 29.8817 4.85426 29.975C5.18426 30.065 5.45592 30.1967 5.66926 30.37C5.88592 30.5433 6.04592 30.7533 6.14926 31C6.25259 31.2433 6.30426 31.5167 6.30426 31.82C6.30426 32.0733 6.26426 32.31 6.18426 32.53C6.10426 32.75 5.98759 32.9483 5.83426 33.125C5.68426 33.2983 5.49926 33.4467 5.27926 33.57C5.06259 33.6933 4.81592 33.7867 4.53926 33.85C4.66259 33.92 4.76926 34.0217 4.85926 34.155L6.94926 37ZM11.6737 31.935V37H11.1437C11.017 37 10.937 36.9383 10.9037 36.815L10.8337 36.27C10.6137 36.5133 10.367 36.71 10.0937 36.86C9.82038 37.0067 9.50704 37.08 9.15371 37.08C8.87704 37.08 8.63204 37.035 8.41871 36.945C8.20871 36.8517 8.03204 36.7217 7.88871 36.555C7.74538 36.3883 7.63704 36.1867 7.56371 35.95C7.49371 35.7133 7.45871 35.4517 7.45871 35.165V31.935H8.34871V35.165C8.34871 35.5483 8.43538 35.845 8.60871 36.055C8.78538 36.265 9.05371 36.37 9.41371 36.37C9.67704 36.37 9.92204 36.3083 10.1487 36.185C10.3787 36.0583 10.5904 35.885 10.7837 35.665V31.935H11.6737ZM14.6399 37.08C14.2399 37.08 13.9315 36.9683 13.7149 36.745C13.5015 36.5217 13.3949 36.2 13.3949 35.78V32.68H12.7849C12.7315 32.68 12.6865 32.665 12.6499 32.635C12.6132 32.6017 12.5949 32.5517 12.5949 32.485V32.13L13.4249 32.025L13.6299 30.46C13.6399 30.41 13.6615 30.37 13.6949 30.34C13.7315 30.3067 13.7782 30.29 13.8349 30.29H14.2849V32.035H15.7499V32.68H14.2849V35.72C14.2849 35.9333 14.3365 36.0917 14.4399 36.195C14.5432 36.2983 14.6765 36.35 14.8399 36.35C14.9332 36.35 15.0132 36.3383 15.0799 36.315C15.1499 36.2883 15.2099 36.26 15.2599 36.23C15.3099 36.2 15.3515 36.1733 15.3849 36.15C15.4215 36.1233 15.4532 36.11 15.4799 36.11C15.5265 36.11 15.5682 36.1383 15.6049 36.195L15.8649 36.62C15.7115 36.7633 15.5265 36.8767 15.3099 36.96C15.0932 37.04 14.8699 37.08 14.6399 37.08ZM19.4139 34.72C19.0039 34.7333 18.6539 34.7667 18.3639 34.82C18.0772 34.87 17.8422 34.9367 17.6589 35.02C17.4789 35.1033 17.3472 35.2017 17.2639 35.315C17.1839 35.4283 17.1439 35.555 17.1439 35.695C17.1439 35.8283 17.1655 35.9433 17.2089 36.04C17.2522 36.1367 17.3105 36.2167 17.3839 36.28C17.4605 36.34 17.5489 36.385 17.6489 36.415C17.7522 36.4417 17.8622 36.455 17.9789 36.455C18.1355 36.455 18.2789 36.44 18.4089 36.41C18.5389 36.3767 18.6605 36.33 18.7739 36.27C18.8905 36.21 19.0005 36.1383 19.1039 36.055C19.2105 35.9717 19.3139 35.8767 19.4139 35.77V34.72ZM16.5389 32.65C16.8189 32.38 17.1205 32.1783 17.4439 32.045C17.7672 31.9117 18.1255 31.845 18.5189 31.845C18.8022 31.845 19.0539 31.8917 19.2739 31.985C19.4939 32.0783 19.6789 32.2083 19.8289 32.375C19.9789 32.5417 20.0922 32.7433 20.1689 32.98C20.2455 33.2167 20.2839 33.4767 20.2839 33.76V37H19.8889C19.8022 37 19.7355 36.9867 19.6889 36.96C19.6422 36.93 19.6055 36.8733 19.5789 36.79L19.4789 36.31C19.3455 36.4333 19.2155 36.5433 19.0889 36.64C18.9622 36.7333 18.8289 36.8133 18.6889 36.88C18.5489 36.9433 18.3989 36.9917 18.2389 37.025C18.0822 37.0617 17.9072 37.08 17.7139 37.08C17.5172 37.08 17.3322 37.0533 17.1589 37C16.9855 36.9433 16.8339 36.86 16.7039 36.75C16.5772 36.64 16.4755 36.5017 16.3989 36.335C16.3255 36.165 16.2889 35.965 16.2889 35.735C16.2889 35.535 16.3439 35.3433 16.4539 35.16C16.5639 34.9733 16.7422 34.8083 16.9889 34.665C17.2355 34.5217 17.5572 34.405 17.9539 34.315C18.3505 34.2217 18.8372 34.1683 19.4139 34.155V33.76C19.4139 33.3667 19.3289 33.07 19.1589 32.87C18.9889 32.6667 18.7405 32.565 18.4139 32.565C18.1939 32.565 18.0089 32.5933 17.8589 32.65C17.7122 32.7033 17.5839 32.765 17.4739 32.835C17.3672 32.9017 17.2739 32.9633 17.1939 33.02C17.1172 33.0733 17.0405 33.1 16.9639 33.1C16.9039 33.1 16.8522 33.085 16.8089 33.055C16.7655 33.0217 16.7289 32.9817 16.6989 32.935L16.5389 32.65ZM24.5896 32.77C24.5496 32.8433 24.4879 32.88 24.4046 32.88C24.3546 32.88 24.2979 32.8617 24.2346 32.825C24.1712 32.7883 24.0929 32.7483 23.9996 32.705C23.9096 32.6583 23.8012 32.6167 23.6746 32.58C23.5479 32.54 23.3979 32.52 23.2246 32.52C23.0746 32.52 22.9396 32.54 22.8196 32.58C22.6996 32.6167 22.5962 32.6683 22.5096 32.735C22.4262 32.8017 22.3612 32.88 22.3146 32.97C22.2712 33.0567 22.2496 33.1517 22.2496 33.255C22.2496 33.385 22.2862 33.4933 22.3596 33.58C22.4362 33.6667 22.5362 33.7417 22.6596 33.805C22.7829 33.8683 22.9229 33.925 23.0796 33.975C23.2362 34.0217 23.3962 34.0733 23.5596 34.13C23.7262 34.1833 23.8879 34.2433 24.0446 34.31C24.2012 34.3767 24.3412 34.46 24.4646 34.56C24.5879 34.66 24.6862 34.7833 24.7596 34.93C24.8362 35.0733 24.8746 35.2467 24.8746 35.45C24.8746 35.6833 24.8329 35.9 24.7496 36.1C24.6662 36.2967 24.5429 36.4683 24.3796 36.615C24.2162 36.7583 24.0162 36.8717 23.7796 36.955C23.5429 37.0383 23.2696 37.08 22.9596 37.08C22.6062 37.08 22.2862 37.0233 21.9996 36.91C21.7129 36.7933 21.4696 36.645 21.2696 36.465L21.4796 36.125C21.5062 36.0817 21.5379 36.0483 21.5746 36.025C21.6112 36.0017 21.6579 35.99 21.7146 35.99C21.7746 35.99 21.8379 36.0133 21.9046 36.06C21.9712 36.1067 22.0512 36.1583 22.1446 36.215C22.2412 36.2717 22.3579 36.3233 22.4946 36.37C22.6312 36.4167 22.8012 36.44 23.0046 36.44C23.1779 36.44 23.3296 36.4183 23.4596 36.375C23.5896 36.3283 23.6979 36.2667 23.7846 36.19C23.8712 36.1133 23.9346 36.025 23.9746 35.925C24.0179 35.825 24.0396 35.7183 24.0396 35.605C24.0396 35.465 24.0012 35.35 23.9246 35.26C23.8512 35.1667 23.7529 35.0883 23.6296 35.025C23.5062 34.9583 23.3646 34.9017 23.2046 34.855C23.0479 34.805 22.8862 34.7533 22.7196 34.7C22.5562 34.6467 22.3946 34.5867 22.2346 34.52C22.0779 34.45 21.9379 34.3633 21.8146 34.26C21.6912 34.1567 21.5912 34.03 21.5146 33.88C21.4412 33.7267 21.4046 33.5417 21.4046 33.325C21.4046 33.1317 21.4446 32.9467 21.5246 32.77C21.6046 32.59 21.7212 32.4333 21.8746 32.3C22.0279 32.1633 22.2162 32.055 22.4396 31.975C22.6629 31.895 22.9179 31.855 23.2046 31.855C23.5379 31.855 23.8362 31.9083 24.0996 32.015C24.3662 32.1183 24.5962 32.2617 24.7896 32.445L24.5896 32.77Z" fill="#06192B"/>
<path d="M2 18.459C2.04111 18.1203 2.08958 17.7841 2.12271 17.4417C2.28633 15.7057 2.44995 13.9693 2.61356 12.2326C2.75652 10.6944 2.90378 9.15677 3.03631 7.61673C3.06208 7.31364 3.17129 7.12589 3.4566 6.98293C4.69967 6.3528 5.92864 5.70181 7.16005 5.05082C7.24455 4.99937 7.34058 4.96989 7.43939 4.96507C7.5382 4.96025 7.63665 4.98024 7.72576 5.02321C8.0761 5.17967 8.43503 5.31956 8.78722 5.4705C9.0173 5.56989 9.10382 5.75335 9.02037 5.94355C8.93693 6.13376 8.74979 6.19511 8.51602 6.10124C8.28226 6.00736 8.03622 5.9049 7.77239 5.79446C7.74539 6.17977 7.71778 6.54177 7.69508 6.90316C7.55151 9.21384 7.40834 11.5249 7.26559 13.8364C7.21896 14.5905 7.17171 15.3445 7.11404 16.098C7.10238 16.2538 7.14042 16.3238 7.2981 16.379C8.85962 16.941 10.4181 17.5129 11.9802 18.081C12.0415 18.1043 12.109 18.1209 12.2005 18.1485C12.206 18.0473 12.2152 17.9645 12.2152 17.8779V11.0545C12.2116 10.9652 12.2151 10.8758 12.2256 10.787C12.2388 10.7091 12.2787 10.6381 12.3385 10.5864C12.3837 10.5484 12.4381 10.523 12.4962 10.5127C12.5543 10.5025 12.6141 10.5077 12.6695 10.5279C12.725 10.5482 12.7741 10.5826 12.812 10.6279C12.8498 10.6732 12.8751 10.7276 12.8852 10.7858C12.8964 10.8745 12.9003 10.964 12.8969 11.0533V18.1461C12.9834 18.1228 13.041 18.1111 13.0963 18.0915C14.6621 17.5221 16.2254 16.9502 17.7961 16.387C17.9612 16.3256 18.0048 16.2471 17.9931 16.0753C17.879 14.3614 17.7704 12.6477 17.6673 10.9343C17.5622 9.28133 17.4564 7.6286 17.3501 5.97607C17.3464 5.92146 17.3378 5.87054 17.3286 5.79814C17.0832 5.89938 16.8482 5.9957 16.6126 6.08958C16.361 6.1902 16.1763 6.13621 16.0892 5.93926C16.0021 5.7423 16.096 5.56437 16.3414 5.46007C16.7095 5.30545 17.0777 5.15697 17.4458 4.99867C17.5172 4.96532 17.5955 4.94964 17.6742 4.95295C17.7529 4.95626 17.8297 4.97846 17.898 5.01769C19.1996 5.69956 20.5013 6.38 21.8033 7.05901C21.8748 7.09155 21.936 7.14308 21.9803 7.20799C22.0245 7.2729 22.0501 7.3487 22.0543 7.42714C22.1414 8.3843 22.2346 9.34146 22.3248 10.2986C22.4443 11.5625 22.5633 12.8271 22.6819 14.0923C22.7977 15.33 22.9128 16.5676 23.0274 17.8049C23.0501 18.0442 23.0722 18.2841 23.0998 18.521C23.1182 18.6811 23.0998 18.8277 22.9617 18.9271C22.8237 19.0265 22.677 18.9952 22.5322 18.9271C21.1971 18.2841 19.8622 17.6415 18.5275 16.9993C18.4717 16.9683 18.4096 16.9502 18.3459 16.9465C18.2822 16.9428 18.2184 16.9535 18.1594 16.9778C16.38 17.6294 14.6007 18.2737 12.8251 18.9265C12.6528 18.9946 12.4611 18.9946 12.2888 18.9265C10.5095 18.2743 8.73016 17.6288 6.95881 16.9766C6.89957 16.9528 6.83573 16.9426 6.77201 16.9467C6.7083 16.9509 6.64632 16.9693 6.59067 17.0005C5.26865 17.6427 3.94499 18.2802 2.6197 18.913C2.30923 19.0615 2.1902 19.0284 2.00245 18.7474L2 18.459ZM7.06802 5.9184C7.04602 5.91566 7.02376 5.91566 7.00175 5.9184C5.94357 6.46937 4.88538 7.02158 3.82719 7.57501C3.80103 7.59325 3.77888 7.61665 3.76211 7.64377C3.74533 7.67089 3.73428 7.70115 3.72963 7.7327C3.683 8.13519 3.64557 8.53892 3.60692 8.94203C3.47725 10.3299 3.34881 11.7178 3.2216 13.1057C3.09439 14.4935 2.96329 15.883 2.82831 17.2742C2.80438 17.5294 2.78597 17.7853 2.76695 18.0534C2.79709 18.0509 2.8269 18.0454 2.85592 18.0369C4.00655 17.4859 5.15637 16.932 6.30536 16.3753C6.33681 16.3545 6.36356 16.3273 6.3839 16.2956C6.40465 16.2639 6.41826 16.2281 6.42378 16.1906C6.452 15.9385 6.46182 15.6838 6.47839 15.4304C6.56919 13.9902 6.66102 12.5506 6.75387 11.1116C6.83159 9.8771 6.90931 8.64302 6.98703 7.40935C7.00912 6.91482 7.03734 6.42213 7.06802 5.9184ZM22.3396 18.0681C22.3396 17.9847 22.3432 17.9319 22.3396 17.8804C22.1886 16.2667 22.0375 14.6533 21.8861 13.04C21.7225 11.2893 21.5589 9.53882 21.3953 7.78853C21.3954 7.73513 21.3798 7.68287 21.3505 7.63826C21.3211 7.59364 21.2793 7.55863 21.2302 7.53759C20.2301 7.02097 19.2337 6.49821 18.2355 5.97791C18.1808 5.94907 18.1213 5.92821 18.0428 5.89569C18.0612 6.20248 18.0753 6.47858 18.0925 6.75468C18.196 8.39984 18.3005 10.045 18.406 11.6902C18.5001 13.1774 18.5919 14.6647 18.6815 16.152C18.68 16.205 18.695 16.2572 18.7246 16.3012C18.7542 16.3452 18.7969 16.3789 18.8466 16.3974C19.7767 16.8386 20.7032 17.2859 21.6315 17.7307L22.3396 18.0681ZM6.62073 16.5177L2.54791 18.3584L3.5247 7.2486L7.24595 5.62695L6.62073 16.5177ZM17.8415 5.62695L21.5634 7.2486L22.5402 18.3602L18.468 16.5195L17.8415 5.62695Z" fill="#06192B"/>
<path d="M12.5626 2.46536C12.3127 2.46123 12.0692 2.54407 11.8736 2.69968C11.678 2.8553 11.5426 3.07403 11.4905 3.31846C11.4384 3.56289 11.4728 3.81784 11.5879 4.03968C11.703 4.26153 11.8916 4.43649 12.1214 4.53465C12.3513 4.6328 12.6081 4.64805 12.8479 4.57778C13.0878 4.5075 13.2958 4.35608 13.4363 4.14941C13.5768 3.94274 13.6412 3.69366 13.6183 3.44478C13.5955 3.1959 13.4869 2.96268 13.3111 2.78502C13.1136 2.58386 12.8445 2.46895 12.5626 2.46536Z" fill="#06192B"/>
<path d="M16.0363 2.98559C15.77 1.23265 14.333 0.0220882 12.5476 0C12.2764 0.0380408 12.0015 0.0552205 11.7346 0.115963C9.48036 0.606812 8.34957 3.11383 9.50675 5.07047C10.4001 6.5829 11.3045 8.08858 12.2064 9.59672C12.4144 9.94461 12.6973 9.94829 12.9022 9.60469C13.816 8.08061 14.7263 6.55447 15.6332 5.0263C16.0047 4.41516 16.1475 3.69209 16.0363 2.98559V2.98559ZM14.1692 4.21271C14.011 4.58551 13.7284 4.89197 13.3697 5.07993C13.011 5.26789 12.5982 5.32575 12.2016 5.24365C11.8051 5.16156 11.4492 4.94459 11.1945 4.62966C10.9399 4.31473 10.8023 3.9213 10.805 3.51632C10.8185 2.54444 11.6254 1.75356 12.5801 1.77687C13.5483 1.80019 14.322 2.58984 14.3091 3.53964C14.3071 3.7706 14.2595 3.9989 14.1692 4.21149V4.21271Z" fill="#06192B"/>
</svg>
