<svg width="21" height="22" viewBox="0 0 11 12" fill="none" xmlns="http://www.w3.org/2000/svg">
<path d="M5.8205 11.007H5.17786C4.99372 10.984 4.80832 10.9673 4.62542 10.9368C3.47669 10.7447 2.47495 10.2503 1.65109 9.42646C0.412588 8.19088 -0.131502 6.68931 0.0267562 4.95056C0.132818 3.78346 0.589637 2.75207 1.37007 1.87518C2.40647 0.711421 3.71053 0.0850703 5.2668 0.00823794C6.33299 -0.0516423 7.39199 0.216021 8.30168 0.775309C9.72934 1.64635 10.6062 2.90824 10.9144 4.55721C10.9528 4.76349 10.972 4.97478 11 5.18356V5.82662L10.9737 6.05837C10.8422 7.24259 10.3891 8.28734 9.59196 9.173C8.74472 10.1134 7.69496 10.7005 6.4456 10.9214C6.2389 10.9581 6.02886 10.979 5.8205 11.007ZM9.99867 5.49924C9.98907 3.01681 7.97556 1.00372 5.49855 1.00372C3.02155 1.00372 0.987996 3.03769 0.9976 5.50927C1.00679 7.99128 3.02196 10.0048 5.49772 10.0052C7.97347 10.0056 10.0079 7.97041 9.99867 5.49924Z" fill="#DCDCDC"/>
<path d="M5.5642 5.99948C6.28451 6.01201 6.96431 6.28426 7.53053 6.83462C7.73639 7.03379 7.74975 7.33361 7.56393 7.53863C7.52071 7.58794 7.46798 7.62801 7.4089 7.65646C7.34982 7.6849 7.28561 7.70113 7.22011 7.70417C7.15461 7.70721 7.08917 7.697 7.02771 7.67416C6.96624 7.65131 6.91003 7.61629 6.86242 7.5712C6.58724 7.32066 6.28534 7.12649 5.91663 7.0505C5.28736 6.92147 4.72531 7.05968 4.23801 7.48268C4.12151 7.58373 4.01085 7.69146 3.84341 7.69981C3.74029 7.70885 3.63691 7.68554 3.54765 7.63312C3.45839 7.5807 3.38767 7.50178 3.34533 7.40731C3.30299 7.31285 3.29113 7.20755 3.3114 7.10603C3.33166 7.00452 3.38305 6.91184 3.45841 6.84088C3.72536 6.57498 4.04186 6.36403 4.39001 6.21996C4.74452 6.07214 5.11532 6.00115 5.5642 5.99948Z" fill="#DCDCDC"/>
<path d="M3.3663 5.10045C3.27933 5.101 3.19311 5.0844 3.11257 5.05159C3.03203 5.01878 2.95876 4.97041 2.89693 4.90924C2.83511 4.84808 2.78595 4.77532 2.75228 4.69514C2.71861 4.61495 2.70108 4.52892 2.7007 4.44195C2.70015 4.35386 2.71702 4.26654 2.75035 4.185C2.78368 4.10345 2.8328 4.02931 2.8949 3.96683C2.95699 3.90434 3.03083 3.85476 3.11216 3.82092C3.19349 3.78709 3.28071 3.76967 3.3688 3.76967C3.54456 3.77302 3.71212 3.84461 3.83604 3.9693C3.95995 4.09399 4.03049 4.262 4.03274 4.43778C4.03131 4.61374 3.96052 4.78203 3.83574 4.90611C3.71096 5.03018 3.54227 5.10002 3.3663 5.10045Z" fill="#DCDCDC"/>
<path d="M8.29552 4.43527C8.29757 4.524 8.28185 4.61224 8.24927 4.6948C8.21669 4.77735 8.16792 4.85256 8.10584 4.91598C8.04375 4.97939 7.9696 5.02975 7.88775 5.06407C7.8059 5.09839 7.71801 5.11599 7.62926 5.11582C7.54051 5.11565 7.45269 5.09773 7.37097 5.0631C7.28926 5.02847 7.2153 4.97783 7.15345 4.91418C7.0916 4.85053 7.04311 4.77514 7.01085 4.69246C6.97858 4.60978 6.96319 4.52149 6.96557 4.43277C6.96892 4.25709 7.04055 4.08961 7.16526 3.96584C7.28997 3.84206 7.45798 3.7717 7.63368 3.76967C7.80935 3.77131 7.97731 3.84209 8.10118 3.96666C8.22505 4.09124 8.29487 4.25959 8.29552 4.43527V4.43527Z" fill="#DCDCDC"/>
</svg>
