<svg width="48" height="48" viewBox="0 0 48 48" fill="none" xmlns="http://www.w3.org/2000/svg">
<g clip-path="url(#clip0_0_1)">
<g filter="url(#filter0_d_0_1)">
<path d="M34 0H14C8.47715 0 4 4.47715 4 10V30C4 35.5228 8.47715 40 14 40H34C39.5228 40 44 35.5228 44 30V10C44 4.47715 39.5228 0 34 0Z" fill="white"/>
</g>
</g>
<g clip-path="url(#clip1_0_1)">
<path d="M16.5 16L17.9728 13.5L19.513 16M31.5 16L30.0272 18.5L28.487 16" stroke="#06192B" stroke-width="1.5" stroke-linecap="round" stroke-linejoin="round"/>
<path d="M34 16C34 10.4792 29.5208 6 24 6C18.4792 6 14 10.4792 14 16C14 21.5208 18.4792 26 24 26C29.5208 26 34 21.5208 34 16Z" stroke="#06192B" stroke-width="1.5" stroke-miterlimit="10"/>
<path d="M30 16.9887V15.9888C29.9959 14.7742 29.6237 13.5894 28.9324 12.5905C28.2411 11.5916 27.2633 10.8256 26.1278 10.3934C24.9922 9.96115 23.7523 9.88303 22.5715 10.1693C21.3906 10.4556 20.3243 11.0929 19.5131 11.9971M18 15.0076V16.0075C18.0043 17.2235 18.3772 18.4096 19.0696 19.4093C19.7619 20.4091 20.7413 21.1755 21.8783 21.6076C23.0154 22.0396 24.2568 22.117 25.4387 21.8294C26.6207 21.5418 27.6876 20.9028 28.4988 19.9967" stroke="#06192B" stroke-width="1.5" stroke-linecap="round" stroke-linejoin="round"/>
</g>
<path d="M17.6151 30.8182C17.5746 30.4763 17.4104 30.2109 17.1225 30.022C16.8346 29.8331 16.4815 29.7386 16.0632 29.7386C15.7573 29.7386 15.4897 29.7881 15.2603 29.8871C15.0331 29.986 14.8555 30.1221 14.7273 30.2953C14.6013 30.4685 14.5384 30.6652 14.5384 30.8857C14.5384 31.0701 14.5822 31.2286 14.6699 31.3613C14.7599 31.4918 14.8746 31.6009 15.014 31.6886C15.1535 31.774 15.2997 31.8449 15.4526 31.9011C15.6055 31.9551 15.7461 31.9989 15.8743 32.0327L16.576 32.2216C16.7559 32.2688 16.9561 32.334 17.1765 32.4173C17.3991 32.5005 17.6117 32.6141 17.8141 32.758C18.0188 32.8997 18.1874 33.0819 18.3201 33.3045C18.4528 33.5272 18.5192 33.8004 18.5192 34.1243C18.5192 34.4976 18.4213 34.835 18.2257 35.1364C18.0323 35.4377 17.7489 35.6773 17.3755 35.8549C17.0044 36.0326 16.5535 36.1214 16.0227 36.1214C15.5279 36.1214 15.0995 36.0416 14.7374 35.8819C14.3775 35.7222 14.0942 35.4996 13.8873 35.214C13.6826 34.9283 13.5668 34.5966 13.5398 34.2188H14.4034C14.4259 34.4796 14.5136 34.6955 14.6665 34.8665C14.8217 35.0352 15.0174 35.1611 15.2536 35.2443C15.492 35.3253 15.7483 35.3658 16.0227 35.3658C16.3421 35.3658 16.6288 35.314 16.883 35.2106C17.1371 35.1049 17.3384 34.9587 17.4869 34.772C17.6353 34.5831 17.7095 34.3627 17.7095 34.1108C17.7095 33.8814 17.6454 33.6947 17.5172 33.5508C17.389 33.4068 17.2203 33.2899 17.0112 33.1999C16.802 33.11 16.576 33.0312 16.3331 32.9638L15.483 32.7209C14.9432 32.5657 14.5159 32.3442 14.201 32.0563C13.8861 31.7684 13.7287 31.3917 13.7287 30.9261C13.7287 30.5393 13.8333 30.2019 14.0424 29.9141C14.2538 29.6239 14.5372 29.399 14.8926 29.2393C15.2502 29.0774 15.6494 28.9964 16.0902 28.9964C16.5355 28.9964 16.9313 29.0763 17.2777 29.236C17.6241 29.3934 17.8984 29.6093 18.1009 29.8837C18.3055 30.1581 18.4135 30.4696 18.4247 30.8182H17.6151ZM20.2996 37.9432C20.1646 37.9432 20.0443 37.9319 19.9386 37.9094C19.8329 37.8892 19.7598 37.869 19.7193 37.8487L19.9217 37.147C20.1152 37.1965 20.2861 37.2145 20.4345 37.201C20.583 37.1875 20.7145 37.1212 20.8292 37.002C20.9462 36.885 21.053 36.695 21.1497 36.4318L21.2982 36.027L19.382 30.8182H20.2456L21.676 34.9474H21.73L23.1604 30.8182H24.024L21.8244 36.7557C21.7255 37.0233 21.6029 37.2449 21.4567 37.4203C21.3105 37.598 21.1407 37.7295 20.9473 37.815C20.7561 37.9004 20.5402 37.9432 20.2996 37.9432ZM25.871 32.8828V36H25.0749V30.8182H25.8441V31.6278H25.9115C26.033 31.3647 26.2174 31.1533 26.4648 30.9936C26.7122 30.8317 27.0316 30.7507 27.4229 30.7507C27.7737 30.7507 28.0807 30.8227 28.3439 30.9666C28.607 31.1083 28.8117 31.3242 28.9579 31.6143C29.1041 31.9022 29.1772 32.2666 29.1772 32.7074V36H28.381V32.7614C28.381 32.3543 28.2753 32.0372 28.0639 31.81C27.8525 31.5806 27.5623 31.4659 27.1935 31.4659C26.9393 31.4659 26.7122 31.521 26.512 31.6312C26.3141 31.7414 26.1578 31.9022 26.0431 32.1136C25.9284 32.325 25.871 32.5814 25.871 32.8828ZM32.7371 36.108C32.2513 36.108 31.833 35.9933 31.4822 35.7638C31.1313 35.5344 30.8614 35.2185 30.6725 34.8159C30.4836 34.4133 30.3891 33.9534 30.3891 33.4361C30.3891 32.9098 30.4858 32.4454 30.6792 32.0428C30.8749 31.638 31.147 31.322 31.4956 31.0948C31.8465 30.8654 32.2558 30.7507 32.7236 30.7507C33.088 30.7507 33.4163 30.8182 33.7087 30.9531C34.0011 31.0881 34.2406 31.277 34.4273 31.5199C34.614 31.7628 34.7298 32.0462 34.7748 32.37H33.9786C33.9179 32.1339 33.7829 31.9247 33.5738 31.7425C33.3669 31.5581 33.088 31.4659 32.7371 31.4659C32.4268 31.4659 32.1546 31.5469 31.9207 31.7088C31.6891 31.8685 31.508 32.0945 31.3776 32.3869C31.2494 32.677 31.1853 33.0178 31.1853 33.4091C31.1853 33.8094 31.2483 34.158 31.3742 34.4549C31.5024 34.7518 31.6823 34.9823 31.914 35.1465C32.1479 35.3107 32.4223 35.3928 32.7371 35.3928C32.944 35.3928 33.1318 35.3568 33.3005 35.2848C33.4692 35.2128 33.612 35.1094 33.729 34.9744C33.8459 34.8395 33.9291 34.6776 33.9786 34.4886H34.7748C34.7298 34.7945 34.6185 35.07 34.4408 35.3152C34.2654 35.5581 34.0326 35.7515 33.7425 35.8954C33.4546 36.0371 33.1195 36.108 32.7371 36.108Z" fill="#06192B"/>
<circle cx="41" cy="5" r="5" fill="#EB445A"/>
<defs>
<filter id="filter0_d_0_1" x="0" y="0" width="48" height="48" filterUnits="userSpaceOnUse" color-interpolation-filters="sRGB">
<feFlood flood-opacity="0" result="BackgroundImageFix"/>
<feColorMatrix in="SourceAlpha" type="matrix" values="0 0 0 0 0 0 0 0 0 0 0 0 0 0 0 0 0 0 127 0" result="hardAlpha"/>
<feOffset dy="4"/>
<feGaussianBlur stdDeviation="2"/>
<feComposite in2="hardAlpha" operator="out"/>
<feColorMatrix type="matrix" values="0 0 0 0 0 0 0 0 0 0 0 0 0 0 0 0 0 0 0.25 0"/>
<feBlend mode="normal" in2="BackgroundImageFix" result="effect1_dropShadow_0_1"/>
<feBlend mode="normal" in="SourceGraphic" in2="effect1_dropShadow_0_1" result="shape"/>
</filter>
<clipPath id="clip0_0_1">
<rect width="48" height="48" fill="white"/>
</clipPath>
<clipPath id="clip1_0_1">
<rect width="22" height="22" fill="white" transform="translate(13 5)"/>
</clipPath>
</defs>
</svg>