<svg width="47" height="54" viewBox="0 0 47 54" fill="none" xmlns="http://www.w3.org/2000/svg">
<path d="M21.6724 0.00563542C22.1514 0.24655 22.6741 0.428292 23.1024 0.741058C23.4591 1.0012 23.7537 1.33712 23.9652 1.72468C24.1766 2.11224 24.2996 2.54181 24.3253 2.98255C24.3873 3.68697 24.476 3.77291 25.2072 3.77573C25.5947 3.77573 25.9807 3.76728 26.3681 3.77573C27.839 3.81941 28.8604 4.53933 29.4197 5.88901C29.5606 6.21305 29.7099 6.29758 30.0326 6.29617C32.4586 6.2849 34.8832 6.28772 37.3093 6.29617C39.2535 6.29617 40.2298 7.27533 40.2298 9.20968C40.2298 11.144 40.2439 13.1122 40.2143 15.0621C40.2036 15.3673 40.0777 15.6572 39.8621 15.8736C39.7015 16.0145 39.2915 16.0342 39.1014 15.9229C38.9837 15.8427 38.8844 15.7385 38.8101 15.617C38.7357 15.4956 38.6881 15.3597 38.6702 15.2185C38.6181 14.3252 38.6491 13.4264 38.6491 12.5304C38.6491 11.3526 38.6491 10.1748 38.6491 8.99695C38.6491 8.24462 38.3124 7.90368 37.5629 7.87832C37.2163 7.86705 36.8683 7.87832 36.4569 7.87832V19.5239C36.4633 19.6996 36.4591 19.8756 36.4443 20.0508C36.4351 20.2388 36.3533 20.4159 36.2161 20.5447C36.0789 20.6735 35.897 20.7439 35.7088 20.7412C35.5306 20.7604 35.3516 20.7123 35.2072 20.6061C35.0627 20.5 34.9632 20.3436 34.9283 20.1678C34.8851 19.9622 34.8681 19.752 34.8776 19.5422C34.8776 15.8689 34.8776 12.1955 34.8776 8.52216V7.90649H29.7113C29.6747 8.21644 29.662 8.53062 29.5972 8.83211C29.515 9.23984 29.3024 9.60979 28.9917 9.88625C28.6809 10.1627 28.2887 10.3307 27.8742 10.3649C27.6474 10.3861 27.4177 10.3861 27.1895 10.3861H13.2686C11.2638 10.3861 10.7622 9.94229 10.534 7.91776H5.33956V47.3432C5.33956 48.1166 5.3776 48.1561 6.13415 48.1561C9.5788 48.1561 13.0235 48.1561 16.4681 48.1659C16.8527 48.1659 17.0824 48.0729 17.2331 47.7052C18.6885 44.1831 20.9102 41.1597 23.3109 38.218C29.0774 31.1512 34.7381 23.9998 40.4341 16.8837C41.3034 15.7989 42.4065 15.3128 43.783 15.6256C45.034 15.9074 45.8554 16.7161 46.178 17.9629C46.4598 19.0787 46.1653 20.0663 45.4426 20.9624C43.1142 23.8458 40.7943 26.7377 38.4829 29.6381C33.9924 35.2425 29.4963 40.8474 24.9945 46.4528C24.5056 47.0586 23.8519 47.5305 23.2292 48.1054C23.3597 48.1283 23.4914 48.1439 23.6237 48.1518C27.1383 48.1518 30.6534 48.1518 34.169 48.1518C34.8297 48.1518 34.8734 48.1039 34.8734 47.4178V36.5048C34.8734 36.364 34.8734 36.2231 34.8734 36.0822C34.9058 35.544 35.2129 35.22 35.6778 35.2242C36.1428 35.2284 36.4443 35.5553 36.4485 36.0991C36.4583 37.136 36.4485 38.1729 36.4485 39.2098V47.4361C36.4485 49.031 35.7356 49.734 34.1225 49.734C29.9917 49.734 25.8623 49.734 21.7245 49.7255C21.5252 49.7159 21.3259 49.746 21.1382 49.8139C20.9506 49.8819 20.7783 49.9864 20.6313 50.1214C20.2932 50.429 19.9366 50.7156 19.5634 50.9794C18.5138 51.7162 17.1486 51.3133 16.7048 50.113C16.5752 49.765 16.3878 49.7298 16.0821 49.7298C12.7431 49.7363 9.40364 49.7363 6.06371 49.7298C4.47311 49.7298 3.74614 49.0014 3.74614 47.4094C3.74614 34.4733 3.74614 21.5376 3.74614 8.60247V7.96144C3.66302 7.91776 3.63485 7.891 3.60526 7.88959C1.83433 7.79238 1.55678 7.91072 1.5596 9.7845C1.58027 23.5114 1.58496 37.2384 1.57369 50.9653C1.57369 51.2471 1.52579 51.5824 1.66104 51.7881C1.83292 52.0516 2.15273 52.2361 2.44014 52.3981C2.58102 52.4742 2.78531 52.4179 2.96 52.4179H37.2445C38.3828 52.4179 38.6533 52.1572 38.6533 51.0315C38.6533 44.5818 38.6533 38.1316 38.6533 31.6809C38.6533 31.471 38.6054 31.1935 38.7153 31.0681C38.9154 30.8426 39.2028 30.6046 39.4832 30.5609C39.8635 30.5017 40.1284 30.7947 40.2115 31.1808C40.237 31.3547 40.2441 31.5309 40.2327 31.7063C40.2327 38.187 40.2327 44.6724 40.2327 51.1626C40.2327 52.9941 39.2197 54 37.3938 54H2.85293C1.02142 54 0.00281771 53.0011 0.00140885 51.1823C0.000469618 37.1539 0 23.1264 0 9.09979C0 7.29505 1.00451 6.29476 2.81771 6.28913C5.25972 6.28161 7.70174 6.28161 10.1438 6.28913C10.5044 6.28913 10.6805 6.20037 10.8327 5.83829C11.3779 4.53651 12.3824 3.83349 13.8054 3.77573C14.2971 3.75601 14.7916 3.77573 15.2818 3.76728C15.5946 3.76728 15.8454 3.64893 15.8722 3.29813C15.9694 1.51311 16.9626 0.48042 18.618 0L21.6724 0.00563542ZM40.9737 24.0139L38.404 21.9626L21.4695 43.0828L24.0393 45.1369L40.9737 24.0139ZM20.1015 8.7983C22.5266 8.7983 24.9513 8.7983 27.3755 8.7983C27.9925 8.7983 28.0799 8.70391 28.0912 8.10232C28.0912 7.76843 28.1024 7.43453 28.0912 7.10063C28.0362 6.06371 27.3445 5.38323 26.2963 5.35928C25.9088 5.35083 25.5228 5.35928 25.1368 5.35928C23.6533 5.35224 22.9108 4.6774 22.7544 3.19387C22.653 2.22036 21.9866 1.60469 21.0032 1.5906C20.4059 1.58214 19.8085 1.58074 19.2111 1.5906C18.2179 1.6075 17.5205 2.26967 17.4585 3.25868C17.3641 4.57455 16.5639 5.33533 15.2396 5.35788C14.7479 5.36633 14.2534 5.34379 13.7631 5.36915C13.3468 5.38803 12.9526 5.56177 12.6578 5.8563C12.363 6.15083 12.1889 6.54489 12.1697 6.96115C12.1514 7.29505 12.1612 7.62895 12.1612 7.96285C12.1612 8.76589 12.1965 8.80816 12.9812 8.80816L20.1015 8.7983ZM41.9641 22.7741C42.8024 21.726 43.6196 20.7398 44.393 19.7226C44.6417 19.3875 44.7526 18.9699 44.7028 18.5555C44.653 18.1412 44.4463 17.7618 44.1253 17.4952C43.4618 16.9415 42.4601 16.9668 41.8923 17.636C41.0385 18.6335 40.2369 19.6761 39.3944 20.7228L41.9641 22.7741ZM20.6904 44.4705C20.6214 44.5198 20.582 44.5325 20.5679 44.5607C19.7986 46.0949 19.0266 47.6278 18.2757 49.1719C18.2094 49.3127 18.2912 49.5142 18.3052 49.6875C18.4757 49.648 18.687 49.6593 18.8096 49.5607C20.141 48.5012 21.4583 47.4235 22.777 46.3485C22.8094 46.3203 22.8178 46.2626 22.8488 46.1964L20.6904 44.4705Z" fill="#844f92"/>
<path d="M25.0771 16.4893C23.2681 16.4893 21.4605 16.5034 19.653 16.4724C19.3487 16.4598 19.0601 16.3337 18.8443 16.1188C18.5062 15.7398 18.7344 15.1326 19.2303 14.979C19.4511 14.9226 19.679 14.8994 19.9066 14.91C23.347 14.91 26.7874 14.91 30.2278 14.91C30.3688 14.905 30.5099 14.9078 30.6505 14.9184C31.1366 14.9691 31.4634 15.3044 31.4493 15.7313C31.4352 16.1582 31.1112 16.4837 30.604 16.4865C28.7598 16.4963 26.917 16.4865 25.0743 16.4865L25.0771 16.4893Z" fill="#844f92"/>
<path d="M25.0649 18.4348H30.2777C30.4538 18.4348 30.6778 18.3813 30.7933 18.4672C31.0385 18.6504 31.371 18.8899 31.3963 19.1406C31.4217 19.3914 31.1611 19.7197 30.9413 19.9197C30.8004 20.0423 30.5073 20.0127 30.2819 20.0127C26.8068 20.0184 23.3316 20.0184 19.8564 20.0127C19.6815 20.0206 19.5062 20.0093 19.3337 19.9789C18.897 19.8775 18.6701 19.5901 18.711 19.1336C18.749 18.7109 19.0069 18.4743 19.4323 18.4292C19.5887 18.4151 19.7479 18.4193 19.9057 18.4193L25.0649 18.4348Z" fill="#844f92"/>
<path d="M25.0778 26.2188C26.8154 26.2188 28.553 26.2188 30.2906 26.2188C30.4658 26.2118 30.6412 26.2212 30.8147 26.2469C31.2162 26.3258 31.4768 26.6203 31.412 26.9866C31.3627 27.2613 31.1049 27.536 30.871 27.7276C30.7372 27.8375 30.4667 27.7967 30.2582 27.7967C26.8009 27.7967 23.3431 27.7967 19.8848 27.7967C19.7095 27.8012 19.5342 27.7908 19.3607 27.7657C18.9155 27.6882 18.6816 27.4092 18.7013 26.9584C18.7211 26.5076 18.969 26.285 19.3917 26.2314C19.549 26.2164 19.7071 26.2112 19.8651 26.2159L25.0778 26.2188Z" fill="#844f92"/>
<path d="M11.7271 41.3739L13.1021 39.4198C13.4642 38.9027 13.8178 38.3801 14.1883 37.8701C14.5096 37.4263 14.9378 37.3291 15.3225 37.5883C15.7071 37.8475 15.7944 38.3082 15.4957 38.7435C14.6504 39.9721 13.8051 41.1992 12.9345 42.4066C12.8216 42.5758 12.6736 42.7188 12.5005 42.8257C12.3274 42.9326 12.1333 43.0009 11.9314 43.026C11.7295 43.0512 11.5246 43.0325 11.3306 42.9713C11.1366 42.9101 10.958 42.8078 10.8071 42.6714C10.228 42.1896 9.67014 41.6852 9.11646 41.171C8.72902 40.8132 8.6938 40.3454 8.98825 40.0087C9.2827 39.672 9.75748 39.6537 10.159 39.996C10.6775 40.4398 11.1832 40.8935 11.7271 41.3739Z" fill="#844f92"/>
<path d="M11.7314 29.9776C12.4668 28.9252 13.1868 27.8939 13.9095 26.8627C14.0194 26.7049 14.1222 26.5414 14.2448 26.3921C14.5435 26.0272 14.9605 25.9497 15.3155 26.1836C15.4058 26.2394 15.4835 26.3133 15.5437 26.4006C15.604 26.488 15.6455 26.5869 15.6656 26.691C15.6857 26.7952 15.684 26.9024 15.6606 27.0059C15.6373 27.1094 15.5927 27.207 15.5297 27.2924C14.9746 28.1236 14.3913 28.9351 13.8193 29.7536C13.5376 30.1566 13.2642 30.5651 12.974 30.9596C12.4105 31.7302 11.4975 31.85 10.7734 31.2414C10.2099 30.7666 9.66321 30.2735 9.1208 29.7762C8.73055 29.4183 8.68829 28.952 8.97992 28.6125C9.27155 28.2729 9.75056 28.2532 10.1507 28.5927C10.6748 29.0281 11.1806 29.4916 11.7314 29.9776Z" fill="#844f92"/>
<path d="M11.7282 18.425L13.933 15.2763C14.0246 15.1466 14.1091 15.0128 14.2063 14.8888C14.5346 14.4662 14.9826 14.3844 15.356 14.6578C15.7082 14.9156 15.7786 15.3622 15.4969 15.7849C15.0474 16.4555 14.5741 17.1106 14.1105 17.7727C13.7287 18.3194 13.3596 18.8759 12.9609 19.4112C12.3974 20.1805 11.4929 20.2932 10.7603 19.6775C10.1967 19.2041 9.64869 18.7082 9.10769 18.2067C8.72026 17.8474 8.68504 17.3769 8.9978 17.043C9.31057 16.7091 9.75013 16.6879 10.1686 17.043C10.6757 17.4755 11.1674 17.9277 11.7282 18.425Z" fill="#844f92"/>
<path d="M22.306 29.7325C23.1837 29.7325 24.06 29.7255 24.9378 29.7325C25.5083 29.7395 25.862 30.0537 25.8563 30.5229C25.8507 30.992 25.49 31.3076 24.9237 31.309C23.1513 31.3165 21.379 31.3165 19.6067 31.309C19.0304 31.309 18.6993 30.9977 18.7022 30.5102C18.705 30.0227 19.029 29.7381 19.6207 29.7325C20.5168 29.7325 21.4142 29.7325 22.306 29.7325Z" fill="#844f92"/>
</svg>
