<svg width="54" height="54" viewBox="0 0 54 54" fill="none" xmlns="http://www.w3.org/2000/svg">
<path d="M1.18084 53.995C0.265532 53.5726 -0.0865112 52.853 0.0176936 51.8715C0.0289671 51.6609 0.0289671 51.4498 0.0176936 51.2392C0.0176936 49.817 0.580963 49.2523 1.98069 49.2509H2.60451C2.8622 47.8202 2.23838 46.3064 3.23818 45.0066C2.33977 43.8097 2.61718 42.4255 2.73547 41.106C2.83967 39.9583 3.81976 39.1909 5.0153 39.1684C6.77129 39.1346 8.53573 39.1261 10.2833 39.1796C10.8001 39.1951 11.3084 39.4613 11.9618 39.6457C12.549 39.105 13.4488 39.1472 14.3473 39.1529C15.6639 39.1627 16.982 39.1529 18.2986 39.1529C19.1632 39.1529 19.4463 39.2402 20.225 39.7485C20.8995 39.1346 21.7557 39.1402 22.6189 39.1486C23.9707 39.1641 25.3226 39.1613 26.6758 39.1486C27.3644 39.1486 28.0009 39.2768 28.5867 39.7626C29.2612 39.1472 30.1005 39.1472 30.9524 39.1472C32.3395 39.1599 33.7265 39.1472 35.115 39.1472C36.8048 39.1472 37.7511 40.1146 37.7553 41.803C37.7553 42.2255 37.7553 42.6479 37.7553 43.0704C37.7553 43.9702 37.6821 44.2181 37.1766 44.9954C37.6441 45.5755 37.7919 46.274 37.7609 47.033C37.7328 47.7483 37.7609 48.4665 37.7609 49.2129H41.5546V48.6806C41.5546 47.2724 41.563 45.8642 41.5546 44.4659C41.5379 44.1047 41.6142 43.7453 41.7762 43.4221C41.9382 43.0988 42.1804 42.8226 42.4797 42.6198C42.624 42.4893 42.7111 42.3071 42.7219 42.1128C42.7501 41.4468 42.7219 40.7779 42.736 40.1104C42.7459 39.4655 43.0289 39.1698 43.6696 39.1599C44.6356 39.1458 45.6017 39.1458 46.5677 39.1599C47.1929 39.1698 47.4647 39.4542 47.4731 40.0724C47.483 40.7568 47.459 41.4426 47.4886 42.1269C47.497 42.2225 47.5244 42.3154 47.5691 42.4003C47.6139 42.4851 47.6751 42.5602 47.7491 42.6212C48.3927 43.0817 48.6729 43.6942 48.6672 44.4715C48.6588 45.8586 48.6672 47.247 48.6672 48.6341V49.2495C49.7769 49.2495 50.8288 49.2931 51.8765 49.2368C52.8622 49.1861 53.579 49.4973 54 50.4098V52.8347C53.7573 53.3424 53.3477 53.7515 52.8397 53.9936H1.20901C1.16565 53.9432 1.11858 53.8961 1.06819 53.8528C0.748535 53.6049 0.613351 53.2402 0.816128 52.9262C0.969618 52.6896 1.31462 52.5601 1.59626 52.4291C1.72581 52.3686 1.90746 52.4178 2.06518 52.4178H52.3834V50.8759H1.6216V52.3742C2.53691 52.7417 2.62985 53.2895 1.91873 53.995H1.18084ZM47.0732 49.2283C47.0732 47.5808 47.0845 45.9895 47.0563 44.3913C47.035 44.2888 46.9898 44.1929 46.9245 44.1112C46.8592 44.0295 46.7755 43.9643 46.6803 43.9209C46.0086 43.6703 45.8903 43.545 45.8875 42.8268C45.8875 42.148 45.8875 41.4693 45.8875 40.7821H44.3047C44.3047 41.5622 44.3047 42.2987 44.3047 43.0352C44.3047 43.4576 44.14 43.8026 43.726 43.8576C43.1726 43.9322 43.1007 44.2434 43.1233 44.7025C43.1472 45.2094 43.1233 45.7192 43.1233 46.2275V49.2326L47.0732 49.2283ZM11.0141 45.7882C8.99057 45.7882 7.01068 45.7811 5.0322 45.7882C4.60975 45.7882 4.29009 46.0402 4.27178 46.45C4.22813 47.3695 4.2577 48.2933 4.2577 49.2255H11.0169L11.0141 45.7882ZM12.6715 45.8135V49.2199H19.3899V45.8135H12.6715ZM21.0135 49.2129H27.7545V45.8332H21.0135V49.2129ZM11.0352 44.1955C11.0352 43.2492 11.055 42.3748 11.0282 41.5003C11.0127 41.0271 10.6945 40.7525 10.234 40.7483C8.51414 40.7314 6.79429 40.7314 5.07444 40.7483C4.59003 40.7483 4.27319 41.03 4.25207 41.5299C4.22531 42.1607 4.22391 42.7972 4.25207 43.4253C4.27319 43.8871 4.54215 44.1899 5.02234 44.1927C7.00505 44.2026 8.98635 44.1955 11.0352 44.1955ZM36.1739 49.2213C36.1739 48.3989 36.1739 47.6118 36.1739 46.8274C36.1739 46.0431 35.9022 45.7896 35.1206 45.7882C33.4519 45.7882 31.7847 45.7882 30.116 45.7882H29.4119V49.2241L36.1739 49.2213ZM19.4167 44.1688C19.4167 43.2704 19.4308 42.4128 19.4167 41.5566C19.4054 41.0525 19.1013 40.7497 18.5718 40.7455C16.8707 40.7295 15.1692 40.7295 13.4672 40.7455C13.0447 40.7455 12.6842 40.9595 12.6659 41.4186C12.6307 42.3241 12.6546 43.2323 12.6546 44.1688H19.4167ZM27.7883 44.1688C27.7883 43.2506 27.8024 42.3917 27.7883 41.5327C27.777 41.03 27.4644 40.7469 26.9786 40.7427C25.2597 40.7258 23.5403 40.7258 21.8204 40.7427C21.3867 40.7427 21.0459 40.9905 21.0262 41.4341C20.9868 42.3381 21.015 43.2464 21.015 44.1702L27.7883 44.1688ZM29.3851 44.1885C31.4566 44.1885 33.4534 44.2012 35.4487 44.1786C35.9247 44.1786 36.1528 43.8294 36.1711 43.3661C36.1852 42.769 36.188 42.172 36.1711 41.5763C36.157 41.0623 35.867 40.7469 35.3473 40.7427C33.6284 40.7248 31.9091 40.7248 30.1892 40.7427C29.7034 40.7427 29.4006 41.0426 29.3908 41.5453C29.3725 42.4086 29.3837 43.2675 29.3837 44.1941L29.3851 44.1885Z" fill="#C8C8C8"/>
<path d="M53.9902 19.9411C53.6353 20.8747 52.9411 21.1902 51.9694 21.1888C36.3866 21.1761 17.5664 21.1803 1.9793 21.1775C1.73466 21.1885 1.48974 21.1629 1.25268 21.1015C0.86825 20.9818 0.707718 20.679 0.754188 20.2791C0.762561 20.1078 0.833887 19.9457 0.954476 19.8238C1.07507 19.7019 1.23642 19.6289 1.40758 19.6187C1.63504 19.5973 1.86364 19.5907 2.09195 19.5989C17.5326 19.5989 36.212 19.5989 51.6596 19.5989H52.3778V18.0499H1.64134V19.544C1.63148 19.5285 1.64134 19.5736 1.66668 19.5835C2.27501 19.8214 2.49187 20.158 2.33979 20.6354C2.19897 21.086 1.74132 21.2676 1.15974 21.1043C0.838101 21.0091 0.555301 20.8136 0.352633 20.5464C0.149964 20.2791 0.0380405 19.954 0.0332033 19.6187C0.014897 19.092 0.0177134 18.5639 0.0332033 18.0373C0.0557341 17.1051 0.696453 16.4728 1.64134 16.4432C1.93424 16.4334 2.22854 16.4432 2.5834 16.4432V15.7574C2.5834 13.035 2.5834 10.3125 2.5834 7.59004C2.5834 6.53673 2.78196 6.3424 3.85076 6.3424H10.9043C11.7788 6.3424 12.0196 6.58742 12.021 7.47739C12.021 10.2543 12.021 13.0308 12.021 15.8067V16.4052H13.6024V15.8321C13.6024 13.0383 13.6024 10.2444 13.6024 7.45063C13.6024 6.56489 13.8319 6.3424 14.7289 6.3424H21.95C22.7696 6.3424 23.0132 6.58601 23.0132 7.4098C23.0132 10.2036 23.0132 12.9974 23.0132 15.7912V16.3982H24.5946V15.7941C24.5946 13.0181 24.5946 10.2421 24.5946 7.46612C24.5946 6.5832 24.8382 6.33958 25.7211 6.33958H32.9507C33.7956 6.33958 34.049 6.59024 34.049 7.43937C34.049 10.1984 34.049 12.9571 34.049 15.7152V16.3883H35.6262V15.8067C35.6262 14.3986 35.6332 12.9904 35.6262 11.5907C35.6112 11.238 35.6879 10.8875 35.8488 10.5733C36.0098 10.2591 36.2494 9.99201 36.5443 9.79806C36.6172 9.73584 36.6769 9.6597 36.7199 9.57409C36.763 9.48849 36.7885 9.39516 36.795 9.29956C36.8231 8.61519 36.795 7.92941 36.809 7.24504C36.8175 6.63389 37.1048 6.34663 37.7215 6.34099C38.6875 6.33254 39.6536 6.33254 40.6196 6.34099C41.2589 6.34099 41.5377 6.63671 41.549 7.28588C41.556 7.67172 41.549 8.05896 41.549 8.44621C41.549 9.09397 41.4504 9.70653 42.1728 10.1769C42.5079 10.3965 42.6769 11.0584 42.6994 11.5301C42.7656 12.951 42.7234 14.376 42.7248 15.7997V16.3996H44.2738C44.2822 16.2067 44.2991 16.0208 44.2991 15.8363C44.2991 14.4647 44.3076 13.0946 44.2991 11.7244C44.2921 10.9119 44.5624 10.2585 45.2539 9.78538C45.3214 9.72671 45.3765 9.65512 45.4159 9.57483C45.4553 9.49454 45.4783 9.40717 45.4834 9.31787C45.5087 8.6687 45.4834 8.01813 45.4961 7.36896C45.5045 6.61136 45.7678 6.34522 46.5043 6.34099C47.4187 6.34099 48.3321 6.34099 49.2446 6.34099C49.9586 6.34099 50.2303 6.60855 50.2303 7.32671C50.2402 7.97588 50.2163 8.62787 50.2444 9.27563C50.249 9.37296 50.2728 9.46842 50.3147 9.55642C50.3565 9.64443 50.4154 9.72322 50.488 9.7882C51.1583 10.2529 51.4329 10.8894 51.4315 11.6808C51.4315 13.0514 51.4315 14.4216 51.4315 15.7912V16.4404C52.5341 16.3447 53.5325 16.4404 53.9845 17.619L53.9902 19.9411ZM4.19295 7.95053V16.3883H10.4199V7.95053H4.19295ZM26.2154 7.95053V16.3883H32.4367V7.95053H26.2154ZM21.3938 16.4108V7.9618H15.226V16.4108H21.3938ZM45.8861 16.3996H49.8487C49.8487 14.7548 49.8572 13.1453 49.8346 11.5357C49.8193 11.4459 49.7832 11.361 49.7291 11.2876C49.6751 11.2143 49.6047 11.1546 49.5234 11.1133C48.6785 10.7683 48.6546 10.7514 48.6532 9.87128V7.95476H47.0746V10.1895C47.0746 10.6753 46.8578 11.0063 46.3593 11.0739C45.9692 11.126 45.8805 11.3555 45.8847 11.6963C45.8847 12.3454 45.8847 12.9946 45.8847 13.6438L45.8861 16.3996ZM41.142 16.3996C41.142 14.752 41.1533 13.1608 41.1251 11.5639C41.1045 11.4625 41.0602 11.3674 40.9958 11.2864C40.9315 11.2054 40.8489 11.1408 40.7547 11.0978C40.1014 10.8683 39.9718 10.7345 39.969 10.0558C39.9662 9.37701 39.969 8.66307 39.969 7.95194H38.3862C38.3862 8.7194 38.3862 9.45305 38.3862 10.1867C38.3862 10.574 38.2454 10.9528 37.868 11.0035C37.1977 11.0922 37.178 11.4991 37.2019 12.0103C37.2259 12.5215 37.2019 13.027 37.2019 13.5368V16.3996H41.142Z" fill="#C8C8C8"/>
<path d="M53.9904 36.3886C53.6693 36.742 53.4046 37.1814 53.0159 37.4264C52.4879 37.7601 51.8894 37.5672 51.6951 37.1208C51.4852 36.6463 51.712 36.2478 52.3794 35.9492V34.4397H1.63874V35.9887H52.2316C52.4769 35.9768 52.7227 35.9943 52.9638 36.0408C53.3778 36.1422 53.5736 36.4435 53.5341 36.866C53.53 37.045 53.4578 37.2157 53.3322 37.3433C53.2066 37.471 53.0371 37.546 52.8582 37.5531C52.6837 37.5696 52.5082 37.5748 52.333 37.5686H2.01191C0.562899 37.5743 0.020752 37.0349 0.020752 35.5676C0.020752 35.2156 0.020752 34.8635 0.020752 34.5129C0.0362419 33.5201 0.671328 32.8696 1.6655 32.8329C1.9767 32.8217 2.28932 32.8329 2.65967 32.8329V32.2176C2.65967 29.9335 2.65967 27.6495 2.65967 25.3654C2.65967 23.7305 3.61159 22.7701 5.23522 22.7645C6.60537 22.7575 7.97552 22.7758 9.34567 22.7575C10.0498 22.7476 10.7102 22.849 11.3073 23.3602C11.9536 22.7434 12.7605 22.749 13.5758 22.7589C14.77 22.773 15.9697 22.7589 17.1596 22.7589C18.1932 22.7589 18.2862 22.7856 19.1818 23.332C19.7549 22.8082 20.4745 22.7406 21.2292 22.7532C22.5473 22.773 23.8639 22.7532 25.182 22.7532C26.8479 22.7532 27.7857 23.6925 27.7913 25.371C27.7998 27.6241 27.7913 29.8772 27.7913 32.119V32.7823H29.3403C29.3502 32.6006 29.3685 32.4161 29.3699 32.2317C29.3699 30.6827 29.3699 29.1337 29.3699 27.5917C29.3699 25.771 30.2753 24.8641 32.0792 24.8613C33.01 24.8613 33.9422 24.8782 34.8716 24.8613C35.6278 24.843 36.3488 24.9134 36.9233 25.4386C38.2695 24.6233 42.4856 24.6177 43.7755 25.4386C44.4106 24.8219 45.24 24.8444 46.0708 24.8556C47.0016 24.8683 47.9338 24.8556 48.8646 24.8556C50.3545 24.8725 51.3318 25.854 51.3402 27.3453C51.3487 28.9619 51.3402 30.5841 51.3402 32.195V32.8273C52.4893 32.7273 53.5299 32.7992 53.9819 34.0524L53.9904 36.3886ZM10.468 32.8104C10.4913 32.7207 10.5078 32.6294 10.5173 32.5372C10.5173 30.1124 10.5257 27.6889 10.5173 25.2654C10.5173 24.612 10.2356 24.3543 9.56535 24.3515C8.14309 24.3431 6.72084 24.3515 5.29858 24.3515C4.48888 24.3515 4.24668 24.6036 4.24527 25.433C4.24527 27.734 4.24527 30.034 4.24527 32.333C4.24527 32.4851 4.26358 32.6386 4.27343 32.809L10.468 32.8104ZM18.3256 32.8104C18.3425 32.7376 18.3542 32.6638 18.3608 32.5893C18.3608 30.1307 18.3678 27.6734 18.3608 25.2147C18.3608 24.6388 18.0637 24.3572 17.468 24.3543C16.0598 24.3445 14.6601 24.3543 13.2562 24.3543C12.3071 24.3543 12.1043 24.5529 12.1043 25.4893C12.1043 27.7537 12.1043 30.0185 12.1043 32.2838C12.1043 32.4527 12.124 32.6231 12.1353 32.8146L18.3256 32.8104ZM26.2114 32.8104C26.2114 30.218 26.2198 27.6903 26.2043 25.164C26.2043 24.6092 25.9016 24.3586 25.3158 24.3543C23.8766 24.3459 22.4375 24.3543 20.9969 24.3543C20.1886 24.3543 19.9492 24.605 19.9478 25.4358C19.9478 27.7368 19.9478 30.0368 19.9478 32.3359C19.9478 32.4894 19.9647 32.6414 19.9746 32.8104H26.2114ZM49.7687 32.8104C49.7687 30.9221 49.7785 29.0985 49.7687 27.2735C49.7687 26.7384 49.449 26.4652 48.8801 26.4596C47.7916 26.4497 46.7031 26.4525 45.6146 26.4596C44.795 26.4596 44.557 26.7018 44.5542 27.5354C44.5542 28.9577 44.5542 30.3799 44.5542 31.8022V32.8104H49.7687ZM30.9668 32.7907H36.177C36.177 30.9249 36.1855 29.1013 36.177 27.2777C36.177 26.7595 35.87 26.468 35.3448 26.4624C34.1694 26.4483 32.9931 26.4483 31.8159 26.4624C31.2752 26.4624 30.9851 26.7313 30.9794 27.2664C30.9541 29.0872 30.9639 30.9122 30.9639 32.7865L30.9668 32.7907ZM42.9616 32.8048C42.9616 30.915 42.9714 29.09 42.9545 27.265C42.9545 26.7144 42.6546 26.4652 42.0674 26.4596C40.9803 26.4483 39.8918 26.4525 38.8032 26.4596C38.0119 26.4596 37.7612 26.7102 37.7598 27.4903C37.7598 28.6493 37.7598 29.8082 37.7598 30.9657V32.8076L42.9616 32.8048Z" fill="#C8C8C8"/>
<path d="M53.9904 3.59929C53.6623 3.94429 53.3877 4.37801 52.9934 4.61458C52.4484 4.94269 51.8767 4.73428 51.688 4.27662C51.488 3.79221 51.7232 3.40355 52.3921 3.13178V1.63348H1.6345V3.18247H52.1302C52.3231 3.17116 52.5167 3.1754 52.7089 3.19514C53.1483 3.26696 53.4018 3.53592 53.3975 3.98654C53.3975 4.40899 53.1441 4.66809 52.7343 4.74836C52.5775 4.76905 52.419 4.77424 52.2611 4.76385H1.926C0.616396 4.75822 0.0221466 4.16819 0.0207384 2.86986C0.0207384 2.4474 0.0108812 2.02495 0.0207384 1.6025C0.0207147 1.18451 0.185596 0.783388 0.479573 0.486247C0.77355 0.189106 1.17288 0.0199405 1.59085 0.0154899C1.76687 0.0154899 1.94289 0.0154899 2.11892 0.0154899C18.7016 0.0145511 35.2842 0.00938782 51.8668 0C52.8455 0 53.5693 0.260512 53.9904 1.17442V3.59929Z" fill="#C8C8C8"/>
</svg>
