<svg width="54" height="51" viewBox="0 0 54 51" fill="none" xmlns="http://www.w3.org/2000/svg">
<path d="M32.4692 42.5257L29.6853 44.1315C27.1161 45.6132 24.5424 47.0861 21.9819 48.5839C21.5031 48.8657 21.106 48.8759 20.6184 48.597C13.9587 44.7363 7.29226 40.8863 0.618961 37.047C0.172258 36.7872 0 36.4543 0 35.9405C0.0107053 28.2521 0.0107053 20.5637 0 12.8754C0 12.3353 0.185396 11.9995 0.652537 11.7309C7.30637 7.90034 13.9558 4.05957 20.6009 0.20858C21.087 -0.0731642 21.487 -0.0658652 21.9673 0.20858C28.5958 4.05276 35.2292 7.88574 41.8675 11.7075C42.3565 11.9893 42.5405 12.3411 42.5346 12.9002C42.5098 14.9439 42.5244 16.9804 42.5244 19.0212V19.6606C43.3726 19.6606 44.1696 19.6883 44.9652 19.6606C46.425 19.5993 47.46 20.1891 48.0133 21.6343H50.441C52.619 21.6343 53.9985 23.0065 54 25.1743C54 32.3907 54 39.6056 54 46.819C54 48.9007 52.6219 50.2729 50.5388 50.2744C45.6572 50.2744 40.7755 50.2744 35.8939 50.2744C33.837 50.2744 32.4765 48.9036 32.4707 46.8438C32.4663 45.4366 32.4692 44.0351 32.4692 42.5257ZM1.53864 13.8783V14.5264C1.53864 21.4294 1.53524 28.3329 1.52843 35.2368C1.51093 35.4112 1.54874 35.5867 1.63651 35.7384C1.72428 35.8901 1.85756 36.0103 2.01746 36.0821C8.0611 39.5496 14.0994 43.0259 20.1323 46.511C20.252 46.5796 20.3834 46.6278 20.5367 46.6993C20.5454 46.5606 20.5556 46.4701 20.5556 46.3811C20.5556 39.3311 20.5591 32.2822 20.5659 25.2342C20.5659 24.8663 20.3878 24.7349 20.1279 24.5831C15.3981 21.8581 10.6698 19.1331 5.9429 16.4081C4.50791 15.5804 3.07291 14.76 1.53864 13.8783ZM52.4701 35.9478C52.4701 32.3226 52.4701 28.6983 52.4701 25.0751C52.4701 23.8868 51.749 23.1685 50.5724 23.1598C49.8424 23.1598 49.1125 23.1744 48.3826 23.1525C48.0907 23.1423 47.9447 23.2401 47.8104 23.5116C47.3257 24.5014 46.5053 25.0035 45.4061 25.0137C43.9463 25.0274 42.4898 25.0274 41.0368 25.0137C39.9347 25.005 39.1143 24.4955 38.6369 23.5058C38.5978 23.3868 38.5174 23.2858 38.4103 23.221C38.3032 23.1562 38.1765 23.1319 38.053 23.1525C37.38 23.1715 36.707 23.1525 36.0326 23.1598C34.656 23.1598 33.9889 23.824 33.9889 25.2035C33.9889 32.378 33.9889 39.5535 33.9889 46.7299C33.9889 48.092 34.6326 48.7372 35.9917 48.7372H50.4118C51.8059 48.7372 52.4555 48.0905 52.4555 46.7066C52.4672 43.1213 52.4721 39.535 52.4701 35.9478ZM40.9653 13.9235C40.8427 13.9848 40.7624 14.0184 40.688 14.0608C34.5976 17.5886 28.5058 21.1141 22.4125 24.6371C22.1206 24.8079 22.0826 25.0094 22.0826 25.2969C22.0826 32.2895 22.0826 39.2825 22.0826 46.2759C22.0826 46.4073 22.1045 46.5402 22.1206 46.7139C22.3352 46.5986 22.4957 46.5183 22.6505 46.4292C25.7672 44.6264 28.8795 42.8162 32.005 41.0279C32.1576 40.9591 32.2849 40.8443 32.3689 40.6995C32.453 40.5547 32.4896 40.3873 32.4736 40.2206C32.459 35.1599 32.4565 30.0993 32.4663 25.0386C32.4663 23.0372 33.8721 21.6416 35.8706 21.6314C36.7246 21.6314 37.5785 21.6314 38.4325 21.6314C38.8705 20.4255 39.7084 19.7759 40.9595 19.6431L40.9653 13.9235ZM12.4084 18.3585C12.6303 18.4942 12.7924 18.6008 12.9588 18.6971C15.5864 20.2183 18.2214 21.7335 20.8418 23.2663C20.9699 23.3568 21.1229 23.4054 21.2797 23.4054C21.4366 23.4054 21.5896 23.3568 21.7177 23.2663C27.698 19.7998 33.6833 16.3405 39.6734 12.8885C39.8413 12.7922 40.0033 12.6871 40.2077 12.5615C40.1069 12.4842 40.0617 12.4374 40.0004 12.4039C37.2121 10.7981 34.421 9.18498 31.6429 7.55729C31.3305 7.37627 31.1378 7.50765 30.913 7.64195C24.9258 11.0998 18.9406 14.5581 12.9573 18.0169C12.7836 18.1147 12.623 18.2227 12.4084 18.3585ZM2.3357 12.5396C2.57803 12.6856 2.74007 12.7966 2.90795 12.8929C5.39256 14.3323 7.883 15.7658 10.3647 17.2169C10.4999 17.3148 10.6626 17.3676 10.8296 17.3676C10.9966 17.3676 11.1593 17.3148 11.2946 17.2169C17.275 13.7484 23.2602 10.2876 29.2503 6.83468C29.4153 6.73979 29.5729 6.63468 29.7875 6.50184C26.992 4.88729 24.2709 3.30777 21.5337 1.7516C21.3877 1.66693 21.0826 1.72679 20.9118 1.82459C17.7732 3.62503 14.6351 5.4318 11.4975 7.24489L2.3357 12.5396ZM43.2601 23.4882C43.9696 23.4882 44.6791 23.4985 45.3871 23.4882C46.0951 23.478 46.5681 22.9963 46.5681 22.335C46.5681 21.6737 46.0893 21.2036 45.371 21.1978C43.9521 21.1881 42.5332 21.1881 41.1142 21.1978C40.3843 21.1978 39.9157 21.6576 39.9055 22.3218C39.8938 23.008 40.377 23.4766 41.1288 23.4897C41.8368 23.4941 42.5463 23.4868 43.2558 23.4868L43.2601 23.4882Z" fill="#C8C8C8"/>
<path d="M40.9947 37.0893C40.9947 37.6528 41.0035 38.2163 40.9947 38.7798C40.983 39.3637 40.7027 39.6557 40.1261 39.663C38.9991 39.6727 37.8722 39.6727 36.7452 39.663C36.1613 39.663 35.8693 39.371 35.8693 38.7944C35.8576 37.6674 35.8591 36.5404 35.8693 35.4135C35.8693 34.8295 36.1613 34.5376 36.7364 34.5376C37.8634 34.5269 38.9904 34.5269 40.1174 34.5376C40.7013 34.5376 40.9933 34.8222 41.0005 35.4047C41.0078 35.9872 40.9947 36.5258 40.9947 37.0893ZM39.4283 38.1112V36.0996H37.4152V38.1097L39.4283 38.1112Z" fill="#C8C8C8"/>
<path d="M38.0372 45.3476C38.1627 45.7329 38.316 46.1475 37.9218 46.4483C37.427 46.8234 36.8386 46.7256 36.3044 46.5738C35.8664 46.4497 35.8504 46.0205 35.8547 45.6205C35.8635 44.5841 35.8547 43.5461 35.8547 42.5097C35.8547 41.7987 36.1321 41.5287 36.8503 41.5258C37.9058 41.5258 38.9612 41.5331 40.0152 41.5258C40.4648 41.5258 40.8663 41.6601 40.9378 42.1097C41.021 42.6265 41.186 43.2162 40.6809 43.6425C40.2327 44.0206 39.7349 43.7885 39.3933 43.0819H37.4182V45.0994L37.9408 45.2541L38.0372 45.3476Z" fill="#C8C8C8"/>
<path d="M37.4094 29.1012V30.8938C37.7218 31.2617 37.9569 31.5055 38.1496 31.7814C38.2065 31.8617 38.1671 32.0339 38.1306 32.1507C37.9919 32.6003 37.5131 32.7595 36.6109 32.666C36.1438 32.6179 35.8693 32.3551 35.865 31.8865C35.8504 30.704 35.8504 29.5216 35.865 28.3391C35.865 27.8443 36.1482 27.5465 36.6445 27.5392C37.8255 27.5216 39.0079 27.5304 40.1904 27.5392C40.3751 27.5289 40.5572 27.5869 40.702 27.7021C40.8468 27.8173 40.9442 27.9817 40.9758 28.164C41.1217 28.7479 40.9758 29.3318 40.5831 29.4676C40.3407 29.5479 39.913 29.5523 39.7904 29.4063C39.4765 29.0326 39.1116 29.0618 38.7189 29.0647H37.5744C37.5185 29.0723 37.4633 29.0845 37.4094 29.1012Z" fill="#C8C8C8"/>
<path d="M39.7069 30.7713C40.4879 29.983 41.1945 29.2531 41.92 28.5407C42.3083 28.1582 42.828 28.1655 43.1127 28.5407C43.3973 28.9159 43.3477 29.2633 43.0411 29.5743C42.1361 30.4959 41.2237 31.4083 40.304 32.3114C39.9507 32.6589 39.5493 32.6559 39.1872 32.3114C38.777 31.926 38.3741 31.5304 37.9931 31.1158C37.6807 30.7757 37.653 30.3859 37.9931 30.0443C38.3332 29.7027 38.723 29.7261 39.0617 30.0443C39.2896 30.275 39.5049 30.5177 39.7069 30.7713Z" fill="#C8C8C8"/>
<path d="M38.037 45.3476L37.9407 45.2541C37.7158 44.8337 37.6224 44.3856 38.0866 44.0951C38.929 43.5608 39.2195 44.498 39.8048 44.8177C40.4953 44.1155 41.1873 43.3973 41.8968 42.6951C42.3347 42.2674 42.8734 42.2878 43.158 42.7214C43.2646 42.8614 43.3147 43.0362 43.2985 43.2114C43.2823 43.3866 43.2009 43.5493 43.0704 43.6673C42.1551 44.6002 41.2325 45.5286 40.2968 46.441C39.9421 46.787 39.545 46.768 39.1815 46.4322C38.818 46.0965 38.4166 45.7096 38.037 45.3476Z" fill="#C8C8C8"/>
<path d="M47.4441 29.3903C48.1886 29.3903 48.9331 29.3903 49.6776 29.3903C50.2454 29.3903 50.606 29.7085 50.5958 30.1684C50.5856 30.6282 50.2411 30.9143 49.7024 30.9158C48.1959 30.9236 46.6874 30.9236 45.177 30.9158C44.593 30.9158 44.2573 30.6121 44.266 30.1377C44.2748 29.6633 44.6091 29.3932 45.2047 29.3888C45.955 29.3859 46.6995 29.3903 47.4441 29.3903Z" fill="#C8C8C8"/>
<path d="M47.3885 37.9171C46.6586 37.9171 45.936 37.9171 45.209 37.9171C44.6164 37.9171 44.2791 37.6368 44.2718 37.1667C44.2645 36.6967 44.6018 36.393 45.1828 36.3901C46.6718 36.3843 48.1608 36.3843 49.6498 36.3901C50.2337 36.3901 50.587 36.6821 50.5958 37.139C50.6045 37.5959 50.2352 37.9142 49.6221 37.9171C48.8776 37.92 48.1331 37.9171 47.3885 37.9171Z" fill="#C8C8C8"/>
<path d="M47.444 43.3827C48.1739 43.3827 48.8965 43.3827 49.6221 43.3827C50.2367 43.3827 50.606 43.6849 50.5972 44.1593C50.5885 44.6337 50.2323 44.9082 49.6513 44.9111C48.1623 44.9111 46.6732 44.9111 45.1842 44.9111C44.6003 44.9111 44.266 44.6089 44.2733 44.1345C44.2806 43.66 44.6164 43.39 45.2105 43.3841C45.9536 43.3783 46.6981 43.3827 47.444 43.3827Z" fill="#C8C8C8"/>
</svg>
