<svg width="51" height="54" viewBox="0 0 51 54" fill="none" xmlns="http://www.w3.org/2000/svg">
<path d="M24.7844 54C24.6331 53.8921 24.476 53.7927 24.3137 53.7024C16.4838 49.8826 8.64923 46.068 0.809999 42.2586C0.224849 41.9765 -0.00139012 41.6097 6.42201e-06 40.9553C0.0167649 31.6287 0.0167649 22.3026 6.42201e-06 12.977C6.42201e-06 12.3169 0.238814 11.9614 0.819774 11.6793C8.69067 7.85957 16.555 4.02664 24.4129 0.180549C24.6233 0.0632385 24.8597 0.00170898 25.1 0.00170898C25.3403 0.00170898 25.5767 0.0632385 25.7871 0.180549C33.6608 4.03605 41.5405 7.87791 49.4263 11.7061C49.9947 11.9882 50.1972 12.3522 50.1958 12.9756C50.18 22.3022 50.18 31.6287 50.1958 40.9553C50.1958 41.6112 49.9668 41.9793 49.3858 42.2614C41.5475 46.0652 33.7134 49.8798 25.8834 53.7052C25.7206 53.7944 25.5625 53.8923 25.41 53.9986L24.7844 54ZM1.57949 13.8417V14.2465C1.57949 22.975 1.5753 31.703 1.56692 40.4305C1.56692 40.8227 1.75266 40.9397 2.02499 41.0737L23.7384 51.6528C23.9032 51.7332 24.0763 51.7939 24.3137 51.9011V32.2606C24.3137 29.9727 24.3137 27.6848 24.3207 25.3983C24.3207 25.0527 24.2341 24.8538 23.9018 24.7156C23.3711 24.497 22.8599 24.229 22.3488 23.968C21.8586 23.7169 21.6813 23.2627 21.8921 22.8396C22.103 22.4164 22.5304 22.3135 23.0205 22.5406C23.5582 22.7888 24.1001 23.0328 24.6154 23.3234C24.9589 23.5166 25.2355 23.4969 25.5846 23.3234C27.2046 22.5109 37.0823 17.6417 38.7121 16.8433C39.138 16.6332 39.522 16.6177 39.8293 17.0239C40.1365 17.4301 39.9689 17.9774 39.4019 18.2581C37.8071 19.0424 27.9755 23.9285 26.3667 24.6846C25.9896 24.8623 25.8737 25.0683 25.8737 25.4773C25.8867 34.0826 25.89 42.6869 25.8834 51.2903V51.9237C26.1223 51.8165 26.2787 51.753 26.4309 51.6782C33.6845 48.1434 40.9391 44.6105 48.1946 41.0794C48.5297 40.9172 48.6261 40.7225 48.6247 40.3614C48.6154 31.7035 48.613 23.046 48.6177 14.389V13.884C48.4892 13.9306 48.4068 13.9503 48.3384 13.987C46.1291 15.0632 43.9239 16.1479 41.7076 17.2087C41.3948 17.3596 41.3962 17.574 41.3962 17.8448C41.3962 20.7477 41.385 23.6507 41.4088 26.555C41.4088 27.1911 41.1755 27.5522 40.6113 27.8245C38.8601 28.6468 37.1284 29.5101 35.3883 30.355C34.4396 30.8158 33.9657 30.5139 33.9666 29.4494C33.9666 26.5818 33.9568 23.7127 33.975 20.8451C33.975 20.4402 33.873 20.2216 33.496 20.0382C25.9351 16.3652 18.3812 12.6841 10.8344 8.99506C10.5271 8.84413 10.2869 8.81028 9.9685 8.98519C9.31212 9.34488 8.62363 9.64673 7.9505 9.97257L2.62829 12.5722C2.84196 12.6836 2.99139 12.7655 3.14501 12.8402C8.50074 15.454 18.4664 20.3232 23.8236 22.9369C24.547 23.2896 24.7704 23.6803 24.54 24.1711C24.3096 24.662 23.8585 24.717 23.1351 24.3644C19.2248 22.4545 10.6933 18.2863 6.77741 16.3765L1.57949 13.8417ZM18.627 4.77047C18.8658 4.89601 18.9999 4.97218 19.1382 5.03989C26.3406 8.55403 33.5449 12.063 40.751 15.5668C40.9772 15.6591 41.2301 15.6591 41.4563 15.5668C43.2215 14.7332 44.9713 13.8741 46.7254 13.0165C46.9879 12.8882 47.2463 12.7528 47.5829 12.5821L44.7898 11.2195C38.3722 8.0862 31.9528 4.9576 25.5315 1.83371C25.3472 1.74485 25.0735 1.65316 24.9184 1.72651C22.8432 2.70684 20.7805 3.72102 18.627 4.77047ZM12.2756 7.91035C12.4027 7.99075 12.4585 8.03307 12.52 8.06269C19.8025 11.6144 27.0877 15.162 34.3758 18.7053C34.5906 18.7902 34.8297 18.7866 35.042 18.6954C36.3212 18.0973 37.5837 17.4668 38.8503 16.8433C38.9648 16.7869 39.071 16.715 39.2316 16.6191C38.9997 16.4978 38.8349 16.4061 38.666 16.3229C35.9567 15.0063 33.2465 13.687 30.5353 12.3649C26.1185 10.2095 21.7013 8.05658 17.2836 5.90596C17.0839 5.80863 16.7864 5.72259 16.6118 5.80299C15.1762 6.473 13.7587 7.18251 12.2756 7.91035ZM35.5279 28.4931C35.7486 28.4 35.891 28.352 36.0279 28.2815C37.1577 27.7342 38.2791 27.1742 39.4159 26.6438C39.7287 26.5028 39.8349 26.3194 39.8349 25.9668C39.8181 23.5392 39.8265 21.1117 39.8251 18.6855C39.8251 18.536 39.8083 18.3865 39.7958 18.1594C38.8182 18.6333 37.9286 19.1736 36.9706 19.5008C35.7779 19.9085 35.4204 20.5968 35.4944 21.8607C35.6201 24.0273 35.5279 26.2122 35.5279 28.4931Z" fill="#C8C8C8"/>
<path d="M4.25658 32.2324C4.39903 32.275 4.53891 32.3259 4.67554 32.3848C6.83366 33.4342 8.99131 34.4879 11.1485 35.5458C11.33 35.6347 11.5856 35.7701 11.6191 35.9238C11.6806 36.2186 11.7057 36.6037 11.5647 36.8393C11.3398 37.2159 10.9223 37.1905 10.5382 37.0029L6.03298 34.8038C5.297 34.4442 4.55823 34.0986 3.82784 33.7234C3.46195 33.5372 3.28319 33.2198 3.4005 32.8079C3.50664 32.4313 3.77059 32.2268 4.25658 32.2324Z" fill="#C8C8C8"/>
<path d="M7.83726 39.3698C7.54678 39.2626 7.3806 39.216 7.22558 39.1413C6.13256 38.6128 5.03907 38.0801 3.94511 37.5431C3.42001 37.2836 3.24684 36.8802 3.43677 36.4485C3.64346 35.9915 4.08058 35.8646 4.62523 36.1255C5.75363 36.6672 6.87877 37.2149 8.00066 37.7688C8.39169 37.9621 8.60676 38.3091 8.43778 38.7167C8.32885 38.9833 8.02999 39.1695 7.83726 39.3698Z" fill="#C8C8C8"/>
</svg>
