<svg xmlns="http://www.w3.org/2000/svg" viewBox="0 0 247.19 247.19"><defs><style>.cls-1{fill:#d05f5f;}</style></defs><g id="Capa_2" data-name="Capa 2"><g id="Capa_1-2" data-name="Capa 1"><path class="cls-1" d="M123.59,0a123.6,123.6,0,1,0,123.6,123.59A123.59,123.59,0,0,0,123.59,0ZM39.46,89.26h92.42a48.56,48.56,0,0,1,1.49-11.32H39.46V65.11h99.26a48.56,48.56,0,1,1,41.69,73.45c-1.47,0-2.93-.08-4.37-.21v7.5H39.46V133H157.91a48.85,48.85,0,0,1-19.61-18.87H39.46a12.45,12.45,0,0,1,0-24.9Zm168.27,92.81H39.46a12.45,12.45,0,0,1,0-24.9H207.73a12.45,12.45,0,1,1,0,24.9Z"/><path class="cls-1" d="M180.82,53a37.5,37.5,0,1,0,37.5,37.5A37.49,37.49,0,0,0,180.82,53Zm5.2,61.24a6.08,6.08,0,0,1-1.36,2,6.35,6.35,0,0,1-2,1.3,6.47,6.47,0,0,1-2.5.48,6.57,6.57,0,0,1-2.54-.48,6.16,6.16,0,0,1-2-1.3,6,6,0,0,1-1.34-2,6.13,6.13,0,0,1-.49-2.45,6,6,0,0,1,.49-2.44,6.05,6.05,0,0,1,1.34-2,6.2,6.2,0,0,1,2-1.32,6.39,6.39,0,0,1,2.54-.49,6.3,6.3,0,0,1,2.5.49,6.4,6.4,0,0,1,2,1.32,6.11,6.11,0,0,1,1.36,2,6,6,0,0,1,.49,2.44A6.13,6.13,0,0,1,186,114.22Zm9.82-32.61a13.46,13.46,0,0,1-1.92,3.5,15.25,15.25,0,0,1-2.56,2.58c-.94.73-1.82,1.4-2.65,2a19.26,19.26,0,0,0-2.18,1.84,4,4,0,0,0-1.18,2,7.55,7.55,0,0,0-.29,1.43,4.78,4.78,0,0,1-4.46,4.66c-4.43,0-4.41-4.68-4.51-4.94l-.26-1.91a5.06,5.06,0,0,1,.37-3.11A8.19,8.19,0,0,1,178,87.31a22.25,22.25,0,0,1,2.56-2,23.76,23.76,0,0,0,2.65-2.07,11.15,11.15,0,0,0,2.09-2.47,6,6,0,0,0,.86-3.25A4.41,4.41,0,0,0,184.71,74a5.67,5.67,0,0,0-3.94-1.29,10.88,10.88,0,0,0-3.21.4,12.34,12.34,0,0,0-2.22.89c-.61.32-1.15.62-1.61.89a2.8,2.8,0,0,1-1.38.4c-1,0-2.66-.44-3.16-1.33,0,0-1.78-2.31,1-6a8,8,0,0,1,3.17-2.43,21.75,21.75,0,0,1,3.91-1.16,23,23,0,0,1,4.52-.41,19.63,19.63,0,0,1,6.15.9,13.31,13.31,0,0,1,4.67,2.6,11.43,11.43,0,0,1,3,4.07,13.06,13.06,0,0,1,1,5.28A13.51,13.51,0,0,1,195.84,81.61Z"/></g></g></svg>