<svg width="32" height="33" viewBox="0 0 32 33" fill="none" xmlns="http://www.w3.org/2000/svg">
<path d="M0 31.3155C0.249338 30.328 0.49838 29.3408 0.747125 28.354C0.84597 27.9605 0.93591 27.5653 1.03743 27.1719C1.13894 26.7784 1.37492 26.6093 1.70174 26.6814C2.02855 26.7535 2.16212 27.0285 2.06951 27.4158C1.82997 28.4172 1.58508 29.4177 1.34287 30.4182C1.33307 30.4565 1.3304 30.4957 1.31615 30.5963L5.70362 28.9361C5.3216 28.4982 4.928 28.0949 4.58961 27.6499C3.51033 26.231 2.99206 24.6082 2.87986 22.8431C2.8291 22.0419 2.74629 21.2452 2.6884 20.4459C2.65635 19.9937 2.84068 19.7498 3.19242 19.74C3.54417 19.7302 3.71336 19.9501 3.75432 20.3827C3.87276 21.636 3.92708 22.9018 4.14436 24.1382C4.45247 25.8847 5.4053 27.2876 6.77132 28.4109C6.80163 28.4326 6.83632 28.4473 6.87294 28.454C6.90956 28.4608 6.94722 28.4595 6.98326 28.4501C8.98865 27.6964 10.992 26.938 12.9932 26.1749C12.9985 26.1749 12.9985 26.1598 13.0092 26.1259C12.7955 26.0147 12.5747 25.9052 12.3592 25.7868C7.73513 23.241 4.93542 19.375 3.96003 14.189C3.92798 13.97 3.97637 13.7467 4.09627 13.5606C4.17108 13.452 4.42843 13.4164 4.59495 13.4333C4.84162 13.4591 4.93779 13.6745 4.98766 13.9024C5.11589 14.4908 5.2085 15.0917 5.38482 15.6667C6.81436 20.3323 9.78268 23.6101 14.2898 25.5002C14.4 25.5551 14.5255 25.5711 14.646 25.5456C15.8446 25.1005 17.0378 24.6447 18.216 24.197C17.5116 23.8454 16.7912 23.5258 16.1144 23.1422C13.1571 21.4776 10.7376 19.1926 8.628 16.5613C7.49796 15.1504 6.49527 13.6567 5.83808 11.9601C5.51216 11.1207 5.26906 10.259 5.42667 9.34041C5.48116 9.04849 5.59447 8.7707 5.75971 8.52393C5.92496 8.27716 6.13869 8.06657 6.38791 7.90495C6.63714 7.74334 6.91664 7.63408 7.20942 7.58383C7.5022 7.53358 7.80216 7.54338 8.09103 7.61263C8.39291 7.68918 8.55142 7.9135 8.51135 8.20992C8.47306 8.49032 8.23796 8.67013 7.92896 8.655C7.81498 8.64787 7.701 8.62918 7.58701 8.63274C6.87996 8.65945 6.46766 9.06802 6.44273 9.77391C6.42047 10.4326 6.61014 11.0504 6.85057 11.6521C7.51577 13.3131 8.51847 14.7676 9.64495 16.1411C11.7991 18.768 14.28 21.0111 17.3121 22.5956C18.0815 22.9971 18.882 23.3184 19.7583 23.3967C19.9341 23.4123 20.1111 23.4096 20.2864 23.3887C20.8625 23.3184 21.2053 23.0086 21.1875 22.4265C21.1697 21.863 21.0272 21.304 20.9302 20.7441C20.9052 20.6017 20.8287 20.4681 20.8082 20.3266C20.7888 20.2051 20.8131 20.0807 20.8768 19.9753C20.9405 19.87 21.0394 19.7907 21.156 19.7513C21.2726 19.7119 21.3994 19.7151 21.5139 19.7603C21.6284 19.8055 21.7232 19.8898 21.7815 19.9981C22.1742 20.9542 22.4431 21.9369 22.1831 22.9775C22.0184 23.6371 21.5927 24.0884 20.9524 24.3287C18.9471 25.0809 16.9399 25.8268 14.9363 26.5844C10.2962 28.3379 5.65672 30.0939 1.01784 31.8522C0.430999 32.0721 0.32325 32.0454 0 31.6279V31.3155Z" fill="#693B70"/>
<path d="M3.31353 0C3.48094 0.186041 3.65192 0.368521 3.81221 0.559903C3.86573 0.624335 3.90381 0.70015 3.92352 0.78155C4.11943 1.59871 4.68222 1.88711 5.46675 1.87643C5.6231 1.8655 5.7799 1.89015 5.92535 1.94853C6.09009 2.02865 6.3047 2.14882 6.34923 2.29658C6.3684 2.39353 6.36689 2.49344 6.34479 2.58977C6.3227 2.6861 6.28051 2.77668 6.22099 2.85559C5.93426 3.19652 5.58251 3.4787 5.27885 3.80894C5.19179 3.91361 5.14869 4.04793 5.15863 4.18369C5.20672 4.58604 5.29043 4.98483 5.36078 5.38183C5.4053 5.63018 5.39551 5.86429 5.16932 6.02897C4.94313 6.19365 4.72407 6.1438 4.49611 6.02007C4.13991 5.82513 3.78371 5.62573 3.41861 5.45928C3.28298 5.4059 3.13215 5.4059 2.99651 5.45928C2.62696 5.62484 2.27254 5.82335 1.91723 6.01829C1.69105 6.14291 1.47199 6.19632 1.2458 6.02986C1.01962 5.8634 1.00448 5.66134 1.05078 5.41566C1.12648 5.00975 1.20306 4.60028 1.24669 4.18369C1.25501 4.03985 1.20892 3.89814 1.11757 3.78669C0.758701 3.39057 0.374898 3.01137 0 2.62505V2.31438C0.0651091 2.19674 0.159833 2.09814 0.274791 2.02835C0.389749 1.95856 0.520951 1.92 0.655404 1.91649C1.0386 1.88294 1.4193 1.82526 1.79524 1.7438C1.92798 1.71044 2.04316 1.62807 2.1176 1.51325C2.29569 1.19992 2.42482 0.850981 2.61716 0.54477C2.74807 0.340927 2.95377 0.17803 3.12564 0H3.31353ZM2.23781 4.59316C2.63319 4.43739 2.92973 4.22731 3.22359 4.23087C3.51745 4.23443 3.80954 4.45074 4.19156 4.60919C3.80954 3.84544 4.08648 3.298 4.69647 2.82889C3.86831 2.89298 3.42929 2.49953 3.24407 1.74113C3.04638 2.06692 2.93774 2.41497 2.70087 2.58944C2.464 2.76391 2.08821 2.78171 1.70084 2.88764C2.35358 3.29355 2.56017 3.84188 2.23781 4.59316Z" fill="#693B70"/>
<path d="M12.003 0C12.2977 0.153105 12.5809 0.314222 12.7154 0.647137C12.7975 0.837279 12.8225 1.04719 12.7875 1.25131C12.7524 1.45543 12.6588 1.64495 12.5179 1.79682C12.377 1.94869 12.195 2.05634 11.994 2.10668C11.7931 2.15702 11.5818 2.14787 11.3859 2.08035C11.19 2.01283 11.018 1.88985 10.8908 1.72637C10.7636 1.5629 10.6867 1.36598 10.6694 1.1596C10.6522 0.953211 10.6953 0.746256 10.7935 0.563925C10.8918 0.381593 11.041 0.231749 11.2229 0.132632C11.3119 0.0836739 11.4081 0.0436172 11.5007 0L12.003 0Z" fill="#693B70"/>
<path d="M26.8199 0C27.1823 0.236779 27.3666 1.00053 27.1075 1.34145C27.0572 1.41728 26.9881 1.47869 26.9068 1.51965C26.8256 1.56061 26.735 1.57969 26.6442 1.57502C26.5533 1.57035 26.4652 1.54208 26.3886 1.49301C26.312 1.44393 26.2494 1.37574 26.2072 1.29517C25.9775 0.915962 26.152 0.251912 26.5073 0H26.8199Z" fill="#693B70"/>
<path d="M28.5056 26.2389C27.4784 25.0822 26.0974 24.2976 24.5776 24.0073C24.1956 23.9316 23.9899 23.7135 24.0193 23.4162C24.054 23.0699 24.3586 22.8821 24.7629 22.9578C26.0491 23.1919 27.2567 23.7426 28.2768 24.56C28.6371 24.8431 28.9712 25.158 29.275 25.5009C29.836 26.1507 30.3757 26.8095 30.9972 27.4148C32.0979 28.4874 32.2769 30.289 31.5422 31.643C31.3641 31.9705 31.0783 32.088 30.796 31.9403C30.5137 31.7925 30.4246 31.4952 30.5938 31.1641C31.0159 30.3353 31.0257 29.5084 30.6072 28.6779C30.5777 28.6264 30.5446 28.577 30.5083 28.5301C30.4033 28.8968 30.3365 29.2627 30.1949 29.5983C29.8663 30.3754 29.2545 30.8116 28.4139 30.8748C27.5234 30.9424 26.8226 30.5712 26.3889 29.7897C25.9713 29.0339 26.0087 28.2675 26.5029 27.5492C26.9233 26.931 27.5577 26.4903 28.2839 26.3119C28.3444 26.2949 28.4014 26.2727 28.5056 26.2389ZM29.438 28.3832L29.4041 28.3672C29.3926 28.202 29.3714 28.0377 29.3409 27.875C29.2136 27.3551 28.9562 27.2154 28.4424 27.3729C27.9979 27.5014 27.6147 27.7859 27.3631 28.174C27.2832 28.2933 27.2283 28.4275 27.2016 28.5685C27.175 28.7096 27.1772 28.8546 27.2082 28.9947C27.2392 29.1349 27.2982 29.2673 27.3818 29.3841C27.4653 29.5008 27.5717 29.5994 27.6944 29.6739C27.8188 29.751 27.9581 29.8012 28.1032 29.821C28.2482 29.8409 28.3958 29.8301 28.5364 29.7893C28.6771 29.7485 28.8075 29.6787 28.9194 29.5843C29.0313 29.4899 29.1221 29.373 29.186 29.2413C29.3124 28.9752 29.3569 28.6708 29.438 28.3832Z" fill="#693B70"/>
<path d="M28.8102 10.6035C28.7861 10.9426 28.6187 11.0931 28.3863 11.2026C27.3711 11.6815 26.3586 12.1666 25.3453 12.6491L17.4884 16.3877C17.4245 16.4209 17.3588 16.4506 17.2916 16.4767C17.0049 16.5799 16.7173 16.4767 16.597 16.2266C16.566 16.1632 16.548 16.0944 16.5441 16.024C16.5402 15.9536 16.5504 15.8832 16.5741 15.8168C16.5978 15.7504 16.6346 15.6895 16.6823 15.6375C16.73 15.5856 16.7876 15.5437 16.8517 15.5144C17.419 15.2323 17.9951 14.967 18.5677 14.6946C21.6738 13.2152 24.7798 11.7349 27.8858 10.2537C28.1468 10.129 28.4023 10.0489 28.6312 10.2839C28.7064 10.381 28.7667 10.4887 28.8102 10.6035Z" fill="#693B70"/>
<path d="M13.3352 6.93787C13.3352 9.28608 12.9104 11.3281 12.0965 13.2917C11.859 13.8674 11.6189 14.4427 11.3761 15.0177C11.2131 15.4041 10.9308 15.5474 10.6218 15.413C10.3315 15.2866 10.2443 14.9839 10.3876 14.6118C10.8133 13.5187 11.3013 12.4443 11.6495 11.3272C12.3877 8.95939 12.4589 6.54264 11.9692 4.11076C11.9505 4.02174 11.9318 3.92739 11.9184 3.83481C11.8739 3.51614 12.0395 3.26245 12.3298 3.19925C12.6201 3.13605 12.8766 3.30785 12.9532 3.62741C13.2082 4.71241 13.3364 5.82332 13.3352 6.93787Z" fill="#693B70"/>
<path d="M20.0557 17.5733C22.7601 17.5885 24.7753 17.9294 26.7112 18.6495C26.8893 18.7154 27.0915 18.8703 27.1565 19.0332C27.2117 19.1774 27.1431 19.4622 27.0274 19.5539C26.941 19.6115 26.8439 19.6512 26.7418 19.6704C26.6398 19.6897 26.5349 19.6882 26.4334 19.6661C25.8297 19.5165 25.2464 19.2851 24.6426 19.132C22.2525 18.5285 19.8446 18.5089 17.4296 18.9628C17.0209 19.0394 16.6104 19.1079 16.1999 19.1738C15.833 19.2335 15.5596 19.0697 15.5053 18.7652C15.4447 18.4314 15.6397 18.1893 16.02 18.1234C17.565 17.8564 19.11 17.5618 20.0557 17.5733Z" fill="#693B70"/>
<path d="M23.4672 7.73453C23.4672 8.15023 23.4734 8.56771 23.4672 8.98073C23.461 9.39376 23.2749 9.5896 22.8492 9.59316C22.0181 9.60146 21.1849 9.60146 20.3496 9.59316C19.9266 9.59316 19.7369 9.3991 19.7334 8.97895C19.7262 8.13628 19.7262 7.29301 19.7334 6.44915C19.7334 6.04236 19.9266 5.86166 20.3345 5.85899C21.1786 5.85365 22.0222 5.85365 22.8652 5.85899C23.2731 5.85899 23.4574 6.04414 23.4654 6.45093C23.4734 6.87999 23.4672 7.30726 23.4672 7.73453ZM20.8153 8.50718H22.3764V6.9512H20.8153V8.50718Z" fill="#693B70"/>
<path d="M19.2667 10.6525C19.1483 10.8385 19.0886 11.0014 18.9729 11.1047C17.2305 12.682 15.4833 14.2546 13.7314 15.8224C13.4536 16.0708 13.1428 16.0512 12.93 15.802C12.7341 15.5687 12.7635 15.2679 13.0253 15.0275C14.7694 13.4538 16.5163 11.8812 18.2658 10.3098C18.4528 10.1415 18.6755 10.0578 18.8892 10.2056C19.0406 10.3053 19.1332 10.486 19.2667 10.6525Z" fill="#693B70"/>
<path d="M29.3275 22.3863C28.9103 22.3743 28.5144 22.1996 28.2244 21.8996C27.9344 21.5995 27.7735 21.1979 27.7759 20.7807C27.7783 20.3635 27.944 19.9638 28.2375 19.6672C28.531 19.3705 28.9289 19.2005 29.3462 19.1934C29.7671 19.1989 30.1691 19.3686 30.4666 19.6663C30.764 19.9639 30.9334 20.366 30.9384 20.7867C30.9388 20.9978 30.8973 21.2068 30.8163 21.4018C30.7354 21.5967 30.6166 21.7737 30.4668 21.9224C30.317 22.0711 30.1392 22.1887 29.9436 22.2684C29.7481 22.348 29.5387 22.3881 29.3275 22.3863ZM29.3498 20.2598C29.209 20.2598 29.0739 20.3153 28.9739 20.4143C28.8738 20.5133 28.8169 20.6478 28.8155 20.7885C28.8128 20.8562 28.8234 20.9237 28.8469 20.9873C28.8704 21.0508 28.9062 21.1091 28.9523 21.1587C28.9984 21.2084 29.0539 21.2484 29.1155 21.2765C29.1772 21.3046 29.2438 21.3203 29.3115 21.3226C29.3816 21.3263 29.4518 21.3162 29.518 21.2928C29.5842 21.2694 29.6451 21.2332 29.6973 21.1862C29.7495 21.1393 29.7919 21.0825 29.8221 21.0191C29.8523 20.9558 29.8698 20.8871 29.8734 20.817C29.8759 20.6742 29.8226 20.5362 29.7248 20.4321C29.627 20.3281 29.4925 20.2662 29.3498 20.2598Z" fill="#693B70"/>
<path d="M18.1331 5.86075C18.1336 6.07023 18.0928 6.27775 18.013 6.47146C17.9333 6.66517 17.8161 6.84128 17.6683 6.98973C17.5204 7.13819 17.3448 7.25608 17.1513 7.33667C16.9579 7.41727 16.7505 7.45899 16.5409 7.45946C16.3314 7.45993 16.1238 7.41913 15.93 7.3394C15.7362 7.25967 15.56 7.14256 15.4115 6.99477C15.1116 6.69629 14.9425 6.29093 14.9416 5.86787C14.9406 5.44482 15.1079 5.03871 15.4065 4.73889C15.7051 4.43908 16.1106 4.27011 16.5338 4.26917C16.957 4.26822 17.3633 4.43538 17.6632 4.73386C17.9632 5.03234 18.1322 5.43769 18.1331 5.86075ZM17.0645 5.87945C17.0753 5.80431 17.07 5.72773 17.0488 5.65481C17.0277 5.5819 16.9913 5.51433 16.9419 5.45661C16.8926 5.39889 16.8315 5.35234 16.7628 5.32007C16.6941 5.2878 16.6192 5.27055 16.5433 5.26946C16.4674 5.26838 16.3921 5.28349 16.3224 5.31378C16.2528 5.34408 16.1904 5.38886 16.1395 5.44515C16.0885 5.50144 16.0502 5.56794 16.0269 5.64022C16.0037 5.7125 15.9962 5.78889 16.0048 5.86431C16.0196 5.99327 16.0809 6.11244 16.1772 6.19953C16.2735 6.28662 16.3982 6.33568 16.528 6.33753C16.6579 6.33939 16.7839 6.29391 16.8827 6.2096C16.9814 6.1253 17.0461 6.00793 17.0645 5.87945Z" fill="#693B70"/>
<path d="M29.3267 8.27838C29.3311 8.81247 29.161 9.06705 28.8004 9.06527C28.4397 9.06349 28.2661 8.79823 28.2661 8.27393C28.2599 8.14962 28.2659 8.025 28.2839 7.90185C28.3052 7.77134 28.3763 7.65418 28.4823 7.575C28.5882 7.49581 28.7208 7.46077 28.852 7.47725C28.9787 7.48269 29.0985 7.53632 29.1869 7.62717C29.2753 7.71802 29.3256 7.83921 29.3276 7.96594C29.3347 8.06653 29.3267 8.17067 29.3267 8.27838Z" fill="#693B70"/>
<path d="M28.0087 1.60939C28.543 1.60405 28.8022 1.77406 28.8031 2.13101C28.8039 2.48796 28.5359 2.67311 28.0123 2.67133C27.8881 2.67527 27.7637 2.66752 27.641 2.64819C27.5153 2.63073 27.4009 2.56664 27.3203 2.46867C27.2398 2.3707 27.1991 2.24603 27.2064 2.11944C27.2072 1.98837 27.2582 1.86259 27.349 1.76803C27.4398 1.67346 27.5634 1.61732 27.6944 1.61117C27.8004 1.60227 27.9054 1.60939 28.0087 1.60939Z" fill="#693B70"/>
<path d="M31.2056 8.66908C31.21 9.11416 30.6419 9.71679 30.3097 9.67406C30.1486 9.65359 29.9349 9.53787 29.869 9.40702C29.8346 9.32026 29.8189 9.22727 29.8227 9.13405C29.8265 9.04083 29.8499 8.94945 29.8912 8.86581C30.0098 8.65859 30.1812 8.48656 30.3881 8.36732C30.4722 8.32694 30.5634 8.30377 30.6566 8.29919C30.7497 8.2946 30.8428 8.30869 30.9304 8.34062C31.0711 8.39759 31.1522 8.59965 31.2056 8.66908Z" fill="#693B70"/>
<path d="M31.202 11.1937C30.6678 11.1937 30.4095 11.0263 30.4006 10.6703C30.3917 10.3142 30.6615 10.1282 31.2163 10.1282C31.739 10.1282 32.0053 10.3133 31.9999 10.6712C31.9946 11.029 31.7408 11.1937 31.202 11.1937Z" fill="#693B70"/>
<path d="M29.3276 13.0853C29.3276 13.6113 29.1495 13.8766 28.7933 13.8659C28.4371 13.8552 28.2679 13.5989 28.2688 13.0924C28.2629 12.9679 28.2674 12.8432 28.2821 12.7194C28.302 12.5894 28.3691 12.4713 28.4706 12.3877C28.5722 12.3041 28.701 12.2609 28.8325 12.2663C28.9631 12.2753 29.0859 12.332 29.1775 12.4255C29.2691 12.5191 29.3231 12.643 29.3294 12.7737C29.3347 12.8743 29.3276 12.9784 29.3276 13.0853Z" fill="#693B70"/>
<path d="M27.1993 3.48397C27.1993 3.54628 27.1993 3.60859 27.1993 3.67091C27.1886 4.04121 26.9838 4.26285 26.6587 4.25662C26.3506 4.25128 26.1485 4.03141 26.136 3.6807C26.1307 3.5356 26.1298 3.38962 26.136 3.24452C26.1494 2.8947 26.3542 2.6775 26.665 2.67483C26.9757 2.67216 27.1841 2.8849 27.1993 3.23473C27.2019 3.31752 27.1993 3.40119 27.1993 3.48397Z" fill="#693B70"/>
<path d="M25.3292 2.67044C25.2464 2.67044 25.1627 2.67756 25.0799 2.67044C24.7379 2.63661 24.5296 2.41319 24.5456 2.1043C24.5607 1.80967 24.7727 1.62273 25.1128 1.60938C25.2678 1.60315 25.4245 1.60226 25.5795 1.60938C25.9134 1.62541 26.1244 1.8248 26.1325 2.12033C26.1405 2.41586 25.9339 2.63305 25.6088 2.66866C25.5157 2.67356 25.4224 2.67356 25.3292 2.66866V2.67044Z" fill="#693B70"/>
<path d="M26.3907 8.7947C26.3827 8.4146 26.8074 8.11284 27.1262 8.31224C27.3788 8.47221 27.5938 8.68475 27.7567 8.93534C27.9615 9.25401 27.6676 9.6795 27.2892 9.68039C26.974 9.68306 26.3969 9.11248 26.3907 8.7947Z" fill="#693B70"/>
<path d="M31.2092 12.6401C31.1584 12.7122 31.0854 12.9187 30.942 12.9828C30.8555 13.019 30.7625 13.037 30.6687 13.0356C30.5749 13.0342 30.4824 13.0135 30.397 12.9748C30.1832 12.8468 30.005 12.6671 29.8788 12.4523C29.8394 12.3721 29.8179 12.2843 29.8159 12.195C29.814 12.1057 29.8314 12.017 29.8672 11.9351C29.919 11.8616 29.9851 11.7995 30.0617 11.7523C30.1382 11.7052 30.2235 11.6741 30.3124 11.6609C30.633 11.6111 31.1985 12.195 31.2092 12.6401Z" fill="#693B70"/>
</svg>
